<svg xmlns="http://www.w3.org/2000/svg" xmlns:dc="http://purl.org/dc/elements/1.1/" xmlns:ns2="http://creativecommons.org/ns#" xmlns:ns4="http://www.w3.org/1999/xlink" xmlns:rdf="http://www.w3.org/1999/02/22-rdf-syntax-ns#" width="965.176875pt" height="374.109531pt" viewBox="0 0 965.176875 374.109531" version="1.1">
 <title>Creator-economy payment concentration by percentile (global, 2025)</title><desc>Creator-economy payment concentration by percentile (global, 2025). Source: CreatorIQ State of Creator Compensation 2026. Global data, not India-specific. Derived from reported top-1% (21%) and top-10% (62%) shares. Actual distribution within the bottom 90% is illustrative.</desc><metadata>
  <rdf:RDF>
   <ns2:Work>
    <dc:type rdf:resource="http://purl.org/dc/dcmitype/StillImage" />
    <dc:date>2026-07-05T08:48:41.209729</dc:date>
    <dc:format>image/svg+xml</dc:format>
    <dc:creator>
     <ns2:Agent>
      <dc:title>Matplotlib v3.9.4, https://matplotlib.org/</dc:title>
     </ns2:Agent>
    </dc:creator>
   </ns2:Work>
  </rdf:RDF>
 </metadata>
 <defs>
  <style type="text/css">*{stroke-linejoin: round; stroke-linecap: butt}</style>
 </defs>
 <g id="figure_1">
  <g id="patch_1">
   <path d="M 0 374.109531  L 965.176875 374.109531  L 965.176875 0  L 0 0  z " style="fill: #ffffff" />
  </g>
  <g id="axes_1">
   <g id="patch_2">
    <path d="M 266.588437 311.037812  L 712.988437 311.037812  L 712.988437 33.837812  L 266.588437 33.837812  z " style="fill: #ffffff" />
   </g>
   <g id="patch_3">
    <path d="M 286.879347 311.037812  L 402.827399 311.037812  L 402.827399 192.720739  L 286.879347 192.720739  z " clip-path="url(#p4f766631ef)" style="fill: #2563eb; stroke: #ffffff; stroke-linejoin: miter" />
   </g>
   <g id="patch_4">
    <path d="M 431.814412 311.037812  L 547.762463 311.037812  L 547.762463 80.037812  L 431.814412 80.037812  z " clip-path="url(#p4f766631ef)" style="fill: #7c3aed; stroke: #ffffff; stroke-linejoin: miter" />
   </g>
   <g id="patch_5">
    <path d="M 576.749476 311.037812  L 692.697528 311.037812  L 692.697528 96.940252  L 576.749476 96.940252  z " clip-path="url(#p4f766631ef)" style="fill: #059669; stroke: #ffffff; stroke-linejoin: miter" />
   </g>
   <g id="matplotlib.axis_1">
    <g id="xtick_1">
     <g id="line2d_1">
      <defs>
       <path id="m3044bd0797" d="M 0 0  L 0 3.5  " style="stroke: #000000; stroke-width: 0.8" />
      </defs>
      <g>
       <use ns4:href="#m3044bd0797" x="344.853373" y="311.037812" style="stroke: #000000; stroke-width: 0.8" />
      </g>
     </g>
     <g id="text_1">
      
      <g transform="translate(326.894779 325.63625) scale(0.1 -0.1)">
       <defs>
        <path id="DejaVuSans-54" d="M -19 4666  L 3928 4666  L 3928 4134  L 2272 4134  L 2272 0  L 1638 0  L 1638 4134  L -19 4134  L -19 4666  z " transform="scale(0.015625)" />
        <path id="DejaVuSans-6f" d="M 1959 3097  Q 1497 3097 1228 2736  Q 959 2375 959 1747  Q 959 1119 1226 758  Q 1494 397 1959 397  Q 2419 397 2687 759  Q 2956 1122 2956 1747  Q 2956 2369 2687 2733  Q 2419 3097 1959 3097  z M 1959 3584  Q 2709 3584 3137 3096  Q 3566 2609 3566 1747  Q 3566 888 3137 398  Q 2709 -91 1959 -91  Q 1206 -91 779 398  Q 353 888 353 1747  Q 353 2609 779 3096  Q 1206 3584 1959 3584  z " transform="scale(0.015625)" />
        <path id="DejaVuSans-70" d="M 1159 525  L 1159 -1331  L 581 -1331  L 581 3500  L 1159 3500  L 1159 2969  Q 1341 3281 1617 3432  Q 1894 3584 2278 3584  Q 2916 3584 3314 3078  Q 3713 2572 3713 1747  Q 3713 922 3314 415  Q 2916 -91 2278 -91  Q 1894 -91 1617 61  Q 1341 213 1159 525  z M 3116 1747  Q 3116 2381 2855 2742  Q 2594 3103 2138 3103  Q 1681 3103 1420 2742  Q 1159 2381 1159 1747  Q 1159 1113 1420 752  Q 1681 391 2138 391  Q 2594 391 2855 752  Q 3116 1113 3116 1747  z " transform="scale(0.015625)" />
        <path id="DejaVuSans-20" transform="scale(0.015625)" />
        <path id="DejaVuSans-31" d="M 794 531  L 1825 531  L 1825 4091  L 703 3866  L 703 4441  L 1819 4666  L 2450 4666  L 2450 531  L 3481 531  L 3481 0  L 794 0  L 794 531  z " transform="scale(0.015625)" />
        <path id="DejaVuSans-25" d="M 4653 2053  Q 4381 2053 4226 1822  Q 4072 1591 4072 1178  Q 4072 772 4226 539  Q 4381 306 4653 306  Q 4919 306 5073 539  Q 5228 772 5228 1178  Q 5228 1588 5073 1820  Q 4919 2053 4653 2053  z M 4653 2450  Q 5147 2450 5437 2106  Q 5728 1763 5728 1178  Q 5728 594 5436 251  Q 5144 -91 4653 -91  Q 4153 -91 3862 251  Q 3572 594 3572 1178  Q 3572 1766 3864 2108  Q 4156 2450 4653 2450  z M 1428 4353  Q 1159 4353 1004 4120  Q 850 3888 850 3481  Q 850 3069 1003 2837  Q 1156 2606 1428 2606  Q 1700 2606 1854 2837  Q 2009 3069 2009 3481  Q 2009 3884 1853 4118  Q 1697 4353 1428 4353  z M 4250 4750  L 4750 4750  L 1831 -91  L 1331 -91  L 4250 4750  z M 1428 4750  Q 1922 4750 2215 4408  Q 2509 4066 2509 3481  Q 2509 2891 2217 2550  Q 1925 2209 1428 2209  Q 931 2209 642 2551  Q 353 2894 353 3481  Q 353 4063 643 4406  Q 934 4750 1428 4750  z " transform="scale(0.015625)" />
       </defs>
       <use ns4:href="#DejaVuSans-54" />
       <use ns4:href="#DejaVuSans-6f" x="44.083984" />
       <use ns4:href="#DejaVuSans-70" x="105.265625" />
       <use ns4:href="#DejaVuSans-20" x="168.742188" />
       <use ns4:href="#DejaVuSans-31" x="200.529297" />
       <use ns4:href="#DejaVuSans-25" x="264.152344" />
      </g>
     </g>
    </g>
    <g id="xtick_2">
     <g id="line2d_2">
      <g>
       <use ns4:href="#m3044bd0797" x="489.788437" y="311.037812" style="stroke: #000000; stroke-width: 0.8" />
      </g>
     </g>
     <g id="text_2">
      
      <g transform="translate(437.713437 325.63625) scale(0.1 -0.1)">
       <defs>
        <path id="DejaVuSans-39" d="M 703 97  L 703 672  Q 941 559 1184 500  Q 1428 441 1663 441  Q 2288 441 2617 861  Q 2947 1281 2994 2138  Q 2813 1869 2534 1725  Q 2256 1581 1919 1581  Q 1219 1581 811 2004  Q 403 2428 403 3163  Q 403 3881 828 4315  Q 1253 4750 1959 4750  Q 2769 4750 3195 4129  Q 3622 3509 3622 2328  Q 3622 1225 3098 567  Q 2575 -91 1691 -91  Q 1453 -91 1209 -44  Q 966 3 703 97  z M 1959 2075  Q 2384 2075 2632 2365  Q 2881 2656 2881 3163  Q 2881 3666 2632 3958  Q 2384 4250 1959 4250  Q 1534 4250 1286 3958  Q 1038 3666 1038 3163  Q 1038 2656 1286 2365  Q 1534 2075 1959 2075  z " transform="scale(0.015625)" />
        <path id="DejaVuSans-30" d="M 2034 4250  Q 1547 4250 1301 3770  Q 1056 3291 1056 2328  Q 1056 1369 1301 889  Q 1547 409 2034 409  Q 2525 409 2770 889  Q 3016 1369 3016 2328  Q 3016 3291 2770 3770  Q 2525 4250 2034 4250  z M 2034 4750  Q 2819 4750 3233 4129  Q 3647 3509 3647 2328  Q 3647 1150 3233 529  Q 2819 -91 2034 -91  Q 1250 -91 836 529  Q 422 1150 422 2328  Q 422 3509 836 4129  Q 1250 4750 2034 4750  z " transform="scale(0.015625)" />
        <path id="DejaVuSans-74" d="M 1172 4494  L 1172 3500  L 2356 3500  L 2356 3053  L 1172 3053  L 1172 1153  Q 1172 725 1289 603  Q 1406 481 1766 481  L 2356 481  L 2356 0  L 1766 0  Q 1100 0 847 248  Q 594 497 594 1153  L 594 3053  L 172 3053  L 172 3500  L 594 3500  L 594 4494  L 1172 4494  z " transform="scale(0.015625)" />
        <path id="DejaVuSans-68" d="M 3513 2113  L 3513 0  L 2938 0  L 2938 2094  Q 2938 2591 2744 2837  Q 2550 3084 2163 3084  Q 1697 3084 1428 2787  Q 1159 2491 1159 1978  L 1159 0  L 581 0  L 581 4863  L 1159 4863  L 1159 2956  Q 1366 3272 1645 3428  Q 1925 3584 2291 3584  Q 2894 3584 3203 3211  Q 3513 2838 3513 2113  z " transform="scale(0.015625)" />
        <path id="DejaVuSans-2013" d="M 313 1978  L 2888 1978  L 2888 1528  L 313 1528  L 313 1978  z " transform="scale(0.015625)" />
        <path id="DejaVuSans-65" d="M 3597 1894  L 3597 1613  L 953 1613  Q 991 1019 1311 708  Q 1631 397 2203 397  Q 2534 397 2845 478  Q 3156 559 3463 722  L 3463 178  Q 3153 47 2828 -22  Q 2503 -91 2169 -91  Q 1331 -91 842 396  Q 353 884 353 1716  Q 353 2575 817 3079  Q 1281 3584 2069 3584  Q 2775 3584 3186 3129  Q 3597 2675 3597 1894  z M 3022 2063  Q 3016 2534 2758 2815  Q 2500 3097 2075 3097  Q 1594 3097 1305 2825  Q 1016 2553 972 2059  L 3022 2063  z " transform="scale(0.015625)" />
        <path id="DejaVuSans-72" d="M 2631 2963  Q 2534 3019 2420 3045  Q 2306 3072 2169 3072  Q 1681 3072 1420 2755  Q 1159 2438 1159 1844  L 1159 0  L 581 0  L 581 3500  L 1159 3500  L 1159 2956  Q 1341 3275 1631 3429  Q 1922 3584 2338 3584  Q 2397 3584 2469 3576  Q 2541 3569 2628 3553  L 2631 2963  z " transform="scale(0.015625)" />
        <path id="DejaVuSans-63" d="M 3122 3366  L 3122 2828  Q 2878 2963 2633 3030  Q 2388 3097 2138 3097  Q 1578 3097 1268 2742  Q 959 2388 959 1747  Q 959 1106 1268 751  Q 1578 397 2138 397  Q 2388 397 2633 464  Q 2878 531 3122 666  L 3122 134  Q 2881 22 2623 -34  Q 2366 -91 2075 -91  Q 1284 -91 818 406  Q 353 903 353 1747  Q 353 2603 823 3093  Q 1294 3584 2113 3584  Q 2378 3584 2631 3529  Q 2884 3475 3122 3366  z " transform="scale(0.015625)" />
        <path id="DejaVuSans-6e" d="M 3513 2113  L 3513 0  L 2938 0  L 2938 2094  Q 2938 2591 2744 2837  Q 2550 3084 2163 3084  Q 1697 3084 1428 2787  Q 1159 2491 1159 1978  L 1159 0  L 581 0  L 581 3500  L 1159 3500  L 1159 2956  Q 1366 3272 1645 3428  Q 1925 3584 2291 3584  Q 2894 3584 3203 3211  Q 3513 2838 3513 2113  z " transform="scale(0.015625)" />
        <path id="DejaVuSans-69" d="M 603 3500  L 1178 3500  L 1178 0  L 603 0  L 603 3500  z M 603 4863  L 1178 4863  L 1178 4134  L 603 4134  L 603 4863  z " transform="scale(0.015625)" />
        <path id="DejaVuSans-6c" d="M 603 4863  L 1178 4863  L 1178 0  L 603 0  L 603 4863  z " transform="scale(0.015625)" />
       </defs>
       <use ns4:href="#DejaVuSans-39" />
       <use ns4:href="#DejaVuSans-30" x="63.623047" />
       <use ns4:href="#DejaVuSans-74" x="127.246094" />
       <use ns4:href="#DejaVuSans-68" x="166.455078" />
       <use ns4:href="#DejaVuSans-2013" x="229.833984" />
       <use ns4:href="#DejaVuSans-39" x="279.833984" />
       <use ns4:href="#DejaVuSans-39" x="343.457031" />
       <use ns4:href="#DejaVuSans-74" x="407.080078" />
       <use ns4:href="#DejaVuSans-68" x="446.289062" />
       <use ns4:href="#DejaVuSans-20" x="509.667969" />
       <use ns4:href="#DejaVuSans-70" x="541.455078" />
       <use ns4:href="#DejaVuSans-65" x="604.931641" />
       <use ns4:href="#DejaVuSans-72" x="666.455078" />
       <use ns4:href="#DejaVuSans-63" x="705.318359" />
       <use ns4:href="#DejaVuSans-65" x="760.298828" />
       <use ns4:href="#DejaVuSans-6e" x="821.822266" />
       <use ns4:href="#DejaVuSans-74" x="885.201172" />
       <use ns4:href="#DejaVuSans-69" x="924.410156" />
       <use ns4:href="#DejaVuSans-6c" x="952.193359" />
       <use ns4:href="#DejaVuSans-65" x="979.976562" />
      </g>
     </g>
    </g>
    <g id="xtick_3">
     <g id="line2d_3">
      <g>
       <use ns4:href="#m3044bd0797" x="634.723502" y="311.037812" style="stroke: #000000; stroke-width: 0.8" />
      </g>
     </g>
     <g id="text_3">
      
      <g transform="translate(603.681315 325.63625) scale(0.1 -0.1)">
       <defs>
        <path id="DejaVuSans-42" d="M 1259 2228  L 1259 519  L 2272 519  Q 2781 519 3026 730  Q 3272 941 3272 1375  Q 3272 1813 3026 2020  Q 2781 2228 2272 2228  L 1259 2228  z M 1259 4147  L 1259 2741  L 2194 2741  Q 2656 2741 2882 2914  Q 3109 3088 3109 3444  Q 3109 3797 2882 3972  Q 2656 4147 2194 4147  L 1259 4147  z M 628 4666  L 2241 4666  Q 2963 4666 3353 4366  Q 3744 4066 3744 3513  Q 3744 3084 3544 2831  Q 3344 2578 2956 2516  Q 3422 2416 3680 2098  Q 3938 1781 3938 1306  Q 3938 681 3513 340  Q 3088 0 2303 0  L 628 0  L 628 4666  z " transform="scale(0.015625)" />
        <path id="DejaVuSans-6d" d="M 3328 2828  Q 3544 3216 3844 3400  Q 4144 3584 4550 3584  Q 5097 3584 5394 3201  Q 5691 2819 5691 2113  L 5691 0  L 5113 0  L 5113 2094  Q 5113 2597 4934 2840  Q 4756 3084 4391 3084  Q 3944 3084 3684 2787  Q 3425 2491 3425 1978  L 3425 0  L 2847 0  L 2847 2094  Q 2847 2600 2669 2842  Q 2491 3084 2119 3084  Q 1678 3084 1418 2786  Q 1159 2488 1159 1978  L 1159 0  L 581 0  L 581 3500  L 1159 3500  L 1159 2956  Q 1356 3278 1631 3431  Q 1906 3584 2284 3584  Q 2666 3584 2933 3390  Q 3200 3197 3328 2828  z " transform="scale(0.015625)" />
       </defs>
       <use ns4:href="#DejaVuSans-42" />
       <use ns4:href="#DejaVuSans-6f" x="68.603516" />
       <use ns4:href="#DejaVuSans-74" x="129.785156" />
       <use ns4:href="#DejaVuSans-74" x="168.994141" />
       <use ns4:href="#DejaVuSans-6f" x="208.203125" />
       <use ns4:href="#DejaVuSans-6d" x="269.384766" />
       <use ns4:href="#DejaVuSans-20" x="366.796875" />
       <use ns4:href="#DejaVuSans-39" x="398.583984" />
       <use ns4:href="#DejaVuSans-30" x="462.207031" />
       <use ns4:href="#DejaVuSans-25" x="525.830078" />
      </g>
     </g>
    </g>
   </g>
   <g id="matplotlib.axis_2">
    <g id="ytick_1">
     <g id="line2d_4">
      <defs>
       <path id="m9d060bea0b" d="M 0 0  L -3.5 0  " style="stroke: #000000; stroke-width: 0.8" />
      </defs>
      <g>
       <use ns4:href="#m9d060bea0b" x="266.588437" y="311.037812" style="stroke: #000000; stroke-width: 0.8" />
      </g>
     </g>
     <g id="text_4">
      
      <g transform="translate(253.225937 314.837031) scale(0.1 -0.1)">
       <use ns4:href="#DejaVuSans-30" />
      </g>
     </g>
    </g>
    <g id="ytick_2">
     <g id="line2d_5">
      <g>
       <use ns4:href="#m9d060bea0b" x="266.588437" y="254.696349" style="stroke: #000000; stroke-width: 0.8" />
      </g>
     </g>
     <g id="text_5">
      
      <g transform="translate(246.863438 258.495568) scale(0.1 -0.1)">
       <use ns4:href="#DejaVuSans-31" />
       <use ns4:href="#DejaVuSans-30" x="63.623047" />
      </g>
     </g>
    </g>
    <g id="ytick_3">
     <g id="line2d_6">
      <g>
       <use ns4:href="#m9d060bea0b" x="266.588437" y="198.354886" style="stroke: #000000; stroke-width: 0.8" />
      </g>
     </g>
     <g id="text_6">
      
      <g transform="translate(246.863438 202.154104) scale(0.1 -0.1)">
       <defs>
        <path id="DejaVuSans-32" d="M 1228 531  L 3431 531  L 3431 0  L 469 0  L 469 531  Q 828 903 1448 1529  Q 2069 2156 2228 2338  Q 2531 2678 2651 2914  Q 2772 3150 2772 3378  Q 2772 3750 2511 3984  Q 2250 4219 1831 4219  Q 1534 4219 1204 4116  Q 875 4013 500 3803  L 500 4441  Q 881 4594 1212 4672  Q 1544 4750 1819 4750  Q 2544 4750 2975 4387  Q 3406 4025 3406 3419  Q 3406 3131 3298 2873  Q 3191 2616 2906 2266  Q 2828 2175 2409 1742  Q 1991 1309 1228 531  z " transform="scale(0.015625)" />
       </defs>
       <use ns4:href="#DejaVuSans-32" />
       <use ns4:href="#DejaVuSans-30" x="63.623047" />
      </g>
     </g>
    </g>
    <g id="ytick_4">
     <g id="line2d_7">
      <g>
       <use ns4:href="#m9d060bea0b" x="266.588437" y="142.013422" style="stroke: #000000; stroke-width: 0.8" />
      </g>
     </g>
     <g id="text_7">
      
      <g transform="translate(246.863438 145.812641) scale(0.1 -0.1)">
       <defs>
        <path id="DejaVuSans-33" d="M 2597 2516  Q 3050 2419 3304 2112  Q 3559 1806 3559 1356  Q 3559 666 3084 287  Q 2609 -91 1734 -91  Q 1441 -91 1130 -33  Q 819 25 488 141  L 488 750  Q 750 597 1062 519  Q 1375 441 1716 441  Q 2309 441 2620 675  Q 2931 909 2931 1356  Q 2931 1769 2642 2001  Q 2353 2234 1838 2234  L 1294 2234  L 1294 2753  L 1863 2753  Q 2328 2753 2575 2939  Q 2822 3125 2822 3475  Q 2822 3834 2567 4026  Q 2313 4219 1838 4219  Q 1578 4219 1281 4162  Q 984 4106 628 3988  L 628 4550  Q 988 4650 1302 4700  Q 1616 4750 1894 4750  Q 2613 4750 3031 4423  Q 3450 4097 3450 3541  Q 3450 3153 3228 2886  Q 3006 2619 2597 2516  z " transform="scale(0.015625)" />
       </defs>
       <use ns4:href="#DejaVuSans-33" />
       <use ns4:href="#DejaVuSans-30" x="63.623047" />
      </g>
     </g>
    </g>
    <g id="ytick_5">
     <g id="line2d_8">
      <g>
       <use ns4:href="#m9d060bea0b" x="266.588437" y="85.671959" style="stroke: #000000; stroke-width: 0.8" />
      </g>
     </g>
     <g id="text_8">
      
      <g transform="translate(246.863438 89.471178) scale(0.1 -0.1)">
       <defs>
        <path id="DejaVuSans-34" d="M 2419 4116  L 825 1625  L 2419 1625  L 2419 4116  z M 2253 4666  L 3047 4666  L 3047 1625  L 3713 1625  L 3713 1100  L 3047 1100  L 3047 0  L 2419 0  L 2419 1100  L 313 1100  L 313 1709  L 2253 4666  z " transform="scale(0.015625)" />
       </defs>
       <use ns4:href="#DejaVuSans-34" />
       <use ns4:href="#DejaVuSans-30" x="63.623047" />
      </g>
     </g>
    </g>
    <g id="text_9">
     
     <g transform="translate(240.78375 262.500313) rotate(-90) scale(0.1 -0.1)">
      <defs>
       <path id="DejaVuSans-53" d="M 3425 4513  L 3425 3897  Q 3066 4069 2747 4153  Q 2428 4238 2131 4238  Q 1616 4238 1336 4038  Q 1056 3838 1056 3469  Q 1056 3159 1242 3001  Q 1428 2844 1947 2747  L 2328 2669  Q 3034 2534 3370 2195  Q 3706 1856 3706 1288  Q 3706 609 3251 259  Q 2797 -91 1919 -91  Q 1588 -91 1214 -16  Q 841 59 441 206  L 441 856  Q 825 641 1194 531  Q 1563 422 1919 422  Q 2459 422 2753 634  Q 3047 847 3047 1241  Q 3047 1584 2836 1778  Q 2625 1972 2144 2069  L 1759 2144  Q 1053 2284 737 2584  Q 422 2884 422 3419  Q 422 4038 858 4394  Q 1294 4750 2059 4750  Q 2388 4750 2728 4690  Q 3069 4631 3425 4513  z " transform="scale(0.015625)" />
       <path id="DejaVuSans-61" d="M 2194 1759  Q 1497 1759 1228 1600  Q 959 1441 959 1056  Q 959 750 1161 570  Q 1363 391 1709 391  Q 2188 391 2477 730  Q 2766 1069 2766 1631  L 2766 1759  L 2194 1759  z M 3341 1997  L 3341 0  L 2766 0  L 2766 531  Q 2569 213 2275 61  Q 1981 -91 1556 -91  Q 1019 -91 701 211  Q 384 513 384 1019  Q 384 1609 779 1909  Q 1175 2209 1959 2209  L 2766 2209  L 2766 2266  Q 2766 2663 2505 2880  Q 2244 3097 1772 3097  Q 1472 3097 1187 3025  Q 903 2953 641 2809  L 641 3341  Q 956 3463 1253 3523  Q 1550 3584 1831 3584  Q 2591 3584 2966 3190  Q 3341 2797 3341 1997  z " transform="scale(0.015625)" />
       <path id="DejaVuSans-66" d="M 2375 4863  L 2375 4384  L 1825 4384  Q 1516 4384 1395 4259  Q 1275 4134 1275 3809  L 1275 3500  L 2222 3500  L 2222 3053  L 1275 3053  L 1275 0  L 697 0  L 697 3053  L 147 3053  L 147 3500  L 697 3500  L 697 3744  Q 697 4328 969 4595  Q 1241 4863 1831 4863  L 2375 4863  z " transform="scale(0.015625)" />
       <path id="DejaVuSans-79" d="M 2059 -325  Q 1816 -950 1584 -1140  Q 1353 -1331 966 -1331  L 506 -1331  L 506 -850  L 844 -850  Q 1081 -850 1212 -737  Q 1344 -625 1503 -206  L 1606 56  L 191 3500  L 800 3500  L 1894 763  L 2988 3500  L 3597 3500  L 2059 -325  z " transform="scale(0.015625)" />
       <path id="DejaVuSans-73" d="M 2834 3397  L 2834 2853  Q 2591 2978 2328 3040  Q 2066 3103 1784 3103  Q 1356 3103 1142 2972  Q 928 2841 928 2578  Q 928 2378 1081 2264  Q 1234 2150 1697 2047  L 1894 2003  Q 2506 1872 2764 1633  Q 3022 1394 3022 966  Q 3022 478 2636 193  Q 2250 -91 1575 -91  Q 1294 -91 989 -36  Q 684 19 347 128  L 347 722  Q 666 556 975 473  Q 1284 391 1588 391  Q 1994 391 2212 530  Q 2431 669 2431 922  Q 2431 1156 2273 1281  Q 2116 1406 1581 1522  L 1381 1569  Q 847 1681 609 1914  Q 372 2147 372 2553  Q 372 3047 722 3315  Q 1072 3584 1716 3584  Q 2034 3584 2315 3537  Q 2597 3491 2834 3397  z " transform="scale(0.015625)" />
       <path id="DejaVuSans-28" d="M 1984 4856  Q 1566 4138 1362 3434  Q 1159 2731 1159 2009  Q 1159 1288 1364 580  Q 1569 -128 1984 -844  L 1484 -844  Q 1016 -109 783 600  Q 550 1309 550 2009  Q 550 2706 781 3412  Q 1013 4119 1484 4856  L 1984 4856  z " transform="scale(0.015625)" />
       <path id="DejaVuSans-29" d="M 513 4856  L 1013 4856  Q 1481 4119 1714 3412  Q 1947 2706 1947 2009  Q 1947 1309 1714 600  Q 1481 -109 1013 -844  L 513 -844  Q 928 -128 1133 580  Q 1338 1288 1338 2009  Q 1338 2731 1133 3434  Q 928 4138 513 4856  z " transform="scale(0.015625)" />
      </defs>
      <use ns4:href="#DejaVuSans-53" />
      <use ns4:href="#DejaVuSans-68" x="63.476562" />
      <use ns4:href="#DejaVuSans-61" x="126.855469" />
      <use ns4:href="#DejaVuSans-72" x="188.134766" />
      <use ns4:href="#DejaVuSans-65" x="226.998047" />
      <use ns4:href="#DejaVuSans-20" x="288.521484" />
      <use ns4:href="#DejaVuSans-6f" x="320.308594" />
      <use ns4:href="#DejaVuSans-66" x="381.490234" />
      <use ns4:href="#DejaVuSans-20" x="416.695312" />
      <use ns4:href="#DejaVuSans-74" x="448.482422" />
      <use ns4:href="#DejaVuSans-6f" x="487.691406" />
      <use ns4:href="#DejaVuSans-74" x="548.873047" />
      <use ns4:href="#DejaVuSans-61" x="588.082031" />
      <use ns4:href="#DejaVuSans-6c" x="649.361328" />
      <use ns4:href="#DejaVuSans-20" x="677.144531" />
      <use ns4:href="#DejaVuSans-63" x="708.931641" />
      <use ns4:href="#DejaVuSans-72" x="763.912109" />
      <use ns4:href="#DejaVuSans-65" x="802.775391" />
      <use ns4:href="#DejaVuSans-61" x="864.298828" />
      <use ns4:href="#DejaVuSans-74" x="925.578125" />
      <use ns4:href="#DejaVuSans-6f" x="964.787109" />
      <use ns4:href="#DejaVuSans-72" x="1025.96875" />
      <use ns4:href="#DejaVuSans-20" x="1067.082031" />
      <use ns4:href="#DejaVuSans-70" x="1098.869141" />
      <use ns4:href="#DejaVuSans-61" x="1162.345703" />
      <use ns4:href="#DejaVuSans-79" x="1223.625" />
      <use ns4:href="#DejaVuSans-6d" x="1282.804688" />
      <use ns4:href="#DejaVuSans-65" x="1380.216797" />
      <use ns4:href="#DejaVuSans-6e" x="1441.740234" />
      <use ns4:href="#DejaVuSans-74" x="1505.119141" />
      <use ns4:href="#DejaVuSans-73" x="1544.328125" />
      <use ns4:href="#DejaVuSans-20" x="1596.427734" />
      <use ns4:href="#DejaVuSans-28" x="1628.214844" />
      <use ns4:href="#DejaVuSans-25" x="1667.228516" />
      <use ns4:href="#DejaVuSans-29" x="1762.248047" />
     </g>
    </g>
   </g>
   <g id="patch_6">
    <path d="M 266.588437 311.037812  L 266.588437 33.837812  " style="fill: none; stroke: #000000; stroke-width: 0.8; stroke-linejoin: miter; stroke-linecap: square" />
   </g>
   <g id="patch_7">
    <path d="M 266.588438 311.037812  L 712.988437 311.037812  " style="fill: none; stroke: #000000; stroke-width: 0.8; stroke-linejoin: miter; stroke-linecap: square" />
   </g>
   <g id="text_10">
    
    <g transform="translate(333.740091 187.641052) scale(0.1 -0.1)">
     <use ns4:href="#DejaVuSans-32" />
     <use ns4:href="#DejaVuSans-31" x="63.623047" />
     <use ns4:href="#DejaVuSans-25" x="127.246094" />
    </g>
   </g>
   <g id="text_11">
    
    <g transform="translate(478.675156 74.958125) scale(0.1 -0.1)">
     <use ns4:href="#DejaVuSans-34" />
     <use ns4:href="#DejaVuSans-31" x="63.623047" />
     <use ns4:href="#DejaVuSans-25" x="127.246094" />
    </g>
   </g>
   <g id="text_12">
    
    <g transform="translate(623.610221 91.860564) scale(0.1 -0.1)">
     <defs>
      <path id="DejaVuSans-38" d="M 2034 2216  Q 1584 2216 1326 1975  Q 1069 1734 1069 1313  Q 1069 891 1326 650  Q 1584 409 2034 409  Q 2484 409 2743 651  Q 3003 894 3003 1313  Q 3003 1734 2745 1975  Q 2488 2216 2034 2216  z M 1403 2484  Q 997 2584 770 2862  Q 544 3141 544 3541  Q 544 4100 942 4425  Q 1341 4750 2034 4750  Q 2731 4750 3128 4425  Q 3525 4100 3525 3541  Q 3525 3141 3298 2862  Q 3072 2584 2669 2484  Q 3125 2378 3379 2068  Q 3634 1759 3634 1313  Q 3634 634 3220 271  Q 2806 -91 2034 -91  Q 1263 -91 848 271  Q 434 634 434 1313  Q 434 1759 690 2068  Q 947 2378 1403 2484  z M 1172 3481  Q 1172 3119 1398 2916  Q 1625 2713 2034 2713  Q 2441 2713 2670 2916  Q 2900 3119 2900 3481  Q 2900 3844 2670 4047  Q 2441 4250 2034 4250  Q 1625 4250 1398 4047  Q 1172 3844 1172 3481  z " transform="scale(0.015625)" />
     </defs>
     <use ns4:href="#DejaVuSans-33" />
     <use ns4:href="#DejaVuSans-38" x="63.623047" />
     <use ns4:href="#DejaVuSans-25" x="127.246094" />
    </g>
   </g>
   <g id="text_13">
    
    <g transform="translate(215.455156 17.837812) scale(0.14 -0.14)">
     <defs>
      <path id="DejaVuSans-Bold-43" d="M 4288 256  Q 3956 84 3597 -3  Q 3238 -91 2847 -91  Q 1681 -91 1000 561  Q 319 1213 319 2328  Q 319 3447 1000 4098  Q 1681 4750 2847 4750  Q 3238 4750 3597 4662  Q 3956 4575 4288 4403  L 4288 3438  Q 3953 3666 3628 3772  Q 3303 3878 2944 3878  Q 2300 3878 1931 3465  Q 1563 3053 1563 2328  Q 1563 1606 1931 1193  Q 2300 781 2944 781  Q 3303 781 3628 887  Q 3953 994 4288 1222  L 4288 256  z " transform="scale(0.015625)" />
      <path id="DejaVuSans-Bold-72" d="M 3138 2547  Q 2991 2616 2845 2648  Q 2700 2681 2553 2681  Q 2122 2681 1889 2404  Q 1656 2128 1656 1613  L 1656 0  L 538 0  L 538 3500  L 1656 3500  L 1656 2925  Q 1872 3269 2151 3426  Q 2431 3584 2822 3584  Q 2878 3584 2943 3579  Q 3009 3575 3134 3559  L 3138 2547  z " transform="scale(0.015625)" />
      <path id="DejaVuSans-Bold-65" d="M 4031 1759  L 4031 1441  L 1416 1441  Q 1456 1047 1700 850  Q 1944 653 2381 653  Q 2734 653 3104 758  Q 3475 863 3866 1075  L 3866 213  Q 3469 63 3072 -14  Q 2675 -91 2278 -91  Q 1328 -91 801 392  Q 275 875 275 1747  Q 275 2603 792 3093  Q 1309 3584 2216 3584  Q 3041 3584 3536 3087  Q 4031 2591 4031 1759  z M 2881 2131  Q 2881 2450 2695 2645  Q 2509 2841 2209 2841  Q 1884 2841 1681 2658  Q 1478 2475 1428 2131  L 2881 2131  z " transform="scale(0.015625)" />
      <path id="DejaVuSans-Bold-61" d="M 2106 1575  Q 1756 1575 1579 1456  Q 1403 1338 1403 1106  Q 1403 894 1545 773  Q 1688 653 1941 653  Q 2256 653 2472 879  Q 2688 1106 2688 1447  L 2688 1575  L 2106 1575  z M 3816 1997  L 3816 0  L 2688 0  L 2688 519  Q 2463 200 2181 54  Q 1900 -91 1497 -91  Q 953 -91 614 226  Q 275 544 275 1050  Q 275 1666 698 1953  Q 1122 2241 2028 2241  L 2688 2241  L 2688 2328  Q 2688 2594 2478 2717  Q 2269 2841 1825 2841  Q 1466 2841 1156 2769  Q 847 2697 581 2553  L 581 3406  Q 941 3494 1303 3539  Q 1666 3584 2028 3584  Q 2975 3584 3395 3211  Q 3816 2838 3816 1997  z " transform="scale(0.015625)" />
      <path id="DejaVuSans-Bold-74" d="M 1759 4494  L 1759 3500  L 2913 3500  L 2913 2700  L 1759 2700  L 1759 1216  Q 1759 972 1856 886  Q 1953 800 2241 800  L 2816 800  L 2816 0  L 1856 0  Q 1194 0 917 276  Q 641 553 641 1216  L 641 2700  L 84 2700  L 84 3500  L 641 3500  L 641 4494  L 1759 4494  z " transform="scale(0.015625)" />
      <path id="DejaVuSans-Bold-6f" d="M 2203 2784  Q 1831 2784 1636 2517  Q 1441 2250 1441 1747  Q 1441 1244 1636 976  Q 1831 709 2203 709  Q 2569 709 2762 976  Q 2956 1244 2956 1747  Q 2956 2250 2762 2517  Q 2569 2784 2203 2784  z M 2203 3584  Q 3106 3584 3614 3096  Q 4122 2609 4122 1747  Q 4122 884 3614 396  Q 3106 -91 2203 -91  Q 1297 -91 786 396  Q 275 884 275 1747  Q 275 2609 786 3096  Q 1297 3584 2203 3584  z " transform="scale(0.015625)" />
      <path id="DejaVuSans-Bold-2d" d="M 347 2297  L 2309 2297  L 2309 1388  L 347 1388  L 347 2297  z " transform="scale(0.015625)" />
      <path id="DejaVuSans-Bold-63" d="M 3366 3391  L 3366 2478  Q 3138 2634 2908 2709  Q 2678 2784 2431 2784  Q 1963 2784 1702 2511  Q 1441 2238 1441 1747  Q 1441 1256 1702 982  Q 1963 709 2431 709  Q 2694 709 2930 787  Q 3166 866 3366 1019  L 3366 103  Q 3103 6 2833 -42  Q 2563 -91 2291 -91  Q 1344 -91 809 395  Q 275 881 275 1747  Q 275 2613 809 3098  Q 1344 3584 2291 3584  Q 2566 3584 2833 3536  Q 3100 3488 3366 3391  z " transform="scale(0.015625)" />
      <path id="DejaVuSans-Bold-6e" d="M 4056 2131  L 4056 0  L 2931 0  L 2931 347  L 2931 1631  Q 2931 2084 2911 2256  Q 2891 2428 2841 2509  Q 2775 2619 2662 2680  Q 2550 2741 2406 2741  Q 2056 2741 1856 2470  Q 1656 2200 1656 1722  L 1656 0  L 538 0  L 538 3500  L 1656 3500  L 1656 2988  Q 1909 3294 2193 3439  Q 2478 3584 2822 3584  Q 3428 3584 3742 3212  Q 4056 2841 4056 2131  z " transform="scale(0.015625)" />
      <path id="DejaVuSans-Bold-6d" d="M 3781 2919  Q 3994 3244 4286 3414  Q 4578 3584 4928 3584  Q 5531 3584 5847 3212  Q 6163 2841 6163 2131  L 6163 0  L 5038 0  L 5038 1825  Q 5041 1866 5042 1909  Q 5044 1953 5044 2034  Q 5044 2406 4934 2573  Q 4825 2741 4581 2741  Q 4263 2741 4089 2478  Q 3916 2216 3909 1719  L 3909 0  L 2784 0  L 2784 1825  Q 2784 2406 2684 2573  Q 2584 2741 2328 2741  Q 2006 2741 1831 2477  Q 1656 2213 1656 1722  L 1656 0  L 531 0  L 531 3500  L 1656 3500  L 1656 2988  Q 1863 3284 2130 3434  Q 2397 3584 2719 3584  Q 3081 3584 3359 3409  Q 3638 3234 3781 2919  z " transform="scale(0.015625)" />
      <path id="DejaVuSans-Bold-79" d="M 78 3500  L 1197 3500  L 2138 1125  L 2938 3500  L 4056 3500  L 2584 -331  Q 2363 -916 2067 -1148  Q 1772 -1381 1288 -1381  L 641 -1381  L 641 -647  L 991 -647  Q 1275 -647 1404 -556  Q 1534 -466 1606 -231  L 1638 -134  L 78 3500  z " transform="scale(0.015625)" />
      <path id="DejaVuSans-Bold-20" transform="scale(0.015625)" />
      <path id="DejaVuSans-Bold-70" d="M 1656 506  L 1656 -1331  L 538 -1331  L 538 3500  L 1656 3500  L 1656 2988  Q 1888 3294 2169 3439  Q 2450 3584 2816 3584  Q 3463 3584 3878 3070  Q 4294 2556 4294 1747  Q 4294 938 3878 423  Q 3463 -91 2816 -91  Q 2450 -91 2169 54  Q 1888 200 1656 506  z M 2400 2772  Q 2041 2772 1848 2508  Q 1656 2244 1656 1747  Q 1656 1250 1848 986  Q 2041 722 2400 722  Q 2759 722 2948 984  Q 3138 1247 3138 1747  Q 3138 2247 2948 2509  Q 2759 2772 2400 2772  z " transform="scale(0.015625)" />
      <path id="DejaVuSans-Bold-69" d="M 538 3500  L 1656 3500  L 1656 0  L 538 0  L 538 3500  z M 538 4863  L 1656 4863  L 1656 3950  L 538 3950  L 538 4863  z " transform="scale(0.015625)" />
      <path id="DejaVuSans-Bold-62" d="M 2400 722  Q 2759 722 2948 984  Q 3138 1247 3138 1747  Q 3138 2247 2948 2509  Q 2759 2772 2400 2772  Q 2041 2772 1848 2508  Q 1656 2244 1656 1747  Q 1656 1250 1848 986  Q 2041 722 2400 722  z M 1656 2988  Q 1888 3294 2169 3439  Q 2450 3584 2816 3584  Q 3463 3584 3878 3070  Q 4294 2556 4294 1747  Q 4294 938 3878 423  Q 3463 -91 2816 -91  Q 2450 -91 2169 54  Q 1888 200 1656 506  L 1656 0  L 538 0  L 538 4863  L 1656 4863  L 1656 2988  z " transform="scale(0.015625)" />
      <path id="DejaVuSans-Bold-6c" d="M 538 4863  L 1656 4863  L 1656 0  L 538 0  L 538 4863  z " transform="scale(0.015625)" />
      <path id="DejaVuSans-Bold-28" d="M 2413 -844  L 1484 -844  Q 1006 -72 778 623  Q 550 1319 550 2003  Q 550 2688 779 3389  Q 1009 4091 1484 4856  L 2413 4856  Q 2013 4116 1813 3408  Q 1613 2700 1613 2009  Q 1613 1319 1811 609  Q 2009 -100 2413 -844  z " transform="scale(0.015625)" />
      <path id="DejaVuSans-Bold-67" d="M 2919 594  Q 2688 288 2409 144  Q 2131 0 1766 0  Q 1125 0 706 504  Q 288 1009 288 1791  Q 288 2575 706 3076  Q 1125 3578 1766 3578  Q 2131 3578 2409 3434  Q 2688 3291 2919 2981  L 2919 3500  L 4044 3500  L 4044 353  Q 4044 -491 3511 -936  Q 2978 -1381 1966 -1381  Q 1638 -1381 1331 -1331  Q 1025 -1281 716 -1178  L 716 -306  Q 1009 -475 1290 -558  Q 1572 -641 1856 -641  Q 2406 -641 2662 -400  Q 2919 -159 2919 353  L 2919 594  z M 2181 2772  Q 1834 2772 1640 2515  Q 1447 2259 1447 1791  Q 1447 1309 1634 1061  Q 1822 813 2181 813  Q 2531 813 2725 1069  Q 2919 1325 2919 1791  Q 2919 2259 2725 2515  Q 2531 2772 2181 2772  z " transform="scale(0.015625)" />
      <path id="DejaVuSans-Bold-2c" d="M 653 1209  L 1778 1209  L 1778 256  L 1006 -909  L 341 -909  L 653 256  L 653 1209  z " transform="scale(0.015625)" />
      <path id="DejaVuSans-Bold-32" d="M 1844 884  L 3897 884  L 3897 0  L 506 0  L 506 884  L 2209 2388  Q 2438 2594 2547 2791  Q 2656 2988 2656 3200  Q 2656 3528 2436 3728  Q 2216 3928 1850 3928  Q 1569 3928 1234 3808  Q 900 3688 519 3450  L 519 4475  Q 925 4609 1322 4679  Q 1719 4750 2100 4750  Q 2938 4750 3402 4381  Q 3866 4013 3866 3353  Q 3866 2972 3669 2642  Q 3472 2313 2841 1759  L 1844 884  z " transform="scale(0.015625)" />
      <path id="DejaVuSans-Bold-30" d="M 2944 2338  Q 2944 3213 2780 3570  Q 2616 3928 2228 3928  Q 1841 3928 1675 3570  Q 1509 3213 1509 2338  Q 1509 1453 1675 1090  Q 1841 728 2228 728  Q 2613 728 2778 1090  Q 2944 1453 2944 2338  z M 4147 2328  Q 4147 1169 3647 539  Q 3147 -91 2228 -91  Q 1306 -91 806 539  Q 306 1169 306 2328  Q 306 3491 806 4120  Q 1306 4750 2228 4750  Q 3147 4750 3647 4120  Q 4147 3491 4147 2328  z " transform="scale(0.015625)" />
      <path id="DejaVuSans-Bold-35" d="M 678 4666  L 3669 4666  L 3669 3781  L 1638 3781  L 1638 3059  Q 1775 3097 1914 3117  Q 2053 3138 2203 3138  Q 3056 3138 3531 2711  Q 4006 2284 4006 1522  Q 4006 766 3489 337  Q 2972 -91 2053 -91  Q 1656 -91 1267 -14  Q 878 63 494 219  L 494 1166  Q 875 947 1217 837  Q 1559 728 1863 728  Q 2300 728 2551 942  Q 2803 1156 2803 1522  Q 2803 1891 2551 2103  Q 2300 2316 1863 2316  Q 1603 2316 1309 2248  Q 1016 2181 678 2041  L 678 4666  z " transform="scale(0.015625)" />
      <path id="DejaVuSans-Bold-29" d="M 513 -844  Q 913 -100 1113 609  Q 1313 1319 1313 2009  Q 1313 2700 1113 3408  Q 913 4116 513 4856  L 1441 4856  Q 1916 4091 2145 3389  Q 2375 2688 2375 2003  Q 2375 1319 2147 623  Q 1919 -72 1441 -844  L 513 -844  z " transform="scale(0.015625)" />
     </defs>
     <use ns4:href="#DejaVuSans-Bold-43" />
     <use ns4:href="#DejaVuSans-Bold-72" x="73.388672" />
     <use ns4:href="#DejaVuSans-Bold-65" x="122.705078" />
     <use ns4:href="#DejaVuSans-Bold-61" x="190.527344" />
     <use ns4:href="#DejaVuSans-Bold-74" x="258.007812" />
     <use ns4:href="#DejaVuSans-Bold-6f" x="305.810547" />
     <use ns4:href="#DejaVuSans-Bold-72" x="374.511719" />
     <use ns4:href="#DejaVuSans-Bold-2d" x="423.828125" />
     <use ns4:href="#DejaVuSans-Bold-65" x="465.332031" />
     <use ns4:href="#DejaVuSans-Bold-63" x="533.154297" />
     <use ns4:href="#DejaVuSans-Bold-6f" x="592.431641" />
     <use ns4:href="#DejaVuSans-Bold-6e" x="661.132812" />
     <use ns4:href="#DejaVuSans-Bold-6f" x="732.324219" />
     <use ns4:href="#DejaVuSans-Bold-6d" x="801.025391" />
     <use ns4:href="#DejaVuSans-Bold-79" x="905.224609" />
     <use ns4:href="#DejaVuSans-Bold-20" x="970.410156" />
     <use ns4:href="#DejaVuSans-Bold-70" x="1005.224609" />
     <use ns4:href="#DejaVuSans-Bold-61" x="1076.806641" />
     <use ns4:href="#DejaVuSans-Bold-79" x="1141.162109" />
     <use ns4:href="#DejaVuSans-Bold-6d" x="1206.347656" />
     <use ns4:href="#DejaVuSans-Bold-65" x="1310.546875" />
     <use ns4:href="#DejaVuSans-Bold-6e" x="1378.369141" />
     <use ns4:href="#DejaVuSans-Bold-74" x="1449.560547" />
     <use ns4:href="#DejaVuSans-Bold-20" x="1497.363281" />
     <use ns4:href="#DejaVuSans-Bold-63" x="1532.177734" />
     <use ns4:href="#DejaVuSans-Bold-6f" x="1591.455078" />
     <use ns4:href="#DejaVuSans-Bold-6e" x="1660.15625" />
     <use ns4:href="#DejaVuSans-Bold-63" x="1731.347656" />
     <use ns4:href="#DejaVuSans-Bold-65" x="1790.625" />
     <use ns4:href="#DejaVuSans-Bold-6e" x="1858.447266" />
     <use ns4:href="#DejaVuSans-Bold-74" x="1929.638672" />
     <use ns4:href="#DejaVuSans-Bold-72" x="1977.441406" />
     <use ns4:href="#DejaVuSans-Bold-61" x="2026.757812" />
     <use ns4:href="#DejaVuSans-Bold-74" x="2094.238281" />
     <use ns4:href="#DejaVuSans-Bold-69" x="2142.041016" />
     <use ns4:href="#DejaVuSans-Bold-6f" x="2176.318359" />
     <use ns4:href="#DejaVuSans-Bold-6e" x="2245.019531" />
     <use ns4:href="#DejaVuSans-Bold-20" x="2316.210938" />
     <use ns4:href="#DejaVuSans-Bold-62" x="2351.025391" />
     <use ns4:href="#DejaVuSans-Bold-79" x="2422.607422" />
     <use ns4:href="#DejaVuSans-Bold-20" x="2487.792969" />
     <use ns4:href="#DejaVuSans-Bold-70" x="2522.607422" />
     <use ns4:href="#DejaVuSans-Bold-65" x="2594.189453" />
     <use ns4:href="#DejaVuSans-Bold-72" x="2662.011719" />
     <use ns4:href="#DejaVuSans-Bold-63" x="2711.328125" />
     <use ns4:href="#DejaVuSans-Bold-65" x="2770.605469" />
     <use ns4:href="#DejaVuSans-Bold-6e" x="2838.427734" />
     <use ns4:href="#DejaVuSans-Bold-74" x="2909.619141" />
     <use ns4:href="#DejaVuSans-Bold-69" x="2957.421875" />
     <use ns4:href="#DejaVuSans-Bold-6c" x="2991.699219" />
     <use ns4:href="#DejaVuSans-Bold-65" x="3025.976562" />
     <use ns4:href="#DejaVuSans-Bold-20" x="3093.798828" />
     <use ns4:href="#DejaVuSans-Bold-28" x="3128.613281" />
     <use ns4:href="#DejaVuSans-Bold-67" x="3174.316406" />
     <use ns4:href="#DejaVuSans-Bold-6c" x="3245.898438" />
     <use ns4:href="#DejaVuSans-Bold-6f" x="3280.175781" />
     <use ns4:href="#DejaVuSans-Bold-62" x="3348.876953" />
     <use ns4:href="#DejaVuSans-Bold-61" x="3420.458984" />
     <use ns4:href="#DejaVuSans-Bold-6c" x="3487.939453" />
     <use ns4:href="#DejaVuSans-Bold-2c" x="3522.216797" />
     <use ns4:href="#DejaVuSans-Bold-20" x="3560.205078" />
     <use ns4:href="#DejaVuSans-Bold-32" x="3595.019531" />
     <use ns4:href="#DejaVuSans-Bold-30" x="3664.599609" />
     <use ns4:href="#DejaVuSans-Bold-32" x="3734.179688" />
     <use ns4:href="#DejaVuSans-Bold-35" x="3803.759766" />
     <use ns4:href="#DejaVuSans-Bold-29" x="3873.339844" />
    </g>
   </g>
  </g>
  <g id="text_14">
   
   <g transform="translate(7.2 365.037812) scale(0.09 -0.09)">
    <defs>
     <path id="DejaVuSans-Oblique-53" d="M 3859 4513  L 3738 3897  Q 3422 4066 3111 4152  Q 2800 4238 2509 4238  Q 1944 4238 1609 3991  Q 1275 3744 1275 3334  Q 1275 3109 1398 2989  Q 1522 2869 2034 2731  L 2413 2638  Q 3053 2472 3303 2217  Q 3553 1963 3553 1503  Q 3553 797 2998 353  Q 2444 -91 1538 -91  Q 1166 -91 791 -17  Q 416 56 38 206  L 166 856  Q 513 641 861 531  Q 1209 422 1556 422  Q 2147 422 2503 684  Q 2859 947 2859 1369  Q 2859 1650 2717 1795  Q 2575 1941 2106 2059  L 1728 2156  Q 1081 2325 845 2545  Q 609 2766 609 3163  Q 609 3859 1145 4304  Q 1681 4750 2541 4750  Q 2875 4750 3203 4690  Q 3531 4631 3859 4513  z " transform="scale(0.015625)" />
     <path id="DejaVuSans-Oblique-6f" d="M 1625 -91  Q 1009 -91 651 289  Q 294 669 294 1325  Q 294 1706 417 2101  Q 541 2497 738 2766  Q 1047 3184 1428 3384  Q 1809 3584 2291 3584  Q 2888 3584 3255 3212  Q 3622 2841 3622 2241  Q 3622 1825 3500 1412  Q 3378 1000 3181 728  Q 2875 309 2494 109  Q 2113 -91 1625 -91  z M 891 1344  Q 891 869 1089 633  Q 1288 397 1691 397  Q 2269 397 2648 901  Q 3028 1406 3028 2181  Q 3028 2634 2825 2865  Q 2622 3097 2228 3097  Q 1903 3097 1650 2945  Q 1397 2794 1197 2484  Q 1050 2253 970 1956  Q 891 1659 891 1344  z " transform="scale(0.015625)" />
     <path id="DejaVuSans-Oblique-75" d="M 428 1388  L 838 3500  L 1416 3500  L 1006 1409  Q 975 1256 961 1147  Q 947 1038 947 966  Q 947 700 1109 554  Q 1272 409 1569 409  Q 2031 409 2368 721  Q 2706 1034 2809 1563  L 3194 3500  L 3769 3500  L 3091 0  L 2516 0  L 2631 550  Q 2388 244 2052 76  Q 1716 -91 1338 -91  Q 878 -91 622 161  Q 366 413 366 863  Q 366 956 381 1097  Q 397 1238 428 1388  z " transform="scale(0.015625)" />
     <path id="DejaVuSans-Oblique-72" d="M 2853 2969  Q 2766 3016 2653 3041  Q 2541 3066 2413 3066  Q 1953 3066 1609 2717  Q 1266 2369 1153 1784  L 800 0  L 225 0  L 909 3500  L 1484 3500  L 1375 2956  Q 1603 3259 1920 3421  Q 2238 3584 2597 3584  Q 2691 3584 2781 3573  Q 2872 3563 2963 3538  L 2853 2969  z " transform="scale(0.015625)" />
     <path id="DejaVuSans-Oblique-63" d="M 3431 3366  L 3316 2797  Q 3109 2947 2876 3022  Q 2644 3097 2394 3097  Q 2119 3097 1870 3000  Q 1622 2903 1453 2725  Q 1184 2453 1037 2087  Q 891 1722 891 1331  Q 891 859 1127 628  Q 1363 397 1844 397  Q 2081 397 2348 469  Q 2616 541 2906 684  L 2797 116  Q 2547 13 2283 -39  Q 2019 -91 1741 -91  Q 1044 -91 669 257  Q 294 606 294 1253  Q 294 1797 489 2255  Q 684 2713 1069 3078  Q 1331 3328 1684 3456  Q 2038 3584 2456 3584  Q 2700 3584 2940 3529  Q 3181 3475 3431 3366  z " transform="scale(0.015625)" />
     <path id="DejaVuSans-Oblique-65" d="M 3078 2063  Q 3088 2113 3092 2166  Q 3097 2219 3097 2272  Q 3097 2653 2873 2875  Q 2650 3097 2266 3097  Q 1838 3097 1509 2826  Q 1181 2556 1013 2059  L 3078 2063  z M 3578 1613  L 903 1613  Q 884 1494 878 1425  Q 872 1356 872 1306  Q 872 872 1139 634  Q 1406 397 1894 397  Q 2269 397 2603 481  Q 2938 566 3225 728  L 3116 159  Q 2806 34 2476 -28  Q 2147 -91 1806 -91  Q 1078 -91 686 257  Q 294 606 294 1247  Q 294 1794 489 2264  Q 684 2734 1063 3103  Q 1306 3334 1642 3459  Q 1978 3584 2356 3584  Q 2950 3584 3301 3228  Q 3653 2872 3653 2272  Q 3653 2128 3634 1964  Q 3616 1800 3578 1613  z " transform="scale(0.015625)" />
     <path id="DejaVuSans-Oblique-3a" d="M 978 3309  L 1638 3309  L 1484 2516  L 825 2516  L 978 3309  z M 488 794  L 1147 794  L 991 0  L 331 0  L 488 794  z " transform="scale(0.015625)" />
     <path id="DejaVuSans-Oblique-20" transform="scale(0.015625)" />
     <path id="DejaVuSans-Oblique-43" d="M 4447 4306  L 4319 3641  Q 4019 3944 3683 4091  Q 3347 4238 2956 4238  Q 2422 4238 2017 3981  Q 1613 3725 1319 3200  Q 1131 2863 1032 2486  Q 934 2109 934 1728  Q 934 1091 1264 756  Q 1594 422 2222 422  Q 2656 422 3056 561  Q 3456 700 3834 978  L 3688 231  Q 3316 72 2936 -9  Q 2556 -91 2175 -91  Q 1278 -91 773 396  Q 269 884 269 1753  Q 269 2309 461 2846  Q 653 3384 1013 3828  Q 1394 4300 1883 4525  Q 2372 4750 3022 4750  Q 3422 4750 3780 4639  Q 4138 4528 4447 4306  z " transform="scale(0.015625)" />
     <path id="DejaVuSans-Oblique-61" d="M 3438 1997  L 3047 0  L 2472 0  L 2578 531  Q 2325 219 2001 64  Q 1678 -91 1281 -91  Q 834 -91 548 182  Q 263 456 263 884  Q 263 1497 752 1853  Q 1241 2209 2100 2209  L 2900 2209  L 2931 2363  Q 2938 2388 2941 2417  Q 2944 2447 2944 2509  Q 2944 2788 2717 2942  Q 2491 3097 2081 3097  Q 1800 3097 1504 3025  Q 1209 2953 897 2809  L 997 3341  Q 1322 3463 1633 3523  Q 1944 3584 2234 3584  Q 2853 3584 3176 3315  Q 3500 3047 3500 2534  Q 3500 2431 3484 2292  Q 3469 2153 3438 1997  z M 2816 1759  L 2241 1759  Q 1534 1759 1195 1570  Q 856 1381 856 984  Q 856 709 1029 553  Q 1203 397 1509 397  Q 1978 397 2328 733  Q 2678 1069 2791 1631  L 2816 1759  z " transform="scale(0.015625)" />
     <path id="DejaVuSans-Oblique-74" d="M 2706 3500  L 2619 3053  L 1472 3053  L 1100 1153  Q 1081 1047 1072 975  Q 1063 903 1063 863  Q 1063 663 1183 572  Q 1303 481 1569 481  L 2150 481  L 2053 0  L 1503 0  Q 991 0 739 200  Q 488 400 488 806  Q 488 878 497 964  Q 506 1050 525 1153  L 897 3053  L 409 3053  L 500 3500  L 978 3500  L 1172 4494  L 1747 4494  L 1556 3500  L 2706 3500  z " transform="scale(0.015625)" />
     <path id="DejaVuSans-Oblique-49" d="M 1081 4666  L 1716 4666  L 806 0  L 172 0  L 1081 4666  z " transform="scale(0.015625)" />
     <path id="DejaVuSans-Oblique-51" d="M 2309 -84  Q 2275 -88 2237 -89  Q 2200 -91 2125 -91  Q 1250 -91 756 411  Q 263 913 263 1797  Q 263 2319 452 2844  Q 641 3369 978 3788  Q 1369 4269 1858 4509  Q 2347 4750 2938 4750  Q 3794 4750 4287 4245  Q 4781 3741 4781 2869  Q 4781 1928 4265 1147  Q 3750 366 2919 44  L 3553 -825  L 2847 -825  L 2309 -84  z M 2919 4238  Q 2400 4238 2003 3986  Q 1606 3734 1313 3219  Q 1125 2891 1026 2522  Q 928 2153 928 1778  Q 928 1128 1239 775  Q 1550 422 2119 422  Q 2631 422 3032 676  Q 3434 931 3719 1434  Q 3909 1772 4009 2142  Q 4109 2513 4109 2881  Q 4109 3528 3796 3883  Q 3484 4238 2919 4238  z " transform="scale(0.015625)" />
     <path id="DejaVuSans-Oblique-66" d="M 3059 4863  L 2969 4384  L 2419 4384  Q 2106 4384 1964 4261  Q 1822 4138 1753 3809  L 1691 3500  L 2638 3500  L 2553 3053  L 1606 3053  L 1013 0  L 434 0  L 1031 3053  L 481 3053  L 563 3500  L 1113 3500  L 1159 3744  Q 1278 4363 1576 4613  Q 1875 4863 2516 4863  L 3059 4863  z " transform="scale(0.015625)" />
     <path id="DejaVuSans-Oblique-6d" d="M 5747 2113  L 5338 0  L 4763 0  L 5166 2094  Q 5191 2228 5203 2325  Q 5216 2422 5216 2491  Q 5216 2772 5059 2928  Q 4903 3084 4622 3084  Q 4203 3084 3875 2770  Q 3547 2456 3450 1953  L 3066 0  L 2491 0  L 2900 2094  Q 2925 2209 2937 2307  Q 2950 2406 2950 2484  Q 2950 2769 2794 2926  Q 2638 3084 2363 3084  Q 1938 3084 1609 2770  Q 1281 2456 1184 1953  L 800 0  L 225 0  L 909 3500  L 1484 3500  L 1375 2956  Q 1609 3263 1923 3423  Q 2238 3584 2597 3584  Q 2978 3584 3223 3384  Q 3469 3184 3519 2828  Q 3781 3197 4126 3390  Q 4472 3584 4856 3584  Q 5306 3584 5551 3325  Q 5797 3066 5797 2591  Q 5797 2488 5784 2364  Q 5772 2241 5747 2113  z " transform="scale(0.015625)" />
     <path id="DejaVuSans-Oblique-70" d="M 3175 2156  Q 3175 2616 2975 2859  Q 2775 3103 2400 3103  Q 2144 3103 1911 2972  Q 1678 2841 1497 2591  Q 1319 2344 1212 1994  Q 1106 1644 1106 1300  Q 1106 863 1306 627  Q 1506 391 1875 391  Q 2147 391 2380 519  Q 2613 647 2778 891  Q 2956 1147 3065 1494  Q 3175 1841 3175 2156  z M 1394 2969  Q 1625 3272 1939 3428  Q 2253 3584 2638 3584  Q 3175 3584 3472 3232  Q 3769 2881 3769 2247  Q 3769 1728 3584 1258  Q 3400 788 3053 416  Q 2822 169 2531 39  Q 2241 -91 1919 -91  Q 1547 -91 1294 64  Q 1041 219 916 525  L 556 -1331  L -19 -1331  L 922 3500  L 1497 3500  L 1394 2969  z " transform="scale(0.015625)" />
     <path id="DejaVuSans-Oblique-6e" d="M 3566 2113  L 3156 0  L 2578 0  L 2988 2091  Q 3016 2238 3031 2350  Q 3047 2463 3047 2528  Q 3047 2791 2881 2937  Q 2716 3084 2419 3084  Q 1956 3084 1622 2776  Q 1288 2469 1184 1941  L 800 0  L 225 0  L 903 3500  L 1478 3500  L 1363 2950  Q 1603 3253 1940 3418  Q 2278 3584 2650 3584  Q 3113 3584 3367 3334  Q 3622 3084 3622 2631  Q 3622 2519 3608 2391  Q 3594 2263 3566 2113  z " transform="scale(0.015625)" />
     <path id="DejaVuSans-Oblique-73" d="M 3200 3397  L 3091 2853  Q 2863 2978 2609 3040  Q 2356 3103 2088 3103  Q 1634 3103 1373 2948  Q 1113 2794 1113 2528  Q 1113 2219 1719 2053  Q 1766 2041 1788 2034  L 1972 1978  Q 2547 1819 2739 1644  Q 2931 1469 2931 1166  Q 2931 609 2489 259  Q 2047 -91 1331 -91  Q 1053 -91 747 -37  Q 441 16 72 128  L 184 722  Q 500 559 806 475  Q 1113 391 1394 391  Q 1816 391 2080 572  Q 2344 753 2344 1031  Q 2344 1331 1650 1516  L 1591 1531  L 1394 1581  Q 956 1697 753 1886  Q 550 2075 550 2369  Q 550 2928 970 3256  Q 1391 3584 2113 3584  Q 2397 3584 2667 3537  Q 2938 3491 3200 3397  z " transform="scale(0.015625)" />
     <path id="DejaVuSans-Oblique-69" d="M 1172 4863  L 1747 4863  L 1606 4134  L 1031 4134  L 1172 4863  z M 909 3500  L 1484 3500  L 800 0  L 225 0  L 909 3500  z " transform="scale(0.015625)" />
     <path id="DejaVuSans-Oblique-32" d="M 2950 2253  L 934 525  L 3163 525  L 3053 0  L 25 0  L 128 531  L 2234 2338  Q 2656 2703 2832 2979  Q 3009 3256 3009 3547  Q 3009 3850 2796 4040  Q 2584 4231 2241 4231  Q 1944 4231 1581 4125  Q 1219 4019 806 3816  L 922 4441  Q 1309 4594 1662 4672  Q 2016 4750 2316 4750  Q 2928 4750 3301 4425  Q 3675 4100 3675 3572  Q 3675 3216 3497 2892  Q 3319 2569 2950 2253  z " transform="scale(0.015625)" />
     <path id="DejaVuSans-Oblique-30" d="M 2444 4750  Q 3078 4750 3414 4328  Q 3750 3906 3750 3116  Q 3750 2516 3592 1923  Q 3434 1331 3150 863  Q 2859 394 2467 151  Q 2075 -91 1600 -91  Q 988 -91 653 334  Q 319 759 319 1544  Q 319 2138 480 2733  Q 641 3328 928 3794  Q 1216 4263 1602 4506  Q 1988 4750 2444 4750  z M 2406 4250  Q 2169 4250 1955 4123  Q 1741 3997 1569 3750  Q 1281 3338 1111 2720  Q 941 2103 941 1453  Q 941 938 1123 673  Q 1306 409 1663 409  Q 1913 409 2125 536  Q 2338 663 2509 909  Q 2794 1319 2961 1936  Q 3128 2553 3128 3206  Q 3128 3722 2945 3986  Q 2763 4250 2406 4250  z " transform="scale(0.015625)" />
     <path id="DejaVuSans-Oblique-36" d="M 2938 1728  Q 2938 2125 2734 2354  Q 2531 2584 2181 2584  Q 1697 2584 1367 2211  Q 1038 1838 1038 1288  Q 1038 875 1239 642  Q 1441 409 1797 409  Q 2284 409 2611 792  Q 2938 1175 2938 1728  z M 3788 4556  L 3681 3981  Q 3500 4100 3265 4162  Q 3031 4225 2766 4225  Q 2119 4225 1726 3819  Q 1334 3413 1141 2547  Q 1369 2813 1670 2948  Q 1972 3084 2322 3084  Q 2894 3084 3233 2754  Q 3572 2425 3572 1869  Q 3572 1413 3405 1020  Q 3238 628 2919 331  Q 2700 128 2409 18  Q 2119 -91 1791 -91  Q 1147 -91 775 318  Q 403 728 403 1441  Q 403 2103 573 2717  Q 744 3331 1050 3781  Q 1372 4256 1830 4503  Q 2288 4750 2841 4750  Q 3084 4750 3321 4701  Q 3559 4653 3788 4556  z " transform="scale(0.015625)" />
     <path id="DejaVuSans-Oblique-2014" d="M 356 1978  L 6131 1978  L 6044 1528  L 269 1528  L 356 1978  z " transform="scale(0.015625)" />
     <path id="DejaVuSans-Oblique-47" d="M 3494 697  L 3738 1919  L 2700 1919  L 2797 2438  L 4453 2438  L 4050 384  Q 3634 156 3143 32  Q 2653 -91 2156 -91  Q 1278 -91 783 396  Q 288 884 288 1753  Q 288 2475 589 3126  Q 891 3778 1422 4213  Q 1756 4484 2153 4617  Q 2550 4750 3034 4750  Q 3472 4750 3873 4639  Q 4275 4528 4641 4306  L 4513 3634  Q 4231 3928 3853 4083  Q 3475 4238 3047 4238  Q 2550 4238 2172 4048  Q 1794 3859 1497 3463  Q 1244 3125 1098 2667  Q 953 2209 953 1734  Q 953 1081 1287 751  Q 1622 422 2284 422  Q 2616 422 2925 492  Q 3234 563 3494 697  z " transform="scale(0.015625)" />
     <path id="DejaVuSans-Oblique-6c" d="M 1172 4863  L 1747 4863  L 800 0  L 225 0  L 1172 4863  z " transform="scale(0.015625)" />
     <path id="DejaVuSans-Oblique-62" d="M 3169 2138  Q 3169 2591 2961 2847  Q 2753 3103 2388 3103  Q 2122 3103 1889 2973  Q 1656 2844 1484 2597  Q 1303 2338 1198 1995  Q 1094 1653 1094 1313  Q 1094 881 1298 636  Q 1503 391 1863 391  Q 2134 391 2365 517  Q 2597 644 2772 891  Q 2950 1147 3059 1487  Q 3169 1828 3169 2138  z M 1381 2969  Q 1594 3256 1914 3420  Q 2234 3584 2584 3584  Q 3122 3584 3439 3221  Q 3756 2859 3756 2241  Q 3756 1734 3570 1259  Q 3384 784 3041 416  Q 2816 172 2522 40  Q 2228 -91 1906 -91  Q 1566 -91 1316 65  Q 1066 222 909 531  L 806 0  L 231 0  L 1178 4863  L 1753 4863  L 1381 2969  z " transform="scale(0.015625)" />
     <path id="DejaVuSans-Oblique-64" d="M 2675 525  Q 2444 222 2128 65  Q 1813 -91 1428 -91  Q 903 -91 598 267  Q 294 625 294 1247  Q 294 1766 478 2236  Q 663 2706 1013 3078  Q 1244 3325 1534 3454  Q 1825 3584 2144 3584  Q 2481 3584 2739 3421  Q 2997 3259 3138 2956  L 3513 4863  L 4091 4863  L 3144 0  L 2566 0  L 2675 525  z M 891 1350  Q 891 897 1095 644  Q 1300 391 1663 391  Q 1931 391 2161 520  Q 2391 650 2566 903  Q 2750 1166 2856 1509  Q 2963 1853 2963 2188  Q 2963 2622 2758 2865  Q 2553 3109 2194 3109  Q 1922 3109 1687 2981  Q 1453 2853 1288 2613  Q 1106 2353 998 2009  Q 891 1666 891 1350  z " transform="scale(0.015625)" />
     <path id="DejaVuSans-Oblique-2c" d="M 575 794  L 1234 794  L 1131 256  L 422 -744  L 19 -744  L 469 256  L 575 794  z " transform="scale(0.015625)" />
     <path id="DejaVuSans-Oblique-2d" d="M 391 2009  L 2075 2009  L 1978 1497  L 288 1497  L 391 2009  z " transform="scale(0.015625)" />
     <path id="DejaVuSans-Oblique-2e" d="M 525 794  L 1184 794  L 1031 0  L 372 0  L 525 794  z " transform="scale(0.015625)" />
     <path id="DejaVuSans-Oblique-44" d="M 1081 4666  L 2438 4666  Q 3519 4666 4070 4208  Q 4622 3750 4622 2847  Q 4622 2250 4412 1698  Q 4203 1147 3834 769  Q 3463 381 2891 190  Q 2319 0 1538 0  L 172 0  L 1081 4666  z M 1613 4147  L 909 519  L 1734 519  Q 2794 519 3375 1128  Q 3956 1738 3956 2847  Q 3956 3519 3581 3833  Q 3206 4147 2406 4147  L 1613 4147  z " transform="scale(0.015625)" />
     <path id="DejaVuSans-Oblique-76" d="M 459 3500  L 1069 3500  L 1581 525  L 3256 3500  L 3866 3500  L 1875 0  L 1100 0  L 459 3500  z " transform="scale(0.015625)" />
     <path id="DejaVuSans-Oblique-31" d="M 416 531  L 1447 531  L 2144 4122  L 978 3897  L 1088 4441  L 2247 4666  L 2881 4666  L 2075 531  L 3103 531  L 3003 0  L 313 0  L 416 531  z " transform="scale(0.015625)" />
     <path id="DejaVuSans-Oblique-25" d="M 1503 2209  Q 1078 2209 829 2486  Q 581 2763 581 3238  Q 581 3913 943 4331  Q 1306 4750 1888 4750  Q 2313 4750 2561 4470  Q 2809 4191 2809 3713  Q 2809 3044 2446 2626  Q 2084 2209 1503 2209  z M 2309 3694  Q 2309 4022 2187 4187  Q 2066 4353 1825 4353  Q 1475 4353 1278 4050  Q 1081 3747 1081 3206  Q 1081 2919 1207 2762  Q 1334 2606 1569 2606  Q 1903 2606 2106 2903  Q 2309 3200 2309 3694  z M 4997 1394  Q 4997 1728 4878 1893  Q 4759 2059 4519 2059  Q 4172 2059 3973 1754  Q 3775 1450 3775 909  Q 3775 619 3901 462  Q 4028 306 4263 306  Q 4597 306 4797 603  Q 4997 900 4997 1394  z M 4197 -91  Q 3772 -91 3525 187  Q 3278 466 3278 941  Q 3278 1616 3639 2033  Q 4000 2450 4581 2450  Q 5006 2450 5251 2175  Q 5497 1900 5497 1422  Q 5497 750 5136 329  Q 4775 -91 4197 -91  z M 5259 4750  L 1403 -91  L 903 -91  L 4763 4750  L 5259 4750  z " transform="scale(0.015625)" />
     <path id="DejaVuSans-Oblique-28" d="M 2731 4856  Q 1903 3822 1495 2892  Q 1088 1963 1088 1100  Q 1088 606 1206 120  Q 1325 -366 1563 -844  L 1063 -844  Q 775 -306 634 201  Q 494 709 494 1197  Q 494 2125 923 3036  Q 1353 3947 2222 4856  L 2731 4856  z " transform="scale(0.015625)" />
     <path id="DejaVuSans-Oblique-29" d="M -397 -844  Q 434 191 840 1120  Q 1247 2050 1247 2913  Q 1247 3406 1130 3892  Q 1013 4378 775 4856  L 1275 4856  Q 1563 4316 1703 3812  Q 1844 3309 1844 2822  Q 1844 1891 1411 973  Q 978 56 116 -844  L -397 -844  z " transform="scale(0.015625)" />
     <path id="DejaVuSans-Oblique-68" d="M 3566 2113  L 3156 0  L 2578 0  L 2988 2091  Q 3016 2238 3031 2350  Q 3047 2463 3047 2528  Q 3047 2791 2881 2937  Q 2716 3084 2419 3084  Q 1956 3084 1617 2771  Q 1278 2459 1178 1941  L 800 0  L 225 0  L 1172 4863  L 1747 4863  L 1375 2950  Q 1594 3244 1934 3414  Q 2275 3584 2650 3584  Q 3113 3584 3367 3334  Q 3622 3084 3622 2631  Q 3622 2519 3608 2391  Q 3594 2263 3566 2113  z " transform="scale(0.015625)" />
     <path id="DejaVuSans-Oblique-41" d="M 2356 4666  L 3072 4666  L 3938 0  L 3278 0  L 3084 1197  L 984 1197  L 325 0  L -341 0  L 2356 4666  z M 2584 4044  L 1275 1722  L 2988 1722  L 2584 4044  z " transform="scale(0.015625)" />
     <path id="DejaVuSans-Oblique-77" d="M 544 3500  L 1113 3500  L 1259 684  L 2566 3500  L 3231 3500  L 3425 684  L 4666 3500  L 5241 3500  L 3641 0  L 2969 0  L 2797 2900  L 1459 0  L 781 0  L 544 3500  z " transform="scale(0.015625)" />
     <path id="DejaVuSans-Oblique-39" d="M 281 103  L 397 678  Q 578 559 809 496  Q 1041 434 1306 434  Q 1953 434 2348 843  Q 2744 1253 2938 2119  Q 2706 1853 2401 1714  Q 2097 1575 1747 1575  Q 1178 1575 842 1904  Q 506 2234 506 2791  Q 506 3247 672 3639  Q 838 4031 1159 4325  Q 1378 4531 1665 4640  Q 1953 4750 2278 4750  Q 2925 4750 3300 4339  Q 3675 3928 3675 3219  Q 3675 2559 3501 1943  Q 3328 1328 3022 878  Q 2697 403 2240 156  Q 1784 -91 1228 -91  Q 988 -91 748 -42  Q 509 6 281 103  z M 1131 2938  Q 1131 2541 1337 2308  Q 1544 2075 1894 2075  Q 2378 2075 2706 2447  Q 3034 2819 3034 3372  Q 3034 3784 2831 4017  Q 2628 4250 2272 4250  Q 1788 4250 1459 3870  Q 1131 3491 1131 2938  z " transform="scale(0.015625)" />
    </defs>
    <use ns4:href="#DejaVuSans-Oblique-53" />
    <use ns4:href="#DejaVuSans-Oblique-6f" x="63.476562" />
    <use ns4:href="#DejaVuSans-Oblique-75" x="124.658203" />
    <use ns4:href="#DejaVuSans-Oblique-72" x="188.037109" />
    <use ns4:href="#DejaVuSans-Oblique-63" x="229.150391" />
    <use ns4:href="#DejaVuSans-Oblique-65" x="284.130859" />
    <use ns4:href="#DejaVuSans-Oblique-3a" x="345.654297" />
    <use ns4:href="#DejaVuSans-Oblique-20" x="379.345703" />
    <use ns4:href="#DejaVuSans-Oblique-43" x="411.132812" />
    <use ns4:href="#DejaVuSans-Oblique-72" x="480.957031" />
    <use ns4:href="#DejaVuSans-Oblique-65" x="522.070312" />
    <use ns4:href="#DejaVuSans-Oblique-61" x="583.59375" />
    <use ns4:href="#DejaVuSans-Oblique-74" x="644.873047" />
    <use ns4:href="#DejaVuSans-Oblique-6f" x="684.082031" />
    <use ns4:href="#DejaVuSans-Oblique-72" x="745.263672" />
    <use ns4:href="#DejaVuSans-Oblique-49" x="786.376953" />
    <use ns4:href="#DejaVuSans-Oblique-51" x="815.869141" />
    <use ns4:href="#DejaVuSans-Oblique-20" x="894.580078" />
    <use ns4:href="#DejaVuSans-Oblique-53" x="926.367188" />
    <use ns4:href="#DejaVuSans-Oblique-74" x="989.84375" />
    <use ns4:href="#DejaVuSans-Oblique-61" x="1029.052734" />
    <use ns4:href="#DejaVuSans-Oblique-74" x="1090.332031" />
    <use ns4:href="#DejaVuSans-Oblique-65" x="1129.541016" />
    <use ns4:href="#DejaVuSans-Oblique-20" x="1191.064453" />
    <use ns4:href="#DejaVuSans-Oblique-6f" x="1222.851562" />
    <use ns4:href="#DejaVuSans-Oblique-66" x="1284.033203" />
    <use ns4:href="#DejaVuSans-Oblique-20" x="1319.238281" />
    <use ns4:href="#DejaVuSans-Oblique-43" x="1351.025391" />
    <use ns4:href="#DejaVuSans-Oblique-72" x="1420.849609" />
    <use ns4:href="#DejaVuSans-Oblique-65" x="1461.962891" />
    <use ns4:href="#DejaVuSans-Oblique-61" x="1523.486328" />
    <use ns4:href="#DejaVuSans-Oblique-74" x="1584.765625" />
    <use ns4:href="#DejaVuSans-Oblique-6f" x="1623.974609" />
    <use ns4:href="#DejaVuSans-Oblique-72" x="1685.15625" />
    <use ns4:href="#DejaVuSans-Oblique-20" x="1726.269531" />
    <use ns4:href="#DejaVuSans-Oblique-43" x="1758.056641" />
    <use ns4:href="#DejaVuSans-Oblique-6f" x="1827.880859" />
    <use ns4:href="#DejaVuSans-Oblique-6d" x="1889.0625" />
    <use ns4:href="#DejaVuSans-Oblique-70" x="1986.474609" />
    <use ns4:href="#DejaVuSans-Oblique-65" x="2049.951172" />
    <use ns4:href="#DejaVuSans-Oblique-6e" x="2111.474609" />
    <use ns4:href="#DejaVuSans-Oblique-73" x="2174.853516" />
    <use ns4:href="#DejaVuSans-Oblique-61" x="2226.953125" />
    <use ns4:href="#DejaVuSans-Oblique-74" x="2288.232422" />
    <use ns4:href="#DejaVuSans-Oblique-69" x="2327.441406" />
    <use ns4:href="#DejaVuSans-Oblique-6f" x="2355.224609" />
    <use ns4:href="#DejaVuSans-Oblique-6e" x="2416.40625" />
    <use ns4:href="#DejaVuSans-Oblique-20" x="2479.785156" />
    <use ns4:href="#DejaVuSans-Oblique-32" x="2511.572266" />
    <use ns4:href="#DejaVuSans-Oblique-30" x="2575.195312" />
    <use ns4:href="#DejaVuSans-Oblique-32" x="2638.818359" />
    <use ns4:href="#DejaVuSans-Oblique-36" x="2702.441406" />
    <use ns4:href="#DejaVuSans-Oblique-20" x="2766.064453" />
    <use ns4:href="#DejaVuSans-Oblique-2014" x="2797.851562" />
    <use ns4:href="#DejaVuSans-Oblique-20" x="2897.851562" />
    <use ns4:href="#DejaVuSans-Oblique-47" x="2929.638672" />
    <use ns4:href="#DejaVuSans-Oblique-6c" x="3007.128906" />
    <use ns4:href="#DejaVuSans-Oblique-6f" x="3034.912109" />
    <use ns4:href="#DejaVuSans-Oblique-62" x="3096.09375" />
    <use ns4:href="#DejaVuSans-Oblique-61" x="3159.570312" />
    <use ns4:href="#DejaVuSans-Oblique-6c" x="3220.849609" />
    <use ns4:href="#DejaVuSans-Oblique-20" x="3248.632812" />
    <use ns4:href="#DejaVuSans-Oblique-64" x="3280.419922" />
    <use ns4:href="#DejaVuSans-Oblique-61" x="3343.896484" />
    <use ns4:href="#DejaVuSans-Oblique-74" x="3405.175781" />
    <use ns4:href="#DejaVuSans-Oblique-61" x="3444.384766" />
    <use ns4:href="#DejaVuSans-Oblique-2c" x="3505.664062" />
    <use ns4:href="#DejaVuSans-Oblique-20" x="3537.451172" />
    <use ns4:href="#DejaVuSans-Oblique-6e" x="3569.238281" />
    <use ns4:href="#DejaVuSans-Oblique-6f" x="3632.617188" />
    <use ns4:href="#DejaVuSans-Oblique-74" x="3693.798828" />
    <use ns4:href="#DejaVuSans-Oblique-20" x="3733.007812" />
    <use ns4:href="#DejaVuSans-Oblique-49" x="3764.794922" />
    <use ns4:href="#DejaVuSans-Oblique-6e" x="3794.287109" />
    <use ns4:href="#DejaVuSans-Oblique-64" x="3857.666016" />
    <use ns4:href="#DejaVuSans-Oblique-69" x="3921.142578" />
    <use ns4:href="#DejaVuSans-Oblique-61" x="3948.925781" />
    <use ns4:href="#DejaVuSans-Oblique-2d" x="4010.205078" />
    <use ns4:href="#DejaVuSans-Oblique-73" x="4046.289062" />
    <use ns4:href="#DejaVuSans-Oblique-70" x="4098.388672" />
    <use ns4:href="#DejaVuSans-Oblique-65" x="4161.865234" />
    <use ns4:href="#DejaVuSans-Oblique-63" x="4223.388672" />
    <use ns4:href="#DejaVuSans-Oblique-69" x="4278.369141" />
    <use ns4:href="#DejaVuSans-Oblique-66" x="4306.152344" />
    <use ns4:href="#DejaVuSans-Oblique-69" x="4341.357422" />
    <use ns4:href="#DejaVuSans-Oblique-63" x="4369.140625" />
    <use ns4:href="#DejaVuSans-Oblique-2e" x="4424.121094" />
    <use ns4:href="#DejaVuSans-Oblique-20" x="4455.908203" />
    <use ns4:href="#DejaVuSans-Oblique-44" x="4487.695312" />
    <use ns4:href="#DejaVuSans-Oblique-65" x="4564.697266" />
    <use ns4:href="#DejaVuSans-Oblique-72" x="4626.220703" />
    <use ns4:href="#DejaVuSans-Oblique-69" x="4667.333984" />
    <use ns4:href="#DejaVuSans-Oblique-76" x="4695.117188" />
    <use ns4:href="#DejaVuSans-Oblique-65" x="4754.296875" />
    <use ns4:href="#DejaVuSans-Oblique-64" x="4815.820312" />
    <use ns4:href="#DejaVuSans-Oblique-20" x="4879.296875" />
    <use ns4:href="#DejaVuSans-Oblique-66" x="4911.083984" />
    <use ns4:href="#DejaVuSans-Oblique-72" x="4946.289062" />
    <use ns4:href="#DejaVuSans-Oblique-6f" x="4987.402344" />
    <use ns4:href="#DejaVuSans-Oblique-6d" x="5048.583984" />
    <use ns4:href="#DejaVuSans-Oblique-20" x="5145.996094" />
    <use ns4:href="#DejaVuSans-Oblique-72" x="5177.783203" />
    <use ns4:href="#DejaVuSans-Oblique-65" x="5218.896484" />
    <use ns4:href="#DejaVuSans-Oblique-70" x="5280.419922" />
    <use ns4:href="#DejaVuSans-Oblique-6f" x="5343.896484" />
    <use ns4:href="#DejaVuSans-Oblique-72" x="5405.078125" />
    <use ns4:href="#DejaVuSans-Oblique-74" x="5446.191406" />
    <use ns4:href="#DejaVuSans-Oblique-65" x="5485.400391" />
    <use ns4:href="#DejaVuSans-Oblique-64" x="5546.923828" />
    <use ns4:href="#DejaVuSans-Oblique-20" x="5610.400391" />
    <use ns4:href="#DejaVuSans-Oblique-74" x="5642.1875" />
    <use ns4:href="#DejaVuSans-Oblique-6f" x="5681.396484" />
    <use ns4:href="#DejaVuSans-Oblique-70" x="5742.578125" />
    <use ns4:href="#DejaVuSans-Oblique-2d" x="5806.054688" />
    <use ns4:href="#DejaVuSans-Oblique-31" x="5842.138672" />
    <use ns4:href="#DejaVuSans-Oblique-25" x="5905.761719" />
    <use ns4:href="#DejaVuSans-Oblique-20" x="6000.78125" />
    <use ns4:href="#DejaVuSans-Oblique-28" x="6032.568359" />
    <use ns4:href="#DejaVuSans-Oblique-32" x="6071.582031" />
    <use ns4:href="#DejaVuSans-Oblique-31" x="6135.205078" />
    <use ns4:href="#DejaVuSans-Oblique-25" x="6198.828125" />
    <use ns4:href="#DejaVuSans-Oblique-29" x="6293.847656" />
    <use ns4:href="#DejaVuSans-Oblique-20" x="6332.861328" />
    <use ns4:href="#DejaVuSans-Oblique-61" x="6364.648438" />
    <use ns4:href="#DejaVuSans-Oblique-6e" x="6425.927734" />
    <use ns4:href="#DejaVuSans-Oblique-64" x="6489.306641" />
    <use ns4:href="#DejaVuSans-Oblique-20" x="6552.783203" />
    <use ns4:href="#DejaVuSans-Oblique-74" x="6584.570312" />
    <use ns4:href="#DejaVuSans-Oblique-6f" x="6623.779297" />
    <use ns4:href="#DejaVuSans-Oblique-70" x="6684.960938" />
    <use ns4:href="#DejaVuSans-Oblique-2d" x="6748.4375" />
    <use ns4:href="#DejaVuSans-Oblique-31" x="6784.521484" />
    <use ns4:href="#DejaVuSans-Oblique-30" x="6848.144531" />
    <use ns4:href="#DejaVuSans-Oblique-25" x="6911.767578" />
    <use ns4:href="#DejaVuSans-Oblique-20" x="7006.787109" />
    <use ns4:href="#DejaVuSans-Oblique-28" x="7038.574219" />
    <use ns4:href="#DejaVuSans-Oblique-36" x="7077.587891" />
    <use ns4:href="#DejaVuSans-Oblique-32" x="7141.210938" />
    <use ns4:href="#DejaVuSans-Oblique-25" x="7204.833984" />
    <use ns4:href="#DejaVuSans-Oblique-29" x="7299.853516" />
    <use ns4:href="#DejaVuSans-Oblique-20" x="7338.867188" />
    <use ns4:href="#DejaVuSans-Oblique-73" x="7370.654297" />
    <use ns4:href="#DejaVuSans-Oblique-68" x="7422.753906" />
    <use ns4:href="#DejaVuSans-Oblique-61" x="7486.132812" />
    <use ns4:href="#DejaVuSans-Oblique-72" x="7547.412109" />
    <use ns4:href="#DejaVuSans-Oblique-65" x="7588.525391" />
    <use ns4:href="#DejaVuSans-Oblique-73" x="7650.048828" />
    <use ns4:href="#DejaVuSans-Oblique-2e" x="7702.148438" />
    <use ns4:href="#DejaVuSans-Oblique-20" x="7733.935547" />
    <use ns4:href="#DejaVuSans-Oblique-41" x="7765.722656" />
    <use ns4:href="#DejaVuSans-Oblique-63" x="7834.130859" />
    <use ns4:href="#DejaVuSans-Oblique-74" x="7889.111328" />
    <use ns4:href="#DejaVuSans-Oblique-75" x="7928.320312" />
    <use ns4:href="#DejaVuSans-Oblique-61" x="7991.699219" />
    <use ns4:href="#DejaVuSans-Oblique-6c" x="8052.978516" />
    <use ns4:href="#DejaVuSans-Oblique-20" x="8080.761719" />
    <use ns4:href="#DejaVuSans-Oblique-64" x="8112.548828" />
    <use ns4:href="#DejaVuSans-Oblique-69" x="8176.025391" />
    <use ns4:href="#DejaVuSans-Oblique-73" x="8203.808594" />
    <use ns4:href="#DejaVuSans-Oblique-74" x="8255.908203" />
    <use ns4:href="#DejaVuSans-Oblique-72" x="8295.117188" />
    <use ns4:href="#DejaVuSans-Oblique-69" x="8336.230469" />
    <use ns4:href="#DejaVuSans-Oblique-62" x="8364.013672" />
    <use ns4:href="#DejaVuSans-Oblique-75" x="8427.490234" />
    <use ns4:href="#DejaVuSans-Oblique-74" x="8490.869141" />
    <use ns4:href="#DejaVuSans-Oblique-69" x="8530.078125" />
    <use ns4:href="#DejaVuSans-Oblique-6f" x="8557.861328" />
    <use ns4:href="#DejaVuSans-Oblique-6e" x="8619.042969" />
    <use ns4:href="#DejaVuSans-Oblique-20" x="8682.421875" />
    <use ns4:href="#DejaVuSans-Oblique-77" x="8714.208984" />
    <use ns4:href="#DejaVuSans-Oblique-69" x="8795.996094" />
    <use ns4:href="#DejaVuSans-Oblique-74" x="8823.779297" />
    <use ns4:href="#DejaVuSans-Oblique-68" x="8862.988281" />
    <use ns4:href="#DejaVuSans-Oblique-69" x="8926.367188" />
    <use ns4:href="#DejaVuSans-Oblique-6e" x="8954.150391" />
    <use ns4:href="#DejaVuSans-Oblique-20" x="9017.529297" />
    <use ns4:href="#DejaVuSans-Oblique-74" x="9049.316406" />
    <use ns4:href="#DejaVuSans-Oblique-68" x="9088.525391" />
    <use ns4:href="#DejaVuSans-Oblique-65" x="9151.904297" />
    <use ns4:href="#DejaVuSans-Oblique-20" x="9213.427734" />
    <use ns4:href="#DejaVuSans-Oblique-62" x="9245.214844" />
    <use ns4:href="#DejaVuSans-Oblique-6f" x="9308.691406" />
    <use ns4:href="#DejaVuSans-Oblique-74" x="9369.873047" />
    <use ns4:href="#DejaVuSans-Oblique-74" x="9409.082031" />
    <use ns4:href="#DejaVuSans-Oblique-6f" x="9448.291016" />
    <use ns4:href="#DejaVuSans-Oblique-6d" x="9509.472656" />
    <use ns4:href="#DejaVuSans-Oblique-20" x="9606.884766" />
    <use ns4:href="#DejaVuSans-Oblique-39" x="9638.671875" />
    <use ns4:href="#DejaVuSans-Oblique-30" x="9702.294922" />
    <use ns4:href="#DejaVuSans-Oblique-25" x="9765.917969" />
    <use ns4:href="#DejaVuSans-Oblique-20" x="9860.9375" />
    <use ns4:href="#DejaVuSans-Oblique-69" x="9892.724609" />
    <use ns4:href="#DejaVuSans-Oblique-73" x="9920.507812" />
    <use ns4:href="#DejaVuSans-Oblique-20" x="9972.607422" />
    <use ns4:href="#DejaVuSans-Oblique-69" x="10004.394531" />
    <use ns4:href="#DejaVuSans-Oblique-6c" x="10032.177734" />
    <use ns4:href="#DejaVuSans-Oblique-6c" x="10059.960938" />
    <use ns4:href="#DejaVuSans-Oblique-75" x="10087.744141" />
    <use ns4:href="#DejaVuSans-Oblique-73" x="10151.123047" />
    <use ns4:href="#DejaVuSans-Oblique-74" x="10203.222656" />
    <use ns4:href="#DejaVuSans-Oblique-72" x="10242.431641" />
    <use ns4:href="#DejaVuSans-Oblique-61" x="10283.544922" />
    <use ns4:href="#DejaVuSans-Oblique-74" x="10344.824219" />
    <use ns4:href="#DejaVuSans-Oblique-69" x="10384.033203" />
    <use ns4:href="#DejaVuSans-Oblique-76" x="10411.816406" />
    <use ns4:href="#DejaVuSans-Oblique-65" x="10470.996094" />
    <use ns4:href="#DejaVuSans-Oblique-2e" x="10532.519531" />
   </g>
  </g>
 </g>
 <defs>
  <clipPath id="p4f766631ef">
   <rect x="266.588437" y="33.837812" width="446.4" height="277.2" />
  </clipPath>
 </defs>
</svg>