<svg xmlns="http://www.w3.org/2000/svg" xmlns:dc="http://purl.org/dc/elements/1.1/" xmlns:ns2="http://creativecommons.org/ns#" xmlns:ns4="http://www.w3.org/1999/xlink" xmlns:rdf="http://www.w3.org/1999/02/22-rdf-syntax-ns#" width="672.360469pt" height="381.309531pt" viewBox="0 0 672.360469 381.309531" version="1.1">
 <title>Estimated daily online time by activity (India)</title><desc>Estimated daily online time by activity (India). Source: NCAER IHDS Wave 3 and IAMAI-Kantar 2024. Illustrative allocation based on reported share of use; not a direct time-use measurement.</desc><metadata>
  <rdf:RDF>
   <ns2:Work>
    <dc:type rdf:resource="http://purl.org/dc/dcmitype/StillImage" />
    <dc:date>2026-07-06T23:45:04.666819</dc:date>
    <dc:format>image/svg+xml</dc:format>
    <dc:creator>
     <ns2:Agent>
      <dc:title>Matplotlib v3.9.4, https://matplotlib.org/</dc:title>
     </ns2:Agent>
    </dc:creator>
   </ns2:Work>
  </rdf:RDF>
 </metadata>
 <defs>
  <style type="text/css">*{stroke-linejoin: round; stroke-linecap: butt}</style>
 </defs>
 <g id="figure_1">
  <g id="patch_1">
   <path d="M 0 381.309531  L 672.360469 381.309531  L 672.360469 0  L 0 0  z " style="fill: #ffffff" />
  </g>
  <g id="axes_1">
   <g id="patch_2">
    <path d="M 120.180234 311.037813  L 566.580234 311.037813  L 566.580234 33.837813  L 120.180234 33.837813  z " style="fill: #ffffff" />
   </g>
   <g id="patch_3">
    <path d="M 120.180234 298.437813  L 400.77452 298.437813  L 400.77452 46.437813  L 120.180234 46.437813  z " clip-path="url(#p16fc877126)" style="fill: #1d4ed8; stroke: #ffffff; stroke-linejoin: miter" />
   </g>
   <g id="patch_4">
    <path d="M 400.77452 298.437813  L 468.797377 298.437813  L 468.797377 46.437813  L 400.77452 46.437813  z " clip-path="url(#p16fc877126)" style="fill: #9a3412; stroke: #ffffff; stroke-linejoin: miter" />
   </g>
   <g id="patch_5">
    <path d="M 468.797377 298.437813  L 502.808806 298.437813  L 502.808806 46.437813  L 468.797377 46.437813  z " clip-path="url(#p16fc877126)" style="fill: #15803d; stroke: #ffffff; stroke-linejoin: miter" />
   </g>
   <g id="patch_6">
    <path d="M 502.808806 298.437813  L 524.065949 298.437813  L 524.065949 46.437813  L 502.808806 46.437813  z " clip-path="url(#p16fc877126)" style="fill: #6b21a8; stroke: #ffffff; stroke-linejoin: miter" />
   </g>
   <g id="patch_7">
    <path d="M 524.065949 298.437813  L 545.323092 298.437813  L 545.323092 46.437813  L 524.065949 46.437813  z " clip-path="url(#p16fc877126)" style="fill: #b91c1c; stroke: #ffffff; stroke-linejoin: miter" />
   </g>
   <g id="matplotlib.axis_1">
    <g id="xtick_1">
     <g id="line2d_1">
      <defs>
       <path id="m9b74c34297" d="M 0 0  L 0 3.5  " style="stroke: #000000; stroke-width: 0.8" />
      </defs>
      <g>
       <use ns4:href="#m9b74c34297" x="120.180234" y="311.037813" style="stroke: #000000; stroke-width: 0.8" />
      </g>
     </g>
     <g id="text_1">
      <text style="font: 10px 'DejaVu Sans', 'Bitstream Vera Sans', 'Computer Modern Sans Serif', 'Lucida Grande', 'Verdana', 'Geneva', 'Lucid', 'Arial', 'Helvetica', 'Avant Garde', sans-serif; text-anchor: middle" x="120.180234" y="325.63625" transform="rotate(-0 120.180234 325.63625)">0</text>
     </g>
    </g>
    <g id="xtick_2">
     <g id="line2d_2">
      <g>
       <use ns4:href="#m9b74c34297" x="191.037377" y="311.037813" style="stroke: #000000; stroke-width: 0.8" />
      </g>
     </g>
     <g id="text_2">
      <text style="font: 10px 'DejaVu Sans', 'Bitstream Vera Sans', 'Computer Modern Sans Serif', 'Lucida Grande', 'Verdana', 'Geneva', 'Lucid', 'Arial', 'Helvetica', 'Avant Garde', sans-serif; text-anchor: middle" x="191.037377" y="325.63625" transform="rotate(-0 191.037377 325.63625)">50</text>
     </g>
    </g>
    <g id="xtick_3">
     <g id="line2d_3">
      <g>
       <use ns4:href="#m9b74c34297" x="261.89452" y="311.037813" style="stroke: #000000; stroke-width: 0.8" />
      </g>
     </g>
     <g id="text_3">
      <text style="font: 10px 'DejaVu Sans', 'Bitstream Vera Sans', 'Computer Modern Sans Serif', 'Lucida Grande', 'Verdana', 'Geneva', 'Lucid', 'Arial', 'Helvetica', 'Avant Garde', sans-serif; text-anchor: middle" x="261.89452" y="325.63625" transform="rotate(-0 261.89452 325.63625)">100</text>
     </g>
    </g>
    <g id="xtick_4">
     <g id="line2d_4">
      <g>
       <use ns4:href="#m9b74c34297" x="332.751663" y="311.037813" style="stroke: #000000; stroke-width: 0.8" />
      </g>
     </g>
     <g id="text_4">
      <text style="font: 10px 'DejaVu Sans', 'Bitstream Vera Sans', 'Computer Modern Sans Serif', 'Lucida Grande', 'Verdana', 'Geneva', 'Lucid', 'Arial', 'Helvetica', 'Avant Garde', sans-serif; text-anchor: middle" x="332.751663" y="325.63625" transform="rotate(-0 332.751663 325.63625)">150</text>
     </g>
    </g>
    <g id="xtick_5">
     <g id="line2d_5">
      <g>
       <use ns4:href="#m9b74c34297" x="403.608806" y="311.037813" style="stroke: #000000; stroke-width: 0.8" />
      </g>
     </g>
     <g id="text_5">
      <text style="font: 10px 'DejaVu Sans', 'Bitstream Vera Sans', 'Computer Modern Sans Serif', 'Lucida Grande', 'Verdana', 'Geneva', 'Lucid', 'Arial', 'Helvetica', 'Avant Garde', sans-serif; text-anchor: middle" x="403.608806" y="325.63625" transform="rotate(-0 403.608806 325.63625)">200</text>
     </g>
    </g>
    <g id="xtick_6">
     <g id="line2d_6">
      <g>
       <use ns4:href="#m9b74c34297" x="474.465949" y="311.037813" style="stroke: #000000; stroke-width: 0.8" />
      </g>
     </g>
     <g id="text_6">
      <text style="font: 10px 'DejaVu Sans', 'Bitstream Vera Sans', 'Computer Modern Sans Serif', 'Lucida Grande', 'Verdana', 'Geneva', 'Lucid', 'Arial', 'Helvetica', 'Avant Garde', sans-serif; text-anchor: middle" x="474.465949" y="325.63625" transform="rotate(-0 474.465949 325.63625)">250</text>
     </g>
    </g>
    <g id="xtick_7">
     <g id="line2d_7">
      <g>
       <use ns4:href="#m9b74c34297" x="545.323092" y="311.037813" style="stroke: #000000; stroke-width: 0.8" />
      </g>
     </g>
     <g id="text_7">
      <text style="font: 10px 'DejaVu Sans', 'Bitstream Vera Sans', 'Computer Modern Sans Serif', 'Lucida Grande', 'Verdana', 'Geneva', 'Lucid', 'Arial', 'Helvetica', 'Avant Garde', sans-serif; text-anchor: middle" x="545.323092" y="325.63625" transform="rotate(-0 545.323092 325.63625)">300</text>
     </g>
    </g>
    <g id="text_8">
     <text style="font: 10px 'DejaVu Sans', 'Bitstream Vera Sans', 'Computer Modern Sans Serif', 'Lucida Grande', 'Verdana', 'Geneva', 'Lucid', 'Arial', 'Helvetica', 'Avant Garde', sans-serif; text-anchor: middle" x="343.380234" y="339.314375" transform="rotate(-0 343.380234 339.314375)">Minutes per day (approx. 5 hours total)</text>
    </g>
   </g>
   <g id="matplotlib.axis_2" />
   <g id="patch_8">
    <path d="M 120.180234 311.037813  L 566.580234 311.037813  " style="fill: none; stroke: #000000; stroke-width: 0.8; stroke-linejoin: miter; stroke-linecap: square" />
   </g>
   <g id="text_9">
    <path d="M 246.002377 173.89875  L 247.663315 173.89875  L 247.663315 169.18625  L 245.958627 169.537813  L 245.958627 168.258125  L 247.652377 167.906563  L 249.439877 167.906563  L 249.439877 173.89875  L 251.100815 173.89875  L 251.100815 175.197188  L 246.002377 175.197188  L 246.002377 173.89875  z M 252.790073 175.03625  L 252.790073 173.687813  Q 253.23851 173.89875 253.647885 174.003438  Q 254.058823 174.108125 254.458823 174.108125  Q 255.299448 174.108125 255.768198 173.6425  Q 256.236948 173.175313 256.31976 172.258125  Q 255.98851 172.501875 255.611948 172.62375  Q 255.235385 172.745625 254.796323 172.745625  Q 253.677573 172.745625 252.991635 172.094063  Q 252.305698 171.4425 252.305698 170.378438  Q 252.305698 169.200313 253.06976 168.4925  Q 253.833823 167.784688 255.118198 167.784688  Q 256.54476 167.784688 257.32601 168.747188  Q 258.10726 169.708125 258.10726 171.465938  Q 258.10726 173.27375 257.193198 174.306563  Q 256.280698 175.339375 254.68851 175.339375  Q 254.17601 175.339375 253.70726 175.262813  Q 253.23851 175.187813 252.790073 175.03625  z M 255.108823 171.525313  Q 255.602573 171.525313 255.85101 171.206563  Q 256.099448 170.88625 256.099448 170.245625  Q 256.099448 169.61125 255.85101 169.289375  Q 255.602573 168.965938 255.108823 168.965938  Q 254.615073 168.965938 254.366635 169.289375  Q 254.118198 169.61125 254.118198 170.245625  Q 254.118198 170.88625 254.366635 171.206563  Q 254.615073 171.525313 255.108823 171.525313  z M 262.227768 171.934688  Q 261.701205 171.934688 261.41683 172.22375  Q 261.134018 172.51125 261.134018 173.04875  Q 261.134018 173.58625 261.41683 173.872188  Q 261.701205 174.156563 262.227768 174.156563  Q 262.751205 174.156563 263.02933 173.872188  Q 263.307455 173.58625 263.307455 173.04875  Q 263.307455 172.506563 263.02933 172.220625  Q 262.751205 171.934688 262.227768 171.934688  z M 260.855893 171.315938  Q 260.19183 171.114375 259.85433 170.700313  Q 259.518393 170.284688 259.518393 169.664375  Q 259.518393 168.7425 260.205893 168.259688  Q 260.894955 167.775313 262.227768 167.775313  Q 263.551205 167.775313 264.238705 168.256563  Q 264.927768 168.737813 264.927768 169.664375  Q 264.927768 170.284688 264.588705 170.700313  Q 264.249643 171.114375 263.58558 171.315938  Q 264.327768 171.520625 264.705893 171.981563  Q 265.084018 172.4425 265.084018 173.145625  Q 265.084018 174.23 264.363705 174.784688  Q 263.643393 175.339375 262.227768 175.339375  Q 260.807455 175.339375 260.082455 174.784688  Q 259.357455 174.23 259.357455 173.145625  Q 259.357455 172.4425 259.73558 171.981563  Q 260.113705 171.520625 260.855893 171.315938  z M 261.294955 169.855  Q 261.294955 170.289375 261.537143 170.52375  Q 261.77933 170.758125 262.227768 170.758125  Q 262.66683 170.758125 262.905893 170.52375  Q 263.146518 170.289375 263.146518 169.855  Q 263.146518 169.420625 262.905893 169.189375  Q 262.66683 168.956563 262.227768 168.956563  Q 261.77933 168.956563 261.537143 169.190938  Q 261.294955 169.425313 261.294955 169.855  z M 271.612338 170.63625  Q 271.945151 170.128438 272.401401 169.862813  Q 272.857651 169.597188 273.404526 169.597188  Q 274.346713 169.597188 274.840463 170.178438  Q 275.334213 170.758125 275.334213 171.8675  L 275.334213 175.197188  L 273.576401 175.197188  L 273.576401 172.345625  Q 273.581088 172.281563 273.582651 172.214375  Q 273.585776 172.145625 273.585776 172.019063  Q 273.585776 171.437813 273.413901 171.176875  Q 273.243588 170.914375 272.862338 170.914375  Q 272.365463 170.914375 272.093588 171.325313  Q 271.823276 171.734688 271.812338 172.51125  L 271.812338 175.197188  L 270.054526 175.197188  L 270.054526 172.345625  Q 270.054526 171.437813 269.898276 171.176875  Q 269.742026 170.914375 269.342026 170.914375  Q 268.838901 170.914375 268.565463 171.326875  Q 268.292026 171.739375 268.292026 172.506563  L 268.292026 175.197188  L 266.534213 175.197188  L 266.534213 169.728438  L 268.292026 169.728438  L 268.292026 170.528438  Q 268.615463 170.065938 269.032651 169.831563  Q 269.449838 169.597188 269.952963 169.597188  Q 270.518588 169.597188 270.952963 169.870625  Q 271.388901 170.144063 271.612338 170.63625  z " style="stroke: #ffffff; stroke-width: 3" />
    <path d="M 246.002377 173.89875  L 247.663315 173.89875  L 247.663315 169.18625  L 245.958627 169.537813  L 245.958627 168.258125  L 247.652377 167.906563  L 249.439877 167.906563  L 249.439877 173.89875  L 251.100815 173.89875  L 251.100815 175.197188  L 246.002377 175.197188  L 246.002377 173.89875  z M 252.790073 175.03625  L 252.790073 173.687813  Q 253.23851 173.89875 253.647885 174.003438  Q 254.058823 174.108125 254.458823 174.108125  Q 255.299448 174.108125 255.768198 173.6425  Q 256.236948 173.175313 256.31976 172.258125  Q 255.98851 172.501875 255.611948 172.62375  Q 255.235385 172.745625 254.796323 172.745625  Q 253.677573 172.745625 252.991635 172.094063  Q 252.305698 171.4425 252.305698 170.378438  Q 252.305698 169.200313 253.06976 168.4925  Q 253.833823 167.784688 255.118198 167.784688  Q 256.54476 167.784688 257.32601 168.747188  Q 258.10726 169.708125 258.10726 171.465938  Q 258.10726 173.27375 257.193198 174.306563  Q 256.280698 175.339375 254.68851 175.339375  Q 254.17601 175.339375 253.70726 175.262813  Q 253.23851 175.187813 252.790073 175.03625  z M 255.108823 171.525313  Q 255.602573 171.525313 255.85101 171.206563  Q 256.099448 170.88625 256.099448 170.245625  Q 256.099448 169.61125 255.85101 169.289375  Q 255.602573 168.965938 255.108823 168.965938  Q 254.615073 168.965938 254.366635 169.289375  Q 254.118198 169.61125 254.118198 170.245625  Q 254.118198 170.88625 254.366635 171.206563  Q 254.615073 171.525313 255.108823 171.525313  z M 262.227768 171.934688  Q 261.701205 171.934688 261.41683 172.22375  Q 261.134018 172.51125 261.134018 173.04875  Q 261.134018 173.58625 261.41683 173.872188  Q 261.701205 174.156563 262.227768 174.156563  Q 262.751205 174.156563 263.02933 173.872188  Q 263.307455 173.58625 263.307455 173.04875  Q 263.307455 172.506563 263.02933 172.220625  Q 262.751205 171.934688 262.227768 171.934688  z M 260.855893 171.315938  Q 260.19183 171.114375 259.85433 170.700313  Q 259.518393 170.284688 259.518393 169.664375  Q 259.518393 168.7425 260.205893 168.259688  Q 260.894955 167.775313 262.227768 167.775313  Q 263.551205 167.775313 264.238705 168.256563  Q 264.927768 168.737813 264.927768 169.664375  Q 264.927768 170.284688 264.588705 170.700313  Q 264.249643 171.114375 263.58558 171.315938  Q 264.327768 171.520625 264.705893 171.981563  Q 265.084018 172.4425 265.084018 173.145625  Q 265.084018 174.23 264.363705 174.784688  Q 263.643393 175.339375 262.227768 175.339375  Q 260.807455 175.339375 260.082455 174.784688  Q 259.357455 174.23 259.357455 173.145625  Q 259.357455 172.4425 259.73558 171.981563  Q 260.113705 171.520625 260.855893 171.315938  z M 261.294955 169.855  Q 261.294955 170.289375 261.537143 170.52375  Q 261.77933 170.758125 262.227768 170.758125  Q 262.66683 170.758125 262.905893 170.52375  Q 263.146518 170.289375 263.146518 169.855  Q 263.146518 169.420625 262.905893 169.189375  Q 262.66683 168.956563 262.227768 168.956563  Q 261.77933 168.956563 261.537143 169.190938  Q 261.294955 169.425313 261.294955 169.855  z M 271.612338 170.63625  Q 271.945151 170.128438 272.401401 169.862813  Q 272.857651 169.597188 273.404526 169.597188  Q 274.346713 169.597188 274.840463 170.178438  Q 275.334213 170.758125 275.334213 171.8675  L 275.334213 175.197188  L 273.576401 175.197188  L 273.576401 172.345625  Q 273.581088 172.281563 273.582651 172.214375  Q 273.585776 172.145625 273.585776 172.019063  Q 273.585776 171.437813 273.413901 171.176875  Q 273.243588 170.914375 272.862338 170.914375  Q 272.365463 170.914375 272.093588 171.325313  Q 271.823276 171.734688 271.812338 172.51125  L 271.812338 175.197188  L 270.054526 175.197188  L 270.054526 172.345625  Q 270.054526 171.437813 269.898276 171.176875  Q 269.742026 170.914375 269.342026 170.914375  Q 268.838901 170.914375 268.565463 171.326875  Q 268.292026 171.739375 268.292026 172.506563  L 268.292026 175.197188  L 266.534213 175.197188  L 266.534213 169.728438  L 268.292026 169.728438  L 268.292026 170.528438  Q 268.615463 170.065938 269.032651 169.831563  Q 269.449838 169.597188 269.952963 169.597188  Q 270.518588 169.597188 270.952963 169.870625  Q 271.388901 170.144063 271.612338 170.63625  z " />
   </g>
   <g id="text_10">
    <path d="M 426.29923 169.455  L 424.239855 172.506563  L 426.29923 172.506563  L 426.29923 169.455  z M 425.98673 167.906563  L 428.077355 167.906563  L 428.077355 172.506563  L 429.116417 172.506563  L 429.116417 173.869063  L 428.077355 173.869063  L 428.077355 175.197188  L 426.29923 175.197188  L 426.29923 173.869063  L 423.06798 173.869063  L 423.06798 172.258125  L 425.98673 167.906563  z M 433.057238 171.934688  Q 432.530675 171.934688 432.2463 172.22375  Q 431.963488 172.51125 431.963488 173.04875  Q 431.963488 173.58625 432.2463 173.872188  Q 432.530675 174.156563 433.057238 174.156563  Q 433.580675 174.156563 433.8588 173.872188  Q 434.136925 173.58625 434.136925 173.04875  Q 434.136925 172.506563 433.8588 172.220625  Q 433.580675 171.934688 433.057238 171.934688  z M 431.685363 171.315938  Q 431.0213 171.114375 430.6838 170.700313  Q 430.347863 170.284688 430.347863 169.664375  Q 430.347863 168.7425 431.035363 168.259688  Q 431.724425 167.775313 433.057238 167.775313  Q 434.380675 167.775313 435.068175 168.256563  Q 435.757238 168.737813 435.757238 169.664375  Q 435.757238 170.284688 435.418175 170.700313  Q 435.079113 171.114375 434.41505 171.315938  Q 435.157238 171.520625 435.535363 171.981563  Q 435.913488 172.4425 435.913488 173.145625  Q 435.913488 174.23 435.193175 174.784688  Q 434.472863 175.339375 433.057238 175.339375  Q 431.636925 175.339375 430.911925 174.784688  Q 430.186925 174.23 430.186925 173.145625  Q 430.186925 172.4425 430.56505 171.981563  Q 430.943175 171.520625 431.685363 171.315938  z M 432.124425 169.855  Q 432.124425 170.289375 432.366613 170.52375  Q 432.6088 170.758125 433.057238 170.758125  Q 433.4963 170.758125 433.735363 170.52375  Q 433.975988 170.289375 433.975988 169.855  Q 433.975988 169.420625 433.735363 169.189375  Q 433.4963 168.956563 433.057238 168.956563  Q 432.6088 168.956563 432.366613 169.190938  Q 432.124425 169.425313 432.124425 169.855  z M 442.441808 170.63625  Q 442.774621 170.128438 443.230871 169.862813  Q 443.687121 169.597188 444.233996 169.597188  Q 445.176183 169.597188 445.669933 170.178438  Q 446.163683 170.758125 446.163683 171.8675  L 446.163683 175.197188  L 444.405871 175.197188  L 444.405871 172.345625  Q 444.410558 172.281563 444.412121 172.214375  Q 444.415246 172.145625 444.415246 172.019063  Q 444.415246 171.437813 444.243371 171.176875  Q 444.073058 170.914375 443.691808 170.914375  Q 443.194933 170.914375 442.923058 171.325313  Q 442.652746 171.734688 442.641808 172.51125  L 442.641808 175.197188  L 440.883996 175.197188  L 440.883996 172.345625  Q 440.883996 171.437813 440.727746 171.176875  Q 440.571496 170.914375 440.171496 170.914375  Q 439.668371 170.914375 439.394933 171.326875  Q 439.121496 171.739375 439.121496 172.506563  L 439.121496 175.197188  L 437.363683 175.197188  L 437.363683 169.728438  L 439.121496 169.728438  L 439.121496 170.528438  Q 439.444933 170.065938 439.862121 169.831563  Q 440.279308 169.597188 440.782433 169.597188  Q 441.348058 169.597188 441.782433 169.870625  Q 442.218371 170.144063 442.441808 170.63625  z " style="stroke: #ffffff; stroke-width: 3" />
    <path d="M 426.29923 169.455  L 424.239855 172.506563  L 426.29923 172.506563  L 426.29923 169.455  z M 425.98673 167.906563  L 428.077355 167.906563  L 428.077355 172.506563  L 429.116417 172.506563  L 429.116417 173.869063  L 428.077355 173.869063  L 428.077355 175.197188  L 426.29923 175.197188  L 426.29923 173.869063  L 423.06798 173.869063  L 423.06798 172.258125  L 425.98673 167.906563  z M 433.057238 171.934688  Q 432.530675 171.934688 432.2463 172.22375  Q 431.963488 172.51125 431.963488 173.04875  Q 431.963488 173.58625 432.2463 173.872188  Q 432.530675 174.156563 433.057238 174.156563  Q 433.580675 174.156563 433.8588 173.872188  Q 434.136925 173.58625 434.136925 173.04875  Q 434.136925 172.506563 433.8588 172.220625  Q 433.580675 171.934688 433.057238 171.934688  z M 431.685363 171.315938  Q 431.0213 171.114375 430.6838 170.700313  Q 430.347863 170.284688 430.347863 169.664375  Q 430.347863 168.7425 431.035363 168.259688  Q 431.724425 167.775313 433.057238 167.775313  Q 434.380675 167.775313 435.068175 168.256563  Q 435.757238 168.737813 435.757238 169.664375  Q 435.757238 170.284688 435.418175 170.700313  Q 435.079113 171.114375 434.41505 171.315938  Q 435.157238 171.520625 435.535363 171.981563  Q 435.913488 172.4425 435.913488 173.145625  Q 435.913488 174.23 435.193175 174.784688  Q 434.472863 175.339375 433.057238 175.339375  Q 431.636925 175.339375 430.911925 174.784688  Q 430.186925 174.23 430.186925 173.145625  Q 430.186925 172.4425 430.56505 171.981563  Q 430.943175 171.520625 431.685363 171.315938  z M 432.124425 169.855  Q 432.124425 170.289375 432.366613 170.52375  Q 432.6088 170.758125 433.057238 170.758125  Q 433.4963 170.758125 433.735363 170.52375  Q 433.975988 170.289375 433.975988 169.855  Q 433.975988 169.420625 433.735363 169.189375  Q 433.4963 168.956563 433.057238 168.956563  Q 432.6088 168.956563 432.366613 169.190938  Q 432.124425 169.425313 432.124425 169.855  z M 442.441808 170.63625  Q 442.774621 170.128438 443.230871 169.862813  Q 443.687121 169.597188 444.233996 169.597188  Q 445.176183 169.597188 445.669933 170.178438  Q 446.163683 170.758125 446.163683 171.8675  L 446.163683 175.197188  L 444.405871 175.197188  L 444.405871 172.345625  Q 444.410558 172.281563 444.412121 172.214375  Q 444.415246 172.145625 444.415246 172.019063  Q 444.415246 171.437813 444.243371 171.176875  Q 444.073058 170.914375 443.691808 170.914375  Q 443.194933 170.914375 442.923058 171.325313  Q 442.652746 171.734688 442.641808 172.51125  L 442.641808 175.197188  L 440.883996 175.197188  L 440.883996 172.345625  Q 440.883996 171.437813 440.727746 171.176875  Q 440.571496 170.914375 440.171496 170.914375  Q 439.668371 170.914375 439.394933 171.326875  Q 439.121496 171.739375 439.121496 172.506563  L 439.121496 175.197188  L 437.363683 175.197188  L 437.363683 169.728438  L 439.121496 169.728438  L 439.121496 170.528438  Q 439.444933 170.065938 439.862121 169.831563  Q 440.279308 169.597188 440.782433 169.597188  Q 441.348058 169.597188 441.782433 169.870625  Q 442.218371 170.144063 442.441808 170.63625  z " />
   </g>
   <g id="text_11">
    <path d="M 476.516373 173.815938  L 479.724185 173.815938  L 479.724185 175.197188  L 474.425748 175.197188  L 474.425748 173.815938  L 477.086685 171.465938  Q 477.444498 171.144063 477.61481 170.83625  Q 477.785123 170.528438 477.785123 170.197188  Q 477.785123 169.684688 477.441373 169.372188  Q 477.097623 169.059688 476.525748 169.059688  Q 476.086685 169.059688 475.563248 169.247188  Q 475.041373 169.434688 474.44606 169.806563  L 474.44606 168.205  Q 475.080435 167.995625 475.700748 167.88625  Q 476.32106 167.775313 476.916373 167.775313  Q 478.225748 167.775313 478.950748 168.351875  Q 479.675748 168.926875 479.675748 169.958125  Q 479.675748 170.553438 479.367935 171.069063  Q 479.060123 171.583125 478.074185 172.44875  L 476.516373 173.815938  z M 484.274381 169.455  L 482.215006 172.506563  L 484.274381 172.506563  L 484.274381 169.455  z M 483.961881 167.906563  L 486.052506 167.906563  L 486.052506 172.506563  L 487.091568 172.506563  L 487.091568 173.869063  L 486.052506 173.869063  L 486.052506 175.197188  L 484.274381 175.197188  L 484.274381 173.869063  L 481.043131 173.869063  L 481.043131 172.258125  L 483.961881 167.906563  z M 493.458951 170.63625  Q 493.791763 170.128438 494.248013 169.862813  Q 494.704263 169.597188 495.251138 169.597188  Q 496.193326 169.597188 496.687076 170.178438  Q 497.180826 170.758125 497.180826 171.8675  L 497.180826 175.197188  L 495.423013 175.197188  L 495.423013 172.345625  Q 495.427701 172.281563 495.429263 172.214375  Q 495.432388 172.145625 495.432388 172.019063  Q 495.432388 171.437813 495.260513 171.176875  Q 495.090201 170.914375 494.708951 170.914375  Q 494.212076 170.914375 493.940201 171.325313  Q 493.669888 171.734688 493.658951 172.51125  L 493.658951 175.197188  L 491.901138 175.197188  L 491.901138 172.345625  Q 491.901138 171.437813 491.744888 171.176875  Q 491.588638 170.914375 491.188638 170.914375  Q 490.685513 170.914375 490.412076 171.326875  Q 490.138638 171.739375 490.138638 172.506563  L 490.138638 175.197188  L 488.380826 175.197188  L 488.380826 169.728438  L 490.138638 169.728438  L 490.138638 170.528438  Q 490.462076 170.065938 490.879263 169.831563  Q 491.296451 169.597188 491.799576 169.597188  Q 492.365201 169.597188 492.799576 169.870625  Q 493.235513 170.144063 493.458951 170.63625  z " style="stroke: #ffffff; stroke-width: 3" />
    <path d="M 476.516373 173.815938  L 479.724185 173.815938  L 479.724185 175.197188  L 474.425748 175.197188  L 474.425748 173.815938  L 477.086685 171.465938  Q 477.444498 171.144063 477.61481 170.83625  Q 477.785123 170.528438 477.785123 170.197188  Q 477.785123 169.684688 477.441373 169.372188  Q 477.097623 169.059688 476.525748 169.059688  Q 476.086685 169.059688 475.563248 169.247188  Q 475.041373 169.434688 474.44606 169.806563  L 474.44606 168.205  Q 475.080435 167.995625 475.700748 167.88625  Q 476.32106 167.775313 476.916373 167.775313  Q 478.225748 167.775313 478.950748 168.351875  Q 479.675748 168.926875 479.675748 169.958125  Q 479.675748 170.553438 479.367935 171.069063  Q 479.060123 171.583125 478.074185 172.44875  L 476.516373 173.815938  z M 484.274381 169.455  L 482.215006 172.506563  L 484.274381 172.506563  L 484.274381 169.455  z M 483.961881 167.906563  L 486.052506 167.906563  L 486.052506 172.506563  L 487.091568 172.506563  L 487.091568 173.869063  L 486.052506 173.869063  L 486.052506 175.197188  L 484.274381 175.197188  L 484.274381 173.869063  L 481.043131 173.869063  L 481.043131 172.258125  L 483.961881 167.906563  z M 493.458951 170.63625  Q 493.791763 170.128438 494.248013 169.862813  Q 494.704263 169.597188 495.251138 169.597188  Q 496.193326 169.597188 496.687076 170.178438  Q 497.180826 170.758125 497.180826 171.8675  L 497.180826 175.197188  L 495.423013 175.197188  L 495.423013 172.345625  Q 495.427701 172.281563 495.429263 172.214375  Q 495.432388 172.145625 495.432388 172.019063  Q 495.432388 171.437813 495.260513 171.176875  Q 495.090201 170.914375 494.708951 170.914375  Q 494.212076 170.914375 493.940201 171.325313  Q 493.669888 171.734688 493.658951 172.51125  L 493.658951 175.197188  L 491.901138 175.197188  L 491.901138 172.345625  Q 491.901138 171.437813 491.744888 171.176875  Q 491.588638 170.914375 491.188638 170.914375  Q 490.685513 170.914375 490.412076 171.326875  Q 490.138638 171.739375 490.138638 172.506563  L 490.138638 175.197188  L 488.380826 175.197188  L 488.380826 169.728438  L 490.138638 169.728438  L 490.138638 170.528438  Q 490.462076 170.065938 490.879263 169.831563  Q 491.296451 169.597188 491.799576 169.597188  Q 492.365201 169.597188 492.799576 169.870625  Q 493.235513 170.144063 493.458951 170.63625  z " />
   </g>
   <g id="text_12">
    <path d="M 502.441283 173.89875  L 504.102221 173.89875  L 504.102221 169.18625  L 502.397533 169.537813  L 502.397533 168.258125  L 504.091283 167.906563  L 505.878783 167.906563  L 505.878783 173.89875  L 507.539721 173.89875  L 507.539721 175.197188  L 502.441283 175.197188  L 502.441283 173.89875  z M 509.286791 167.906563  L 513.960229 167.906563  L 513.960229 169.289375  L 510.786791 169.289375  L 510.786791 170.4175  Q 511.000854 170.358125 511.218041 170.326875  Q 511.435229 170.294063 511.669604 170.294063  Q 513.002416 170.294063 513.744604 170.96125  Q 514.486791 171.628438 514.486791 172.819063  Q 514.486791 174.000313 513.678979 174.670625  Q 512.871166 175.339375 511.435229 175.339375  Q 510.814916 175.339375 510.207104 175.219063  Q 509.599291 175.09875 508.999291 174.855  L 508.999291 173.375313  Q 509.594604 173.7175 510.128979 173.889375  Q 510.663354 174.059688 511.138354 174.059688  Q 511.821166 174.059688 512.213354 173.725313  Q 512.607104 173.390938 512.607104 172.819063  Q 512.607104 172.2425 512.213354 171.91125  Q 511.821166 171.578438 511.138354 171.578438  Q 510.732104 171.578438 510.272729 171.684688  Q 509.814916 171.789375 509.286791 172.008125  L 509.286791 167.906563  z M 521.093237 170.63625  Q 521.426049 170.128438 521.882299 169.862813  Q 522.338549 169.597188 522.885424 169.597188  Q 523.827612 169.597188 524.321362 170.178438  Q 524.815112 170.758125 524.815112 171.8675  L 524.815112 175.197188  L 523.057299 175.197188  L 523.057299 172.345625  Q 523.061987 172.281563 523.063549 172.214375  Q 523.066674 172.145625 523.066674 172.019063  Q 523.066674 171.437813 522.894799 171.176875  Q 522.724487 170.914375 522.343237 170.914375  Q 521.846362 170.914375 521.574487 171.325313  Q 521.304174 171.734688 521.293237 172.51125  L 521.293237 175.197188  L 519.535424 175.197188  L 519.535424 172.345625  Q 519.535424 171.437813 519.379174 171.176875  Q 519.222924 170.914375 518.822924 170.914375  Q 518.319799 170.914375 518.046362 171.326875  Q 517.772924 171.739375 517.772924 172.506563  L 517.772924 175.197188  L 516.015112 175.197188  L 516.015112 169.728438  L 517.772924 169.728438  L 517.772924 170.528438  Q 518.096362 170.065938 518.513549 169.831563  Q 518.930737 169.597188 519.433862 169.597188  Q 519.999487 169.597188 520.433862 169.870625  Q 520.869799 170.144063 521.093237 170.63625  z " style="stroke: #ffffff; stroke-width: 3" />
    <path d="M 502.441283 173.89875  L 504.102221 173.89875  L 504.102221 169.18625  L 502.397533 169.537813  L 502.397533 168.258125  L 504.091283 167.906563  L 505.878783 167.906563  L 505.878783 173.89875  L 507.539721 173.89875  L 507.539721 175.197188  L 502.441283 175.197188  L 502.441283 173.89875  z M 509.286791 167.906563  L 513.960229 167.906563  L 513.960229 169.289375  L 510.786791 169.289375  L 510.786791 170.4175  Q 511.000854 170.358125 511.218041 170.326875  Q 511.435229 170.294063 511.669604 170.294063  Q 513.002416 170.294063 513.744604 170.96125  Q 514.486791 171.628438 514.486791 172.819063  Q 514.486791 174.000313 513.678979 174.670625  Q 512.871166 175.339375 511.435229 175.339375  Q 510.814916 175.339375 510.207104 175.219063  Q 509.599291 175.09875 508.999291 174.855  L 508.999291 173.375313  Q 509.594604 173.7175 510.128979 173.889375  Q 510.663354 174.059688 511.138354 174.059688  Q 511.821166 174.059688 512.213354 173.725313  Q 512.607104 173.390938 512.607104 172.819063  Q 512.607104 172.2425 512.213354 171.91125  Q 511.821166 171.578438 511.138354 171.578438  Q 510.732104 171.578438 510.272729 171.684688  Q 509.814916 171.789375 509.286791 172.008125  L 509.286791 167.906563  z M 521.093237 170.63625  Q 521.426049 170.128438 521.882299 169.862813  Q 522.338549 169.597188 522.885424 169.597188  Q 523.827612 169.597188 524.321362 170.178438  Q 524.815112 170.758125 524.815112 171.8675  L 524.815112 175.197188  L 523.057299 175.197188  L 523.057299 172.345625  Q 523.061987 172.281563 523.063549 172.214375  Q 523.066674 172.145625 523.066674 172.019063  Q 523.066674 171.437813 522.894799 171.176875  Q 522.724487 170.914375 522.343237 170.914375  Q 521.846362 170.914375 521.574487 171.325313  Q 521.304174 171.734688 521.293237 172.51125  L 521.293237 175.197188  L 519.535424 175.197188  L 519.535424 172.345625  Q 519.535424 171.437813 519.379174 171.176875  Q 519.222924 170.914375 518.822924 170.914375  Q 518.319799 170.914375 518.046362 171.326875  Q 517.772924 171.739375 517.772924 172.506563  L 517.772924 175.197188  L 516.015112 175.197188  L 516.015112 169.728438  L 517.772924 169.728438  L 517.772924 170.528438  Q 518.096362 170.065938 518.513549 169.831563  Q 518.930737 169.597188 519.433862 169.597188  Q 519.999487 169.597188 520.433862 169.870625  Q 520.869799 170.144063 521.093237 170.63625  z " />
   </g>
   <g id="text_13">
    <path d="M 523.698426 173.89875  L 525.359364 173.89875  L 525.359364 169.18625  L 523.654676 169.537813  L 523.654676 168.258125  L 525.348426 167.906563  L 527.135926 167.906563  L 527.135926 173.89875  L 528.796864 173.89875  L 528.796864 175.197188  L 523.698426 175.197188  L 523.698426 173.89875  z M 530.543934 167.906563  L 535.217372 167.906563  L 535.217372 169.289375  L 532.043934 169.289375  L 532.043934 170.4175  Q 532.257997 170.358125 532.475184 170.326875  Q 532.692372 170.294063 532.926747 170.294063  Q 534.259559 170.294063 535.001747 170.96125  Q 535.743934 171.628438 535.743934 172.819063  Q 535.743934 174.000313 534.936122 174.670625  Q 534.128309 175.339375 532.692372 175.339375  Q 532.072059 175.339375 531.464247 175.219063  Q 530.856434 175.09875 530.256434 174.855  L 530.256434 173.375313  Q 530.851747 173.7175 531.386122 173.889375  Q 531.920497 174.059688 532.395497 174.059688  Q 533.078309 174.059688 533.470497 173.725313  Q 533.864247 173.390938 533.864247 172.819063  Q 533.864247 172.2425 533.470497 171.91125  Q 533.078309 171.578438 532.395497 171.578438  Q 531.989247 171.578438 531.529872 171.684688  Q 531.072059 171.789375 530.543934 172.008125  L 530.543934 167.906563  z M 542.350379 170.63625  Q 542.683192 170.128438 543.139442 169.862813  Q 543.595692 169.597188 544.142567 169.597188  Q 545.084754 169.597188 545.578504 170.178438  Q 546.072254 170.758125 546.072254 171.8675  L 546.072254 175.197188  L 544.314442 175.197188  L 544.314442 172.345625  Q 544.319129 172.281563 544.320692 172.214375  Q 544.323817 172.145625 544.323817 172.019063  Q 544.323817 171.437813 544.151942 171.176875  Q 543.981629 170.914375 543.600379 170.914375  Q 543.103504 170.914375 542.831629 171.325313  Q 542.561317 171.734688 542.550379 172.51125  L 542.550379 175.197188  L 540.792567 175.197188  L 540.792567 172.345625  Q 540.792567 171.437813 540.636317 171.176875  Q 540.480067 170.914375 540.080067 170.914375  Q 539.576942 170.914375 539.303504 171.326875  Q 539.030067 171.739375 539.030067 172.506563  L 539.030067 175.197188  L 537.272254 175.197188  L 537.272254 169.728438  L 539.030067 169.728438  L 539.030067 170.528438  Q 539.353504 170.065938 539.770692 169.831563  Q 540.187879 169.597188 540.691004 169.597188  Q 541.256629 169.597188 541.691004 169.870625  Q 542.126942 170.144063 542.350379 170.63625  z " style="stroke: #ffffff; stroke-width: 3" />
    <path d="M 523.698426 173.89875  L 525.359364 173.89875  L 525.359364 169.18625  L 523.654676 169.537813  L 523.654676 168.258125  L 525.348426 167.906563  L 527.135926 167.906563  L 527.135926 173.89875  L 528.796864 173.89875  L 528.796864 175.197188  L 523.698426 175.197188  L 523.698426 173.89875  z M 530.543934 167.906563  L 535.217372 167.906563  L 535.217372 169.289375  L 532.043934 169.289375  L 532.043934 170.4175  Q 532.257997 170.358125 532.475184 170.326875  Q 532.692372 170.294063 532.926747 170.294063  Q 534.259559 170.294063 535.001747 170.96125  Q 535.743934 171.628438 535.743934 172.819063  Q 535.743934 174.000313 534.936122 174.670625  Q 534.128309 175.339375 532.692372 175.339375  Q 532.072059 175.339375 531.464247 175.219063  Q 530.856434 175.09875 530.256434 174.855  L 530.256434 173.375313  Q 530.851747 173.7175 531.386122 173.889375  Q 531.920497 174.059688 532.395497 174.059688  Q 533.078309 174.059688 533.470497 173.725313  Q 533.864247 173.390938 533.864247 172.819063  Q 533.864247 172.2425 533.470497 171.91125  Q 533.078309 171.578438 532.395497 171.578438  Q 531.989247 171.578438 531.529872 171.684688  Q 531.072059 171.789375 530.543934 172.008125  L 530.543934 167.906563  z M 542.350379 170.63625  Q 542.683192 170.128438 543.139442 169.862813  Q 543.595692 169.597188 544.142567 169.597188  Q 545.084754 169.597188 545.578504 170.178438  Q 546.072254 170.758125 546.072254 171.8675  L 546.072254 175.197188  L 544.314442 175.197188  L 544.314442 172.345625  Q 544.319129 172.281563 544.320692 172.214375  Q 544.323817 172.145625 544.323817 172.019063  Q 544.323817 171.437813 544.151942 171.176875  Q 543.981629 170.914375 543.600379 170.914375  Q 543.103504 170.914375 542.831629 171.325313  Q 542.561317 171.734688 542.550379 172.51125  L 542.550379 175.197188  L 540.792567 175.197188  L 540.792567 172.345625  Q 540.792567 171.437813 540.636317 171.176875  Q 540.480067 170.914375 540.080067 170.914375  Q 539.576942 170.914375 539.303504 171.326875  Q 539.030067 171.739375 539.030067 172.506563  L 539.030067 175.197188  L 537.272254 175.197188  L 537.272254 169.728438  L 539.030067 169.728438  L 539.030067 170.528438  Q 539.353504 170.065938 539.770692 169.831563  Q 540.187879 169.597188 540.691004 169.597188  Q 541.256629 169.597188 541.691004 169.870625  Q 542.126942 170.144063 542.350379 170.63625  z " />
   </g>
   <g id="text_14">
    <text style="font: 700 14px 'DejaVu Sans', 'Bitstream Vera Sans', 'Computer Modern Sans Serif', 'Lucida Grande', 'Verdana', 'Geneva', 'Lucid', 'Arial', 'Helvetica', 'Avant Garde', sans-serif; text-anchor: middle" x="343.380234" y="17.837813" transform="rotate(-0 343.380234 17.837813)">Estimated daily online time by activity (India)</text>
   </g>
   <g id="legend_1">
    <g id="patch_9">
     <path d="M 92.034797 360.90025  L 112.034797 360.90025  L 112.034797 353.90025  L 92.034797 353.90025  z " style="fill: #1d4ed8; stroke: #ffffff; stroke-linejoin: miter" />
    </g>
    <g id="text_15">
     <text style="font: 10px 'DejaVu Sans', 'Bitstream Vera Sans', 'Computer Modern Sans Serif', 'Lucida Grande', 'Verdana', 'Geneva', 'Lucid', 'Arial', 'Helvetica', 'Avant Garde', sans-serif; text-anchor: start" x="120.034797" y="360.90025" transform="rotate(-0 120.034797 360.90025)">Entertainment</text>
    </g>
    <g id="patch_10">
     <path d="M 212.191047 360.90025  L 232.191047 360.90025  L 232.191047 353.90025  L 212.191047 353.90025  z " style="fill: #9a3412; stroke: #ffffff; stroke-linejoin: miter" />
    </g>
    <g id="text_16">
     <text style="font: 10px 'DejaVu Sans', 'Bitstream Vera Sans', 'Computer Modern Sans Serif', 'Lucida Grande', 'Verdana', 'Geneva', 'Lucid', 'Arial', 'Helvetica', 'Avant Garde', sans-serif; text-anchor: start" x="240.191047" y="360.90025" transform="rotate(-0 240.191047 360.90025)">Education</text>
    </g>
    <g id="patch_11">
     <path d="M 309.976984 360.90025  L 329.976984 360.90025  L 329.976984 353.90025  L 309.976984 353.90025  z " style="fill: #15803d; stroke: #ffffff; stroke-linejoin: miter" />
    </g>
    <g id="text_17">
     <text style="font: 10px 'DejaVu Sans', 'Bitstream Vera Sans', 'Computer Modern Sans Serif', 'Lucida Grande', 'Verdana', 'Geneva', 'Lucid', 'Arial', 'Helvetica', 'Avant Garde', sans-serif; text-anchor: start" x="337.976984" y="360.90025" transform="rotate(-0 337.976984 360.90025)">Communication</text>
    </g>
    <g id="patch_12">
     <path d="M 436.794172 360.90025  L 456.794172 360.90025  L 456.794172 353.90025  L 436.794172 353.90025  z " style="fill: #6b21a8; stroke: #ffffff; stroke-linejoin: miter" />
    </g>
    <g id="text_18">
     <text style="font: 10px 'DejaVu Sans', 'Bitstream Vera Sans', 'Computer Modern Sans Serif', 'Lucida Grande', 'Verdana', 'Geneva', 'Lucid', 'Arial', 'Helvetica', 'Avant Garde', sans-serif; text-anchor: start" x="464.794172" y="360.90025" transform="rotate(-0 464.794172 360.90025)">Work</text>
    </g>
    <g id="patch_13">
     <path d="M 510.114484 360.90025  L 530.114484 360.90025  L 530.114484 353.90025  L 510.114484 353.90025  z " style="fill: #b91c1c; stroke: #ffffff; stroke-linejoin: miter" />
    </g>
    <g id="text_19">
     <text style="font: 10px 'DejaVu Sans', 'Bitstream Vera Sans', 'Computer Modern Sans Serif', 'Lucida Grande', 'Verdana', 'Geneva', 'Lucid', 'Arial', 'Helvetica', 'Avant Garde', sans-serif; text-anchor: start" x="538.114484" y="360.90025" transform="rotate(-0 538.114484 360.90025)">Other</text>
    </g>
   </g>
  </g>
  <g id="text_20">
   <text style="font: italic 9px 'DejaVu Sans', 'Bitstream Vera Sans', 'Computer Modern Sans Serif', 'Lucida Grande', 'Verdana', 'Geneva', 'Lucid', 'Arial', 'Helvetica', 'Avant Garde', sans-serif; text-anchor: middle" x="336.180234" y="372.237813" transform="rotate(-0 336.180234 372.237813)">Source: NCAER IHDS Wave 3 and IAMAI-Kantar 2024 — Illustrative allocation based on reported share of use; not a direct time-use measurement.</text>
  </g>
 </g>
 <defs>
  <clipPath id="p16fc877126">
   <rect x="120.180234" y="33.837813" width="446.4" height="277.2" />
  </clipPath>
 </defs>
</svg>