<svg xmlns="http://www.w3.org/2000/svg" xmlns:dc="http://purl.org/dc/elements/1.1/" xmlns:ns2="http://creativecommons.org/ns#" xmlns:ns4="http://www.w3.org/1999/xlink" xmlns:rdf="http://www.w3.org/1999/02/22-rdf-syntax-ns#" width="672.360469pt" height="381.309531pt" viewBox="0 0 672.360469 381.309531" version="1.1">
 <title>Estimated daily online time by activity (India)</title><desc>Estimated daily online time by activity (India). Source: NCAER IHDS Wave 3 and IAMAI-Kantar 2024. Illustrative allocation based on reported share of use; not a direct time-use measurement.</desc><metadata>
  <rdf:RDF>
   <ns2:Work>
    <dc:type rdf:resource="http://purl.org/dc/dcmitype/StillImage" />
    <dc:date>2026-07-05T09:35:10.572243</dc:date>
    <dc:format>image/svg+xml</dc:format>
    <dc:creator>
     <ns2:Agent>
      <dc:title>Matplotlib v3.9.4, https://matplotlib.org/</dc:title>
     </ns2:Agent>
    </dc:creator>
   </ns2:Work>
  </rdf:RDF>
 </metadata>
 <defs>
  <style type="text/css">*{stroke-linejoin: round; stroke-linecap: butt}</style>
 </defs>
 <g id="figure_1">
  <g id="patch_1">
   <path d="M 0 381.309531  L 672.360469 381.309531  L 672.360469 0  L 0 0  z " style="fill: #ffffff" />
  </g>
  <g id="axes_1">
   <g id="patch_2">
    <path d="M 120.180234 311.037813  L 566.580234 311.037813  L 566.580234 33.837813  L 120.180234 33.837813  z " style="fill: #ffffff" />
   </g>
   <g id="patch_3">
    <path d="M 120.180234 298.437813  L 400.77452 298.437813  L 400.77452 46.437813  L 120.180234 46.437813  z " clip-path="url(#p1837460320)" style="fill: #2563eb; stroke: #ffffff; stroke-linejoin: miter" />
   </g>
   <g id="patch_4">
    <path d="M 400.77452 298.437813  L 468.797377 298.437813  L 468.797377 46.437813  L 400.77452 46.437813  z " clip-path="url(#p1837460320)" style="fill: #7c3aed; stroke: #ffffff; stroke-linejoin: miter" />
   </g>
   <g id="patch_5">
    <path d="M 468.797377 298.437813  L 502.808806 298.437813  L 502.808806 46.437813  L 468.797377 46.437813  z " clip-path="url(#p1837460320)" style="fill: #059669; stroke: #ffffff; stroke-linejoin: miter" />
   </g>
   <g id="patch_6">
    <path d="M 502.808806 298.437813  L 524.065949 298.437813  L 524.065949 46.437813  L 502.808806 46.437813  z " clip-path="url(#p1837460320)" style="fill: #d97706; stroke: #ffffff; stroke-linejoin: miter" />
   </g>
   <g id="patch_7">
    <path d="M 524.065949 298.437813  L 545.323092 298.437813  L 545.323092 46.437813  L 524.065949 46.437813  z " clip-path="url(#p1837460320)" style="fill: #dc2626; stroke: #ffffff; stroke-linejoin: miter" />
   </g>
   <g id="matplotlib.axis_1">
    <g id="xtick_1">
     <g id="line2d_1">
      <defs>
       <path id="m3f728f8d7c" d="M 0 0  L 0 3.5  " style="stroke: #000000; stroke-width: 0.8" />
      </defs>
      <g>
       <use ns4:href="#m3f728f8d7c" x="120.180234" y="311.037813" style="stroke: #000000; stroke-width: 0.8" />
      </g>
     </g>
     <g id="text_1">
      
      <g transform="translate(116.998984 325.63625) scale(0.1 -0.1)">
       <defs>
        <path id="DejaVuSans-30" d="M 2034 4250  Q 1547 4250 1301 3770  Q 1056 3291 1056 2328  Q 1056 1369 1301 889  Q 1547 409 2034 409  Q 2525 409 2770 889  Q 3016 1369 3016 2328  Q 3016 3291 2770 3770  Q 2525 4250 2034 4250  z M 2034 4750  Q 2819 4750 3233 4129  Q 3647 3509 3647 2328  Q 3647 1150 3233 529  Q 2819 -91 2034 -91  Q 1250 -91 836 529  Q 422 1150 422 2328  Q 422 3509 836 4129  Q 1250 4750 2034 4750  z " transform="scale(0.015625)" />
       </defs>
       <use ns4:href="#DejaVuSans-30" />
      </g>
     </g>
    </g>
    <g id="xtick_2">
     <g id="line2d_2">
      <g>
       <use ns4:href="#m3f728f8d7c" x="191.037377" y="311.037813" style="stroke: #000000; stroke-width: 0.8" />
      </g>
     </g>
     <g id="text_2">
      
      <g transform="translate(184.674877 325.63625) scale(0.1 -0.1)">
       <defs>
        <path id="DejaVuSans-35" d="M 691 4666  L 3169 4666  L 3169 4134  L 1269 4134  L 1269 2991  Q 1406 3038 1543 3061  Q 1681 3084 1819 3084  Q 2600 3084 3056 2656  Q 3513 2228 3513 1497  Q 3513 744 3044 326  Q 2575 -91 1722 -91  Q 1428 -91 1123 -41  Q 819 9 494 109  L 494 744  Q 775 591 1075 516  Q 1375 441 1709 441  Q 2250 441 2565 725  Q 2881 1009 2881 1497  Q 2881 1984 2565 2268  Q 2250 2553 1709 2553  Q 1456 2553 1204 2497  Q 953 2441 691 2322  L 691 4666  z " transform="scale(0.015625)" />
       </defs>
       <use ns4:href="#DejaVuSans-35" />
       <use ns4:href="#DejaVuSans-30" x="63.623047" />
      </g>
     </g>
    </g>
    <g id="xtick_3">
     <g id="line2d_3">
      <g>
       <use ns4:href="#m3f728f8d7c" x="261.89452" y="311.037813" style="stroke: #000000; stroke-width: 0.8" />
      </g>
     </g>
     <g id="text_3">
      
      <g transform="translate(252.35077 325.63625) scale(0.1 -0.1)">
       <defs>
        <path id="DejaVuSans-31" d="M 794 531  L 1825 531  L 1825 4091  L 703 3866  L 703 4441  L 1819 4666  L 2450 4666  L 2450 531  L 3481 531  L 3481 0  L 794 0  L 794 531  z " transform="scale(0.015625)" />
       </defs>
       <use ns4:href="#DejaVuSans-31" />
       <use ns4:href="#DejaVuSans-30" x="63.623047" />
       <use ns4:href="#DejaVuSans-30" x="127.246094" />
      </g>
     </g>
    </g>
    <g id="xtick_4">
     <g id="line2d_4">
      <g>
       <use ns4:href="#m3f728f8d7c" x="332.751663" y="311.037813" style="stroke: #000000; stroke-width: 0.8" />
      </g>
     </g>
     <g id="text_4">
      
      <g transform="translate(323.207913 325.63625) scale(0.1 -0.1)">
       <use ns4:href="#DejaVuSans-31" />
       <use ns4:href="#DejaVuSans-35" x="63.623047" />
       <use ns4:href="#DejaVuSans-30" x="127.246094" />
      </g>
     </g>
    </g>
    <g id="xtick_5">
     <g id="line2d_5">
      <g>
       <use ns4:href="#m3f728f8d7c" x="403.608806" y="311.037813" style="stroke: #000000; stroke-width: 0.8" />
      </g>
     </g>
     <g id="text_5">
      
      <g transform="translate(394.065056 325.63625) scale(0.1 -0.1)">
       <defs>
        <path id="DejaVuSans-32" d="M 1228 531  L 3431 531  L 3431 0  L 469 0  L 469 531  Q 828 903 1448 1529  Q 2069 2156 2228 2338  Q 2531 2678 2651 2914  Q 2772 3150 2772 3378  Q 2772 3750 2511 3984  Q 2250 4219 1831 4219  Q 1534 4219 1204 4116  Q 875 4013 500 3803  L 500 4441  Q 881 4594 1212 4672  Q 1544 4750 1819 4750  Q 2544 4750 2975 4387  Q 3406 4025 3406 3419  Q 3406 3131 3298 2873  Q 3191 2616 2906 2266  Q 2828 2175 2409 1742  Q 1991 1309 1228 531  z " transform="scale(0.015625)" />
       </defs>
       <use ns4:href="#DejaVuSans-32" />
       <use ns4:href="#DejaVuSans-30" x="63.623047" />
       <use ns4:href="#DejaVuSans-30" x="127.246094" />
      </g>
     </g>
    </g>
    <g id="xtick_6">
     <g id="line2d_6">
      <g>
       <use ns4:href="#m3f728f8d7c" x="474.465949" y="311.037813" style="stroke: #000000; stroke-width: 0.8" />
      </g>
     </g>
     <g id="text_6">
      
      <g transform="translate(464.922199 325.63625) scale(0.1 -0.1)">
       <use ns4:href="#DejaVuSans-32" />
       <use ns4:href="#DejaVuSans-35" x="63.623047" />
       <use ns4:href="#DejaVuSans-30" x="127.246094" />
      </g>
     </g>
    </g>
    <g id="xtick_7">
     <g id="line2d_7">
      <g>
       <use ns4:href="#m3f728f8d7c" x="545.323092" y="311.037813" style="stroke: #000000; stroke-width: 0.8" />
      </g>
     </g>
     <g id="text_7">
      
      <g transform="translate(535.779342 325.63625) scale(0.1 -0.1)">
       <defs>
        <path id="DejaVuSans-33" d="M 2597 2516  Q 3050 2419 3304 2112  Q 3559 1806 3559 1356  Q 3559 666 3084 287  Q 2609 -91 1734 -91  Q 1441 -91 1130 -33  Q 819 25 488 141  L 488 750  Q 750 597 1062 519  Q 1375 441 1716 441  Q 2309 441 2620 675  Q 2931 909 2931 1356  Q 2931 1769 2642 2001  Q 2353 2234 1838 2234  L 1294 2234  L 1294 2753  L 1863 2753  Q 2328 2753 2575 2939  Q 2822 3125 2822 3475  Q 2822 3834 2567 4026  Q 2313 4219 1838 4219  Q 1578 4219 1281 4162  Q 984 4106 628 3988  L 628 4550  Q 988 4650 1302 4700  Q 1616 4750 1894 4750  Q 2613 4750 3031 4423  Q 3450 4097 3450 3541  Q 3450 3153 3228 2886  Q 3006 2619 2597 2516  z " transform="scale(0.015625)" />
       </defs>
       <use ns4:href="#DejaVuSans-33" />
       <use ns4:href="#DejaVuSans-30" x="63.623047" />
       <use ns4:href="#DejaVuSans-30" x="127.246094" />
      </g>
     </g>
    </g>
    <g id="text_8">
     
     <g transform="translate(245.280234 339.314375) scale(0.1 -0.1)">
      <defs>
       <path id="DejaVuSans-4d" d="M 628 4666  L 1569 4666  L 2759 1491  L 3956 4666  L 4897 4666  L 4897 0  L 4281 0  L 4281 4097  L 3078 897  L 2444 897  L 1241 4097  L 1241 0  L 628 0  L 628 4666  z " transform="scale(0.015625)" />
       <path id="DejaVuSans-69" d="M 603 3500  L 1178 3500  L 1178 0  L 603 0  L 603 3500  z M 603 4863  L 1178 4863  L 1178 4134  L 603 4134  L 603 4863  z " transform="scale(0.015625)" />
       <path id="DejaVuSans-6e" d="M 3513 2113  L 3513 0  L 2938 0  L 2938 2094  Q 2938 2591 2744 2837  Q 2550 3084 2163 3084  Q 1697 3084 1428 2787  Q 1159 2491 1159 1978  L 1159 0  L 581 0  L 581 3500  L 1159 3500  L 1159 2956  Q 1366 3272 1645 3428  Q 1925 3584 2291 3584  Q 2894 3584 3203 3211  Q 3513 2838 3513 2113  z " transform="scale(0.015625)" />
       <path id="DejaVuSans-75" d="M 544 1381  L 544 3500  L 1119 3500  L 1119 1403  Q 1119 906 1312 657  Q 1506 409 1894 409  Q 2359 409 2629 706  Q 2900 1003 2900 1516  L 2900 3500  L 3475 3500  L 3475 0  L 2900 0  L 2900 538  Q 2691 219 2414 64  Q 2138 -91 1772 -91  Q 1169 -91 856 284  Q 544 659 544 1381  z M 1991 3584  L 1991 3584  z " transform="scale(0.015625)" />
       <path id="DejaVuSans-74" d="M 1172 4494  L 1172 3500  L 2356 3500  L 2356 3053  L 1172 3053  L 1172 1153  Q 1172 725 1289 603  Q 1406 481 1766 481  L 2356 481  L 2356 0  L 1766 0  Q 1100 0 847 248  Q 594 497 594 1153  L 594 3053  L 172 3053  L 172 3500  L 594 3500  L 594 4494  L 1172 4494  z " transform="scale(0.015625)" />
       <path id="DejaVuSans-65" d="M 3597 1894  L 3597 1613  L 953 1613  Q 991 1019 1311 708  Q 1631 397 2203 397  Q 2534 397 2845 478  Q 3156 559 3463 722  L 3463 178  Q 3153 47 2828 -22  Q 2503 -91 2169 -91  Q 1331 -91 842 396  Q 353 884 353 1716  Q 353 2575 817 3079  Q 1281 3584 2069 3584  Q 2775 3584 3186 3129  Q 3597 2675 3597 1894  z M 3022 2063  Q 3016 2534 2758 2815  Q 2500 3097 2075 3097  Q 1594 3097 1305 2825  Q 1016 2553 972 2059  L 3022 2063  z " transform="scale(0.015625)" />
       <path id="DejaVuSans-73" d="M 2834 3397  L 2834 2853  Q 2591 2978 2328 3040  Q 2066 3103 1784 3103  Q 1356 3103 1142 2972  Q 928 2841 928 2578  Q 928 2378 1081 2264  Q 1234 2150 1697 2047  L 1894 2003  Q 2506 1872 2764 1633  Q 3022 1394 3022 966  Q 3022 478 2636 193  Q 2250 -91 1575 -91  Q 1294 -91 989 -36  Q 684 19 347 128  L 347 722  Q 666 556 975 473  Q 1284 391 1588 391  Q 1994 391 2212 530  Q 2431 669 2431 922  Q 2431 1156 2273 1281  Q 2116 1406 1581 1522  L 1381 1569  Q 847 1681 609 1914  Q 372 2147 372 2553  Q 372 3047 722 3315  Q 1072 3584 1716 3584  Q 2034 3584 2315 3537  Q 2597 3491 2834 3397  z " transform="scale(0.015625)" />
       <path id="DejaVuSans-20" transform="scale(0.015625)" />
       <path id="DejaVuSans-70" d="M 1159 525  L 1159 -1331  L 581 -1331  L 581 3500  L 1159 3500  L 1159 2969  Q 1341 3281 1617 3432  Q 1894 3584 2278 3584  Q 2916 3584 3314 3078  Q 3713 2572 3713 1747  Q 3713 922 3314 415  Q 2916 -91 2278 -91  Q 1894 -91 1617 61  Q 1341 213 1159 525  z M 3116 1747  Q 3116 2381 2855 2742  Q 2594 3103 2138 3103  Q 1681 3103 1420 2742  Q 1159 2381 1159 1747  Q 1159 1113 1420 752  Q 1681 391 2138 391  Q 2594 391 2855 752  Q 3116 1113 3116 1747  z " transform="scale(0.015625)" />
       <path id="DejaVuSans-72" d="M 2631 2963  Q 2534 3019 2420 3045  Q 2306 3072 2169 3072  Q 1681 3072 1420 2755  Q 1159 2438 1159 1844  L 1159 0  L 581 0  L 581 3500  L 1159 3500  L 1159 2956  Q 1341 3275 1631 3429  Q 1922 3584 2338 3584  Q 2397 3584 2469 3576  Q 2541 3569 2628 3553  L 2631 2963  z " transform="scale(0.015625)" />
       <path id="DejaVuSans-64" d="M 2906 2969  L 2906 4863  L 3481 4863  L 3481 0  L 2906 0  L 2906 525  Q 2725 213 2448 61  Q 2172 -91 1784 -91  Q 1150 -91 751 415  Q 353 922 353 1747  Q 353 2572 751 3078  Q 1150 3584 1784 3584  Q 2172 3584 2448 3432  Q 2725 3281 2906 2969  z M 947 1747  Q 947 1113 1208 752  Q 1469 391 1925 391  Q 2381 391 2643 752  Q 2906 1113 2906 1747  Q 2906 2381 2643 2742  Q 2381 3103 1925 3103  Q 1469 3103 1208 2742  Q 947 2381 947 1747  z " transform="scale(0.015625)" />
       <path id="DejaVuSans-61" d="M 2194 1759  Q 1497 1759 1228 1600  Q 959 1441 959 1056  Q 959 750 1161 570  Q 1363 391 1709 391  Q 2188 391 2477 730  Q 2766 1069 2766 1631  L 2766 1759  L 2194 1759  z M 3341 1997  L 3341 0  L 2766 0  L 2766 531  Q 2569 213 2275 61  Q 1981 -91 1556 -91  Q 1019 -91 701 211  Q 384 513 384 1019  Q 384 1609 779 1909  Q 1175 2209 1959 2209  L 2766 2209  L 2766 2266  Q 2766 2663 2505 2880  Q 2244 3097 1772 3097  Q 1472 3097 1187 3025  Q 903 2953 641 2809  L 641 3341  Q 956 3463 1253 3523  Q 1550 3584 1831 3584  Q 2591 3584 2966 3190  Q 3341 2797 3341 1997  z " transform="scale(0.015625)" />
       <path id="DejaVuSans-79" d="M 2059 -325  Q 1816 -950 1584 -1140  Q 1353 -1331 966 -1331  L 506 -1331  L 506 -850  L 844 -850  Q 1081 -850 1212 -737  Q 1344 -625 1503 -206  L 1606 56  L 191 3500  L 800 3500  L 1894 763  L 2988 3500  L 3597 3500  L 2059 -325  z " transform="scale(0.015625)" />
       <path id="DejaVuSans-28" d="M 1984 4856  Q 1566 4138 1362 3434  Q 1159 2731 1159 2009  Q 1159 1288 1364 580  Q 1569 -128 1984 -844  L 1484 -844  Q 1016 -109 783 600  Q 550 1309 550 2009  Q 550 2706 781 3412  Q 1013 4119 1484 4856  L 1984 4856  z " transform="scale(0.015625)" />
       <path id="DejaVuSans-6f" d="M 1959 3097  Q 1497 3097 1228 2736  Q 959 2375 959 1747  Q 959 1119 1226 758  Q 1494 397 1959 397  Q 2419 397 2687 759  Q 2956 1122 2956 1747  Q 2956 2369 2687 2733  Q 2419 3097 1959 3097  z M 1959 3584  Q 2709 3584 3137 3096  Q 3566 2609 3566 1747  Q 3566 888 3137 398  Q 2709 -91 1959 -91  Q 1206 -91 779 398  Q 353 888 353 1747  Q 353 2609 779 3096  Q 1206 3584 1959 3584  z " transform="scale(0.015625)" />
       <path id="DejaVuSans-78" d="M 3513 3500  L 2247 1797  L 3578 0  L 2900 0  L 1881 1375  L 863 0  L 184 0  L 1544 1831  L 300 3500  L 978 3500  L 1906 2253  L 2834 3500  L 3513 3500  z " transform="scale(0.015625)" />
       <path id="DejaVuSans-2e" d="M 684 794  L 1344 794  L 1344 0  L 684 0  L 684 794  z " transform="scale(0.015625)" />
       <path id="DejaVuSans-68" d="M 3513 2113  L 3513 0  L 2938 0  L 2938 2094  Q 2938 2591 2744 2837  Q 2550 3084 2163 3084  Q 1697 3084 1428 2787  Q 1159 2491 1159 1978  L 1159 0  L 581 0  L 581 4863  L 1159 4863  L 1159 2956  Q 1366 3272 1645 3428  Q 1925 3584 2291 3584  Q 2894 3584 3203 3211  Q 3513 2838 3513 2113  z " transform="scale(0.015625)" />
       <path id="DejaVuSans-6c" d="M 603 4863  L 1178 4863  L 1178 0  L 603 0  L 603 4863  z " transform="scale(0.015625)" />
       <path id="DejaVuSans-29" d="M 513 4856  L 1013 4856  Q 1481 4119 1714 3412  Q 1947 2706 1947 2009  Q 1947 1309 1714 600  Q 1481 -109 1013 -844  L 513 -844  Q 928 -128 1133 580  Q 1338 1288 1338 2009  Q 1338 2731 1133 3434  Q 928 4138 513 4856  z " transform="scale(0.015625)" />
      </defs>
      <use ns4:href="#DejaVuSans-4d" />
      <use ns4:href="#DejaVuSans-69" x="86.279297" />
      <use ns4:href="#DejaVuSans-6e" x="114.0625" />
      <use ns4:href="#DejaVuSans-75" x="177.441406" />
      <use ns4:href="#DejaVuSans-74" x="240.820312" />
      <use ns4:href="#DejaVuSans-65" x="280.029297" />
      <use ns4:href="#DejaVuSans-73" x="341.552734" />
      <use ns4:href="#DejaVuSans-20" x="393.652344" />
      <use ns4:href="#DejaVuSans-70" x="425.439453" />
      <use ns4:href="#DejaVuSans-65" x="488.916016" />
      <use ns4:href="#DejaVuSans-72" x="550.439453" />
      <use ns4:href="#DejaVuSans-20" x="591.552734" />
      <use ns4:href="#DejaVuSans-64" x="623.339844" />
      <use ns4:href="#DejaVuSans-61" x="686.816406" />
      <use ns4:href="#DejaVuSans-79" x="748.095703" />
      <use ns4:href="#DejaVuSans-20" x="807.275391" />
      <use ns4:href="#DejaVuSans-28" x="839.0625" />
      <use ns4:href="#DejaVuSans-61" x="878.076172" />
      <use ns4:href="#DejaVuSans-70" x="939.355469" />
      <use ns4:href="#DejaVuSans-70" x="1002.832031" />
      <use ns4:href="#DejaVuSans-72" x="1066.308594" />
      <use ns4:href="#DejaVuSans-6f" x="1105.171875" />
      <use ns4:href="#DejaVuSans-78" x="1163.228516" />
      <use ns4:href="#DejaVuSans-2e" x="1222.408203" />
      <use ns4:href="#DejaVuSans-20" x="1254.195312" />
      <use ns4:href="#DejaVuSans-35" x="1285.982422" />
      <use ns4:href="#DejaVuSans-20" x="1349.605469" />
      <use ns4:href="#DejaVuSans-68" x="1381.392578" />
      <use ns4:href="#DejaVuSans-6f" x="1444.771484" />
      <use ns4:href="#DejaVuSans-75" x="1505.953125" />
      <use ns4:href="#DejaVuSans-72" x="1569.332031" />
      <use ns4:href="#DejaVuSans-73" x="1610.445312" />
      <use ns4:href="#DejaVuSans-20" x="1662.544922" />
      <use ns4:href="#DejaVuSans-74" x="1694.332031" />
      <use ns4:href="#DejaVuSans-6f" x="1733.541016" />
      <use ns4:href="#DejaVuSans-74" x="1794.722656" />
      <use ns4:href="#DejaVuSans-61" x="1833.931641" />
      <use ns4:href="#DejaVuSans-6c" x="1895.210938" />
      <use ns4:href="#DejaVuSans-29" x="1922.994141" />
     </g>
    </g>
   </g>
   <g id="matplotlib.axis_2" />
   <g id="patch_8">
    <path d="M 120.180234 311.037813  L 566.580234 311.037813  " style="fill: none; stroke: #000000; stroke-width: 0.8; stroke-linejoin: miter; stroke-linecap: square" />
   </g>
   <g id="text_9">
    <path d="M 246.002377 173.89875  L 247.663315 173.89875  L 247.663315 169.18625  L 245.958627 169.537813  L 245.958627 168.258125  L 247.652377 167.906563  L 249.439877 167.906563  L 249.439877 173.89875  L 251.100815 173.89875  L 251.100815 175.197188  L 246.002377 175.197188  L 246.002377 173.89875  z M 252.790073 175.03625  L 252.790073 173.687813  Q 253.23851 173.89875 253.647885 174.003438  Q 254.058823 174.108125 254.458823 174.108125  Q 255.299448 174.108125 255.768198 173.6425  Q 256.236948 173.175313 256.31976 172.258125  Q 255.98851 172.501875 255.611948 172.62375  Q 255.235385 172.745625 254.796323 172.745625  Q 253.677573 172.745625 252.991635 172.094063  Q 252.305698 171.4425 252.305698 170.378438  Q 252.305698 169.200313 253.06976 168.4925  Q 253.833823 167.784688 255.118198 167.784688  Q 256.54476 167.784688 257.32601 168.747188  Q 258.10726 169.708125 258.10726 171.465938  Q 258.10726 173.27375 257.193198 174.306563  Q 256.280698 175.339375 254.68851 175.339375  Q 254.17601 175.339375 253.70726 175.262813  Q 253.23851 175.187813 252.790073 175.03625  z M 255.108823 171.525313  Q 255.602573 171.525313 255.85101 171.206563  Q 256.099448 170.88625 256.099448 170.245625  Q 256.099448 169.61125 255.85101 169.289375  Q 255.602573 168.965938 255.108823 168.965938  Q 254.615073 168.965938 254.366635 169.289375  Q 254.118198 169.61125 254.118198 170.245625  Q 254.118198 170.88625 254.366635 171.206563  Q 254.615073 171.525313 255.108823 171.525313  z M 262.227768 171.934688  Q 261.701205 171.934688 261.41683 172.22375  Q 261.134018 172.51125 261.134018 173.04875  Q 261.134018 173.58625 261.41683 173.872188  Q 261.701205 174.156563 262.227768 174.156563  Q 262.751205 174.156563 263.02933 173.872188  Q 263.307455 173.58625 263.307455 173.04875  Q 263.307455 172.506563 263.02933 172.220625  Q 262.751205 171.934688 262.227768 171.934688  z M 260.855893 171.315938  Q 260.19183 171.114375 259.85433 170.700313  Q 259.518393 170.284688 259.518393 169.664375  Q 259.518393 168.7425 260.205893 168.259688  Q 260.894955 167.775313 262.227768 167.775313  Q 263.551205 167.775313 264.238705 168.256563  Q 264.927768 168.737813 264.927768 169.664375  Q 264.927768 170.284688 264.588705 170.700313  Q 264.249643 171.114375 263.58558 171.315938  Q 264.327768 171.520625 264.705893 171.981563  Q 265.084018 172.4425 265.084018 173.145625  Q 265.084018 174.23 264.363705 174.784688  Q 263.643393 175.339375 262.227768 175.339375  Q 260.807455 175.339375 260.082455 174.784688  Q 259.357455 174.23 259.357455 173.145625  Q 259.357455 172.4425 259.73558 171.981563  Q 260.113705 171.520625 260.855893 171.315938  z M 261.294955 169.855  Q 261.294955 170.289375 261.537143 170.52375  Q 261.77933 170.758125 262.227768 170.758125  Q 262.66683 170.758125 262.905893 170.52375  Q 263.146518 170.289375 263.146518 169.855  Q 263.146518 169.420625 262.905893 169.189375  Q 262.66683 168.956563 262.227768 168.956563  Q 261.77933 168.956563 261.537143 169.190938  Q 261.294955 169.425313 261.294955 169.855  z M 271.612338 170.63625  Q 271.945151 170.128438 272.401401 169.862813  Q 272.857651 169.597188 273.404526 169.597188  Q 274.346713 169.597188 274.840463 170.178438  Q 275.334213 170.758125 275.334213 171.8675  L 275.334213 175.197188  L 273.576401 175.197188  L 273.576401 172.345625  Q 273.581088 172.281563 273.582651 172.214375  Q 273.585776 172.145625 273.585776 172.019063  Q 273.585776 171.437813 273.413901 171.176875  Q 273.243588 170.914375 272.862338 170.914375  Q 272.365463 170.914375 272.093588 171.325313  Q 271.823276 171.734688 271.812338 172.51125  L 271.812338 175.197188  L 270.054526 175.197188  L 270.054526 172.345625  Q 270.054526 171.437813 269.898276 171.176875  Q 269.742026 170.914375 269.342026 170.914375  Q 268.838901 170.914375 268.565463 171.326875  Q 268.292026 171.739375 268.292026 172.506563  L 268.292026 175.197188  L 266.534213 175.197188  L 266.534213 169.728438  L 268.292026 169.728438  L 268.292026 170.528438  Q 268.615463 170.065938 269.032651 169.831563  Q 269.449838 169.597188 269.952963 169.597188  Q 270.518588 169.597188 270.952963 169.870625  Q 271.388901 170.144063 271.612338 170.63625  z " style="stroke: #ffffff; stroke-width: 3" />
    <path d="M 246.002377 173.89875  L 247.663315 173.89875  L 247.663315 169.18625  L 245.958627 169.537813  L 245.958627 168.258125  L 247.652377 167.906563  L 249.439877 167.906563  L 249.439877 173.89875  L 251.100815 173.89875  L 251.100815 175.197188  L 246.002377 175.197188  L 246.002377 173.89875  z M 252.790073 175.03625  L 252.790073 173.687813  Q 253.23851 173.89875 253.647885 174.003438  Q 254.058823 174.108125 254.458823 174.108125  Q 255.299448 174.108125 255.768198 173.6425  Q 256.236948 173.175313 256.31976 172.258125  Q 255.98851 172.501875 255.611948 172.62375  Q 255.235385 172.745625 254.796323 172.745625  Q 253.677573 172.745625 252.991635 172.094063  Q 252.305698 171.4425 252.305698 170.378438  Q 252.305698 169.200313 253.06976 168.4925  Q 253.833823 167.784688 255.118198 167.784688  Q 256.54476 167.784688 257.32601 168.747188  Q 258.10726 169.708125 258.10726 171.465938  Q 258.10726 173.27375 257.193198 174.306563  Q 256.280698 175.339375 254.68851 175.339375  Q 254.17601 175.339375 253.70726 175.262813  Q 253.23851 175.187813 252.790073 175.03625  z M 255.108823 171.525313  Q 255.602573 171.525313 255.85101 171.206563  Q 256.099448 170.88625 256.099448 170.245625  Q 256.099448 169.61125 255.85101 169.289375  Q 255.602573 168.965938 255.108823 168.965938  Q 254.615073 168.965938 254.366635 169.289375  Q 254.118198 169.61125 254.118198 170.245625  Q 254.118198 170.88625 254.366635 171.206563  Q 254.615073 171.525313 255.108823 171.525313  z M 262.227768 171.934688  Q 261.701205 171.934688 261.41683 172.22375  Q 261.134018 172.51125 261.134018 173.04875  Q 261.134018 173.58625 261.41683 173.872188  Q 261.701205 174.156563 262.227768 174.156563  Q 262.751205 174.156563 263.02933 173.872188  Q 263.307455 173.58625 263.307455 173.04875  Q 263.307455 172.506563 263.02933 172.220625  Q 262.751205 171.934688 262.227768 171.934688  z M 260.855893 171.315938  Q 260.19183 171.114375 259.85433 170.700313  Q 259.518393 170.284688 259.518393 169.664375  Q 259.518393 168.7425 260.205893 168.259688  Q 260.894955 167.775313 262.227768 167.775313  Q 263.551205 167.775313 264.238705 168.256563  Q 264.927768 168.737813 264.927768 169.664375  Q 264.927768 170.284688 264.588705 170.700313  Q 264.249643 171.114375 263.58558 171.315938  Q 264.327768 171.520625 264.705893 171.981563  Q 265.084018 172.4425 265.084018 173.145625  Q 265.084018 174.23 264.363705 174.784688  Q 263.643393 175.339375 262.227768 175.339375  Q 260.807455 175.339375 260.082455 174.784688  Q 259.357455 174.23 259.357455 173.145625  Q 259.357455 172.4425 259.73558 171.981563  Q 260.113705 171.520625 260.855893 171.315938  z M 261.294955 169.855  Q 261.294955 170.289375 261.537143 170.52375  Q 261.77933 170.758125 262.227768 170.758125  Q 262.66683 170.758125 262.905893 170.52375  Q 263.146518 170.289375 263.146518 169.855  Q 263.146518 169.420625 262.905893 169.189375  Q 262.66683 168.956563 262.227768 168.956563  Q 261.77933 168.956563 261.537143 169.190938  Q 261.294955 169.425313 261.294955 169.855  z M 271.612338 170.63625  Q 271.945151 170.128438 272.401401 169.862813  Q 272.857651 169.597188 273.404526 169.597188  Q 274.346713 169.597188 274.840463 170.178438  Q 275.334213 170.758125 275.334213 171.8675  L 275.334213 175.197188  L 273.576401 175.197188  L 273.576401 172.345625  Q 273.581088 172.281563 273.582651 172.214375  Q 273.585776 172.145625 273.585776 172.019063  Q 273.585776 171.437813 273.413901 171.176875  Q 273.243588 170.914375 272.862338 170.914375  Q 272.365463 170.914375 272.093588 171.325313  Q 271.823276 171.734688 271.812338 172.51125  L 271.812338 175.197188  L 270.054526 175.197188  L 270.054526 172.345625  Q 270.054526 171.437813 269.898276 171.176875  Q 269.742026 170.914375 269.342026 170.914375  Q 268.838901 170.914375 268.565463 171.326875  Q 268.292026 171.739375 268.292026 172.506563  L 268.292026 175.197188  L 266.534213 175.197188  L 266.534213 169.728438  L 268.292026 169.728438  L 268.292026 170.528438  Q 268.615463 170.065938 269.032651 169.831563  Q 269.449838 169.597188 269.952963 169.597188  Q 270.518588 169.597188 270.952963 169.870625  Q 271.388901 170.144063 271.612338 170.63625  z " />
   </g>
   <g id="text_10">
    <path d="M 426.29923 169.455  L 424.239855 172.506563  L 426.29923 172.506563  L 426.29923 169.455  z M 425.98673 167.906563  L 428.077355 167.906563  L 428.077355 172.506563  L 429.116417 172.506563  L 429.116417 173.869063  L 428.077355 173.869063  L 428.077355 175.197188  L 426.29923 175.197188  L 426.29923 173.869063  L 423.06798 173.869063  L 423.06798 172.258125  L 425.98673 167.906563  z M 433.057238 171.934688  Q 432.530675 171.934688 432.2463 172.22375  Q 431.963488 172.51125 431.963488 173.04875  Q 431.963488 173.58625 432.2463 173.872188  Q 432.530675 174.156563 433.057238 174.156563  Q 433.580675 174.156563 433.8588 173.872188  Q 434.136925 173.58625 434.136925 173.04875  Q 434.136925 172.506563 433.8588 172.220625  Q 433.580675 171.934688 433.057238 171.934688  z M 431.685363 171.315938  Q 431.0213 171.114375 430.6838 170.700313  Q 430.347863 170.284688 430.347863 169.664375  Q 430.347863 168.7425 431.035363 168.259688  Q 431.724425 167.775313 433.057238 167.775313  Q 434.380675 167.775313 435.068175 168.256563  Q 435.757238 168.737813 435.757238 169.664375  Q 435.757238 170.284688 435.418175 170.700313  Q 435.079113 171.114375 434.41505 171.315938  Q 435.157238 171.520625 435.535363 171.981563  Q 435.913488 172.4425 435.913488 173.145625  Q 435.913488 174.23 435.193175 174.784688  Q 434.472863 175.339375 433.057238 175.339375  Q 431.636925 175.339375 430.911925 174.784688  Q 430.186925 174.23 430.186925 173.145625  Q 430.186925 172.4425 430.56505 171.981563  Q 430.943175 171.520625 431.685363 171.315938  z M 432.124425 169.855  Q 432.124425 170.289375 432.366613 170.52375  Q 432.6088 170.758125 433.057238 170.758125  Q 433.4963 170.758125 433.735363 170.52375  Q 433.975988 170.289375 433.975988 169.855  Q 433.975988 169.420625 433.735363 169.189375  Q 433.4963 168.956563 433.057238 168.956563  Q 432.6088 168.956563 432.366613 169.190938  Q 432.124425 169.425313 432.124425 169.855  z M 442.441808 170.63625  Q 442.774621 170.128438 443.230871 169.862813  Q 443.687121 169.597188 444.233996 169.597188  Q 445.176183 169.597188 445.669933 170.178438  Q 446.163683 170.758125 446.163683 171.8675  L 446.163683 175.197188  L 444.405871 175.197188  L 444.405871 172.345625  Q 444.410558 172.281563 444.412121 172.214375  Q 444.415246 172.145625 444.415246 172.019063  Q 444.415246 171.437813 444.243371 171.176875  Q 444.073058 170.914375 443.691808 170.914375  Q 443.194933 170.914375 442.923058 171.325313  Q 442.652746 171.734688 442.641808 172.51125  L 442.641808 175.197188  L 440.883996 175.197188  L 440.883996 172.345625  Q 440.883996 171.437813 440.727746 171.176875  Q 440.571496 170.914375 440.171496 170.914375  Q 439.668371 170.914375 439.394933 171.326875  Q 439.121496 171.739375 439.121496 172.506563  L 439.121496 175.197188  L 437.363683 175.197188  L 437.363683 169.728438  L 439.121496 169.728438  L 439.121496 170.528438  Q 439.444933 170.065938 439.862121 169.831563  Q 440.279308 169.597188 440.782433 169.597188  Q 441.348058 169.597188 441.782433 169.870625  Q 442.218371 170.144063 442.441808 170.63625  z " style="stroke: #ffffff; stroke-width: 3" />
    <path d="M 426.29923 169.455  L 424.239855 172.506563  L 426.29923 172.506563  L 426.29923 169.455  z M 425.98673 167.906563  L 428.077355 167.906563  L 428.077355 172.506563  L 429.116417 172.506563  L 429.116417 173.869063  L 428.077355 173.869063  L 428.077355 175.197188  L 426.29923 175.197188  L 426.29923 173.869063  L 423.06798 173.869063  L 423.06798 172.258125  L 425.98673 167.906563  z M 433.057238 171.934688  Q 432.530675 171.934688 432.2463 172.22375  Q 431.963488 172.51125 431.963488 173.04875  Q 431.963488 173.58625 432.2463 173.872188  Q 432.530675 174.156563 433.057238 174.156563  Q 433.580675 174.156563 433.8588 173.872188  Q 434.136925 173.58625 434.136925 173.04875  Q 434.136925 172.506563 433.8588 172.220625  Q 433.580675 171.934688 433.057238 171.934688  z M 431.685363 171.315938  Q 431.0213 171.114375 430.6838 170.700313  Q 430.347863 170.284688 430.347863 169.664375  Q 430.347863 168.7425 431.035363 168.259688  Q 431.724425 167.775313 433.057238 167.775313  Q 434.380675 167.775313 435.068175 168.256563  Q 435.757238 168.737813 435.757238 169.664375  Q 435.757238 170.284688 435.418175 170.700313  Q 435.079113 171.114375 434.41505 171.315938  Q 435.157238 171.520625 435.535363 171.981563  Q 435.913488 172.4425 435.913488 173.145625  Q 435.913488 174.23 435.193175 174.784688  Q 434.472863 175.339375 433.057238 175.339375  Q 431.636925 175.339375 430.911925 174.784688  Q 430.186925 174.23 430.186925 173.145625  Q 430.186925 172.4425 430.56505 171.981563  Q 430.943175 171.520625 431.685363 171.315938  z M 432.124425 169.855  Q 432.124425 170.289375 432.366613 170.52375  Q 432.6088 170.758125 433.057238 170.758125  Q 433.4963 170.758125 433.735363 170.52375  Q 433.975988 170.289375 433.975988 169.855  Q 433.975988 169.420625 433.735363 169.189375  Q 433.4963 168.956563 433.057238 168.956563  Q 432.6088 168.956563 432.366613 169.190938  Q 432.124425 169.425313 432.124425 169.855  z M 442.441808 170.63625  Q 442.774621 170.128438 443.230871 169.862813  Q 443.687121 169.597188 444.233996 169.597188  Q 445.176183 169.597188 445.669933 170.178438  Q 446.163683 170.758125 446.163683 171.8675  L 446.163683 175.197188  L 444.405871 175.197188  L 444.405871 172.345625  Q 444.410558 172.281563 444.412121 172.214375  Q 444.415246 172.145625 444.415246 172.019063  Q 444.415246 171.437813 444.243371 171.176875  Q 444.073058 170.914375 443.691808 170.914375  Q 443.194933 170.914375 442.923058 171.325313  Q 442.652746 171.734688 442.641808 172.51125  L 442.641808 175.197188  L 440.883996 175.197188  L 440.883996 172.345625  Q 440.883996 171.437813 440.727746 171.176875  Q 440.571496 170.914375 440.171496 170.914375  Q 439.668371 170.914375 439.394933 171.326875  Q 439.121496 171.739375 439.121496 172.506563  L 439.121496 175.197188  L 437.363683 175.197188  L 437.363683 169.728438  L 439.121496 169.728438  L 439.121496 170.528438  Q 439.444933 170.065938 439.862121 169.831563  Q 440.279308 169.597188 440.782433 169.597188  Q 441.348058 169.597188 441.782433 169.870625  Q 442.218371 170.144063 442.441808 170.63625  z " />
   </g>
   <g id="text_11">
    <path d="M 476.516373 173.815938  L 479.724185 173.815938  L 479.724185 175.197188  L 474.425748 175.197188  L 474.425748 173.815938  L 477.086685 171.465938  Q 477.444498 171.144063 477.61481 170.83625  Q 477.785123 170.528438 477.785123 170.197188  Q 477.785123 169.684688 477.441373 169.372188  Q 477.097623 169.059688 476.525748 169.059688  Q 476.086685 169.059688 475.563248 169.247188  Q 475.041373 169.434688 474.44606 169.806563  L 474.44606 168.205  Q 475.080435 167.995625 475.700748 167.88625  Q 476.32106 167.775313 476.916373 167.775313  Q 478.225748 167.775313 478.950748 168.351875  Q 479.675748 168.926875 479.675748 169.958125  Q 479.675748 170.553438 479.367935 171.069063  Q 479.060123 171.583125 478.074185 172.44875  L 476.516373 173.815938  z M 484.274381 169.455  L 482.215006 172.506563  L 484.274381 172.506563  L 484.274381 169.455  z M 483.961881 167.906563  L 486.052506 167.906563  L 486.052506 172.506563  L 487.091568 172.506563  L 487.091568 173.869063  L 486.052506 173.869063  L 486.052506 175.197188  L 484.274381 175.197188  L 484.274381 173.869063  L 481.043131 173.869063  L 481.043131 172.258125  L 483.961881 167.906563  z M 493.458951 170.63625  Q 493.791763 170.128438 494.248013 169.862813  Q 494.704263 169.597188 495.251138 169.597188  Q 496.193326 169.597188 496.687076 170.178438  Q 497.180826 170.758125 497.180826 171.8675  L 497.180826 175.197188  L 495.423013 175.197188  L 495.423013 172.345625  Q 495.427701 172.281563 495.429263 172.214375  Q 495.432388 172.145625 495.432388 172.019063  Q 495.432388 171.437813 495.260513 171.176875  Q 495.090201 170.914375 494.708951 170.914375  Q 494.212076 170.914375 493.940201 171.325313  Q 493.669888 171.734688 493.658951 172.51125  L 493.658951 175.197188  L 491.901138 175.197188  L 491.901138 172.345625  Q 491.901138 171.437813 491.744888 171.176875  Q 491.588638 170.914375 491.188638 170.914375  Q 490.685513 170.914375 490.412076 171.326875  Q 490.138638 171.739375 490.138638 172.506563  L 490.138638 175.197188  L 488.380826 175.197188  L 488.380826 169.728438  L 490.138638 169.728438  L 490.138638 170.528438  Q 490.462076 170.065938 490.879263 169.831563  Q 491.296451 169.597188 491.799576 169.597188  Q 492.365201 169.597188 492.799576 169.870625  Q 493.235513 170.144063 493.458951 170.63625  z " style="stroke: #ffffff; stroke-width: 3" />
    <path d="M 476.516373 173.815938  L 479.724185 173.815938  L 479.724185 175.197188  L 474.425748 175.197188  L 474.425748 173.815938  L 477.086685 171.465938  Q 477.444498 171.144063 477.61481 170.83625  Q 477.785123 170.528438 477.785123 170.197188  Q 477.785123 169.684688 477.441373 169.372188  Q 477.097623 169.059688 476.525748 169.059688  Q 476.086685 169.059688 475.563248 169.247188  Q 475.041373 169.434688 474.44606 169.806563  L 474.44606 168.205  Q 475.080435 167.995625 475.700748 167.88625  Q 476.32106 167.775313 476.916373 167.775313  Q 478.225748 167.775313 478.950748 168.351875  Q 479.675748 168.926875 479.675748 169.958125  Q 479.675748 170.553438 479.367935 171.069063  Q 479.060123 171.583125 478.074185 172.44875  L 476.516373 173.815938  z M 484.274381 169.455  L 482.215006 172.506563  L 484.274381 172.506563  L 484.274381 169.455  z M 483.961881 167.906563  L 486.052506 167.906563  L 486.052506 172.506563  L 487.091568 172.506563  L 487.091568 173.869063  L 486.052506 173.869063  L 486.052506 175.197188  L 484.274381 175.197188  L 484.274381 173.869063  L 481.043131 173.869063  L 481.043131 172.258125  L 483.961881 167.906563  z M 493.458951 170.63625  Q 493.791763 170.128438 494.248013 169.862813  Q 494.704263 169.597188 495.251138 169.597188  Q 496.193326 169.597188 496.687076 170.178438  Q 497.180826 170.758125 497.180826 171.8675  L 497.180826 175.197188  L 495.423013 175.197188  L 495.423013 172.345625  Q 495.427701 172.281563 495.429263 172.214375  Q 495.432388 172.145625 495.432388 172.019063  Q 495.432388 171.437813 495.260513 171.176875  Q 495.090201 170.914375 494.708951 170.914375  Q 494.212076 170.914375 493.940201 171.325313  Q 493.669888 171.734688 493.658951 172.51125  L 493.658951 175.197188  L 491.901138 175.197188  L 491.901138 172.345625  Q 491.901138 171.437813 491.744888 171.176875  Q 491.588638 170.914375 491.188638 170.914375  Q 490.685513 170.914375 490.412076 171.326875  Q 490.138638 171.739375 490.138638 172.506563  L 490.138638 175.197188  L 488.380826 175.197188  L 488.380826 169.728438  L 490.138638 169.728438  L 490.138638 170.528438  Q 490.462076 170.065938 490.879263 169.831563  Q 491.296451 169.597188 491.799576 169.597188  Q 492.365201 169.597188 492.799576 169.870625  Q 493.235513 170.144063 493.458951 170.63625  z " />
   </g>
   <g id="text_12">
    <path d="M 502.441283 173.89875  L 504.102221 173.89875  L 504.102221 169.18625  L 502.397533 169.537813  L 502.397533 168.258125  L 504.091283 167.906563  L 505.878783 167.906563  L 505.878783 173.89875  L 507.539721 173.89875  L 507.539721 175.197188  L 502.441283 175.197188  L 502.441283 173.89875  z M 509.286791 167.906563  L 513.960229 167.906563  L 513.960229 169.289375  L 510.786791 169.289375  L 510.786791 170.4175  Q 511.000854 170.358125 511.218041 170.326875  Q 511.435229 170.294063 511.669604 170.294063  Q 513.002416 170.294063 513.744604 170.96125  Q 514.486791 171.628438 514.486791 172.819063  Q 514.486791 174.000313 513.678979 174.670625  Q 512.871166 175.339375 511.435229 175.339375  Q 510.814916 175.339375 510.207104 175.219063  Q 509.599291 175.09875 508.999291 174.855  L 508.999291 173.375313  Q 509.594604 173.7175 510.128979 173.889375  Q 510.663354 174.059688 511.138354 174.059688  Q 511.821166 174.059688 512.213354 173.725313  Q 512.607104 173.390938 512.607104 172.819063  Q 512.607104 172.2425 512.213354 171.91125  Q 511.821166 171.578438 511.138354 171.578438  Q 510.732104 171.578438 510.272729 171.684688  Q 509.814916 171.789375 509.286791 172.008125  L 509.286791 167.906563  z M 521.093237 170.63625  Q 521.426049 170.128438 521.882299 169.862813  Q 522.338549 169.597188 522.885424 169.597188  Q 523.827612 169.597188 524.321362 170.178438  Q 524.815112 170.758125 524.815112 171.8675  L 524.815112 175.197188  L 523.057299 175.197188  L 523.057299 172.345625  Q 523.061987 172.281563 523.063549 172.214375  Q 523.066674 172.145625 523.066674 172.019063  Q 523.066674 171.437813 522.894799 171.176875  Q 522.724487 170.914375 522.343237 170.914375  Q 521.846362 170.914375 521.574487 171.325313  Q 521.304174 171.734688 521.293237 172.51125  L 521.293237 175.197188  L 519.535424 175.197188  L 519.535424 172.345625  Q 519.535424 171.437813 519.379174 171.176875  Q 519.222924 170.914375 518.822924 170.914375  Q 518.319799 170.914375 518.046362 171.326875  Q 517.772924 171.739375 517.772924 172.506563  L 517.772924 175.197188  L 516.015112 175.197188  L 516.015112 169.728438  L 517.772924 169.728438  L 517.772924 170.528438  Q 518.096362 170.065938 518.513549 169.831563  Q 518.930737 169.597188 519.433862 169.597188  Q 519.999487 169.597188 520.433862 169.870625  Q 520.869799 170.144063 521.093237 170.63625  z " style="stroke: #ffffff; stroke-width: 3" />
    <path d="M 502.441283 173.89875  L 504.102221 173.89875  L 504.102221 169.18625  L 502.397533 169.537813  L 502.397533 168.258125  L 504.091283 167.906563  L 505.878783 167.906563  L 505.878783 173.89875  L 507.539721 173.89875  L 507.539721 175.197188  L 502.441283 175.197188  L 502.441283 173.89875  z M 509.286791 167.906563  L 513.960229 167.906563  L 513.960229 169.289375  L 510.786791 169.289375  L 510.786791 170.4175  Q 511.000854 170.358125 511.218041 170.326875  Q 511.435229 170.294063 511.669604 170.294063  Q 513.002416 170.294063 513.744604 170.96125  Q 514.486791 171.628438 514.486791 172.819063  Q 514.486791 174.000313 513.678979 174.670625  Q 512.871166 175.339375 511.435229 175.339375  Q 510.814916 175.339375 510.207104 175.219063  Q 509.599291 175.09875 508.999291 174.855  L 508.999291 173.375313  Q 509.594604 173.7175 510.128979 173.889375  Q 510.663354 174.059688 511.138354 174.059688  Q 511.821166 174.059688 512.213354 173.725313  Q 512.607104 173.390938 512.607104 172.819063  Q 512.607104 172.2425 512.213354 171.91125  Q 511.821166 171.578438 511.138354 171.578438  Q 510.732104 171.578438 510.272729 171.684688  Q 509.814916 171.789375 509.286791 172.008125  L 509.286791 167.906563  z M 521.093237 170.63625  Q 521.426049 170.128438 521.882299 169.862813  Q 522.338549 169.597188 522.885424 169.597188  Q 523.827612 169.597188 524.321362 170.178438  Q 524.815112 170.758125 524.815112 171.8675  L 524.815112 175.197188  L 523.057299 175.197188  L 523.057299 172.345625  Q 523.061987 172.281563 523.063549 172.214375  Q 523.066674 172.145625 523.066674 172.019063  Q 523.066674 171.437813 522.894799 171.176875  Q 522.724487 170.914375 522.343237 170.914375  Q 521.846362 170.914375 521.574487 171.325313  Q 521.304174 171.734688 521.293237 172.51125  L 521.293237 175.197188  L 519.535424 175.197188  L 519.535424 172.345625  Q 519.535424 171.437813 519.379174 171.176875  Q 519.222924 170.914375 518.822924 170.914375  Q 518.319799 170.914375 518.046362 171.326875  Q 517.772924 171.739375 517.772924 172.506563  L 517.772924 175.197188  L 516.015112 175.197188  L 516.015112 169.728438  L 517.772924 169.728438  L 517.772924 170.528438  Q 518.096362 170.065938 518.513549 169.831563  Q 518.930737 169.597188 519.433862 169.597188  Q 519.999487 169.597188 520.433862 169.870625  Q 520.869799 170.144063 521.093237 170.63625  z " />
   </g>
   <g id="text_13">
    <path d="M 523.698426 173.89875  L 525.359364 173.89875  L 525.359364 169.18625  L 523.654676 169.537813  L 523.654676 168.258125  L 525.348426 167.906563  L 527.135926 167.906563  L 527.135926 173.89875  L 528.796864 173.89875  L 528.796864 175.197188  L 523.698426 175.197188  L 523.698426 173.89875  z M 530.543934 167.906563  L 535.217372 167.906563  L 535.217372 169.289375  L 532.043934 169.289375  L 532.043934 170.4175  Q 532.257997 170.358125 532.475184 170.326875  Q 532.692372 170.294063 532.926747 170.294063  Q 534.259559 170.294063 535.001747 170.96125  Q 535.743934 171.628438 535.743934 172.819063  Q 535.743934 174.000313 534.936122 174.670625  Q 534.128309 175.339375 532.692372 175.339375  Q 532.072059 175.339375 531.464247 175.219063  Q 530.856434 175.09875 530.256434 174.855  L 530.256434 173.375313  Q 530.851747 173.7175 531.386122 173.889375  Q 531.920497 174.059688 532.395497 174.059688  Q 533.078309 174.059688 533.470497 173.725313  Q 533.864247 173.390938 533.864247 172.819063  Q 533.864247 172.2425 533.470497 171.91125  Q 533.078309 171.578438 532.395497 171.578438  Q 531.989247 171.578438 531.529872 171.684688  Q 531.072059 171.789375 530.543934 172.008125  L 530.543934 167.906563  z M 542.350379 170.63625  Q 542.683192 170.128438 543.139442 169.862813  Q 543.595692 169.597188 544.142567 169.597188  Q 545.084754 169.597188 545.578504 170.178438  Q 546.072254 170.758125 546.072254 171.8675  L 546.072254 175.197188  L 544.314442 175.197188  L 544.314442 172.345625  Q 544.319129 172.281563 544.320692 172.214375  Q 544.323817 172.145625 544.323817 172.019063  Q 544.323817 171.437813 544.151942 171.176875  Q 543.981629 170.914375 543.600379 170.914375  Q 543.103504 170.914375 542.831629 171.325313  Q 542.561317 171.734688 542.550379 172.51125  L 542.550379 175.197188  L 540.792567 175.197188  L 540.792567 172.345625  Q 540.792567 171.437813 540.636317 171.176875  Q 540.480067 170.914375 540.080067 170.914375  Q 539.576942 170.914375 539.303504 171.326875  Q 539.030067 171.739375 539.030067 172.506563  L 539.030067 175.197188  L 537.272254 175.197188  L 537.272254 169.728438  L 539.030067 169.728438  L 539.030067 170.528438  Q 539.353504 170.065938 539.770692 169.831563  Q 540.187879 169.597188 540.691004 169.597188  Q 541.256629 169.597188 541.691004 169.870625  Q 542.126942 170.144063 542.350379 170.63625  z " style="stroke: #ffffff; stroke-width: 3" />
    <path d="M 523.698426 173.89875  L 525.359364 173.89875  L 525.359364 169.18625  L 523.654676 169.537813  L 523.654676 168.258125  L 525.348426 167.906563  L 527.135926 167.906563  L 527.135926 173.89875  L 528.796864 173.89875  L 528.796864 175.197188  L 523.698426 175.197188  L 523.698426 173.89875  z M 530.543934 167.906563  L 535.217372 167.906563  L 535.217372 169.289375  L 532.043934 169.289375  L 532.043934 170.4175  Q 532.257997 170.358125 532.475184 170.326875  Q 532.692372 170.294063 532.926747 170.294063  Q 534.259559 170.294063 535.001747 170.96125  Q 535.743934 171.628438 535.743934 172.819063  Q 535.743934 174.000313 534.936122 174.670625  Q 534.128309 175.339375 532.692372 175.339375  Q 532.072059 175.339375 531.464247 175.219063  Q 530.856434 175.09875 530.256434 174.855  L 530.256434 173.375313  Q 530.851747 173.7175 531.386122 173.889375  Q 531.920497 174.059688 532.395497 174.059688  Q 533.078309 174.059688 533.470497 173.725313  Q 533.864247 173.390938 533.864247 172.819063  Q 533.864247 172.2425 533.470497 171.91125  Q 533.078309 171.578438 532.395497 171.578438  Q 531.989247 171.578438 531.529872 171.684688  Q 531.072059 171.789375 530.543934 172.008125  L 530.543934 167.906563  z M 542.350379 170.63625  Q 542.683192 170.128438 543.139442 169.862813  Q 543.595692 169.597188 544.142567 169.597188  Q 545.084754 169.597188 545.578504 170.178438  Q 546.072254 170.758125 546.072254 171.8675  L 546.072254 175.197188  L 544.314442 175.197188  L 544.314442 172.345625  Q 544.319129 172.281563 544.320692 172.214375  Q 544.323817 172.145625 544.323817 172.019063  Q 544.323817 171.437813 544.151942 171.176875  Q 543.981629 170.914375 543.600379 170.914375  Q 543.103504 170.914375 542.831629 171.325313  Q 542.561317 171.734688 542.550379 172.51125  L 542.550379 175.197188  L 540.792567 175.197188  L 540.792567 172.345625  Q 540.792567 171.437813 540.636317 171.176875  Q 540.480067 170.914375 540.080067 170.914375  Q 539.576942 170.914375 539.303504 171.326875  Q 539.030067 171.739375 539.030067 172.506563  L 539.030067 175.197188  L 537.272254 175.197188  L 537.272254 169.728438  L 539.030067 169.728438  L 539.030067 170.528438  Q 539.353504 170.065938 539.770692 169.831563  Q 540.187879 169.597188 540.691004 169.597188  Q 541.256629 169.597188 541.691004 169.870625  Q 542.126942 170.144063 542.350379 170.63625  z " />
   </g>
   <g id="text_14">
    
    <g transform="translate(162.551641 17.837813) scale(0.14 -0.14)">
     <defs>
      <path id="DejaVuSans-Bold-45" d="M 588 4666  L 3834 4666  L 3834 3756  L 1791 3756  L 1791 2888  L 3713 2888  L 3713 1978  L 1791 1978  L 1791 909  L 3903 909  L 3903 0  L 588 0  L 588 4666  z " transform="scale(0.015625)" />
      <path id="DejaVuSans-Bold-73" d="M 3272 3391  L 3272 2541  Q 2913 2691 2578 2766  Q 2244 2841 1947 2841  Q 1628 2841 1473 2761  Q 1319 2681 1319 2516  Q 1319 2381 1436 2309  Q 1553 2238 1856 2203  L 2053 2175  Q 2913 2066 3209 1816  Q 3506 1566 3506 1031  Q 3506 472 3093 190  Q 2681 -91 1863 -91  Q 1516 -91 1145 -36  Q 775 19 384 128  L 384 978  Q 719 816 1070 734  Q 1422 653 1784 653  Q 2113 653 2278 743  Q 2444 834 2444 1013  Q 2444 1163 2330 1236  Q 2216 1309 1875 1350  L 1678 1375  Q 931 1469 631 1722  Q 331 1975 331 2491  Q 331 3047 712 3315  Q 1094 3584 1881 3584  Q 2191 3584 2531 3537  Q 2872 3491 3272 3391  z " transform="scale(0.015625)" />
      <path id="DejaVuSans-Bold-74" d="M 1759 4494  L 1759 3500  L 2913 3500  L 2913 2700  L 1759 2700  L 1759 1216  Q 1759 972 1856 886  Q 1953 800 2241 800  L 2816 800  L 2816 0  L 1856 0  Q 1194 0 917 276  Q 641 553 641 1216  L 641 2700  L 84 2700  L 84 3500  L 641 3500  L 641 4494  L 1759 4494  z " transform="scale(0.015625)" />
      <path id="DejaVuSans-Bold-69" d="M 538 3500  L 1656 3500  L 1656 0  L 538 0  L 538 3500  z M 538 4863  L 1656 4863  L 1656 3950  L 538 3950  L 538 4863  z " transform="scale(0.015625)" />
      <path id="DejaVuSans-Bold-6d" d="M 3781 2919  Q 3994 3244 4286 3414  Q 4578 3584 4928 3584  Q 5531 3584 5847 3212  Q 6163 2841 6163 2131  L 6163 0  L 5038 0  L 5038 1825  Q 5041 1866 5042 1909  Q 5044 1953 5044 2034  Q 5044 2406 4934 2573  Q 4825 2741 4581 2741  Q 4263 2741 4089 2478  Q 3916 2216 3909 1719  L 3909 0  L 2784 0  L 2784 1825  Q 2784 2406 2684 2573  Q 2584 2741 2328 2741  Q 2006 2741 1831 2477  Q 1656 2213 1656 1722  L 1656 0  L 531 0  L 531 3500  L 1656 3500  L 1656 2988  Q 1863 3284 2130 3434  Q 2397 3584 2719 3584  Q 3081 3584 3359 3409  Q 3638 3234 3781 2919  z " transform="scale(0.015625)" />
      <path id="DejaVuSans-Bold-61" d="M 2106 1575  Q 1756 1575 1579 1456  Q 1403 1338 1403 1106  Q 1403 894 1545 773  Q 1688 653 1941 653  Q 2256 653 2472 879  Q 2688 1106 2688 1447  L 2688 1575  L 2106 1575  z M 3816 1997  L 3816 0  L 2688 0  L 2688 519  Q 2463 200 2181 54  Q 1900 -91 1497 -91  Q 953 -91 614 226  Q 275 544 275 1050  Q 275 1666 698 1953  Q 1122 2241 2028 2241  L 2688 2241  L 2688 2328  Q 2688 2594 2478 2717  Q 2269 2841 1825 2841  Q 1466 2841 1156 2769  Q 847 2697 581 2553  L 581 3406  Q 941 3494 1303 3539  Q 1666 3584 2028 3584  Q 2975 3584 3395 3211  Q 3816 2838 3816 1997  z " transform="scale(0.015625)" />
      <path id="DejaVuSans-Bold-65" d="M 4031 1759  L 4031 1441  L 1416 1441  Q 1456 1047 1700 850  Q 1944 653 2381 653  Q 2734 653 3104 758  Q 3475 863 3866 1075  L 3866 213  Q 3469 63 3072 -14  Q 2675 -91 2278 -91  Q 1328 -91 801 392  Q 275 875 275 1747  Q 275 2603 792 3093  Q 1309 3584 2216 3584  Q 3041 3584 3536 3087  Q 4031 2591 4031 1759  z M 2881 2131  Q 2881 2450 2695 2645  Q 2509 2841 2209 2841  Q 1884 2841 1681 2658  Q 1478 2475 1428 2131  L 2881 2131  z " transform="scale(0.015625)" />
      <path id="DejaVuSans-Bold-64" d="M 2919 2988  L 2919 4863  L 4044 4863  L 4044 0  L 2919 0  L 2919 506  Q 2688 197 2409 53  Q 2131 -91 1766 -91  Q 1119 -91 703 423  Q 288 938 288 1747  Q 288 2556 703 3070  Q 1119 3584 1766 3584  Q 2128 3584 2408 3439  Q 2688 3294 2919 2988  z M 2181 722  Q 2541 722 2730 984  Q 2919 1247 2919 1747  Q 2919 2247 2730 2509  Q 2541 2772 2181 2772  Q 1825 2772 1636 2509  Q 1447 2247 1447 1747  Q 1447 1247 1636 984  Q 1825 722 2181 722  z " transform="scale(0.015625)" />
      <path id="DejaVuSans-Bold-20" transform="scale(0.015625)" />
      <path id="DejaVuSans-Bold-6c" d="M 538 4863  L 1656 4863  L 1656 0  L 538 0  L 538 4863  z " transform="scale(0.015625)" />
      <path id="DejaVuSans-Bold-79" d="M 78 3500  L 1197 3500  L 2138 1125  L 2938 3500  L 4056 3500  L 2584 -331  Q 2363 -916 2067 -1148  Q 1772 -1381 1288 -1381  L 641 -1381  L 641 -647  L 991 -647  Q 1275 -647 1404 -556  Q 1534 -466 1606 -231  L 1638 -134  L 78 3500  z " transform="scale(0.015625)" />
      <path id="DejaVuSans-Bold-6f" d="M 2203 2784  Q 1831 2784 1636 2517  Q 1441 2250 1441 1747  Q 1441 1244 1636 976  Q 1831 709 2203 709  Q 2569 709 2762 976  Q 2956 1244 2956 1747  Q 2956 2250 2762 2517  Q 2569 2784 2203 2784  z M 2203 3584  Q 3106 3584 3614 3096  Q 4122 2609 4122 1747  Q 4122 884 3614 396  Q 3106 -91 2203 -91  Q 1297 -91 786 396  Q 275 884 275 1747  Q 275 2609 786 3096  Q 1297 3584 2203 3584  z " transform="scale(0.015625)" />
      <path id="DejaVuSans-Bold-6e" d="M 4056 2131  L 4056 0  L 2931 0  L 2931 347  L 2931 1631  Q 2931 2084 2911 2256  Q 2891 2428 2841 2509  Q 2775 2619 2662 2680  Q 2550 2741 2406 2741  Q 2056 2741 1856 2470  Q 1656 2200 1656 1722  L 1656 0  L 538 0  L 538 3500  L 1656 3500  L 1656 2988  Q 1909 3294 2193 3439  Q 2478 3584 2822 3584  Q 3428 3584 3742 3212  Q 4056 2841 4056 2131  z " transform="scale(0.015625)" />
      <path id="DejaVuSans-Bold-62" d="M 2400 722  Q 2759 722 2948 984  Q 3138 1247 3138 1747  Q 3138 2247 2948 2509  Q 2759 2772 2400 2772  Q 2041 2772 1848 2508  Q 1656 2244 1656 1747  Q 1656 1250 1848 986  Q 2041 722 2400 722  z M 1656 2988  Q 1888 3294 2169 3439  Q 2450 3584 2816 3584  Q 3463 3584 3878 3070  Q 4294 2556 4294 1747  Q 4294 938 3878 423  Q 3463 -91 2816 -91  Q 2450 -91 2169 54  Q 1888 200 1656 506  L 1656 0  L 538 0  L 538 4863  L 1656 4863  L 1656 2988  z " transform="scale(0.015625)" />
      <path id="DejaVuSans-Bold-63" d="M 3366 3391  L 3366 2478  Q 3138 2634 2908 2709  Q 2678 2784 2431 2784  Q 1963 2784 1702 2511  Q 1441 2238 1441 1747  Q 1441 1256 1702 982  Q 1963 709 2431 709  Q 2694 709 2930 787  Q 3166 866 3366 1019  L 3366 103  Q 3103 6 2833 -42  Q 2563 -91 2291 -91  Q 1344 -91 809 395  Q 275 881 275 1747  Q 275 2613 809 3098  Q 1344 3584 2291 3584  Q 2566 3584 2833 3536  Q 3100 3488 3366 3391  z " transform="scale(0.015625)" />
      <path id="DejaVuSans-Bold-76" d="M 97 3500  L 1216 3500  L 2088 1081  L 2956 3500  L 4078 3500  L 2700 0  L 1472 0  L 97 3500  z " transform="scale(0.015625)" />
      <path id="DejaVuSans-Bold-28" d="M 2413 -844  L 1484 -844  Q 1006 -72 778 623  Q 550 1319 550 2003  Q 550 2688 779 3389  Q 1009 4091 1484 4856  L 2413 4856  Q 2013 4116 1813 3408  Q 1613 2700 1613 2009  Q 1613 1319 1811 609  Q 2009 -100 2413 -844  z " transform="scale(0.015625)" />
      <path id="DejaVuSans-Bold-49" d="M 588 4666  L 1791 4666  L 1791 0  L 588 0  L 588 4666  z " transform="scale(0.015625)" />
      <path id="DejaVuSans-Bold-29" d="M 513 -844  Q 913 -100 1113 609  Q 1313 1319 1313 2009  Q 1313 2700 1113 3408  Q 913 4116 513 4856  L 1441 4856  Q 1916 4091 2145 3389  Q 2375 2688 2375 2003  Q 2375 1319 2147 623  Q 1919 -72 1441 -844  L 513 -844  z " transform="scale(0.015625)" />
     </defs>
     <use ns4:href="#DejaVuSans-Bold-45" />
     <use ns4:href="#DejaVuSans-Bold-73" x="68.310547" />
     <use ns4:href="#DejaVuSans-Bold-74" x="127.832031" />
     <use ns4:href="#DejaVuSans-Bold-69" x="175.634766" />
     <use ns4:href="#DejaVuSans-Bold-6d" x="209.912109" />
     <use ns4:href="#DejaVuSans-Bold-61" x="314.111328" />
     <use ns4:href="#DejaVuSans-Bold-74" x="381.591797" />
     <use ns4:href="#DejaVuSans-Bold-65" x="429.394531" />
     <use ns4:href="#DejaVuSans-Bold-64" x="497.216797" />
     <use ns4:href="#DejaVuSans-Bold-20" x="568.798828" />
     <use ns4:href="#DejaVuSans-Bold-64" x="603.613281" />
     <use ns4:href="#DejaVuSans-Bold-61" x="675.195312" />
     <use ns4:href="#DejaVuSans-Bold-69" x="742.675781" />
     <use ns4:href="#DejaVuSans-Bold-6c" x="776.953125" />
     <use ns4:href="#DejaVuSans-Bold-79" x="811.230469" />
     <use ns4:href="#DejaVuSans-Bold-20" x="876.416016" />
     <use ns4:href="#DejaVuSans-Bold-6f" x="911.230469" />
     <use ns4:href="#DejaVuSans-Bold-6e" x="979.931641" />
     <use ns4:href="#DejaVuSans-Bold-6c" x="1051.123047" />
     <use ns4:href="#DejaVuSans-Bold-69" x="1085.400391" />
     <use ns4:href="#DejaVuSans-Bold-6e" x="1119.677734" />
     <use ns4:href="#DejaVuSans-Bold-65" x="1190.869141" />
     <use ns4:href="#DejaVuSans-Bold-20" x="1258.691406" />
     <use ns4:href="#DejaVuSans-Bold-74" x="1293.505859" />
     <use ns4:href="#DejaVuSans-Bold-69" x="1341.308594" />
     <use ns4:href="#DejaVuSans-Bold-6d" x="1375.585938" />
     <use ns4:href="#DejaVuSans-Bold-65" x="1479.785156" />
     <use ns4:href="#DejaVuSans-Bold-20" x="1547.607422" />
     <use ns4:href="#DejaVuSans-Bold-62" x="1582.421875" />
     <use ns4:href="#DejaVuSans-Bold-79" x="1654.003906" />
     <use ns4:href="#DejaVuSans-Bold-20" x="1719.189453" />
     <use ns4:href="#DejaVuSans-Bold-61" x="1754.003906" />
     <use ns4:href="#DejaVuSans-Bold-63" x="1821.484375" />
     <use ns4:href="#DejaVuSans-Bold-74" x="1880.761719" />
     <use ns4:href="#DejaVuSans-Bold-69" x="1928.564453" />
     <use ns4:href="#DejaVuSans-Bold-76" x="1962.841797" />
     <use ns4:href="#DejaVuSans-Bold-69" x="2028.027344" />
     <use ns4:href="#DejaVuSans-Bold-74" x="2062.304688" />
     <use ns4:href="#DejaVuSans-Bold-79" x="2110.107422" />
     <use ns4:href="#DejaVuSans-Bold-20" x="2175.292969" />
     <use ns4:href="#DejaVuSans-Bold-28" x="2210.107422" />
     <use ns4:href="#DejaVuSans-Bold-49" x="2255.810547" />
     <use ns4:href="#DejaVuSans-Bold-6e" x="2293.017578" />
     <use ns4:href="#DejaVuSans-Bold-64" x="2364.208984" />
     <use ns4:href="#DejaVuSans-Bold-69" x="2435.791016" />
     <use ns4:href="#DejaVuSans-Bold-61" x="2470.068359" />
     <use ns4:href="#DejaVuSans-Bold-29" x="2537.548828" />
    </g>
   </g>
   <g id="legend_1">
    <g id="patch_9">
     <path d="M 92.034797 360.90025  L 112.034797 360.90025  L 112.034797 353.90025  L 92.034797 353.90025  z " style="fill: #2563eb; stroke: #ffffff; stroke-linejoin: miter" />
    </g>
    <g id="text_15">
     
     <g transform="translate(120.034797 360.90025) scale(0.1 -0.1)">
      <defs>
       <path id="DejaVuSans-45" d="M 628 4666  L 3578 4666  L 3578 4134  L 1259 4134  L 1259 2753  L 3481 2753  L 3481 2222  L 1259 2222  L 1259 531  L 3634 531  L 3634 0  L 628 0  L 628 4666  z " transform="scale(0.015625)" />
       <path id="DejaVuSans-6d" d="M 3328 2828  Q 3544 3216 3844 3400  Q 4144 3584 4550 3584  Q 5097 3584 5394 3201  Q 5691 2819 5691 2113  L 5691 0  L 5113 0  L 5113 2094  Q 5113 2597 4934 2840  Q 4756 3084 4391 3084  Q 3944 3084 3684 2787  Q 3425 2491 3425 1978  L 3425 0  L 2847 0  L 2847 2094  Q 2847 2600 2669 2842  Q 2491 3084 2119 3084  Q 1678 3084 1418 2786  Q 1159 2488 1159 1978  L 1159 0  L 581 0  L 581 3500  L 1159 3500  L 1159 2956  Q 1356 3278 1631 3431  Q 1906 3584 2284 3584  Q 2666 3584 2933 3390  Q 3200 3197 3328 2828  z " transform="scale(0.015625)" />
      </defs>
      <use ns4:href="#DejaVuSans-45" />
      <use ns4:href="#DejaVuSans-6e" x="63.183594" />
      <use ns4:href="#DejaVuSans-74" x="126.5625" />
      <use ns4:href="#DejaVuSans-65" x="165.771484" />
      <use ns4:href="#DejaVuSans-72" x="227.294922" />
      <use ns4:href="#DejaVuSans-74" x="268.408203" />
      <use ns4:href="#DejaVuSans-61" x="307.617188" />
      <use ns4:href="#DejaVuSans-69" x="368.896484" />
      <use ns4:href="#DejaVuSans-6e" x="396.679688" />
      <use ns4:href="#DejaVuSans-6d" x="460.058594" />
      <use ns4:href="#DejaVuSans-65" x="557.470703" />
      <use ns4:href="#DejaVuSans-6e" x="618.994141" />
      <use ns4:href="#DejaVuSans-74" x="682.373047" />
     </g>
    </g>
    <g id="patch_10">
     <path d="M 212.191047 360.90025  L 232.191047 360.90025  L 232.191047 353.90025  L 212.191047 353.90025  z " style="fill: #7c3aed; stroke: #ffffff; stroke-linejoin: miter" />
    </g>
    <g id="text_16">
     
     <g transform="translate(240.191047 360.90025) scale(0.1 -0.1)">
      <defs>
       <path id="DejaVuSans-63" d="M 3122 3366  L 3122 2828  Q 2878 2963 2633 3030  Q 2388 3097 2138 3097  Q 1578 3097 1268 2742  Q 959 2388 959 1747  Q 959 1106 1268 751  Q 1578 397 2138 397  Q 2388 397 2633 464  Q 2878 531 3122 666  L 3122 134  Q 2881 22 2623 -34  Q 2366 -91 2075 -91  Q 1284 -91 818 406  Q 353 903 353 1747  Q 353 2603 823 3093  Q 1294 3584 2113 3584  Q 2378 3584 2631 3529  Q 2884 3475 3122 3366  z " transform="scale(0.015625)" />
      </defs>
      <use ns4:href="#DejaVuSans-45" />
      <use ns4:href="#DejaVuSans-64" x="63.183594" />
      <use ns4:href="#DejaVuSans-75" x="126.660156" />
      <use ns4:href="#DejaVuSans-63" x="190.039062" />
      <use ns4:href="#DejaVuSans-61" x="245.019531" />
      <use ns4:href="#DejaVuSans-74" x="306.298828" />
      <use ns4:href="#DejaVuSans-69" x="345.507812" />
      <use ns4:href="#DejaVuSans-6f" x="373.291016" />
      <use ns4:href="#DejaVuSans-6e" x="434.472656" />
     </g>
    </g>
    <g id="patch_11">
     <path d="M 309.976984 360.90025  L 329.976984 360.90025  L 329.976984 353.90025  L 309.976984 353.90025  z " style="fill: #059669; stroke: #ffffff; stroke-linejoin: miter" />
    </g>
    <g id="text_17">
     
     <g transform="translate(337.976984 360.90025) scale(0.1 -0.1)">
      <defs>
       <path id="DejaVuSans-43" d="M 4122 4306  L 4122 3641  Q 3803 3938 3442 4084  Q 3081 4231 2675 4231  Q 1875 4231 1450 3742  Q 1025 3253 1025 2328  Q 1025 1406 1450 917  Q 1875 428 2675 428  Q 3081 428 3442 575  Q 3803 722 4122 1019  L 4122 359  Q 3791 134 3420 21  Q 3050 -91 2638 -91  Q 1578 -91 968 557  Q 359 1206 359 2328  Q 359 3453 968 4101  Q 1578 4750 2638 4750  Q 3056 4750 3426 4639  Q 3797 4528 4122 4306  z " transform="scale(0.015625)" />
      </defs>
      <use ns4:href="#DejaVuSans-43" />
      <use ns4:href="#DejaVuSans-6f" x="69.824219" />
      <use ns4:href="#DejaVuSans-6d" x="131.005859" />
      <use ns4:href="#DejaVuSans-6d" x="228.417969" />
      <use ns4:href="#DejaVuSans-75" x="325.830078" />
      <use ns4:href="#DejaVuSans-6e" x="389.208984" />
      <use ns4:href="#DejaVuSans-69" x="452.587891" />
      <use ns4:href="#DejaVuSans-63" x="480.371094" />
      <use ns4:href="#DejaVuSans-61" x="535.351562" />
      <use ns4:href="#DejaVuSans-74" x="596.630859" />
      <use ns4:href="#DejaVuSans-69" x="635.839844" />
      <use ns4:href="#DejaVuSans-6f" x="663.623047" />
      <use ns4:href="#DejaVuSans-6e" x="724.804688" />
     </g>
    </g>
    <g id="patch_12">
     <path d="M 436.794172 360.90025  L 456.794172 360.90025  L 456.794172 353.90025  L 436.794172 353.90025  z " style="fill: #d97706; stroke: #ffffff; stroke-linejoin: miter" />
    </g>
    <g id="text_18">
     
     <g transform="translate(464.794172 360.90025) scale(0.1 -0.1)">
      <defs>
       <path id="DejaVuSans-57" d="M 213 4666  L 850 4666  L 1831 722  L 2809 4666  L 3519 4666  L 4500 722  L 5478 4666  L 6119 4666  L 4947 0  L 4153 0  L 3169 4050  L 2175 0  L 1381 0  L 213 4666  z " transform="scale(0.015625)" />
       <path id="DejaVuSans-6b" d="M 581 4863  L 1159 4863  L 1159 1991  L 2875 3500  L 3609 3500  L 1753 1863  L 3688 0  L 2938 0  L 1159 1709  L 1159 0  L 581 0  L 581 4863  z " transform="scale(0.015625)" />
      </defs>
      <use ns4:href="#DejaVuSans-57" />
      <use ns4:href="#DejaVuSans-6f" x="93.001953" />
      <use ns4:href="#DejaVuSans-72" x="154.183594" />
      <use ns4:href="#DejaVuSans-6b" x="195.296875" />
     </g>
    </g>
    <g id="patch_13">
     <path d="M 510.114484 360.90025  L 530.114484 360.90025  L 530.114484 353.90025  L 510.114484 353.90025  z " style="fill: #dc2626; stroke: #ffffff; stroke-linejoin: miter" />
    </g>
    <g id="text_19">
     
     <g transform="translate(538.114484 360.90025) scale(0.1 -0.1)">
      <defs>
       <path id="DejaVuSans-4f" d="M 2522 4238  Q 1834 4238 1429 3725  Q 1025 3213 1025 2328  Q 1025 1447 1429 934  Q 1834 422 2522 422  Q 3209 422 3611 934  Q 4013 1447 4013 2328  Q 4013 3213 3611 3725  Q 3209 4238 2522 4238  z M 2522 4750  Q 3503 4750 4090 4092  Q 4678 3434 4678 2328  Q 4678 1225 4090 567  Q 3503 -91 2522 -91  Q 1538 -91 948 565  Q 359 1222 359 2328  Q 359 3434 948 4092  Q 1538 4750 2522 4750  z " transform="scale(0.015625)" />
      </defs>
      <use ns4:href="#DejaVuSans-4f" />
      <use ns4:href="#DejaVuSans-74" x="78.710938" />
      <use ns4:href="#DejaVuSans-68" x="117.919922" />
      <use ns4:href="#DejaVuSans-65" x="181.298828" />
      <use ns4:href="#DejaVuSans-72" x="242.822266" />
     </g>
    </g>
   </g>
  </g>
  <g id="text_20">
   
   <g transform="translate(7.2 372.237813) scale(0.09 -0.09)">
    <defs>
     <path id="DejaVuSans-Oblique-53" d="M 3859 4513  L 3738 3897  Q 3422 4066 3111 4152  Q 2800 4238 2509 4238  Q 1944 4238 1609 3991  Q 1275 3744 1275 3334  Q 1275 3109 1398 2989  Q 1522 2869 2034 2731  L 2413 2638  Q 3053 2472 3303 2217  Q 3553 1963 3553 1503  Q 3553 797 2998 353  Q 2444 -91 1538 -91  Q 1166 -91 791 -17  Q 416 56 38 206  L 166 856  Q 513 641 861 531  Q 1209 422 1556 422  Q 2147 422 2503 684  Q 2859 947 2859 1369  Q 2859 1650 2717 1795  Q 2575 1941 2106 2059  L 1728 2156  Q 1081 2325 845 2545  Q 609 2766 609 3163  Q 609 3859 1145 4304  Q 1681 4750 2541 4750  Q 2875 4750 3203 4690  Q 3531 4631 3859 4513  z " transform="scale(0.015625)" />
     <path id="DejaVuSans-Oblique-6f" d="M 1625 -91  Q 1009 -91 651 289  Q 294 669 294 1325  Q 294 1706 417 2101  Q 541 2497 738 2766  Q 1047 3184 1428 3384  Q 1809 3584 2291 3584  Q 2888 3584 3255 3212  Q 3622 2841 3622 2241  Q 3622 1825 3500 1412  Q 3378 1000 3181 728  Q 2875 309 2494 109  Q 2113 -91 1625 -91  z M 891 1344  Q 891 869 1089 633  Q 1288 397 1691 397  Q 2269 397 2648 901  Q 3028 1406 3028 2181  Q 3028 2634 2825 2865  Q 2622 3097 2228 3097  Q 1903 3097 1650 2945  Q 1397 2794 1197 2484  Q 1050 2253 970 1956  Q 891 1659 891 1344  z " transform="scale(0.015625)" />
     <path id="DejaVuSans-Oblique-75" d="M 428 1388  L 838 3500  L 1416 3500  L 1006 1409  Q 975 1256 961 1147  Q 947 1038 947 966  Q 947 700 1109 554  Q 1272 409 1569 409  Q 2031 409 2368 721  Q 2706 1034 2809 1563  L 3194 3500  L 3769 3500  L 3091 0  L 2516 0  L 2631 550  Q 2388 244 2052 76  Q 1716 -91 1338 -91  Q 878 -91 622 161  Q 366 413 366 863  Q 366 956 381 1097  Q 397 1238 428 1388  z " transform="scale(0.015625)" />
     <path id="DejaVuSans-Oblique-72" d="M 2853 2969  Q 2766 3016 2653 3041  Q 2541 3066 2413 3066  Q 1953 3066 1609 2717  Q 1266 2369 1153 1784  L 800 0  L 225 0  L 909 3500  L 1484 3500  L 1375 2956  Q 1603 3259 1920 3421  Q 2238 3584 2597 3584  Q 2691 3584 2781 3573  Q 2872 3563 2963 3538  L 2853 2969  z " transform="scale(0.015625)" />
     <path id="DejaVuSans-Oblique-63" d="M 3431 3366  L 3316 2797  Q 3109 2947 2876 3022  Q 2644 3097 2394 3097  Q 2119 3097 1870 3000  Q 1622 2903 1453 2725  Q 1184 2453 1037 2087  Q 891 1722 891 1331  Q 891 859 1127 628  Q 1363 397 1844 397  Q 2081 397 2348 469  Q 2616 541 2906 684  L 2797 116  Q 2547 13 2283 -39  Q 2019 -91 1741 -91  Q 1044 -91 669 257  Q 294 606 294 1253  Q 294 1797 489 2255  Q 684 2713 1069 3078  Q 1331 3328 1684 3456  Q 2038 3584 2456 3584  Q 2700 3584 2940 3529  Q 3181 3475 3431 3366  z " transform="scale(0.015625)" />
     <path id="DejaVuSans-Oblique-65" d="M 3078 2063  Q 3088 2113 3092 2166  Q 3097 2219 3097 2272  Q 3097 2653 2873 2875  Q 2650 3097 2266 3097  Q 1838 3097 1509 2826  Q 1181 2556 1013 2059  L 3078 2063  z M 3578 1613  L 903 1613  Q 884 1494 878 1425  Q 872 1356 872 1306  Q 872 872 1139 634  Q 1406 397 1894 397  Q 2269 397 2603 481  Q 2938 566 3225 728  L 3116 159  Q 2806 34 2476 -28  Q 2147 -91 1806 -91  Q 1078 -91 686 257  Q 294 606 294 1247  Q 294 1794 489 2264  Q 684 2734 1063 3103  Q 1306 3334 1642 3459  Q 1978 3584 2356 3584  Q 2950 3584 3301 3228  Q 3653 2872 3653 2272  Q 3653 2128 3634 1964  Q 3616 1800 3578 1613  z " transform="scale(0.015625)" />
     <path id="DejaVuSans-Oblique-3a" d="M 978 3309  L 1638 3309  L 1484 2516  L 825 2516  L 978 3309  z M 488 794  L 1147 794  L 991 0  L 331 0  L 488 794  z " transform="scale(0.015625)" />
     <path id="DejaVuSans-Oblique-20" transform="scale(0.015625)" />
     <path id="DejaVuSans-Oblique-4e" d="M 1081 4666  L 1931 4666  L 3219 666  L 4000 4666  L 4616 4666  L 3706 0  L 2853 0  L 1569 4025  L 788 0  L 172 0  L 1081 4666  z " transform="scale(0.015625)" />
     <path id="DejaVuSans-Oblique-43" d="M 4447 4306  L 4319 3641  Q 4019 3944 3683 4091  Q 3347 4238 2956 4238  Q 2422 4238 2017 3981  Q 1613 3725 1319 3200  Q 1131 2863 1032 2486  Q 934 2109 934 1728  Q 934 1091 1264 756  Q 1594 422 2222 422  Q 2656 422 3056 561  Q 3456 700 3834 978  L 3688 231  Q 3316 72 2936 -9  Q 2556 -91 2175 -91  Q 1278 -91 773 396  Q 269 884 269 1753  Q 269 2309 461 2846  Q 653 3384 1013 3828  Q 1394 4300 1883 4525  Q 2372 4750 3022 4750  Q 3422 4750 3780 4639  Q 4138 4528 4447 4306  z " transform="scale(0.015625)" />
     <path id="DejaVuSans-Oblique-41" d="M 2356 4666  L 3072 4666  L 3938 0  L 3278 0  L 3084 1197  L 984 1197  L 325 0  L -341 0  L 2356 4666  z M 2584 4044  L 1275 1722  L 2988 1722  L 2584 4044  z " transform="scale(0.015625)" />
     <path id="DejaVuSans-Oblique-45" d="M 1081 4666  L 4031 4666  L 3928 4134  L 1606 4134  L 1338 2753  L 3566 2753  L 3463 2222  L 1234 2222  L 909 531  L 3284 531  L 3181 0  L 172 0  L 1081 4666  z " transform="scale(0.015625)" />
     <path id="DejaVuSans-Oblique-52" d="M 1613 4147  L 1294 2491  L 2106 2491  Q 2584 2491 2879 2755  Q 3175 3019 3175 3444  Q 3175 3784 2976 3965  Q 2778 4147 2406 4147  L 1613 4147  z M 2772 2241  Q 2972 2194 3105 2009  Q 3238 1825 3413 1275  L 3809 0  L 3144 0  L 2778 1197  Q 2638 1659 2453 1815  Q 2269 1972 1888 1972  L 1191 1972  L 806 0  L 172 0  L 1081 4666  L 2503 4666  Q 3150 4666 3495 4373  Q 3841 4081 3841 3531  Q 3841 3044 3547 2687  Q 3253 2331 2772 2241  z " transform="scale(0.015625)" />
     <path id="DejaVuSans-Oblique-49" d="M 1081 4666  L 1716 4666  L 806 0  L 172 0  L 1081 4666  z " transform="scale(0.015625)" />
     <path id="DejaVuSans-Oblique-48" d="M 1081 4666  L 1716 4666  L 1344 2753  L 3634 2753  L 4006 4666  L 4641 4666  L 3731 0  L 3097 0  L 3531 2222  L 1241 2222  L 806 0  L 172 0  L 1081 4666  z " transform="scale(0.015625)" />
     <path id="DejaVuSans-Oblique-44" d="M 1081 4666  L 2438 4666  Q 3519 4666 4070 4208  Q 4622 3750 4622 2847  Q 4622 2250 4412 1698  Q 4203 1147 3834 769  Q 3463 381 2891 190  Q 2319 0 1538 0  L 172 0  L 1081 4666  z M 1613 4147  L 909 519  L 1734 519  Q 2794 519 3375 1128  Q 3956 1738 3956 2847  Q 3956 3519 3581 3833  Q 3206 4147 2406 4147  L 1613 4147  z " transform="scale(0.015625)" />
     <path id="DejaVuSans-Oblique-57" d="M 616 4666  L 1228 4666  L 1453 697  L 3213 4666  L 3916 4666  L 4147 697  L 5888 4666  L 6528 4666  L 4453 0  L 3659 0  L 3444 3891  L 1697 0  L 903 0  L 616 4666  z " transform="scale(0.015625)" />
     <path id="DejaVuSans-Oblique-61" d="M 3438 1997  L 3047 0  L 2472 0  L 2578 531  Q 2325 219 2001 64  Q 1678 -91 1281 -91  Q 834 -91 548 182  Q 263 456 263 884  Q 263 1497 752 1853  Q 1241 2209 2100 2209  L 2900 2209  L 2931 2363  Q 2938 2388 2941 2417  Q 2944 2447 2944 2509  Q 2944 2788 2717 2942  Q 2491 3097 2081 3097  Q 1800 3097 1504 3025  Q 1209 2953 897 2809  L 997 3341  Q 1322 3463 1633 3523  Q 1944 3584 2234 3584  Q 2853 3584 3176 3315  Q 3500 3047 3500 2534  Q 3500 2431 3484 2292  Q 3469 2153 3438 1997  z M 2816 1759  L 2241 1759  Q 1534 1759 1195 1570  Q 856 1381 856 984  Q 856 709 1029 553  Q 1203 397 1509 397  Q 1978 397 2328 733  Q 2678 1069 2791 1631  L 2816 1759  z " transform="scale(0.015625)" />
     <path id="DejaVuSans-Oblique-76" d="M 459 3500  L 1069 3500  L 1581 525  L 3256 3500  L 3866 3500  L 1875 0  L 1100 0  L 459 3500  z " transform="scale(0.015625)" />
     <path id="DejaVuSans-Oblique-33" d="M 1013 4550  Q 1356 4650 1679 4700  Q 2003 4750 2316 4750  Q 2934 4750 3296 4475  Q 3659 4200 3659 3738  Q 3659 3284 3373 2959  Q 3088 2634 2584 2516  Q 2978 2403 3162 2165  Q 3347 1928 3347 1538  Q 3347 1163 3167 834  Q 2988 506 2650 269  Q 2394 88 2037 -1  Q 1681 -91 1216 -91  Q 922 -91 622 -33  Q 322 25 13 141  L 128 738  Q 422 575 720 495  Q 1019 416 1331 416  Q 1947 416 2330 733  Q 2713 1050 2713 1556  Q 2713 1881 2469 2057  Q 2225 2234 1772 2234  L 1228 2234  L 1325 2747  L 1900 2747  Q 2419 2747 2717 2984  Q 3016 3222 3016 3628  Q 3016 3922 2797 4083  Q 2578 4244 2181 4244  Q 1881 4244 1567 4180  Q 1253 4116 916 3988  L 1013 4550  z " transform="scale(0.015625)" />
     <path id="DejaVuSans-Oblique-6e" d="M 3566 2113  L 3156 0  L 2578 0  L 2988 2091  Q 3016 2238 3031 2350  Q 3047 2463 3047 2528  Q 3047 2791 2881 2937  Q 2716 3084 2419 3084  Q 1956 3084 1622 2776  Q 1288 2469 1184 1941  L 800 0  L 225 0  L 903 3500  L 1478 3500  L 1363 2950  Q 1603 3253 1940 3418  Q 2278 3584 2650 3584  Q 3113 3584 3367 3334  Q 3622 3084 3622 2631  Q 3622 2519 3608 2391  Q 3594 2263 3566 2113  z " transform="scale(0.015625)" />
     <path id="DejaVuSans-Oblique-64" d="M 2675 525  Q 2444 222 2128 65  Q 1813 -91 1428 -91  Q 903 -91 598 267  Q 294 625 294 1247  Q 294 1766 478 2236  Q 663 2706 1013 3078  Q 1244 3325 1534 3454  Q 1825 3584 2144 3584  Q 2481 3584 2739 3421  Q 2997 3259 3138 2956  L 3513 4863  L 4091 4863  L 3144 0  L 2566 0  L 2675 525  z M 891 1350  Q 891 897 1095 644  Q 1300 391 1663 391  Q 1931 391 2161 520  Q 2391 650 2566 903  Q 2750 1166 2856 1509  Q 2963 1853 2963 2188  Q 2963 2622 2758 2865  Q 2553 3109 2194 3109  Q 1922 3109 1687 2981  Q 1453 2853 1288 2613  Q 1106 2353 998 2009  Q 891 1666 891 1350  z " transform="scale(0.015625)" />
     <path id="DejaVuSans-Oblique-4d" d="M 1081 4666  L 2028 4666  L 2572 1522  L 4378 4666  L 5350 4666  L 4441 0  L 3828 0  L 4622 4091  L 2791 897  L 2175 897  L 1581 4103  L 788 0  L 172 0  L 1081 4666  z " transform="scale(0.015625)" />
     <path id="DejaVuSans-Oblique-2d" d="M 391 2009  L 2075 2009  L 1978 1497  L 288 1497  L 391 2009  z " transform="scale(0.015625)" />
     <path id="DejaVuSans-Oblique-4b" d="M 1081 4666  L 1716 4666  L 1331 2700  L 3781 4666  L 4622 4666  L 1850 2438  L 3878 0  L 3109 0  L 1247 2272  L 806 0  L 172 0  L 1081 4666  z " transform="scale(0.015625)" />
     <path id="DejaVuSans-Oblique-74" d="M 2706 3500  L 2619 3053  L 1472 3053  L 1100 1153  Q 1081 1047 1072 975  Q 1063 903 1063 863  Q 1063 663 1183 572  Q 1303 481 1569 481  L 2150 481  L 2053 0  L 1503 0  Q 991 0 739 200  Q 488 400 488 806  Q 488 878 497 964  Q 506 1050 525 1153  L 897 3053  L 409 3053  L 500 3500  L 978 3500  L 1172 4494  L 1747 4494  L 1556 3500  L 2706 3500  z " transform="scale(0.015625)" />
     <path id="DejaVuSans-Oblique-32" d="M 2950 2253  L 934 525  L 3163 525  L 3053 0  L 25 0  L 128 531  L 2234 2338  Q 2656 2703 2832 2979  Q 3009 3256 3009 3547  Q 3009 3850 2796 4040  Q 2584 4231 2241 4231  Q 1944 4231 1581 4125  Q 1219 4019 806 3816  L 922 4441  Q 1309 4594 1662 4672  Q 2016 4750 2316 4750  Q 2928 4750 3301 4425  Q 3675 4100 3675 3572  Q 3675 3216 3497 2892  Q 3319 2569 2950 2253  z " transform="scale(0.015625)" />
     <path id="DejaVuSans-Oblique-30" d="M 2444 4750  Q 3078 4750 3414 4328  Q 3750 3906 3750 3116  Q 3750 2516 3592 1923  Q 3434 1331 3150 863  Q 2859 394 2467 151  Q 2075 -91 1600 -91  Q 988 -91 653 334  Q 319 759 319 1544  Q 319 2138 480 2733  Q 641 3328 928 3794  Q 1216 4263 1602 4506  Q 1988 4750 2444 4750  z M 2406 4250  Q 2169 4250 1955 4123  Q 1741 3997 1569 3750  Q 1281 3338 1111 2720  Q 941 2103 941 1453  Q 941 938 1123 673  Q 1306 409 1663 409  Q 1913 409 2125 536  Q 2338 663 2509 909  Q 2794 1319 2961 1936  Q 3128 2553 3128 3206  Q 3128 3722 2945 3986  Q 2763 4250 2406 4250  z " transform="scale(0.015625)" />
     <path id="DejaVuSans-Oblique-34" d="M 2753 4666  L 3547 4666  L 2950 1625  L 3616 1625  L 3513 1100  L 2847 1100  L 2638 0  L 2009 0  L 2222 1100  L 116 1100  L 238 1709  L 2753 4666  z M 2809 4116  L 728 1625  L 2322 1625  L 2809 4116  z " transform="scale(0.015625)" />
     <path id="DejaVuSans-Oblique-2014" d="M 356 1978  L 6131 1978  L 6044 1528  L 269 1528  L 356 1978  z " transform="scale(0.015625)" />
     <path id="DejaVuSans-Oblique-6c" d="M 1172 4863  L 1747 4863  L 800 0  L 225 0  L 1172 4863  z " transform="scale(0.015625)" />
     <path id="DejaVuSans-Oblique-73" d="M 3200 3397  L 3091 2853  Q 2863 2978 2609 3040  Q 2356 3103 2088 3103  Q 1634 3103 1373 2948  Q 1113 2794 1113 2528  Q 1113 2219 1719 2053  Q 1766 2041 1788 2034  L 1972 1978  Q 2547 1819 2739 1644  Q 2931 1469 2931 1166  Q 2931 609 2489 259  Q 2047 -91 1331 -91  Q 1053 -91 747 -37  Q 441 16 72 128  L 184 722  Q 500 559 806 475  Q 1113 391 1394 391  Q 1816 391 2080 572  Q 2344 753 2344 1031  Q 2344 1331 1650 1516  L 1591 1531  L 1394 1581  Q 956 1697 753 1886  Q 550 2075 550 2369  Q 550 2928 970 3256  Q 1391 3584 2113 3584  Q 2397 3584 2667 3537  Q 2938 3491 3200 3397  z " transform="scale(0.015625)" />
     <path id="DejaVuSans-Oblique-69" d="M 1172 4863  L 1747 4863  L 1606 4134  L 1031 4134  L 1172 4863  z M 909 3500  L 1484 3500  L 800 0  L 225 0  L 909 3500  z " transform="scale(0.015625)" />
     <path id="DejaVuSans-Oblique-62" d="M 3169 2138  Q 3169 2591 2961 2847  Q 2753 3103 2388 3103  Q 2122 3103 1889 2973  Q 1656 2844 1484 2597  Q 1303 2338 1198 1995  Q 1094 1653 1094 1313  Q 1094 881 1298 636  Q 1503 391 1863 391  Q 2134 391 2365 517  Q 2597 644 2772 891  Q 2950 1147 3059 1487  Q 3169 1828 3169 2138  z M 1381 2969  Q 1594 3256 1914 3420  Q 2234 3584 2584 3584  Q 3122 3584 3439 3221  Q 3756 2859 3756 2241  Q 3756 1734 3570 1259  Q 3384 784 3041 416  Q 2816 172 2522 40  Q 2228 -91 1906 -91  Q 1566 -91 1316 65  Q 1066 222 909 531  L 806 0  L 231 0  L 1178 4863  L 1753 4863  L 1381 2969  z " transform="scale(0.015625)" />
     <path id="DejaVuSans-Oblique-70" d="M 3175 2156  Q 3175 2616 2975 2859  Q 2775 3103 2400 3103  Q 2144 3103 1911 2972  Q 1678 2841 1497 2591  Q 1319 2344 1212 1994  Q 1106 1644 1106 1300  Q 1106 863 1306 627  Q 1506 391 1875 391  Q 2147 391 2380 519  Q 2613 647 2778 891  Q 2956 1147 3065 1494  Q 3175 1841 3175 2156  z M 1394 2969  Q 1625 3272 1939 3428  Q 2253 3584 2638 3584  Q 3175 3584 3472 3232  Q 3769 2881 3769 2247  Q 3769 1728 3584 1258  Q 3400 788 3053 416  Q 2822 169 2531 39  Q 2241 -91 1919 -91  Q 1547 -91 1294 64  Q 1041 219 916 525  L 556 -1331  L -19 -1331  L 922 3500  L 1497 3500  L 1394 2969  z " transform="scale(0.015625)" />
     <path id="DejaVuSans-Oblique-68" d="M 3566 2113  L 3156 0  L 2578 0  L 2988 2091  Q 3016 2238 3031 2350  Q 3047 2463 3047 2528  Q 3047 2791 2881 2937  Q 2716 3084 2419 3084  Q 1956 3084 1617 2771  Q 1278 2459 1178 1941  L 800 0  L 225 0  L 1172 4863  L 1747 4863  L 1375 2950  Q 1594 3244 1934 3414  Q 2275 3584 2650 3584  Q 3113 3584 3367 3334  Q 3622 3084 3622 2631  Q 3622 2519 3608 2391  Q 3594 2263 3566 2113  z " transform="scale(0.015625)" />
     <path id="DejaVuSans-Oblique-66" d="M 3059 4863  L 2969 4384  L 2419 4384  Q 2106 4384 1964 4261  Q 1822 4138 1753 3809  L 1691 3500  L 2638 3500  L 2553 3053  L 1606 3053  L 1013 0  L 434 0  L 1031 3053  L 481 3053  L 563 3500  L 1113 3500  L 1159 3744  Q 1278 4363 1576 4613  Q 1875 4863 2516 4863  L 3059 4863  z " transform="scale(0.015625)" />
     <path id="DejaVuSans-Oblique-3b" d="M 563 794  L 1222 794  L 1113 256  L 409 -744  L 6 -744  L 453 256  L 563 794  z M 1050 3309  L 1709 3309  L 1556 2516  L 897 2516  L 1050 3309  z " transform="scale(0.015625)" />
     <path id="DejaVuSans-Oblique-6d" d="M 5747 2113  L 5338 0  L 4763 0  L 5166 2094  Q 5191 2228 5203 2325  Q 5216 2422 5216 2491  Q 5216 2772 5059 2928  Q 4903 3084 4622 3084  Q 4203 3084 3875 2770  Q 3547 2456 3450 1953  L 3066 0  L 2491 0  L 2900 2094  Q 2925 2209 2937 2307  Q 2950 2406 2950 2484  Q 2950 2769 2794 2926  Q 2638 3084 2363 3084  Q 1938 3084 1609 2770  Q 1281 2456 1184 1953  L 800 0  L 225 0  L 909 3500  L 1484 3500  L 1375 2956  Q 1609 3263 1923 3423  Q 2238 3584 2597 3584  Q 2978 3584 3223 3384  Q 3469 3184 3519 2828  Q 3781 3197 4126 3390  Q 4472 3584 4856 3584  Q 5306 3584 5551 3325  Q 5797 3066 5797 2591  Q 5797 2488 5784 2364  Q 5772 2241 5747 2113  z " transform="scale(0.015625)" />
     <path id="DejaVuSans-Oblique-2e" d="M 525 794  L 1184 794  L 1031 0  L 372 0  L 525 794  z " transform="scale(0.015625)" />
    </defs>
    <use ns4:href="#DejaVuSans-Oblique-53" />
    <use ns4:href="#DejaVuSans-Oblique-6f" x="63.476562" />
    <use ns4:href="#DejaVuSans-Oblique-75" x="124.658203" />
    <use ns4:href="#DejaVuSans-Oblique-72" x="188.037109" />
    <use ns4:href="#DejaVuSans-Oblique-63" x="229.150391" />
    <use ns4:href="#DejaVuSans-Oblique-65" x="284.130859" />
    <use ns4:href="#DejaVuSans-Oblique-3a" x="345.654297" />
    <use ns4:href="#DejaVuSans-Oblique-20" x="379.345703" />
    <use ns4:href="#DejaVuSans-Oblique-4e" x="411.132812" />
    <use ns4:href="#DejaVuSans-Oblique-43" x="485.9375" />
    <use ns4:href="#DejaVuSans-Oblique-41" x="555.761719" />
    <use ns4:href="#DejaVuSans-Oblique-45" x="624.169922" />
    <use ns4:href="#DejaVuSans-Oblique-52" x="687.353516" />
    <use ns4:href="#DejaVuSans-Oblique-20" x="756.835938" />
    <use ns4:href="#DejaVuSans-Oblique-49" x="788.623047" />
    <use ns4:href="#DejaVuSans-Oblique-48" x="818.115234" />
    <use ns4:href="#DejaVuSans-Oblique-44" x="893.310547" />
    <use ns4:href="#DejaVuSans-Oblique-53" x="970.3125" />
    <use ns4:href="#DejaVuSans-Oblique-20" x="1033.789062" />
    <use ns4:href="#DejaVuSans-Oblique-57" x="1065.576172" />
    <use ns4:href="#DejaVuSans-Oblique-61" x="1158.953125" />
    <use ns4:href="#DejaVuSans-Oblique-76" x="1220.232422" />
    <use ns4:href="#DejaVuSans-Oblique-65" x="1279.412109" />
    <use ns4:href="#DejaVuSans-Oblique-20" x="1340.935547" />
    <use ns4:href="#DejaVuSans-Oblique-33" x="1372.722656" />
    <use ns4:href="#DejaVuSans-Oblique-20" x="1436.345703" />
    <use ns4:href="#DejaVuSans-Oblique-61" x="1468.132812" />
    <use ns4:href="#DejaVuSans-Oblique-6e" x="1529.412109" />
    <use ns4:href="#DejaVuSans-Oblique-64" x="1592.791016" />
    <use ns4:href="#DejaVuSans-Oblique-20" x="1656.267578" />
    <use ns4:href="#DejaVuSans-Oblique-49" x="1688.054688" />
    <use ns4:href="#DejaVuSans-Oblique-41" x="1717.546875" />
    <use ns4:href="#DejaVuSans-Oblique-4d" x="1785.955078" />
    <use ns4:href="#DejaVuSans-Oblique-41" x="1872.234375" />
    <use ns4:href="#DejaVuSans-Oblique-49" x="1940.642578" />
    <use ns4:href="#DejaVuSans-Oblique-2d" x="1970.134766" />
    <use ns4:href="#DejaVuSans-Oblique-4b" x="2006.21875" />
    <use ns4:href="#DejaVuSans-Oblique-61" x="2068.169922" />
    <use ns4:href="#DejaVuSans-Oblique-6e" x="2129.449219" />
    <use ns4:href="#DejaVuSans-Oblique-74" x="2192.828125" />
    <use ns4:href="#DejaVuSans-Oblique-61" x="2232.037109" />
    <use ns4:href="#DejaVuSans-Oblique-72" x="2293.316406" />
    <use ns4:href="#DejaVuSans-Oblique-20" x="2334.429688" />
    <use ns4:href="#DejaVuSans-Oblique-32" x="2366.216797" />
    <use ns4:href="#DejaVuSans-Oblique-30" x="2429.839844" />
    <use ns4:href="#DejaVuSans-Oblique-32" x="2493.462891" />
    <use ns4:href="#DejaVuSans-Oblique-34" x="2557.085938" />
    <use ns4:href="#DejaVuSans-Oblique-20" x="2620.708984" />
    <use ns4:href="#DejaVuSans-Oblique-2014" x="2652.496094" />
    <use ns4:href="#DejaVuSans-Oblique-20" x="2752.496094" />
    <use ns4:href="#DejaVuSans-Oblique-49" x="2784.283203" />
    <use ns4:href="#DejaVuSans-Oblique-6c" x="2813.775391" />
    <use ns4:href="#DejaVuSans-Oblique-6c" x="2841.558594" />
    <use ns4:href="#DejaVuSans-Oblique-75" x="2869.341797" />
    <use ns4:href="#DejaVuSans-Oblique-73" x="2932.720703" />
    <use ns4:href="#DejaVuSans-Oblique-74" x="2984.820312" />
    <use ns4:href="#DejaVuSans-Oblique-72" x="3024.029297" />
    <use ns4:href="#DejaVuSans-Oblique-61" x="3065.142578" />
    <use ns4:href="#DejaVuSans-Oblique-74" x="3126.421875" />
    <use ns4:href="#DejaVuSans-Oblique-69" x="3165.630859" />
    <use ns4:href="#DejaVuSans-Oblique-76" x="3193.414062" />
    <use ns4:href="#DejaVuSans-Oblique-65" x="3252.59375" />
    <use ns4:href="#DejaVuSans-Oblique-20" x="3314.117188" />
    <use ns4:href="#DejaVuSans-Oblique-61" x="3345.904297" />
    <use ns4:href="#DejaVuSans-Oblique-6c" x="3407.183594" />
    <use ns4:href="#DejaVuSans-Oblique-6c" x="3434.966797" />
    <use ns4:href="#DejaVuSans-Oblique-6f" x="3462.75" />
    <use ns4:href="#DejaVuSans-Oblique-63" x="3523.931641" />
    <use ns4:href="#DejaVuSans-Oblique-61" x="3578.912109" />
    <use ns4:href="#DejaVuSans-Oblique-74" x="3640.191406" />
    <use ns4:href="#DejaVuSans-Oblique-69" x="3679.400391" />
    <use ns4:href="#DejaVuSans-Oblique-6f" x="3707.183594" />
    <use ns4:href="#DejaVuSans-Oblique-6e" x="3768.365234" />
    <use ns4:href="#DejaVuSans-Oblique-20" x="3831.744141" />
    <use ns4:href="#DejaVuSans-Oblique-62" x="3863.53125" />
    <use ns4:href="#DejaVuSans-Oblique-61" x="3927.007812" />
    <use ns4:href="#DejaVuSans-Oblique-73" x="3988.287109" />
    <use ns4:href="#DejaVuSans-Oblique-65" x="4040.386719" />
    <use ns4:href="#DejaVuSans-Oblique-64" x="4101.910156" />
    <use ns4:href="#DejaVuSans-Oblique-20" x="4165.386719" />
    <use ns4:href="#DejaVuSans-Oblique-6f" x="4197.173828" />
    <use ns4:href="#DejaVuSans-Oblique-6e" x="4258.355469" />
    <use ns4:href="#DejaVuSans-Oblique-20" x="4321.734375" />
    <use ns4:href="#DejaVuSans-Oblique-72" x="4353.521484" />
    <use ns4:href="#DejaVuSans-Oblique-65" x="4394.634766" />
    <use ns4:href="#DejaVuSans-Oblique-70" x="4456.158203" />
    <use ns4:href="#DejaVuSans-Oblique-6f" x="4519.634766" />
    <use ns4:href="#DejaVuSans-Oblique-72" x="4580.816406" />
    <use ns4:href="#DejaVuSans-Oblique-74" x="4621.929688" />
    <use ns4:href="#DejaVuSans-Oblique-65" x="4661.138672" />
    <use ns4:href="#DejaVuSans-Oblique-64" x="4722.662109" />
    <use ns4:href="#DejaVuSans-Oblique-20" x="4786.138672" />
    <use ns4:href="#DejaVuSans-Oblique-73" x="4817.925781" />
    <use ns4:href="#DejaVuSans-Oblique-68" x="4870.025391" />
    <use ns4:href="#DejaVuSans-Oblique-61" x="4933.404297" />
    <use ns4:href="#DejaVuSans-Oblique-72" x="4994.683594" />
    <use ns4:href="#DejaVuSans-Oblique-65" x="5035.796875" />
    <use ns4:href="#DejaVuSans-Oblique-20" x="5097.320312" />
    <use ns4:href="#DejaVuSans-Oblique-6f" x="5129.107422" />
    <use ns4:href="#DejaVuSans-Oblique-66" x="5190.289062" />
    <use ns4:href="#DejaVuSans-Oblique-20" x="5225.494141" />
    <use ns4:href="#DejaVuSans-Oblique-75" x="5257.28125" />
    <use ns4:href="#DejaVuSans-Oblique-73" x="5320.660156" />
    <use ns4:href="#DejaVuSans-Oblique-65" x="5372.759766" />
    <use ns4:href="#DejaVuSans-Oblique-3b" x="5434.283203" />
    <use ns4:href="#DejaVuSans-Oblique-20" x="5467.974609" />
    <use ns4:href="#DejaVuSans-Oblique-6e" x="5499.761719" />
    <use ns4:href="#DejaVuSans-Oblique-6f" x="5563.140625" />
    <use ns4:href="#DejaVuSans-Oblique-74" x="5624.322266" />
    <use ns4:href="#DejaVuSans-Oblique-20" x="5663.53125" />
    <use ns4:href="#DejaVuSans-Oblique-61" x="5695.318359" />
    <use ns4:href="#DejaVuSans-Oblique-20" x="5756.597656" />
    <use ns4:href="#DejaVuSans-Oblique-64" x="5788.384766" />
    <use ns4:href="#DejaVuSans-Oblique-69" x="5851.861328" />
    <use ns4:href="#DejaVuSans-Oblique-72" x="5879.644531" />
    <use ns4:href="#DejaVuSans-Oblique-65" x="5920.757812" />
    <use ns4:href="#DejaVuSans-Oblique-63" x="5982.28125" />
    <use ns4:href="#DejaVuSans-Oblique-74" x="6037.261719" />
    <use ns4:href="#DejaVuSans-Oblique-20" x="6076.470703" />
    <use ns4:href="#DejaVuSans-Oblique-74" x="6108.257812" />
    <use ns4:href="#DejaVuSans-Oblique-69" x="6147.466797" />
    <use ns4:href="#DejaVuSans-Oblique-6d" x="6175.25" />
    <use ns4:href="#DejaVuSans-Oblique-65" x="6272.662109" />
    <use ns4:href="#DejaVuSans-Oblique-2d" x="6334.185547" />
    <use ns4:href="#DejaVuSans-Oblique-75" x="6370.269531" />
    <use ns4:href="#DejaVuSans-Oblique-73" x="6433.648438" />
    <use ns4:href="#DejaVuSans-Oblique-65" x="6485.748047" />
    <use ns4:href="#DejaVuSans-Oblique-20" x="6547.271484" />
    <use ns4:href="#DejaVuSans-Oblique-6d" x="6579.058594" />
    <use ns4:href="#DejaVuSans-Oblique-65" x="6676.470703" />
    <use ns4:href="#DejaVuSans-Oblique-61" x="6737.994141" />
    <use ns4:href="#DejaVuSans-Oblique-73" x="6799.273438" />
    <use ns4:href="#DejaVuSans-Oblique-75" x="6851.373047" />
    <use ns4:href="#DejaVuSans-Oblique-72" x="6914.751953" />
    <use ns4:href="#DejaVuSans-Oblique-65" x="6955.865234" />
    <use ns4:href="#DejaVuSans-Oblique-6d" x="7017.388672" />
    <use ns4:href="#DejaVuSans-Oblique-65" x="7114.800781" />
    <use ns4:href="#DejaVuSans-Oblique-6e" x="7176.324219" />
    <use ns4:href="#DejaVuSans-Oblique-74" x="7239.703125" />
    <use ns4:href="#DejaVuSans-Oblique-2e" x="7278.912109" />
   </g>
  </g>
 </g>
 <defs>
  <clipPath id="p1837460320">
   <rect x="120.180234" y="33.837813" width="446.4" height="277.2" />
  </clipPath>
 </defs>
</svg>