<svg xmlns="http://www.w3.org/2000/svg" xmlns:dc="http://purl.org/dc/elements/1.1/" xmlns:ns2="http://creativecommons.org/ns#" xmlns:ns4="http://www.w3.org/1999/xlink" xmlns:rdf="http://www.w3.org/1999/02/22-rdf-syntax-ns#" width="760.114687pt" height="397.206815pt" viewBox="0 0 760.114687 397.206815" version="1.1">
 <title>The Green Revolution trade-off: output up, water tables down</title><desc>The Green Revolution trade-off: output up, water tables down. Source: Evenson and Gollin; FAO AQUASTAT; illustrative index. Output index is illustrative; water-depth trends vary by region and are shown as a directional signal.</desc><metadata>
  <rdf:RDF>
   <ns2:Work>
    <dc:type rdf:resource="http://purl.org/dc/dcmitype/StillImage" />
    <dc:date>2026-07-06T23:45:04.893416</dc:date>
    <dc:format>image/svg+xml</dc:format>
    <dc:creator>
     <ns2:Agent>
      <dc:title>Matplotlib v3.9.4, https://matplotlib.org/</dc:title>
     </ns2:Agent>
    </dc:creator>
   </ns2:Work>
  </rdf:RDF>
 </metadata>
 <defs>
  <style type="text/css">*{stroke-linejoin: round; stroke-linecap: butt}</style>
 </defs>
 <g id="figure_1">
  <g id="patch_1">
   <path d="M 0 397.206815  L 760.114687 397.206815  L 760.114687 -0  L 0 -0  z " style="fill: #ffffff" />
  </g>
  <g id="axes_1">
   <g id="patch_2">
    <path d="M 137.057344 311.037812  L 639.257344 311.037812  L 639.257344 33.837812  L 137.057344 33.837812  z " style="fill: #ffffff" />
   </g>
   <g id="matplotlib.axis_1">
    <g id="xtick_1">
     <g id="line2d_1">
      <defs>
       <path id="md18111c898" d="M 0 0  L 0 3.5  " style="stroke: #000000; stroke-width: 0.8" />
      </defs>
      <g>
       <use ns4:href="#md18111c898" x="159.884616" y="311.037812" style="stroke: #000000; stroke-width: 0.8" />
      </g>
     </g>
     <g id="text_1">
      <text style="font: 10px 'DejaVu Sans', 'Bitstream Vera Sans', 'Computer Modern Sans Serif', 'Lucida Grande', 'Verdana', 'Geneva', 'Lucid', 'Arial', 'Helvetica', 'Avant Garde', sans-serif" transform="translate(48.707992 388.205752) rotate(-30)">Rice+wheat output index</text>
     </g>
    </g>
    <g id="xtick_2">
     <g id="line2d_2">
      <g>
       <use ns4:href="#md18111c898" x="616.430071" y="311.037812" style="stroke: #000000; stroke-width: 0.8" />
      </g>
     </g>
     <g id="text_2">
      <text style="font: 10px 'DejaVu Sans', 'Bitstream Vera Sans', 'Computer Modern Sans Serif', 'Lucida Grande', 'Verdana', 'Geneva', 'Lucid', 'Arial', 'Helvetica', 'Avant Garde', sans-serif" transform="translate(519.195102 380.156534) rotate(-30)">Water table depth (m)</text>
     </g>
    </g>
   </g>
   <g id="matplotlib.axis_2">
    <g id="ytick_1">
     <g id="line2d_3">
      <defs>
       <path id="m5430bd1ec5" d="M 0 0  L -3.5 0  " style="stroke: #000000; stroke-width: 0.8" />
      </defs>
      <g>
       <use ns4:href="#m5430bd1ec5" x="137.057344" y="303.331016" style="stroke: #000000; stroke-width: 0.8" />
      </g>
     </g>
     <g id="text_3">
      <text style="font: 10px 'DejaVu Sans', 'Bitstream Vera Sans', 'Computer Modern Sans Serif', 'Lucida Grande', 'Verdana', 'Geneva', 'Lucid', 'Arial', 'Helvetica', 'Avant Garde', sans-serif; text-anchor: end" x="130.057344" y="307.130235" transform="rotate(-0 130.057344 307.130235)">0</text>
     </g>
    </g>
    <g id="ytick_2">
     <g id="line2d_4">
      <g>
       <use ns4:href="#m5430bd1ec5" x="137.057344" y="242.165968" style="stroke: #000000; stroke-width: 0.8" />
      </g>
     </g>
     <g id="text_4">
      <text style="font: 10px 'DejaVu Sans', 'Bitstream Vera Sans', 'Computer Modern Sans Serif', 'Lucida Grande', 'Verdana', 'Geneva', 'Lucid', 'Arial', 'Helvetica', 'Avant Garde', sans-serif; text-anchor: end" x="130.057344" y="245.965187" transform="rotate(-0 130.057344 245.965187)">100</text>
     </g>
    </g>
    <g id="ytick_3">
     <g id="line2d_5">
      <g>
       <use ns4:href="#m5430bd1ec5" x="137.057344" y="181.000919" style="stroke: #000000; stroke-width: 0.8" />
      </g>
     </g>
     <g id="text_5">
      <text style="font: 10px 'DejaVu Sans', 'Bitstream Vera Sans', 'Computer Modern Sans Serif', 'Lucida Grande', 'Verdana', 'Geneva', 'Lucid', 'Arial', 'Helvetica', 'Avant Garde', sans-serif; text-anchor: end" x="130.057344" y="184.800138" transform="rotate(-0 130.057344 184.800138)">200</text>
     </g>
    </g>
    <g id="ytick_4">
     <g id="line2d_6">
      <g>
       <use ns4:href="#m5430bd1ec5" x="137.057344" y="119.835871" style="stroke: #000000; stroke-width: 0.8" />
      </g>
     </g>
     <g id="text_6">
      <text style="font: 10px 'DejaVu Sans', 'Bitstream Vera Sans', 'Computer Modern Sans Serif', 'Lucida Grande', 'Verdana', 'Geneva', 'Lucid', 'Arial', 'Helvetica', 'Avant Garde', sans-serif; text-anchor: end" x="130.057344" y="123.63509" transform="rotate(-0 130.057344 123.63509)">300</text>
     </g>
    </g>
    <g id="ytick_5">
     <g id="line2d_7">
      <g>
       <use ns4:href="#m5430bd1ec5" x="137.057344" y="58.670822" style="stroke: #000000; stroke-width: 0.8" />
      </g>
     </g>
     <g id="text_7">
      <text style="font: 10px 'DejaVu Sans', 'Bitstream Vera Sans', 'Computer Modern Sans Serif', 'Lucida Grande', 'Verdana', 'Geneva', 'Lucid', 'Arial', 'Helvetica', 'Avant Garde', sans-serif; text-anchor: end" x="130.057344" y="62.470041" transform="rotate(-0 130.057344 62.470041)">400</text>
     </g>
    </g>
    <g id="text_8">
     <text style="font: 10px 'DejaVu Sans', 'Bitstream Vera Sans', 'Computer Modern Sans Serif', 'Lucida Grande', 'Verdana', 'Geneva', 'Lucid', 'Arial', 'Helvetica', 'Avant Garde', sans-serif; text-anchor: middle" x="104.890156" y="172.437812" transform="rotate(-90 104.890156 172.437812)">Index / depth in metres</text>
    </g>
   </g>
   <g id="line2d_8">
    <path d="M 159.884616 242.165968  L 616.430071 298.437813  " clip-path="url(#p36958b7dc1)" style="fill: none; stroke: #1d4ed8; stroke-width: 2.5; stroke-linecap: square" />
    <defs>
     <path id="m0c7b44c5e6" d="M 0 3  C 0.795609 3 1.55874 2.683901 2.12132 2.12132  C 2.683901 1.55874 3 0.795609 3 0  C 3 -0.795609 2.683901 -1.55874 2.12132 -2.12132  C 1.55874 -2.683901 0.795609 -3 0 -3  C -0.795609 -3 -1.55874 -2.683901 -2.12132 -2.12132  C -2.683901 -1.55874 -3 -0.795609 -3 0  C -3 0.795609 -2.683901 1.55874 -2.12132 2.12132  C -1.55874 2.683901 -0.795609 3 0 3  z " style="stroke: #1d4ed8" />
    </defs>
    <g clip-path="url(#p36958b7dc1)">
     <use ns4:href="#m0c7b44c5e6" x="159.884616" y="242.165968" style="fill: #1d4ed8; stroke: #1d4ed8" />
     <use ns4:href="#m0c7b44c5e6" x="616.430071" y="298.437813" style="fill: #1d4ed8; stroke: #1d4ed8" />
    </g>
   </g>
   <g id="line2d_9">
    <path d="M 159.884616 168.76791  L 616.430071 295.991211  " clip-path="url(#p36958b7dc1)" style="fill: none; stroke: #9a3412; stroke-width: 2.5; stroke-linecap: square" />
    <defs>
     <path id="m881861ee4b" d="M 0 3  C 0.795609 3 1.55874 2.683901 2.12132 2.12132  C 2.683901 1.55874 3 0.795609 3 0  C 3 -0.795609 2.683901 -1.55874 2.12132 -2.12132  C 1.55874 -2.683901 0.795609 -3 0 -3  C -0.795609 -3 -1.55874 -2.683901 -2.12132 -2.12132  C -2.683901 -1.55874 -3 -0.795609 -3 0  C -3 0.795609 -2.683901 1.55874 -2.12132 2.12132  C -1.55874 2.683901 -0.795609 3 0 3  z " style="stroke: #9a3412" />
    </defs>
    <g clip-path="url(#p36958b7dc1)">
     <use ns4:href="#m881861ee4b" x="159.884616" y="168.76791" style="fill: #9a3412; stroke: #9a3412" />
     <use ns4:href="#m881861ee4b" x="616.430071" y="295.991211" style="fill: #9a3412; stroke: #9a3412" />
    </g>
   </g>
   <g id="line2d_10">
    <path d="M 159.884616 89.253346  L 616.430071 291.098007  " clip-path="url(#p36958b7dc1)" style="fill: none; stroke: #15803d; stroke-width: 2.5; stroke-linecap: square" />
    <defs>
     <path id="m6070e31560" d="M 0 3  C 0.795609 3 1.55874 2.683901 2.12132 2.12132  C 2.683901 1.55874 3 0.795609 3 0  C 3 -0.795609 2.683901 -1.55874 2.12132 -2.12132  C 1.55874 -2.683901 0.795609 -3 0 -3  C -0.795609 -3 -1.55874 -2.683901 -2.12132 -2.12132  C -2.683901 -1.55874 -3 -0.795609 -3 0  C -3 0.795609 -2.683901 1.55874 -2.12132 2.12132  C -1.55874 2.683901 -0.795609 3 0 3  z " style="stroke: #15803d" />
    </defs>
    <g clip-path="url(#p36958b7dc1)">
     <use ns4:href="#m6070e31560" x="159.884616" y="89.253346" style="fill: #15803d; stroke: #15803d" />
     <use ns4:href="#m6070e31560" x="616.430071" y="291.098007" style="fill: #15803d; stroke: #15803d" />
    </g>
   </g>
   <g id="line2d_11">
    <path d="M 159.884616 46.437812  L 616.430071 281.923249  " clip-path="url(#p36958b7dc1)" style="fill: none; stroke: #6b21a8; stroke-width: 2.5; stroke-linecap: square" />
    <defs>
     <path id="m3c5d8dd3cb" d="M 0 3  C 0.795609 3 1.55874 2.683901 2.12132 2.12132  C 2.683901 1.55874 3 0.795609 3 0  C 3 -0.795609 2.683901 -1.55874 2.12132 -2.12132  C 1.55874 -2.683901 0.795609 -3 0 -3  C -0.795609 -3 -1.55874 -2.683901 -2.12132 -2.12132  C -2.683901 -1.55874 -3 -0.795609 -3 0  C -3 0.795609 -2.683901 1.55874 -2.12132 2.12132  C -1.55874 2.683901 -0.795609 3 0 3  z " style="stroke: #6b21a8" />
    </defs>
    <g clip-path="url(#p36958b7dc1)">
     <use ns4:href="#m3c5d8dd3cb" x="159.884616" y="46.437812" style="fill: #6b21a8; stroke: #6b21a8" />
     <use ns4:href="#m3c5d8dd3cb" x="616.430071" y="281.923249" style="fill: #6b21a8; stroke: #6b21a8" />
    </g>
   </g>
   <g id="patch_3">
    <path d="M 137.057344 311.037812  L 137.057344 33.837812  " style="fill: none; stroke: #000000; stroke-width: 0.8; stroke-linejoin: miter; stroke-linecap: square" />
   </g>
   <g id="patch_4">
    <path d="M 137.057344 311.037812  L 639.257344 311.037812  " style="fill: none; stroke: #000000; stroke-width: 0.8; stroke-linejoin: miter; stroke-linecap: square" />
   </g>
   <g id="text_9">
    <text style="font: 700 14px 'DejaVu Sans', 'Bitstream Vera Sans', 'Computer Modern Sans Serif', 'Lucida Grande', 'Verdana', 'Geneva', 'Lucid', 'Arial', 'Helvetica', 'Avant Garde', sans-serif; text-anchor: middle" x="388.157344" y="17.837812" transform="rotate(-0 388.157344 17.837812)">The Green Revolution trade-off: output up, water tables down</text>
   </g>
   <g id="legend_1">
    <g id="line2d_12">
     <path d="M 146.057344 46.93625  L 156.057344 46.93625  L 166.057344 46.93625  " style="fill: none; stroke: #1d4ed8; stroke-width: 2.5; stroke-linecap: square" />
     <g>
      <use ns4:href="#m0c7b44c5e6" x="156.057344" y="46.93625" style="fill: #1d4ed8; stroke: #1d4ed8" />
     </g>
    </g>
    <g id="text_10">
     <text style="font: 10px 'DejaVu Sans', 'Bitstream Vera Sans', 'Computer Modern Sans Serif', 'Lucida Grande', 'Verdana', 'Geneva', 'Lucid', 'Arial', 'Helvetica', 'Avant Garde', sans-serif; text-anchor: start" x="174.057344" y="50.43625" transform="rotate(-0 174.057344 50.43625)">1960</text>
    </g>
    <g id="line2d_13">
     <path d="M 146.057344 61.614375  L 156.057344 61.614375  L 166.057344 61.614375  " style="fill: none; stroke: #9a3412; stroke-width: 2.5; stroke-linecap: square" />
     <g>
      <use ns4:href="#m881861ee4b" x="156.057344" y="61.614375" style="fill: #9a3412; stroke: #9a3412" />
     </g>
    </g>
    <g id="text_11">
     <text style="font: 10px 'DejaVu Sans', 'Bitstream Vera Sans', 'Computer Modern Sans Serif', 'Lucida Grande', 'Verdana', 'Geneva', 'Lucid', 'Arial', 'Helvetica', 'Avant Garde', sans-serif; text-anchor: start" x="174.057344" y="65.114375" transform="rotate(-0 174.057344 65.114375)">1980</text>
    </g>
    <g id="line2d_14">
     <path d="M 146.057344 76.2925  L 156.057344 76.2925  L 166.057344 76.2925  " style="fill: none; stroke: #15803d; stroke-width: 2.5; stroke-linecap: square" />
     <g>
      <use ns4:href="#m6070e31560" x="156.057344" y="76.2925" style="fill: #15803d; stroke: #15803d" />
     </g>
    </g>
    <g id="text_12">
     <text style="font: 10px 'DejaVu Sans', 'Bitstream Vera Sans', 'Computer Modern Sans Serif', 'Lucida Grande', 'Verdana', 'Geneva', 'Lucid', 'Arial', 'Helvetica', 'Avant Garde', sans-serif; text-anchor: start" x="174.057344" y="79.7925" transform="rotate(-0 174.057344 79.7925)">2000</text>
    </g>
    <g id="line2d_15">
     <path d="M 146.057344 90.970625  L 156.057344 90.970625  L 166.057344 90.970625  " style="fill: none; stroke: #6b21a8; stroke-width: 2.5; stroke-linecap: square" />
     <g>
      <use ns4:href="#m3c5d8dd3cb" x="156.057344" y="90.970625" style="fill: #6b21a8; stroke: #6b21a8" />
     </g>
    </g>
    <g id="text_13">
     <text style="font: 10px 'DejaVu Sans', 'Bitstream Vera Sans', 'Computer Modern Sans Serif', 'Lucida Grande', 'Verdana', 'Geneva', 'Lucid', 'Arial', 'Helvetica', 'Avant Garde', sans-serif; text-anchor: start" x="174.057344" y="94.470625" transform="rotate(-0 174.057344 94.470625)">2020</text>
    </g>
   </g>
  </g>
  <g id="text_14">
   <text style="font: italic 9px 'DejaVu Sans', 'Bitstream Vera Sans', 'Computer Modern Sans Serif', 'Lucida Grande', 'Verdana', 'Geneva', 'Lucid', 'Arial', 'Helvetica', 'Avant Garde', sans-serif; text-anchor: middle" x="380.057344" y="372.237813" transform="rotate(-0 380.057344 372.237813)">Source: Evenson and Gollin; FAO AQUASTAT; illustrative index — Output index is illustrative; water-depth trends vary by region and are shown as a directional signal.</text>
  </g>
 </g>
 <defs>
  <clipPath id="p36958b7dc1">
   <rect x="137.057344" y="33.837812" width="502.2" height="277.2" />
  </clipPath>
 </defs>
</svg>