<svg xmlns="http://www.w3.org/2000/svg" xmlns:dc="http://purl.org/dc/elements/1.1/" xmlns:ns2="http://creativecommons.org/ns#" xmlns:ns4="http://www.w3.org/1999/xlink" xmlns:rdf="http://www.w3.org/1999/02/22-rdf-syntax-ns#" width="887.128594pt" height="374.109531pt" viewBox="0 0 887.128594 374.109531" version="1.1">
 <title>Average retention by learning method (Learning Pyramid estimate)</title><desc>Average retention by learning method (Learning Pyramid estimate). Source: National Training Laboratories Learning Pyramid (commonly cited, contested). Retention figures are pedagogical estimates, not experimental measurements; used here as a heuristic.</desc><metadata>
  <rdf:RDF>
   <ns2:Work>
    <dc:type rdf:resource="http://purl.org/dc/dcmitype/StillImage" />
    <dc:date>2026-07-05T18:03:00.997224</dc:date>
    <dc:format>image/svg+xml</dc:format>
    <dc:creator>
     <ns2:Agent>
      <dc:title>Matplotlib v3.9.4, https://matplotlib.org/</dc:title>
     </ns2:Agent>
    </dc:creator>
   </ns2:Work>
  </rdf:RDF>
 </metadata>
 <defs>
  <style type="text/css">*{stroke-linejoin: round; stroke-linecap: butt}</style>
 </defs>
 <g id="figure_1">
  <g id="patch_1">
   <path d="M 0 374.109531  L 887.128594 374.109531  L 887.128594 0  L 0 0  z " style="fill: #ffffff" />
  </g>
  <g id="axes_1">
   <g id="patch_2">
    <path d="M 227.564297 311.037812  L 673.964297 311.037812  L 673.964297 33.837812  L 227.564297 33.837812  z " style="fill: #ffffff" />
   </g>
   <g id="patch_3">
    <path d="M 227.564297 298.437813  L 248.230964 298.437813  L 248.230964 268.790754  L 227.564297 268.790754  z " clip-path="url(#p923b2d3920)" style="fill: #2563eb; stroke: #ffffff; stroke-linejoin: miter" />
   </g>
   <g id="patch_4">
    <path d="M 227.564297 261.378989  L 268.89763 261.378989  L 268.89763 231.73193  L 227.564297 231.73193  z " clip-path="url(#p923b2d3920)" style="fill: #7c3aed; stroke: #ffffff; stroke-linejoin: miter" />
   </g>
   <g id="patch_5">
    <path d="M 227.564297 224.320165  L 310.230964 224.320165  L 310.230964 194.673107  L 227.564297 194.673107  z " clip-path="url(#p923b2d3920)" style="fill: #059669; stroke: #ffffff; stroke-linejoin: miter" />
   </g>
   <g id="patch_6">
    <path d="M 227.564297 187.261342  L 351.564297 187.261342  L 351.564297 157.614283  L 227.564297 157.614283  z " clip-path="url(#p923b2d3920)" style="fill: #d97706; stroke: #ffffff; stroke-linejoin: miter" />
   </g>
   <g id="patch_7">
    <path d="M 227.564297 150.202518  L 434.230964 150.202518  L 434.230964 120.55546  L 227.564297 120.55546  z " clip-path="url(#p923b2d3920)" style="fill: #dc2626; stroke: #ffffff; stroke-linejoin: miter" />
   </g>
   <g id="patch_8">
    <path d="M 227.564297 113.143695  L 537.564297 113.143695  L 537.564297 83.496636  L 227.564297 83.496636  z " clip-path="url(#p923b2d3920)" style="fill: #0891b2; stroke: #ffffff; stroke-linejoin: miter" />
   </g>
   <g id="patch_9">
    <path d="M 227.564297 76.084871  L 599.564297 76.084871  L 599.564297 46.437812  L 227.564297 46.437812  z " clip-path="url(#p923b2d3920)" style="fill: #4f46e5; stroke: #ffffff; stroke-linejoin: miter" />
   </g>
   <g id="matplotlib.axis_1">
    <g id="xtick_1">
     <g id="line2d_1">
      <defs>
       <path id="m6917ffe434" d="M 0 0  L 0 3.5  " style="stroke: #000000; stroke-width: 0.8" />
      </defs>
      <g>
       <use ns4:href="#m6917ffe434" x="227.564297" y="311.037812" style="stroke: #000000; stroke-width: 0.8" />
      </g>
     </g>
     <g id="text_1">
      
      <g transform="translate(224.383047 325.63625) scale(0.1 -0.1)">
       <defs>
        <path id="DejaVuSans-30" d="M 2034 4250  Q 1547 4250 1301 3770  Q 1056 3291 1056 2328  Q 1056 1369 1301 889  Q 1547 409 2034 409  Q 2525 409 2770 889  Q 3016 1369 3016 2328  Q 3016 3291 2770 3770  Q 2525 4250 2034 4250  z M 2034 4750  Q 2819 4750 3233 4129  Q 3647 3509 3647 2328  Q 3647 1150 3233 529  Q 2819 -91 2034 -91  Q 1250 -91 836 529  Q 422 1150 422 2328  Q 422 3509 836 4129  Q 1250 4750 2034 4750  z " transform="scale(0.015625)" />
       </defs>
       <use ns4:href="#DejaVuSans-30" />
      </g>
     </g>
    </g>
    <g id="xtick_2">
     <g id="line2d_2">
      <g>
       <use ns4:href="#m6917ffe434" x="310.230964" y="311.037812" style="stroke: #000000; stroke-width: 0.8" />
      </g>
     </g>
     <g id="text_2">
      
      <g transform="translate(303.868464 325.63625) scale(0.1 -0.1)">
       <defs>
        <path id="DejaVuSans-32" d="M 1228 531  L 3431 531  L 3431 0  L 469 0  L 469 531  Q 828 903 1448 1529  Q 2069 2156 2228 2338  Q 2531 2678 2651 2914  Q 2772 3150 2772 3378  Q 2772 3750 2511 3984  Q 2250 4219 1831 4219  Q 1534 4219 1204 4116  Q 875 4013 500 3803  L 500 4441  Q 881 4594 1212 4672  Q 1544 4750 1819 4750  Q 2544 4750 2975 4387  Q 3406 4025 3406 3419  Q 3406 3131 3298 2873  Q 3191 2616 2906 2266  Q 2828 2175 2409 1742  Q 1991 1309 1228 531  z " transform="scale(0.015625)" />
       </defs>
       <use ns4:href="#DejaVuSans-32" />
       <use ns4:href="#DejaVuSans-30" x="63.623047" />
      </g>
     </g>
    </g>
    <g id="xtick_3">
     <g id="line2d_3">
      <g>
       <use ns4:href="#m6917ffe434" x="392.89763" y="311.037812" style="stroke: #000000; stroke-width: 0.8" />
      </g>
     </g>
     <g id="text_3">
      
      <g transform="translate(386.53513 325.63625) scale(0.1 -0.1)">
       <defs>
        <path id="DejaVuSans-34" d="M 2419 4116  L 825 1625  L 2419 1625  L 2419 4116  z M 2253 4666  L 3047 4666  L 3047 1625  L 3713 1625  L 3713 1100  L 3047 1100  L 3047 0  L 2419 0  L 2419 1100  L 313 1100  L 313 1709  L 2253 4666  z " transform="scale(0.015625)" />
       </defs>
       <use ns4:href="#DejaVuSans-34" />
       <use ns4:href="#DejaVuSans-30" x="63.623047" />
      </g>
     </g>
    </g>
    <g id="xtick_4">
     <g id="line2d_4">
      <g>
       <use ns4:href="#m6917ffe434" x="475.564297" y="311.037812" style="stroke: #000000; stroke-width: 0.8" />
      </g>
     </g>
     <g id="text_4">
      
      <g transform="translate(469.201797 325.63625) scale(0.1 -0.1)">
       <defs>
        <path id="DejaVuSans-36" d="M 2113 2584  Q 1688 2584 1439 2293  Q 1191 2003 1191 1497  Q 1191 994 1439 701  Q 1688 409 2113 409  Q 2538 409 2786 701  Q 3034 994 3034 1497  Q 3034 2003 2786 2293  Q 2538 2584 2113 2584  z M 3366 4563  L 3366 3988  Q 3128 4100 2886 4159  Q 2644 4219 2406 4219  Q 1781 4219 1451 3797  Q 1122 3375 1075 2522  Q 1259 2794 1537 2939  Q 1816 3084 2150 3084  Q 2853 3084 3261 2657  Q 3669 2231 3669 1497  Q 3669 778 3244 343  Q 2819 -91 2113 -91  Q 1303 -91 875 529  Q 447 1150 447 2328  Q 447 3434 972 4092  Q 1497 4750 2381 4750  Q 2619 4750 2861 4703  Q 3103 4656 3366 4563  z " transform="scale(0.015625)" />
       </defs>
       <use ns4:href="#DejaVuSans-36" />
       <use ns4:href="#DejaVuSans-30" x="63.623047" />
      </g>
     </g>
    </g>
    <g id="xtick_5">
     <g id="line2d_5">
      <g>
       <use ns4:href="#m6917ffe434" x="558.230964" y="311.037812" style="stroke: #000000; stroke-width: 0.8" />
      </g>
     </g>
     <g id="text_5">
      
      <g transform="translate(551.868464 325.63625) scale(0.1 -0.1)">
       <defs>
        <path id="DejaVuSans-38" d="M 2034 2216  Q 1584 2216 1326 1975  Q 1069 1734 1069 1313  Q 1069 891 1326 650  Q 1584 409 2034 409  Q 2484 409 2743 651  Q 3003 894 3003 1313  Q 3003 1734 2745 1975  Q 2488 2216 2034 2216  z M 1403 2484  Q 997 2584 770 2862  Q 544 3141 544 3541  Q 544 4100 942 4425  Q 1341 4750 2034 4750  Q 2731 4750 3128 4425  Q 3525 4100 3525 3541  Q 3525 3141 3298 2862  Q 3072 2584 2669 2484  Q 3125 2378 3379 2068  Q 3634 1759 3634 1313  Q 3634 634 3220 271  Q 2806 -91 2034 -91  Q 1263 -91 848 271  Q 434 634 434 1313  Q 434 1759 690 2068  Q 947 2378 1403 2484  z M 1172 3481  Q 1172 3119 1398 2916  Q 1625 2713 2034 2713  Q 2441 2713 2670 2916  Q 2900 3119 2900 3481  Q 2900 3844 2670 4047  Q 2441 4250 2034 4250  Q 1625 4250 1398 4047  Q 1172 3844 1172 3481  z " transform="scale(0.015625)" />
       </defs>
       <use ns4:href="#DejaVuSans-38" />
       <use ns4:href="#DejaVuSans-30" x="63.623047" />
      </g>
     </g>
    </g>
    <g id="xtick_6">
     <g id="line2d_6">
      <g>
       <use ns4:href="#m6917ffe434" x="640.89763" y="311.037812" style="stroke: #000000; stroke-width: 0.8" />
      </g>
     </g>
     <g id="text_6">
      
      <g transform="translate(631.35388 325.63625) scale(0.1 -0.1)">
       <defs>
        <path id="DejaVuSans-31" d="M 794 531  L 1825 531  L 1825 4091  L 703 3866  L 703 4441  L 1819 4666  L 2450 4666  L 2450 531  L 3481 531  L 3481 0  L 794 0  L 794 531  z " transform="scale(0.015625)" />
       </defs>
       <use ns4:href="#DejaVuSans-31" />
       <use ns4:href="#DejaVuSans-30" x="63.623047" />
       <use ns4:href="#DejaVuSans-30" x="127.246094" />
      </g>
     </g>
    </g>
    <g id="text_7">
     
     <g transform="translate(395.598672 339.314375) scale(0.1 -0.1)">
      <defs>
       <path id="DejaVuSans-41" d="M 2188 4044  L 1331 1722  L 3047 1722  L 2188 4044  z M 1831 4666  L 2547 4666  L 4325 0  L 3669 0  L 3244 1197  L 1141 1197  L 716 0  L 50 0  L 1831 4666  z " transform="scale(0.015625)" />
       <path id="DejaVuSans-76" d="M 191 3500  L 800 3500  L 1894 563  L 2988 3500  L 3597 3500  L 2284 0  L 1503 0  L 191 3500  z " transform="scale(0.015625)" />
       <path id="DejaVuSans-65" d="M 3597 1894  L 3597 1613  L 953 1613  Q 991 1019 1311 708  Q 1631 397 2203 397  Q 2534 397 2845 478  Q 3156 559 3463 722  L 3463 178  Q 3153 47 2828 -22  Q 2503 -91 2169 -91  Q 1331 -91 842 396  Q 353 884 353 1716  Q 353 2575 817 3079  Q 1281 3584 2069 3584  Q 2775 3584 3186 3129  Q 3597 2675 3597 1894  z M 3022 2063  Q 3016 2534 2758 2815  Q 2500 3097 2075 3097  Q 1594 3097 1305 2825  Q 1016 2553 972 2059  L 3022 2063  z " transform="scale(0.015625)" />
       <path id="DejaVuSans-72" d="M 2631 2963  Q 2534 3019 2420 3045  Q 2306 3072 2169 3072  Q 1681 3072 1420 2755  Q 1159 2438 1159 1844  L 1159 0  L 581 0  L 581 3500  L 1159 3500  L 1159 2956  Q 1341 3275 1631 3429  Q 1922 3584 2338 3584  Q 2397 3584 2469 3576  Q 2541 3569 2628 3553  L 2631 2963  z " transform="scale(0.015625)" />
       <path id="DejaVuSans-61" d="M 2194 1759  Q 1497 1759 1228 1600  Q 959 1441 959 1056  Q 959 750 1161 570  Q 1363 391 1709 391  Q 2188 391 2477 730  Q 2766 1069 2766 1631  L 2766 1759  L 2194 1759  z M 3341 1997  L 3341 0  L 2766 0  L 2766 531  Q 2569 213 2275 61  Q 1981 -91 1556 -91  Q 1019 -91 701 211  Q 384 513 384 1019  Q 384 1609 779 1909  Q 1175 2209 1959 2209  L 2766 2209  L 2766 2266  Q 2766 2663 2505 2880  Q 2244 3097 1772 3097  Q 1472 3097 1187 3025  Q 903 2953 641 2809  L 641 3341  Q 956 3463 1253 3523  Q 1550 3584 1831 3584  Q 2591 3584 2966 3190  Q 3341 2797 3341 1997  z " transform="scale(0.015625)" />
       <path id="DejaVuSans-67" d="M 2906 1791  Q 2906 2416 2648 2759  Q 2391 3103 1925 3103  Q 1463 3103 1205 2759  Q 947 2416 947 1791  Q 947 1169 1205 825  Q 1463 481 1925 481  Q 2391 481 2648 825  Q 2906 1169 2906 1791  z M 3481 434  Q 3481 -459 3084 -895  Q 2688 -1331 1869 -1331  Q 1566 -1331 1297 -1286  Q 1028 -1241 775 -1147  L 775 -588  Q 1028 -725 1275 -790  Q 1522 -856 1778 -856  Q 2344 -856 2625 -561  Q 2906 -266 2906 331  L 2906 616  Q 2728 306 2450 153  Q 2172 0 1784 0  Q 1141 0 747 490  Q 353 981 353 1791  Q 353 2603 747 3093  Q 1141 3584 1784 3584  Q 2172 3584 2450 3431  Q 2728 3278 2906 2969  L 2906 3500  L 3481 3500  L 3481 434  z " transform="scale(0.015625)" />
       <path id="DejaVuSans-20" transform="scale(0.015625)" />
       <path id="DejaVuSans-74" d="M 1172 4494  L 1172 3500  L 2356 3500  L 2356 3053  L 1172 3053  L 1172 1153  Q 1172 725 1289 603  Q 1406 481 1766 481  L 2356 481  L 2356 0  L 1766 0  Q 1100 0 847 248  Q 594 497 594 1153  L 594 3053  L 172 3053  L 172 3500  L 594 3500  L 594 4494  L 1172 4494  z " transform="scale(0.015625)" />
       <path id="DejaVuSans-6e" d="M 3513 2113  L 3513 0  L 2938 0  L 2938 2094  Q 2938 2591 2744 2837  Q 2550 3084 2163 3084  Q 1697 3084 1428 2787  Q 1159 2491 1159 1978  L 1159 0  L 581 0  L 581 3500  L 1159 3500  L 1159 2956  Q 1366 3272 1645 3428  Q 1925 3584 2291 3584  Q 2894 3584 3203 3211  Q 3513 2838 3513 2113  z " transform="scale(0.015625)" />
       <path id="DejaVuSans-69" d="M 603 3500  L 1178 3500  L 1178 0  L 603 0  L 603 3500  z M 603 4863  L 1178 4863  L 1178 4134  L 603 4134  L 603 4863  z " transform="scale(0.015625)" />
       <path id="DejaVuSans-6f" d="M 1959 3097  Q 1497 3097 1228 2736  Q 959 2375 959 1747  Q 959 1119 1226 758  Q 1494 397 1959 397  Q 2419 397 2687 759  Q 2956 1122 2956 1747  Q 2956 2369 2687 2733  Q 2419 3097 1959 3097  z M 1959 3584  Q 2709 3584 3137 3096  Q 3566 2609 3566 1747  Q 3566 888 3137 398  Q 2709 -91 1959 -91  Q 1206 -91 779 398  Q 353 888 353 1747  Q 353 2609 779 3096  Q 1206 3584 1959 3584  z " transform="scale(0.015625)" />
       <path id="DejaVuSans-28" d="M 1984 4856  Q 1566 4138 1362 3434  Q 1159 2731 1159 2009  Q 1159 1288 1364 580  Q 1569 -128 1984 -844  L 1484 -844  Q 1016 -109 783 600  Q 550 1309 550 2009  Q 550 2706 781 3412  Q 1013 4119 1484 4856  L 1984 4856  z " transform="scale(0.015625)" />
       <path id="DejaVuSans-25" d="M 4653 2053  Q 4381 2053 4226 1822  Q 4072 1591 4072 1178  Q 4072 772 4226 539  Q 4381 306 4653 306  Q 4919 306 5073 539  Q 5228 772 5228 1178  Q 5228 1588 5073 1820  Q 4919 2053 4653 2053  z M 4653 2450  Q 5147 2450 5437 2106  Q 5728 1763 5728 1178  Q 5728 594 5436 251  Q 5144 -91 4653 -91  Q 4153 -91 3862 251  Q 3572 594 3572 1178  Q 3572 1766 3864 2108  Q 4156 2450 4653 2450  z M 1428 4353  Q 1159 4353 1004 4120  Q 850 3888 850 3481  Q 850 3069 1003 2837  Q 1156 2606 1428 2606  Q 1700 2606 1854 2837  Q 2009 3069 2009 3481  Q 2009 3884 1853 4118  Q 1697 4353 1428 4353  z M 4250 4750  L 4750 4750  L 1831 -91  L 1331 -91  L 4250 4750  z M 1428 4750  Q 1922 4750 2215 4408  Q 2509 4066 2509 3481  Q 2509 2891 2217 2550  Q 1925 2209 1428 2209  Q 931 2209 642 2551  Q 353 2894 353 3481  Q 353 4063 643 4406  Q 934 4750 1428 4750  z " transform="scale(0.015625)" />
       <path id="DejaVuSans-29" d="M 513 4856  L 1013 4856  Q 1481 4119 1714 3412  Q 1947 2706 1947 2009  Q 1947 1309 1714 600  Q 1481 -109 1013 -844  L 513 -844  Q 928 -128 1133 580  Q 1338 1288 1338 2009  Q 1338 2731 1133 3434  Q 928 4138 513 4856  z " transform="scale(0.015625)" />
      </defs>
      <use ns4:href="#DejaVuSans-41" />
      <use ns4:href="#DejaVuSans-76" x="62.533203" />
      <use ns4:href="#DejaVuSans-65" x="121.712891" />
      <use ns4:href="#DejaVuSans-72" x="183.236328" />
      <use ns4:href="#DejaVuSans-61" x="224.349609" />
      <use ns4:href="#DejaVuSans-67" x="285.628906" />
      <use ns4:href="#DejaVuSans-65" x="349.105469" />
      <use ns4:href="#DejaVuSans-20" x="410.628906" />
      <use ns4:href="#DejaVuSans-72" x="442.416016" />
      <use ns4:href="#DejaVuSans-65" x="481.279297" />
      <use ns4:href="#DejaVuSans-74" x="542.802734" />
      <use ns4:href="#DejaVuSans-65" x="582.011719" />
      <use ns4:href="#DejaVuSans-6e" x="643.535156" />
      <use ns4:href="#DejaVuSans-74" x="706.914062" />
      <use ns4:href="#DejaVuSans-69" x="746.123047" />
      <use ns4:href="#DejaVuSans-6f" x="773.90625" />
      <use ns4:href="#DejaVuSans-6e" x="835.087891" />
      <use ns4:href="#DejaVuSans-20" x="898.466797" />
      <use ns4:href="#DejaVuSans-28" x="930.253906" />
      <use ns4:href="#DejaVuSans-25" x="969.267578" />
      <use ns4:href="#DejaVuSans-29" x="1064.287109" />
     </g>
    </g>
   </g>
   <g id="matplotlib.axis_2">
    <g id="ytick_1">
     <g id="line2d_7">
      <defs>
       <path id="m8b10639a28" d="M 0 0  L -3.5 0  " style="stroke: #000000; stroke-width: 0.8" />
      </defs>
      <g>
       <use ns4:href="#m8b10639a28" x="227.564297" y="283.614283" style="stroke: #000000; stroke-width: 0.8" />
      </g>
     </g>
     <g id="text_8">
      
      <g transform="translate(158.887734 287.413502) scale(0.1 -0.1)">
       <defs>
        <path id="DejaVuSans-4c" d="M 628 4666  L 1259 4666  L 1259 531  L 3531 531  L 3531 0  L 628 0  L 628 4666  z " transform="scale(0.015625)" />
        <path id="DejaVuSans-63" d="M 3122 3366  L 3122 2828  Q 2878 2963 2633 3030  Q 2388 3097 2138 3097  Q 1578 3097 1268 2742  Q 959 2388 959 1747  Q 959 1106 1268 751  Q 1578 397 2138 397  Q 2388 397 2633 464  Q 2878 531 3122 666  L 3122 134  Q 2881 22 2623 -34  Q 2366 -91 2075 -91  Q 1284 -91 818 406  Q 353 903 353 1747  Q 353 2603 823 3093  Q 1294 3584 2113 3584  Q 2378 3584 2631 3529  Q 2884 3475 3122 3366  z " transform="scale(0.015625)" />
        <path id="DejaVuSans-75" d="M 544 1381  L 544 3500  L 1119 3500  L 1119 1403  Q 1119 906 1312 657  Q 1506 409 1894 409  Q 2359 409 2629 706  Q 2900 1003 2900 1516  L 2900 3500  L 3475 3500  L 3475 0  L 2900 0  L 2900 538  Q 2691 219 2414 64  Q 2138 -91 1772 -91  Q 1169 -91 856 284  Q 544 659 544 1381  z M 1991 3584  L 1991 3584  z " transform="scale(0.015625)" />
        <path id="DejaVuSans-6c" d="M 603 4863  L 1178 4863  L 1178 0  L 603 0  L 603 4863  z " transform="scale(0.015625)" />
        <path id="DejaVuSans-79" d="M 2059 -325  Q 1816 -950 1584 -1140  Q 1353 -1331 966 -1331  L 506 -1331  L 506 -850  L 844 -850  Q 1081 -850 1212 -737  Q 1344 -625 1503 -206  L 1606 56  L 191 3500  L 800 3500  L 1894 763  L 2988 3500  L 3597 3500  L 2059 -325  z " transform="scale(0.015625)" />
       </defs>
       <use ns4:href="#DejaVuSans-4c" />
       <use ns4:href="#DejaVuSans-65" x="53.962891" />
       <use ns4:href="#DejaVuSans-63" x="115.486328" />
       <use ns4:href="#DejaVuSans-74" x="170.466797" />
       <use ns4:href="#DejaVuSans-75" x="209.675781" />
       <use ns4:href="#DejaVuSans-72" x="273.054688" />
       <use ns4:href="#DejaVuSans-65" x="311.917969" />
       <use ns4:href="#DejaVuSans-20" x="373.441406" />
       <use ns4:href="#DejaVuSans-6f" x="405.228516" />
       <use ns4:href="#DejaVuSans-6e" x="466.410156" />
       <use ns4:href="#DejaVuSans-6c" x="529.789062" />
       <use ns4:href="#DejaVuSans-79" x="557.572266" />
      </g>
     </g>
    </g>
    <g id="ytick_2">
     <g id="line2d_8">
      <g>
       <use ns4:href="#m8b10639a28" x="227.564297" y="246.55546" style="stroke: #000000; stroke-width: 0.8" />
      </g>
     </g>
     <g id="text_9">
      
      <g transform="translate(179.972109 250.354678) scale(0.1 -0.1)">
       <defs>
        <path id="DejaVuSans-52" d="M 2841 2188  Q 3044 2119 3236 1894  Q 3428 1669 3622 1275  L 4263 0  L 3584 0  L 2988 1197  Q 2756 1666 2539 1819  Q 2322 1972 1947 1972  L 1259 1972  L 1259 0  L 628 0  L 628 4666  L 2053 4666  Q 2853 4666 3247 4331  Q 3641 3997 3641 3322  Q 3641 2881 3436 2590  Q 3231 2300 2841 2188  z M 1259 4147  L 1259 2491  L 2053 2491  Q 2509 2491 2742 2702  Q 2975 2913 2975 3322  Q 2975 3731 2742 3939  Q 2509 4147 2053 4147  L 1259 4147  z " transform="scale(0.015625)" />
        <path id="DejaVuSans-64" d="M 2906 2969  L 2906 4863  L 3481 4863  L 3481 0  L 2906 0  L 2906 525  Q 2725 213 2448 61  Q 2172 -91 1784 -91  Q 1150 -91 751 415  Q 353 922 353 1747  Q 353 2572 751 3078  Q 1150 3584 1784 3584  Q 2172 3584 2448 3432  Q 2725 3281 2906 2969  z M 947 1747  Q 947 1113 1208 752  Q 1469 391 1925 391  Q 2381 391 2643 752  Q 2906 1113 2906 1747  Q 2906 2381 2643 2742  Q 2381 3103 1925 3103  Q 1469 3103 1208 2742  Q 947 2381 947 1747  z " transform="scale(0.015625)" />
       </defs>
       <use ns4:href="#DejaVuSans-52" />
       <use ns4:href="#DejaVuSans-65" x="64.982422" />
       <use ns4:href="#DejaVuSans-61" x="126.505859" />
       <use ns4:href="#DejaVuSans-64" x="187.785156" />
       <use ns4:href="#DejaVuSans-69" x="251.261719" />
       <use ns4:href="#DejaVuSans-6e" x="279.044922" />
       <use ns4:href="#DejaVuSans-67" x="342.423828" />
      </g>
     </g>
    </g>
    <g id="ytick_3">
     <g id="line2d_9">
      <g>
       <use ns4:href="#m8b10639a28" x="227.564297" y="209.496636" style="stroke: #000000; stroke-width: 0.8" />
      </g>
     </g>
     <g id="text_10">
      
      <g transform="translate(159.458047 213.295855) scale(0.1 -0.1)">
       <defs>
        <path id="DejaVuSans-2d" d="M 313 2009  L 1997 2009  L 1997 1497  L 313 1497  L 313 2009  z " transform="scale(0.015625)" />
        <path id="DejaVuSans-73" d="M 2834 3397  L 2834 2853  Q 2591 2978 2328 3040  Q 2066 3103 1784 3103  Q 1356 3103 1142 2972  Q 928 2841 928 2578  Q 928 2378 1081 2264  Q 1234 2150 1697 2047  L 1894 2003  Q 2506 1872 2764 1633  Q 3022 1394 3022 966  Q 3022 478 2636 193  Q 2250 -91 1575 -91  Q 1294 -91 989 -36  Q 684 19 347 128  L 347 722  Q 666 556 975 473  Q 1284 391 1588 391  Q 1994 391 2212 530  Q 2431 669 2431 922  Q 2431 1156 2273 1281  Q 2116 1406 1581 1522  L 1381 1569  Q 847 1681 609 1914  Q 372 2147 372 2553  Q 372 3047 722 3315  Q 1072 3584 1716 3584  Q 2034 3584 2315 3537  Q 2597 3491 2834 3397  z " transform="scale(0.015625)" />
       </defs>
       <use ns4:href="#DejaVuSans-41" />
       <use ns4:href="#DejaVuSans-75" x="68.408203" />
       <use ns4:href="#DejaVuSans-64" x="131.787109" />
       <use ns4:href="#DejaVuSans-69" x="195.263672" />
       <use ns4:href="#DejaVuSans-6f" x="223.046875" />
       <use ns4:href="#DejaVuSans-2d" x="286.103516" />
       <use ns4:href="#DejaVuSans-76" x="319.5625" />
       <use ns4:href="#DejaVuSans-69" x="378.742188" />
       <use ns4:href="#DejaVuSans-73" x="406.525391" />
       <use ns4:href="#DejaVuSans-75" x="458.625" />
       <use ns4:href="#DejaVuSans-61" x="522.003906" />
       <use ns4:href="#DejaVuSans-6c" x="583.283203" />
      </g>
     </g>
    </g>
    <g id="ytick_4">
     <g id="line2d_10">
      <g>
       <use ns4:href="#m8b10639a28" x="227.564297" y="172.437813" style="stroke: #000000; stroke-width: 0.8" />
      </g>
     </g>
     <g id="text_11">
      
      <g transform="translate(145.990859 176.237031) scale(0.1 -0.1)">
       <defs>
        <path id="DejaVuSans-44" d="M 1259 4147  L 1259 519  L 2022 519  Q 2988 519 3436 956  Q 3884 1394 3884 2338  Q 3884 3275 3436 3711  Q 2988 4147 2022 4147  L 1259 4147  z M 628 4666  L 1925 4666  Q 3281 4666 3915 4102  Q 4550 3538 4550 2338  Q 4550 1131 3912 565  Q 3275 0 1925 0  L 628 0  L 628 4666  z " transform="scale(0.015625)" />
        <path id="DejaVuSans-6d" d="M 3328 2828  Q 3544 3216 3844 3400  Q 4144 3584 4550 3584  Q 5097 3584 5394 3201  Q 5691 2819 5691 2113  L 5691 0  L 5113 0  L 5113 2094  Q 5113 2597 4934 2840  Q 4756 3084 4391 3084  Q 3944 3084 3684 2787  Q 3425 2491 3425 1978  L 3425 0  L 2847 0  L 2847 2094  Q 2847 2600 2669 2842  Q 2491 3084 2119 3084  Q 1678 3084 1418 2786  Q 1159 2488 1159 1978  L 1159 0  L 581 0  L 581 3500  L 1159 3500  L 1159 2956  Q 1356 3278 1631 3431  Q 1906 3584 2284 3584  Q 2666 3584 2933 3390  Q 3200 3197 3328 2828  z " transform="scale(0.015625)" />
       </defs>
       <use ns4:href="#DejaVuSans-44" />
       <use ns4:href="#DejaVuSans-65" x="77.001953" />
       <use ns4:href="#DejaVuSans-6d" x="138.525391" />
       <use ns4:href="#DejaVuSans-6f" x="235.9375" />
       <use ns4:href="#DejaVuSans-6e" x="297.119141" />
       <use ns4:href="#DejaVuSans-73" x="360.498047" />
       <use ns4:href="#DejaVuSans-74" x="412.597656" />
       <use ns4:href="#DejaVuSans-72" x="451.806641" />
       <use ns4:href="#DejaVuSans-61" x="492.919922" />
       <use ns4:href="#DejaVuSans-74" x="554.199219" />
       <use ns4:href="#DejaVuSans-69" x="593.408203" />
       <use ns4:href="#DejaVuSans-6f" x="621.191406" />
       <use ns4:href="#DejaVuSans-6e" x="682.373047" />
      </g>
     </g>
    </g>
    <g id="ytick_5">
     <g id="line2d_11">
      <g>
       <use ns4:href="#m8b10639a28" x="227.564297" y="135.378989" style="stroke: #000000; stroke-width: 0.8" />
      </g>
     </g>
     <g id="text_12">
      
      <g transform="translate(167.387734 139.178208) scale(0.1 -0.1)">
       <use ns4:href="#DejaVuSans-44" />
       <use ns4:href="#DejaVuSans-69" x="77.001953" />
       <use ns4:href="#DejaVuSans-73" x="104.785156" />
       <use ns4:href="#DejaVuSans-63" x="156.884766" />
       <use ns4:href="#DejaVuSans-75" x="211.865234" />
       <use ns4:href="#DejaVuSans-73" x="275.244141" />
       <use ns4:href="#DejaVuSans-73" x="327.34375" />
       <use ns4:href="#DejaVuSans-69" x="379.443359" />
       <use ns4:href="#DejaVuSans-6f" x="407.226562" />
       <use ns4:href="#DejaVuSans-6e" x="468.408203" />
      </g>
     </g>
    </g>
    <g id="ytick_6">
     <g id="line2d_12">
      <g>
       <use ns4:href="#m8b10639a28" x="227.564297" y="98.320165" style="stroke: #000000; stroke-width: 0.8" />
      </g>
     </g>
     <g id="text_13">
      
      <g transform="translate(134.067422 102.119384) scale(0.1 -0.1)">
       <defs>
        <path id="DejaVuSans-50" d="M 1259 4147  L 1259 2394  L 2053 2394  Q 2494 2394 2734 2622  Q 2975 2850 2975 3272  Q 2975 3691 2734 3919  Q 2494 4147 2053 4147  L 1259 4147  z M 628 4666  L 2053 4666  Q 2838 4666 3239 4311  Q 3641 3956 3641 3272  Q 3641 2581 3239 2228  Q 2838 1875 2053 1875  L 1259 1875  L 1259 0  L 628 0  L 628 4666  z " transform="scale(0.015625)" />
        <path id="DejaVuSans-62" d="M 3116 1747  Q 3116 2381 2855 2742  Q 2594 3103 2138 3103  Q 1681 3103 1420 2742  Q 1159 2381 1159 1747  Q 1159 1113 1420 752  Q 1681 391 2138 391  Q 2594 391 2855 752  Q 3116 1113 3116 1747  z M 1159 2969  Q 1341 3281 1617 3432  Q 1894 3584 2278 3584  Q 2916 3584 3314 3078  Q 3713 2572 3713 1747  Q 3713 922 3314 415  Q 2916 -91 2278 -91  Q 1894 -91 1617 61  Q 1341 213 1159 525  L 1159 0  L 581 0  L 581 4863  L 1159 4863  L 1159 2969  z " transform="scale(0.015625)" />
       </defs>
       <use ns4:href="#DejaVuSans-50" />
       <use ns4:href="#DejaVuSans-72" x="58.552734" />
       <use ns4:href="#DejaVuSans-61" x="99.666016" />
       <use ns4:href="#DejaVuSans-63" x="160.945312" />
       <use ns4:href="#DejaVuSans-74" x="215.925781" />
       <use ns4:href="#DejaVuSans-69" x="255.134766" />
       <use ns4:href="#DejaVuSans-63" x="282.917969" />
       <use ns4:href="#DejaVuSans-65" x="337.898438" />
       <use ns4:href="#DejaVuSans-20" x="399.421875" />
       <use ns4:href="#DejaVuSans-62" x="431.208984" />
       <use ns4:href="#DejaVuSans-79" x="494.685547" />
       <use ns4:href="#DejaVuSans-20" x="553.865234" />
       <use ns4:href="#DejaVuSans-64" x="585.652344" />
       <use ns4:href="#DejaVuSans-6f" x="649.128906" />
       <use ns4:href="#DejaVuSans-69" x="710.310547" />
       <use ns4:href="#DejaVuSans-6e" x="738.09375" />
       <use ns4:href="#DejaVuSans-67" x="801.472656" />
      </g>
     </g>
    </g>
    <g id="ytick_7">
     <g id="line2d_13">
      <g>
       <use ns4:href="#m8b10639a28" x="227.564297" y="61.261342" style="stroke: #000000; stroke-width: 0.8" />
      </g>
     </g>
     <g id="text_14">
      
      <g transform="translate(141.547109 65.060561) scale(0.1 -0.1)">
       <defs>
        <path id="DejaVuSans-54" d="M -19 4666  L 3928 4666  L 3928 4134  L 2272 4134  L 2272 0  L 1638 0  L 1638 4134  L -19 4134  L -19 4666  z " transform="scale(0.015625)" />
        <path id="DejaVuSans-68" d="M 3513 2113  L 3513 0  L 2938 0  L 2938 2094  Q 2938 2591 2744 2837  Q 2550 3084 2163 3084  Q 1697 3084 1428 2787  Q 1159 2491 1159 1978  L 1159 0  L 581 0  L 581 4863  L 1159 4863  L 1159 2956  Q 1366 3272 1645 3428  Q 1925 3584 2291 3584  Q 2894 3584 3203 3211  Q 3513 2838 3513 2113  z " transform="scale(0.015625)" />
       </defs>
       <use ns4:href="#DejaVuSans-54" />
       <use ns4:href="#DejaVuSans-65" x="44.083984" />
       <use ns4:href="#DejaVuSans-61" x="105.607422" />
       <use ns4:href="#DejaVuSans-63" x="166.886719" />
       <use ns4:href="#DejaVuSans-68" x="221.867188" />
       <use ns4:href="#DejaVuSans-69" x="285.246094" />
       <use ns4:href="#DejaVuSans-6e" x="313.029297" />
       <use ns4:href="#DejaVuSans-67" x="376.408203" />
       <use ns4:href="#DejaVuSans-20" x="439.884766" />
       <use ns4:href="#DejaVuSans-6f" x="471.671875" />
       <use ns4:href="#DejaVuSans-74" x="532.853516" />
       <use ns4:href="#DejaVuSans-68" x="572.0625" />
       <use ns4:href="#DejaVuSans-65" x="635.441406" />
       <use ns4:href="#DejaVuSans-72" x="696.964844" />
       <use ns4:href="#DejaVuSans-73" x="738.078125" />
      </g>
     </g>
    </g>
   </g>
   <g id="patch_10">
    <path d="M 227.564297 311.037813  L 227.564297 33.837813  " style="fill: none; stroke: #000000; stroke-width: 0.8; stroke-linejoin: miter; stroke-linecap: square" />
   </g>
   <g id="patch_11">
    <path d="M 227.564297 311.037812  L 673.964297 311.037812  " style="fill: none; stroke: #000000; stroke-width: 0.8; stroke-linejoin: miter; stroke-linecap: square" />
   </g>
   <g id="text_15">
    
    <g transform="translate(251.950964 286.373658) scale(0.1 -0.1)">
     <defs>
      <path id="DejaVuSans-35" d="M 691 4666  L 3169 4666  L 3169 4134  L 1269 4134  L 1269 2991  Q 1406 3038 1543 3061  Q 1681 3084 1819 3084  Q 2600 3084 3056 2656  Q 3513 2228 3513 1497  Q 3513 744 3044 326  Q 2575 -91 1722 -91  Q 1428 -91 1123 -41  Q 819 9 494 109  L 494 744  Q 775 591 1075 516  Q 1375 441 1709 441  Q 2250 441 2565 725  Q 2881 1009 2881 1497  Q 2881 1984 2565 2268  Q 2250 2553 1709 2553  Q 1456 2553 1204 2497  Q 953 2441 691 2322  L 691 4666  z " transform="scale(0.015625)" />
     </defs>
     <use ns4:href="#DejaVuSans-35" />
     <use ns4:href="#DejaVuSans-25" x="63.623047" />
    </g>
   </g>
   <g id="text_16">
    
    <g transform="translate(272.61763 249.314835) scale(0.1 -0.1)">
     <use ns4:href="#DejaVuSans-31" />
     <use ns4:href="#DejaVuSans-30" x="63.623047" />
     <use ns4:href="#DejaVuSans-25" x="127.246094" />
    </g>
   </g>
   <g id="text_17">
    
    <g transform="translate(313.950964 212.256011) scale(0.1 -0.1)">
     <use ns4:href="#DejaVuSans-32" />
     <use ns4:href="#DejaVuSans-30" x="63.623047" />
     <use ns4:href="#DejaVuSans-25" x="127.246094" />
    </g>
   </g>
   <g id="text_18">
    
    <g transform="translate(355.284297 175.197187) scale(0.1 -0.1)">
     <defs>
      <path id="DejaVuSans-33" d="M 2597 2516  Q 3050 2419 3304 2112  Q 3559 1806 3559 1356  Q 3559 666 3084 287  Q 2609 -91 1734 -91  Q 1441 -91 1130 -33  Q 819 25 488 141  L 488 750  Q 750 597 1062 519  Q 1375 441 1716 441  Q 2309 441 2620 675  Q 2931 909 2931 1356  Q 2931 1769 2642 2001  Q 2353 2234 1838 2234  L 1294 2234  L 1294 2753  L 1863 2753  Q 2328 2753 2575 2939  Q 2822 3125 2822 3475  Q 2822 3834 2567 4026  Q 2313 4219 1838 4219  Q 1578 4219 1281 4162  Q 984 4106 628 3988  L 628 4550  Q 988 4650 1302 4700  Q 1616 4750 1894 4750  Q 2613 4750 3031 4423  Q 3450 4097 3450 3541  Q 3450 3153 3228 2886  Q 3006 2619 2597 2516  z " transform="scale(0.015625)" />
     </defs>
     <use ns4:href="#DejaVuSans-33" />
     <use ns4:href="#DejaVuSans-30" x="63.623047" />
     <use ns4:href="#DejaVuSans-25" x="127.246094" />
    </g>
   </g>
   <g id="text_19">
    
    <g transform="translate(437.950964 138.138364) scale(0.1 -0.1)">
     <use ns4:href="#DejaVuSans-35" />
     <use ns4:href="#DejaVuSans-30" x="63.623047" />
     <use ns4:href="#DejaVuSans-25" x="127.246094" />
    </g>
   </g>
   <g id="text_20">
    
    <g transform="translate(541.284297 101.07954) scale(0.1 -0.1)">
     <defs>
      <path id="DejaVuSans-37" d="M 525 4666  L 3525 4666  L 3525 4397  L 1831 0  L 1172 0  L 2766 4134  L 525 4134  L 525 4666  z " transform="scale(0.015625)" />
     </defs>
     <use ns4:href="#DejaVuSans-37" />
     <use ns4:href="#DejaVuSans-35" x="63.623047" />
     <use ns4:href="#DejaVuSans-25" x="127.246094" />
    </g>
   </g>
   <g id="text_21">
    
    <g transform="translate(603.284297 64.020717) scale(0.1 -0.1)">
     <defs>
      <path id="DejaVuSans-39" d="M 703 97  L 703 672  Q 941 559 1184 500  Q 1428 441 1663 441  Q 2288 441 2617 861  Q 2947 1281 2994 2138  Q 2813 1869 2534 1725  Q 2256 1581 1919 1581  Q 1219 1581 811 2004  Q 403 2428 403 3163  Q 403 3881 828 4315  Q 1253 4750 1959 4750  Q 2769 4750 3195 4129  Q 3622 3509 3622 2328  Q 3622 1225 3098 567  Q 2575 -91 1691 -91  Q 1453 -91 1209 -44  Q 966 3 703 97  z M 1959 2075  Q 2384 2075 2632 2365  Q 2881 2656 2881 3163  Q 2881 3666 2632 3958  Q 2384 4250 1959 4250  Q 1534 4250 1286 3958  Q 1038 3666 1038 3163  Q 1038 2656 1286 2365  Q 1534 2075 1959 2075  z " transform="scale(0.015625)" />
     </defs>
     <use ns4:href="#DejaVuSans-39" />
     <use ns4:href="#DejaVuSans-30" x="63.623047" />
     <use ns4:href="#DejaVuSans-25" x="127.246094" />
    </g>
   </g>
   <g id="text_22">
    
    <g transform="translate(183.382891 17.837812) scale(0.14 -0.14)">
     <defs>
      <path id="DejaVuSans-Bold-41" d="M 3419 850  L 1538 850  L 1241 0  L 31 0  L 1759 4666  L 3194 4666  L 4922 0  L 3713 0  L 3419 850  z M 1838 1716  L 3116 1716  L 2478 3572  L 1838 1716  z " transform="scale(0.015625)" />
      <path id="DejaVuSans-Bold-76" d="M 97 3500  L 1216 3500  L 2088 1081  L 2956 3500  L 4078 3500  L 2700 0  L 1472 0  L 97 3500  z " transform="scale(0.015625)" />
      <path id="DejaVuSans-Bold-65" d="M 4031 1759  L 4031 1441  L 1416 1441  Q 1456 1047 1700 850  Q 1944 653 2381 653  Q 2734 653 3104 758  Q 3475 863 3866 1075  L 3866 213  Q 3469 63 3072 -14  Q 2675 -91 2278 -91  Q 1328 -91 801 392  Q 275 875 275 1747  Q 275 2603 792 3093  Q 1309 3584 2216 3584  Q 3041 3584 3536 3087  Q 4031 2591 4031 1759  z M 2881 2131  Q 2881 2450 2695 2645  Q 2509 2841 2209 2841  Q 1884 2841 1681 2658  Q 1478 2475 1428 2131  L 2881 2131  z " transform="scale(0.015625)" />
      <path id="DejaVuSans-Bold-72" d="M 3138 2547  Q 2991 2616 2845 2648  Q 2700 2681 2553 2681  Q 2122 2681 1889 2404  Q 1656 2128 1656 1613  L 1656 0  L 538 0  L 538 3500  L 1656 3500  L 1656 2925  Q 1872 3269 2151 3426  Q 2431 3584 2822 3584  Q 2878 3584 2943 3579  Q 3009 3575 3134 3559  L 3138 2547  z " transform="scale(0.015625)" />
      <path id="DejaVuSans-Bold-61" d="M 2106 1575  Q 1756 1575 1579 1456  Q 1403 1338 1403 1106  Q 1403 894 1545 773  Q 1688 653 1941 653  Q 2256 653 2472 879  Q 2688 1106 2688 1447  L 2688 1575  L 2106 1575  z M 3816 1997  L 3816 0  L 2688 0  L 2688 519  Q 2463 200 2181 54  Q 1900 -91 1497 -91  Q 953 -91 614 226  Q 275 544 275 1050  Q 275 1666 698 1953  Q 1122 2241 2028 2241  L 2688 2241  L 2688 2328  Q 2688 2594 2478 2717  Q 2269 2841 1825 2841  Q 1466 2841 1156 2769  Q 847 2697 581 2553  L 581 3406  Q 941 3494 1303 3539  Q 1666 3584 2028 3584  Q 2975 3584 3395 3211  Q 3816 2838 3816 1997  z " transform="scale(0.015625)" />
      <path id="DejaVuSans-Bold-67" d="M 2919 594  Q 2688 288 2409 144  Q 2131 0 1766 0  Q 1125 0 706 504  Q 288 1009 288 1791  Q 288 2575 706 3076  Q 1125 3578 1766 3578  Q 2131 3578 2409 3434  Q 2688 3291 2919 2981  L 2919 3500  L 4044 3500  L 4044 353  Q 4044 -491 3511 -936  Q 2978 -1381 1966 -1381  Q 1638 -1381 1331 -1331  Q 1025 -1281 716 -1178  L 716 -306  Q 1009 -475 1290 -558  Q 1572 -641 1856 -641  Q 2406 -641 2662 -400  Q 2919 -159 2919 353  L 2919 594  z M 2181 2772  Q 1834 2772 1640 2515  Q 1447 2259 1447 1791  Q 1447 1309 1634 1061  Q 1822 813 2181 813  Q 2531 813 2725 1069  Q 2919 1325 2919 1791  Q 2919 2259 2725 2515  Q 2531 2772 2181 2772  z " transform="scale(0.015625)" />
      <path id="DejaVuSans-Bold-20" transform="scale(0.015625)" />
      <path id="DejaVuSans-Bold-74" d="M 1759 4494  L 1759 3500  L 2913 3500  L 2913 2700  L 1759 2700  L 1759 1216  Q 1759 972 1856 886  Q 1953 800 2241 800  L 2816 800  L 2816 0  L 1856 0  Q 1194 0 917 276  Q 641 553 641 1216  L 641 2700  L 84 2700  L 84 3500  L 641 3500  L 641 4494  L 1759 4494  z " transform="scale(0.015625)" />
      <path id="DejaVuSans-Bold-6e" d="M 4056 2131  L 4056 0  L 2931 0  L 2931 347  L 2931 1631  Q 2931 2084 2911 2256  Q 2891 2428 2841 2509  Q 2775 2619 2662 2680  Q 2550 2741 2406 2741  Q 2056 2741 1856 2470  Q 1656 2200 1656 1722  L 1656 0  L 538 0  L 538 3500  L 1656 3500  L 1656 2988  Q 1909 3294 2193 3439  Q 2478 3584 2822 3584  Q 3428 3584 3742 3212  Q 4056 2841 4056 2131  z " transform="scale(0.015625)" />
      <path id="DejaVuSans-Bold-69" d="M 538 3500  L 1656 3500  L 1656 0  L 538 0  L 538 3500  z M 538 4863  L 1656 4863  L 1656 3950  L 538 3950  L 538 4863  z " transform="scale(0.015625)" />
      <path id="DejaVuSans-Bold-6f" d="M 2203 2784  Q 1831 2784 1636 2517  Q 1441 2250 1441 1747  Q 1441 1244 1636 976  Q 1831 709 2203 709  Q 2569 709 2762 976  Q 2956 1244 2956 1747  Q 2956 2250 2762 2517  Q 2569 2784 2203 2784  z M 2203 3584  Q 3106 3584 3614 3096  Q 4122 2609 4122 1747  Q 4122 884 3614 396  Q 3106 -91 2203 -91  Q 1297 -91 786 396  Q 275 884 275 1747  Q 275 2609 786 3096  Q 1297 3584 2203 3584  z " transform="scale(0.015625)" />
      <path id="DejaVuSans-Bold-62" d="M 2400 722  Q 2759 722 2948 984  Q 3138 1247 3138 1747  Q 3138 2247 2948 2509  Q 2759 2772 2400 2772  Q 2041 2772 1848 2508  Q 1656 2244 1656 1747  Q 1656 1250 1848 986  Q 2041 722 2400 722  z M 1656 2988  Q 1888 3294 2169 3439  Q 2450 3584 2816 3584  Q 3463 3584 3878 3070  Q 4294 2556 4294 1747  Q 4294 938 3878 423  Q 3463 -91 2816 -91  Q 2450 -91 2169 54  Q 1888 200 1656 506  L 1656 0  L 538 0  L 538 4863  L 1656 4863  L 1656 2988  z " transform="scale(0.015625)" />
      <path id="DejaVuSans-Bold-79" d="M 78 3500  L 1197 3500  L 2138 1125  L 2938 3500  L 4056 3500  L 2584 -331  Q 2363 -916 2067 -1148  Q 1772 -1381 1288 -1381  L 641 -1381  L 641 -647  L 991 -647  Q 1275 -647 1404 -556  Q 1534 -466 1606 -231  L 1638 -134  L 78 3500  z " transform="scale(0.015625)" />
      <path id="DejaVuSans-Bold-6c" d="M 538 4863  L 1656 4863  L 1656 0  L 538 0  L 538 4863  z " transform="scale(0.015625)" />
      <path id="DejaVuSans-Bold-6d" d="M 3781 2919  Q 3994 3244 4286 3414  Q 4578 3584 4928 3584  Q 5531 3584 5847 3212  Q 6163 2841 6163 2131  L 6163 0  L 5038 0  L 5038 1825  Q 5041 1866 5042 1909  Q 5044 1953 5044 2034  Q 5044 2406 4934 2573  Q 4825 2741 4581 2741  Q 4263 2741 4089 2478  Q 3916 2216 3909 1719  L 3909 0  L 2784 0  L 2784 1825  Q 2784 2406 2684 2573  Q 2584 2741 2328 2741  Q 2006 2741 1831 2477  Q 1656 2213 1656 1722  L 1656 0  L 531 0  L 531 3500  L 1656 3500  L 1656 2988  Q 1863 3284 2130 3434  Q 2397 3584 2719 3584  Q 3081 3584 3359 3409  Q 3638 3234 3781 2919  z " transform="scale(0.015625)" />
      <path id="DejaVuSans-Bold-68" d="M 4056 2131  L 4056 0  L 2931 0  L 2931 347  L 2931 1625  Q 2931 2084 2911 2256  Q 2891 2428 2841 2509  Q 2775 2619 2662 2680  Q 2550 2741 2406 2741  Q 2056 2741 1856 2470  Q 1656 2200 1656 1722  L 1656 0  L 538 0  L 538 4863  L 1656 4863  L 1656 2988  Q 1909 3294 2193 3439  Q 2478 3584 2822 3584  Q 3428 3584 3742 3212  Q 4056 2841 4056 2131  z " transform="scale(0.015625)" />
      <path id="DejaVuSans-Bold-64" d="M 2919 2988  L 2919 4863  L 4044 4863  L 4044 0  L 2919 0  L 2919 506  Q 2688 197 2409 53  Q 2131 -91 1766 -91  Q 1119 -91 703 423  Q 288 938 288 1747  Q 288 2556 703 3070  Q 1119 3584 1766 3584  Q 2128 3584 2408 3439  Q 2688 3294 2919 2988  z M 2181 722  Q 2541 722 2730 984  Q 2919 1247 2919 1747  Q 2919 2247 2730 2509  Q 2541 2772 2181 2772  Q 1825 2772 1636 2509  Q 1447 2247 1447 1747  Q 1447 1247 1636 984  Q 1825 722 2181 722  z " transform="scale(0.015625)" />
      <path id="DejaVuSans-Bold-28" d="M 2413 -844  L 1484 -844  Q 1006 -72 778 623  Q 550 1319 550 2003  Q 550 2688 779 3389  Q 1009 4091 1484 4856  L 2413 4856  Q 2013 4116 1813 3408  Q 1613 2700 1613 2009  Q 1613 1319 1811 609  Q 2009 -100 2413 -844  z " transform="scale(0.015625)" />
      <path id="DejaVuSans-Bold-4c" d="M 588 4666  L 1791 4666  L 1791 909  L 3903 909  L 3903 0  L 588 0  L 588 4666  z " transform="scale(0.015625)" />
      <path id="DejaVuSans-Bold-50" d="M 588 4666  L 2584 4666  Q 3475 4666 3951 4270  Q 4428 3875 4428 3144  Q 4428 2409 3951 2014  Q 3475 1619 2584 1619  L 1791 1619  L 1791 0  L 588 0  L 588 4666  z M 1791 3794  L 1791 2491  L 2456 2491  Q 2806 2491 2997 2661  Q 3188 2831 3188 3144  Q 3188 3456 2997 3625  Q 2806 3794 2456 3794  L 1791 3794  z " transform="scale(0.015625)" />
      <path id="DejaVuSans-Bold-73" d="M 3272 3391  L 3272 2541  Q 2913 2691 2578 2766  Q 2244 2841 1947 2841  Q 1628 2841 1473 2761  Q 1319 2681 1319 2516  Q 1319 2381 1436 2309  Q 1553 2238 1856 2203  L 2053 2175  Q 2913 2066 3209 1816  Q 3506 1566 3506 1031  Q 3506 472 3093 190  Q 2681 -91 1863 -91  Q 1516 -91 1145 -36  Q 775 19 384 128  L 384 978  Q 719 816 1070 734  Q 1422 653 1784 653  Q 2113 653 2278 743  Q 2444 834 2444 1013  Q 2444 1163 2330 1236  Q 2216 1309 1875 1350  L 1678 1375  Q 931 1469 631 1722  Q 331 1975 331 2491  Q 331 3047 712 3315  Q 1094 3584 1881 3584  Q 2191 3584 2531 3537  Q 2872 3491 3272 3391  z " transform="scale(0.015625)" />
      <path id="DejaVuSans-Bold-29" d="M 513 -844  Q 913 -100 1113 609  Q 1313 1319 1313 2009  Q 1313 2700 1113 3408  Q 913 4116 513 4856  L 1441 4856  Q 1916 4091 2145 3389  Q 2375 2688 2375 2003  Q 2375 1319 2147 623  Q 1919 -72 1441 -844  L 513 -844  z " transform="scale(0.015625)" />
     </defs>
     <use ns4:href="#DejaVuSans-Bold-41" />
     <use ns4:href="#DejaVuSans-Bold-76" x="73.767578" />
     <use ns4:href="#DejaVuSans-Bold-65" x="138.953125" />
     <use ns4:href="#DejaVuSans-Bold-72" x="206.775391" />
     <use ns4:href="#DejaVuSans-Bold-61" x="256.091797" />
     <use ns4:href="#DejaVuSans-Bold-67" x="323.572266" />
     <use ns4:href="#DejaVuSans-Bold-65" x="395.154297" />
     <use ns4:href="#DejaVuSans-Bold-20" x="462.976562" />
     <use ns4:href="#DejaVuSans-Bold-72" x="497.791016" />
     <use ns4:href="#DejaVuSans-Bold-65" x="547.107422" />
     <use ns4:href="#DejaVuSans-Bold-74" x="614.929688" />
     <use ns4:href="#DejaVuSans-Bold-65" x="662.732422" />
     <use ns4:href="#DejaVuSans-Bold-6e" x="730.554688" />
     <use ns4:href="#DejaVuSans-Bold-74" x="801.746094" />
     <use ns4:href="#DejaVuSans-Bold-69" x="849.548828" />
     <use ns4:href="#DejaVuSans-Bold-6f" x="883.826172" />
     <use ns4:href="#DejaVuSans-Bold-6e" x="952.527344" />
     <use ns4:href="#DejaVuSans-Bold-20" x="1023.71875" />
     <use ns4:href="#DejaVuSans-Bold-62" x="1058.533203" />
     <use ns4:href="#DejaVuSans-Bold-79" x="1130.115234" />
     <use ns4:href="#DejaVuSans-Bold-20" x="1195.300781" />
     <use ns4:href="#DejaVuSans-Bold-6c" x="1230.115234" />
     <use ns4:href="#DejaVuSans-Bold-65" x="1264.392578" />
     <use ns4:href="#DejaVuSans-Bold-61" x="1332.214844" />
     <use ns4:href="#DejaVuSans-Bold-72" x="1399.695312" />
     <use ns4:href="#DejaVuSans-Bold-6e" x="1449.011719" />
     <use ns4:href="#DejaVuSans-Bold-69" x="1520.203125" />
     <use ns4:href="#DejaVuSans-Bold-6e" x="1554.480469" />
     <use ns4:href="#DejaVuSans-Bold-67" x="1625.671875" />
     <use ns4:href="#DejaVuSans-Bold-20" x="1697.253906" />
     <use ns4:href="#DejaVuSans-Bold-6d" x="1732.068359" />
     <use ns4:href="#DejaVuSans-Bold-65" x="1836.267578" />
     <use ns4:href="#DejaVuSans-Bold-74" x="1904.089844" />
     <use ns4:href="#DejaVuSans-Bold-68" x="1951.892578" />
     <use ns4:href="#DejaVuSans-Bold-6f" x="2023.083984" />
     <use ns4:href="#DejaVuSans-Bold-64" x="2091.785156" />
     <use ns4:href="#DejaVuSans-Bold-20" x="2163.367188" />
     <use ns4:href="#DejaVuSans-Bold-28" x="2198.181641" />
     <use ns4:href="#DejaVuSans-Bold-4c" x="2243.884766" />
     <use ns4:href="#DejaVuSans-Bold-65" x="2307.605469" />
     <use ns4:href="#DejaVuSans-Bold-61" x="2375.427734" />
     <use ns4:href="#DejaVuSans-Bold-72" x="2442.908203" />
     <use ns4:href="#DejaVuSans-Bold-6e" x="2492.224609" />
     <use ns4:href="#DejaVuSans-Bold-69" x="2563.416016" />
     <use ns4:href="#DejaVuSans-Bold-6e" x="2597.693359" />
     <use ns4:href="#DejaVuSans-Bold-67" x="2668.884766" />
     <use ns4:href="#DejaVuSans-Bold-20" x="2740.466797" />
     <use ns4:href="#DejaVuSans-Bold-50" x="2775.28125" />
     <use ns4:href="#DejaVuSans-Bold-79" x="2850.447266" />
     <use ns4:href="#DejaVuSans-Bold-72" x="2915.632812" />
     <use ns4:href="#DejaVuSans-Bold-61" x="2964.949219" />
     <use ns4:href="#DejaVuSans-Bold-6d" x="3032.429688" />
     <use ns4:href="#DejaVuSans-Bold-69" x="3136.628906" />
     <use ns4:href="#DejaVuSans-Bold-64" x="3170.90625" />
     <use ns4:href="#DejaVuSans-Bold-20" x="3242.488281" />
     <use ns4:href="#DejaVuSans-Bold-65" x="3277.302734" />
     <use ns4:href="#DejaVuSans-Bold-73" x="3345.125" />
     <use ns4:href="#DejaVuSans-Bold-74" x="3404.646484" />
     <use ns4:href="#DejaVuSans-Bold-69" x="3452.449219" />
     <use ns4:href="#DejaVuSans-Bold-6d" x="3486.726562" />
     <use ns4:href="#DejaVuSans-Bold-61" x="3590.925781" />
     <use ns4:href="#DejaVuSans-Bold-74" x="3658.40625" />
     <use ns4:href="#DejaVuSans-Bold-65" x="3706.208984" />
     <use ns4:href="#DejaVuSans-Bold-29" x="3774.03125" />
    </g>
   </g>
  </g>
  <g id="text_23">
   
   <g transform="translate(7.2 365.037812) scale(0.09 -0.09)">
    <defs>
     <path id="DejaVuSans-Oblique-53" d="M 3859 4513  L 3738 3897  Q 3422 4066 3111 4152  Q 2800 4238 2509 4238  Q 1944 4238 1609 3991  Q 1275 3744 1275 3334  Q 1275 3109 1398 2989  Q 1522 2869 2034 2731  L 2413 2638  Q 3053 2472 3303 2217  Q 3553 1963 3553 1503  Q 3553 797 2998 353  Q 2444 -91 1538 -91  Q 1166 -91 791 -17  Q 416 56 38 206  L 166 856  Q 513 641 861 531  Q 1209 422 1556 422  Q 2147 422 2503 684  Q 2859 947 2859 1369  Q 2859 1650 2717 1795  Q 2575 1941 2106 2059  L 1728 2156  Q 1081 2325 845 2545  Q 609 2766 609 3163  Q 609 3859 1145 4304  Q 1681 4750 2541 4750  Q 2875 4750 3203 4690  Q 3531 4631 3859 4513  z " transform="scale(0.015625)" />
     <path id="DejaVuSans-Oblique-6f" d="M 1625 -91  Q 1009 -91 651 289  Q 294 669 294 1325  Q 294 1706 417 2101  Q 541 2497 738 2766  Q 1047 3184 1428 3384  Q 1809 3584 2291 3584  Q 2888 3584 3255 3212  Q 3622 2841 3622 2241  Q 3622 1825 3500 1412  Q 3378 1000 3181 728  Q 2875 309 2494 109  Q 2113 -91 1625 -91  z M 891 1344  Q 891 869 1089 633  Q 1288 397 1691 397  Q 2269 397 2648 901  Q 3028 1406 3028 2181  Q 3028 2634 2825 2865  Q 2622 3097 2228 3097  Q 1903 3097 1650 2945  Q 1397 2794 1197 2484  Q 1050 2253 970 1956  Q 891 1659 891 1344  z " transform="scale(0.015625)" />
     <path id="DejaVuSans-Oblique-75" d="M 428 1388  L 838 3500  L 1416 3500  L 1006 1409  Q 975 1256 961 1147  Q 947 1038 947 966  Q 947 700 1109 554  Q 1272 409 1569 409  Q 2031 409 2368 721  Q 2706 1034 2809 1563  L 3194 3500  L 3769 3500  L 3091 0  L 2516 0  L 2631 550  Q 2388 244 2052 76  Q 1716 -91 1338 -91  Q 878 -91 622 161  Q 366 413 366 863  Q 366 956 381 1097  Q 397 1238 428 1388  z " transform="scale(0.015625)" />
     <path id="DejaVuSans-Oblique-72" d="M 2853 2969  Q 2766 3016 2653 3041  Q 2541 3066 2413 3066  Q 1953 3066 1609 2717  Q 1266 2369 1153 1784  L 800 0  L 225 0  L 909 3500  L 1484 3500  L 1375 2956  Q 1603 3259 1920 3421  Q 2238 3584 2597 3584  Q 2691 3584 2781 3573  Q 2872 3563 2963 3538  L 2853 2969  z " transform="scale(0.015625)" />
     <path id="DejaVuSans-Oblique-63" d="M 3431 3366  L 3316 2797  Q 3109 2947 2876 3022  Q 2644 3097 2394 3097  Q 2119 3097 1870 3000  Q 1622 2903 1453 2725  Q 1184 2453 1037 2087  Q 891 1722 891 1331  Q 891 859 1127 628  Q 1363 397 1844 397  Q 2081 397 2348 469  Q 2616 541 2906 684  L 2797 116  Q 2547 13 2283 -39  Q 2019 -91 1741 -91  Q 1044 -91 669 257  Q 294 606 294 1253  Q 294 1797 489 2255  Q 684 2713 1069 3078  Q 1331 3328 1684 3456  Q 2038 3584 2456 3584  Q 2700 3584 2940 3529  Q 3181 3475 3431 3366  z " transform="scale(0.015625)" />
     <path id="DejaVuSans-Oblique-65" d="M 3078 2063  Q 3088 2113 3092 2166  Q 3097 2219 3097 2272  Q 3097 2653 2873 2875  Q 2650 3097 2266 3097  Q 1838 3097 1509 2826  Q 1181 2556 1013 2059  L 3078 2063  z M 3578 1613  L 903 1613  Q 884 1494 878 1425  Q 872 1356 872 1306  Q 872 872 1139 634  Q 1406 397 1894 397  Q 2269 397 2603 481  Q 2938 566 3225 728  L 3116 159  Q 2806 34 2476 -28  Q 2147 -91 1806 -91  Q 1078 -91 686 257  Q 294 606 294 1247  Q 294 1794 489 2264  Q 684 2734 1063 3103  Q 1306 3334 1642 3459  Q 1978 3584 2356 3584  Q 2950 3584 3301 3228  Q 3653 2872 3653 2272  Q 3653 2128 3634 1964  Q 3616 1800 3578 1613  z " transform="scale(0.015625)" />
     <path id="DejaVuSans-Oblique-3a" d="M 978 3309  L 1638 3309  L 1484 2516  L 825 2516  L 978 3309  z M 488 794  L 1147 794  L 991 0  L 331 0  L 488 794  z " transform="scale(0.015625)" />
     <path id="DejaVuSans-Oblique-20" transform="scale(0.015625)" />
     <path id="DejaVuSans-Oblique-4e" d="M 1081 4666  L 1931 4666  L 3219 666  L 4000 4666  L 4616 4666  L 3706 0  L 2853 0  L 1569 4025  L 788 0  L 172 0  L 1081 4666  z " transform="scale(0.015625)" />
     <path id="DejaVuSans-Oblique-61" d="M 3438 1997  L 3047 0  L 2472 0  L 2578 531  Q 2325 219 2001 64  Q 1678 -91 1281 -91  Q 834 -91 548 182  Q 263 456 263 884  Q 263 1497 752 1853  Q 1241 2209 2100 2209  L 2900 2209  L 2931 2363  Q 2938 2388 2941 2417  Q 2944 2447 2944 2509  Q 2944 2788 2717 2942  Q 2491 3097 2081 3097  Q 1800 3097 1504 3025  Q 1209 2953 897 2809  L 997 3341  Q 1322 3463 1633 3523  Q 1944 3584 2234 3584  Q 2853 3584 3176 3315  Q 3500 3047 3500 2534  Q 3500 2431 3484 2292  Q 3469 2153 3438 1997  z M 2816 1759  L 2241 1759  Q 1534 1759 1195 1570  Q 856 1381 856 984  Q 856 709 1029 553  Q 1203 397 1509 397  Q 1978 397 2328 733  Q 2678 1069 2791 1631  L 2816 1759  z " transform="scale(0.015625)" />
     <path id="DejaVuSans-Oblique-74" d="M 2706 3500  L 2619 3053  L 1472 3053  L 1100 1153  Q 1081 1047 1072 975  Q 1063 903 1063 863  Q 1063 663 1183 572  Q 1303 481 1569 481  L 2150 481  L 2053 0  L 1503 0  Q 991 0 739 200  Q 488 400 488 806  Q 488 878 497 964  Q 506 1050 525 1153  L 897 3053  L 409 3053  L 500 3500  L 978 3500  L 1172 4494  L 1747 4494  L 1556 3500  L 2706 3500  z " transform="scale(0.015625)" />
     <path id="DejaVuSans-Oblique-69" d="M 1172 4863  L 1747 4863  L 1606 4134  L 1031 4134  L 1172 4863  z M 909 3500  L 1484 3500  L 800 0  L 225 0  L 909 3500  z " transform="scale(0.015625)" />
     <path id="DejaVuSans-Oblique-6e" d="M 3566 2113  L 3156 0  L 2578 0  L 2988 2091  Q 3016 2238 3031 2350  Q 3047 2463 3047 2528  Q 3047 2791 2881 2937  Q 2716 3084 2419 3084  Q 1956 3084 1622 2776  Q 1288 2469 1184 1941  L 800 0  L 225 0  L 903 3500  L 1478 3500  L 1363 2950  Q 1603 3253 1940 3418  Q 2278 3584 2650 3584  Q 3113 3584 3367 3334  Q 3622 3084 3622 2631  Q 3622 2519 3608 2391  Q 3594 2263 3566 2113  z " transform="scale(0.015625)" />
     <path id="DejaVuSans-Oblique-6c" d="M 1172 4863  L 1747 4863  L 800 0  L 225 0  L 1172 4863  z " transform="scale(0.015625)" />
     <path id="DejaVuSans-Oblique-54" d="M 378 4666  L 4325 4666  L 4225 4134  L 2559 4134  L 1759 0  L 1125 0  L 1925 4134  L 275 4134  L 378 4666  z " transform="scale(0.015625)" />
     <path id="DejaVuSans-Oblique-67" d="M 3816 3500  L 3219 434  Q 3047 -456 2561 -893  Q 2075 -1331 1253 -1331  Q 950 -1331 690 -1286  Q 431 -1241 206 -1147  L 313 -588  Q 525 -725 762 -790  Q 1000 -856 1269 -856  Q 1816 -856 2167 -557  Q 2519 -259 2631 300  L 2681 563  Q 2441 288 2122 144  Q 1803 0 1434 0  Q 903 0 598 351  Q 294 703 294 1319  Q 294 1803 478 2267  Q 663 2731 997 3091  Q 1219 3328 1514 3456  Q 1809 3584 2131 3584  Q 2484 3584 2746 3420  Q 3009 3256 3138 2956  L 3238 3500  L 3816 3500  z M 2950 2216  Q 2950 2641 2750 2872  Q 2550 3103 2181 3103  Q 1953 3103 1747 3012  Q 1541 2922 1394 2759  Q 1156 2491 1023 2127  Q 891 1763 891 1375  Q 891 944 1092 712  Q 1294 481 1672 481  Q 2219 481 2584 976  Q 2950 1472 2950 2216  z " transform="scale(0.015625)" />
     <path id="DejaVuSans-Oblique-4c" d="M 1075 4666  L 1709 4666  L 909 525  L 3181 525  L 3078 0  L 172 0  L 1075 4666  z " transform="scale(0.015625)" />
     <path id="DejaVuSans-Oblique-62" d="M 3169 2138  Q 3169 2591 2961 2847  Q 2753 3103 2388 3103  Q 2122 3103 1889 2973  Q 1656 2844 1484 2597  Q 1303 2338 1198 1995  Q 1094 1653 1094 1313  Q 1094 881 1298 636  Q 1503 391 1863 391  Q 2134 391 2365 517  Q 2597 644 2772 891  Q 2950 1147 3059 1487  Q 3169 1828 3169 2138  z M 1381 2969  Q 1594 3256 1914 3420  Q 2234 3584 2584 3584  Q 3122 3584 3439 3221  Q 3756 2859 3756 2241  Q 3756 1734 3570 1259  Q 3384 784 3041 416  Q 2816 172 2522 40  Q 2228 -91 1906 -91  Q 1566 -91 1316 65  Q 1066 222 909 531  L 806 0  L 231 0  L 1178 4863  L 1753 4863  L 1381 2969  z " transform="scale(0.015625)" />
     <path id="DejaVuSans-Oblique-73" d="M 3200 3397  L 3091 2853  Q 2863 2978 2609 3040  Q 2356 3103 2088 3103  Q 1634 3103 1373 2948  Q 1113 2794 1113 2528  Q 1113 2219 1719 2053  Q 1766 2041 1788 2034  L 1972 1978  Q 2547 1819 2739 1644  Q 2931 1469 2931 1166  Q 2931 609 2489 259  Q 2047 -91 1331 -91  Q 1053 -91 747 -37  Q 441 16 72 128  L 184 722  Q 500 559 806 475  Q 1113 391 1394 391  Q 1816 391 2080 572  Q 2344 753 2344 1031  Q 2344 1331 1650 1516  L 1591 1531  L 1394 1581  Q 956 1697 753 1886  Q 550 2075 550 2369  Q 550 2928 970 3256  Q 1391 3584 2113 3584  Q 2397 3584 2667 3537  Q 2938 3491 3200 3397  z " transform="scale(0.015625)" />
     <path id="DejaVuSans-Oblique-50" d="M 1081 4666  L 2541 4666  Q 3178 4666 3512 4369  Q 3847 4072 3847 3500  Q 3847 2731 3353 2303  Q 2859 1875 1966 1875  L 1172 1875  L 806 0  L 172 0  L 1081 4666  z M 1613 4147  L 1275 2394  L 2069 2394  Q 2606 2394 2893 2669  Q 3181 2944 3181 3456  Q 3181 3784 2986 3965  Q 2791 4147 2438 4147  L 1613 4147  z " transform="scale(0.015625)" />
     <path id="DejaVuSans-Oblique-79" d="M 1588 -325  Q 1188 -997 936 -1164  Q 684 -1331 294 -1331  L -159 -1331  L -63 -850  L 269 -850  Q 509 -850 678 -719  Q 847 -588 1056 -206  L 1234 128  L 459 3500  L 1069 3500  L 1650 819  L 3256 3500  L 3859 3500  L 1588 -325  z " transform="scale(0.015625)" />
     <path id="DejaVuSans-Oblique-6d" d="M 5747 2113  L 5338 0  L 4763 0  L 5166 2094  Q 5191 2228 5203 2325  Q 5216 2422 5216 2491  Q 5216 2772 5059 2928  Q 4903 3084 4622 3084  Q 4203 3084 3875 2770  Q 3547 2456 3450 1953  L 3066 0  L 2491 0  L 2900 2094  Q 2925 2209 2937 2307  Q 2950 2406 2950 2484  Q 2950 2769 2794 2926  Q 2638 3084 2363 3084  Q 1938 3084 1609 2770  Q 1281 2456 1184 1953  L 800 0  L 225 0  L 909 3500  L 1484 3500  L 1375 2956  Q 1609 3263 1923 3423  Q 2238 3584 2597 3584  Q 2978 3584 3223 3384  Q 3469 3184 3519 2828  Q 3781 3197 4126 3390  Q 4472 3584 4856 3584  Q 5306 3584 5551 3325  Q 5797 3066 5797 2591  Q 5797 2488 5784 2364  Q 5772 2241 5747 2113  z " transform="scale(0.015625)" />
     <path id="DejaVuSans-Oblique-64" d="M 2675 525  Q 2444 222 2128 65  Q 1813 -91 1428 -91  Q 903 -91 598 267  Q 294 625 294 1247  Q 294 1766 478 2236  Q 663 2706 1013 3078  Q 1244 3325 1534 3454  Q 1825 3584 2144 3584  Q 2481 3584 2739 3421  Q 2997 3259 3138 2956  L 3513 4863  L 4091 4863  L 3144 0  L 2566 0  L 2675 525  z M 891 1350  Q 891 897 1095 644  Q 1300 391 1663 391  Q 1931 391 2161 520  Q 2391 650 2566 903  Q 2750 1166 2856 1509  Q 2963 1853 2963 2188  Q 2963 2622 2758 2865  Q 2553 3109 2194 3109  Q 1922 3109 1687 2981  Q 1453 2853 1288 2613  Q 1106 2353 998 2009  Q 891 1666 891 1350  z " transform="scale(0.015625)" />
     <path id="DejaVuSans-Oblique-28" d="M 2731 4856  Q 1903 3822 1495 2892  Q 1088 1963 1088 1100  Q 1088 606 1206 120  Q 1325 -366 1563 -844  L 1063 -844  Q 775 -306 634 201  Q 494 709 494 1197  Q 494 2125 923 3036  Q 1353 3947 2222 4856  L 2731 4856  z " transform="scale(0.015625)" />
     <path id="DejaVuSans-Oblique-2c" d="M 575 794  L 1234 794  L 1131 256  L 422 -744  L 19 -744  L 469 256  L 575 794  z " transform="scale(0.015625)" />
     <path id="DejaVuSans-Oblique-29" d="M -397 -844  Q 434 191 840 1120  Q 1247 2050 1247 2913  Q 1247 3406 1130 3892  Q 1013 4378 775 4856  L 1275 4856  Q 1563 4316 1703 3812  Q 1844 3309 1844 2822  Q 1844 1891 1411 973  Q 978 56 116 -844  L -397 -844  z " transform="scale(0.015625)" />
     <path id="DejaVuSans-Oblique-2014" d="M 356 1978  L 6131 1978  L 6044 1528  L 269 1528  L 356 1978  z " transform="scale(0.015625)" />
     <path id="DejaVuSans-Oblique-52" d="M 1613 4147  L 1294 2491  L 2106 2491  Q 2584 2491 2879 2755  Q 3175 3019 3175 3444  Q 3175 3784 2976 3965  Q 2778 4147 2406 4147  L 1613 4147  z M 2772 2241  Q 2972 2194 3105 2009  Q 3238 1825 3413 1275  L 3809 0  L 3144 0  L 2778 1197  Q 2638 1659 2453 1815  Q 2269 1972 1888 1972  L 1191 1972  L 806 0  L 172 0  L 1081 4666  L 2503 4666  Q 3150 4666 3495 4373  Q 3841 4081 3841 3531  Q 3841 3044 3547 2687  Q 3253 2331 2772 2241  z " transform="scale(0.015625)" />
     <path id="DejaVuSans-Oblique-66" d="M 3059 4863  L 2969 4384  L 2419 4384  Q 2106 4384 1964 4261  Q 1822 4138 1753 3809  L 1691 3500  L 2638 3500  L 2553 3053  L 1606 3053  L 1013 0  L 434 0  L 1031 3053  L 481 3053  L 563 3500  L 1113 3500  L 1159 3744  Q 1278 4363 1576 4613  Q 1875 4863 2516 4863  L 3059 4863  z " transform="scale(0.015625)" />
     <path id="DejaVuSans-Oblique-70" d="M 3175 2156  Q 3175 2616 2975 2859  Q 2775 3103 2400 3103  Q 2144 3103 1911 2972  Q 1678 2841 1497 2591  Q 1319 2344 1212 1994  Q 1106 1644 1106 1300  Q 1106 863 1306 627  Q 1506 391 1875 391  Q 2147 391 2380 519  Q 2613 647 2778 891  Q 2956 1147 3065 1494  Q 3175 1841 3175 2156  z M 1394 2969  Q 1625 3272 1939 3428  Q 2253 3584 2638 3584  Q 3175 3584 3472 3232  Q 3769 2881 3769 2247  Q 3769 1728 3584 1258  Q 3400 788 3053 416  Q 2822 169 2531 39  Q 2241 -91 1919 -91  Q 1547 -91 1294 64  Q 1041 219 916 525  L 556 -1331  L -19 -1331  L 922 3500  L 1497 3500  L 1394 2969  z " transform="scale(0.015625)" />
     <path id="DejaVuSans-Oblique-78" d="M 3841 3500  L 2234 1784  L 3219 0  L 2559 0  L 1819 1388  L 531 0  L -166 0  L 1556 1844  L 641 3500  L 1300 3500  L 1972 2234  L 3144 3500  L 3841 3500  z " transform="scale(0.015625)" />
     <path id="DejaVuSans-Oblique-3b" d="M 563 794  L 1222 794  L 1113 256  L 409 -744  L 6 -744  L 453 256  L 563 794  z M 1050 3309  L 1709 3309  L 1556 2516  L 897 2516  L 1050 3309  z " transform="scale(0.015625)" />
     <path id="DejaVuSans-Oblique-68" d="M 3566 2113  L 3156 0  L 2578 0  L 2988 2091  Q 3016 2238 3031 2350  Q 3047 2463 3047 2528  Q 3047 2791 2881 2937  Q 2716 3084 2419 3084  Q 1956 3084 1617 2771  Q 1278 2459 1178 1941  L 800 0  L 225 0  L 1172 4863  L 1747 4863  L 1375 2950  Q 1594 3244 1934 3414  Q 2275 3584 2650 3584  Q 3113 3584 3367 3334  Q 3622 3084 3622 2631  Q 3622 2519 3608 2391  Q 3594 2263 3566 2113  z " transform="scale(0.015625)" />
     <path id="DejaVuSans-Oblique-2e" d="M 525 794  L 1184 794  L 1031 0  L 372 0  L 525 794  z " transform="scale(0.015625)" />
    </defs>
    <use ns4:href="#DejaVuSans-Oblique-53" />
    <use ns4:href="#DejaVuSans-Oblique-6f" x="63.476562" />
    <use ns4:href="#DejaVuSans-Oblique-75" x="124.658203" />
    <use ns4:href="#DejaVuSans-Oblique-72" x="188.037109" />
    <use ns4:href="#DejaVuSans-Oblique-63" x="229.150391" />
    <use ns4:href="#DejaVuSans-Oblique-65" x="284.130859" />
    <use ns4:href="#DejaVuSans-Oblique-3a" x="345.654297" />
    <use ns4:href="#DejaVuSans-Oblique-20" x="379.345703" />
    <use ns4:href="#DejaVuSans-Oblique-4e" x="411.132812" />
    <use ns4:href="#DejaVuSans-Oblique-61" x="485.9375" />
    <use ns4:href="#DejaVuSans-Oblique-74" x="547.216797" />
    <use ns4:href="#DejaVuSans-Oblique-69" x="586.425781" />
    <use ns4:href="#DejaVuSans-Oblique-6f" x="614.208984" />
    <use ns4:href="#DejaVuSans-Oblique-6e" x="675.390625" />
    <use ns4:href="#DejaVuSans-Oblique-61" x="738.769531" />
    <use ns4:href="#DejaVuSans-Oblique-6c" x="800.048828" />
    <use ns4:href="#DejaVuSans-Oblique-20" x="827.832031" />
    <use ns4:href="#DejaVuSans-Oblique-54" x="859.619141" />
    <use ns4:href="#DejaVuSans-Oblique-72" x="912.953125" />
    <use ns4:href="#DejaVuSans-Oblique-61" x="954.066406" />
    <use ns4:href="#DejaVuSans-Oblique-69" x="1015.345703" />
    <use ns4:href="#DejaVuSans-Oblique-6e" x="1043.128906" />
    <use ns4:href="#DejaVuSans-Oblique-69" x="1106.507812" />
    <use ns4:href="#DejaVuSans-Oblique-6e" x="1134.291016" />
    <use ns4:href="#DejaVuSans-Oblique-67" x="1197.669922" />
    <use ns4:href="#DejaVuSans-Oblique-20" x="1261.146484" />
    <use ns4:href="#DejaVuSans-Oblique-4c" x="1292.933594" />
    <use ns4:href="#DejaVuSans-Oblique-61" x="1348.646484" />
    <use ns4:href="#DejaVuSans-Oblique-62" x="1409.925781" />
    <use ns4:href="#DejaVuSans-Oblique-6f" x="1473.402344" />
    <use ns4:href="#DejaVuSans-Oblique-72" x="1534.583984" />
    <use ns4:href="#DejaVuSans-Oblique-61" x="1575.697266" />
    <use ns4:href="#DejaVuSans-Oblique-74" x="1636.976562" />
    <use ns4:href="#DejaVuSans-Oblique-6f" x="1676.185547" />
    <use ns4:href="#DejaVuSans-Oblique-72" x="1737.367188" />
    <use ns4:href="#DejaVuSans-Oblique-69" x="1778.480469" />
    <use ns4:href="#DejaVuSans-Oblique-65" x="1806.263672" />
    <use ns4:href="#DejaVuSans-Oblique-73" x="1867.787109" />
    <use ns4:href="#DejaVuSans-Oblique-20" x="1919.886719" />
    <use ns4:href="#DejaVuSans-Oblique-4c" x="1951.673828" />
    <use ns4:href="#DejaVuSans-Oblique-65" x="2007.386719" />
    <use ns4:href="#DejaVuSans-Oblique-61" x="2068.910156" />
    <use ns4:href="#DejaVuSans-Oblique-72" x="2130.189453" />
    <use ns4:href="#DejaVuSans-Oblique-6e" x="2171.302734" />
    <use ns4:href="#DejaVuSans-Oblique-69" x="2234.681641" />
    <use ns4:href="#DejaVuSans-Oblique-6e" x="2262.464844" />
    <use ns4:href="#DejaVuSans-Oblique-67" x="2325.84375" />
    <use ns4:href="#DejaVuSans-Oblique-20" x="2389.320312" />
    <use ns4:href="#DejaVuSans-Oblique-50" x="2421.107422" />
    <use ns4:href="#DejaVuSans-Oblique-79" x="2481.410156" />
    <use ns4:href="#DejaVuSans-Oblique-72" x="2540.589844" />
    <use ns4:href="#DejaVuSans-Oblique-61" x="2581.703125" />
    <use ns4:href="#DejaVuSans-Oblique-6d" x="2642.982422" />
    <use ns4:href="#DejaVuSans-Oblique-69" x="2740.394531" />
    <use ns4:href="#DejaVuSans-Oblique-64" x="2768.177734" />
    <use ns4:href="#DejaVuSans-Oblique-20" x="2831.654297" />
    <use ns4:href="#DejaVuSans-Oblique-28" x="2863.441406" />
    <use ns4:href="#DejaVuSans-Oblique-63" x="2902.455078" />
    <use ns4:href="#DejaVuSans-Oblique-6f" x="2957.435547" />
    <use ns4:href="#DejaVuSans-Oblique-6d" x="3018.617188" />
    <use ns4:href="#DejaVuSans-Oblique-6d" x="3116.029297" />
    <use ns4:href="#DejaVuSans-Oblique-6f" x="3213.441406" />
    <use ns4:href="#DejaVuSans-Oblique-6e" x="3274.623047" />
    <use ns4:href="#DejaVuSans-Oblique-6c" x="3338.001953" />
    <use ns4:href="#DejaVuSans-Oblique-79" x="3365.785156" />
    <use ns4:href="#DejaVuSans-Oblique-20" x="3424.964844" />
    <use ns4:href="#DejaVuSans-Oblique-63" x="3456.751953" />
    <use ns4:href="#DejaVuSans-Oblique-69" x="3511.732422" />
    <use ns4:href="#DejaVuSans-Oblique-74" x="3539.515625" />
    <use ns4:href="#DejaVuSans-Oblique-65" x="3578.724609" />
    <use ns4:href="#DejaVuSans-Oblique-64" x="3640.248047" />
    <use ns4:href="#DejaVuSans-Oblique-2c" x="3703.724609" />
    <use ns4:href="#DejaVuSans-Oblique-20" x="3735.511719" />
    <use ns4:href="#DejaVuSans-Oblique-63" x="3767.298828" />
    <use ns4:href="#DejaVuSans-Oblique-6f" x="3822.279297" />
    <use ns4:href="#DejaVuSans-Oblique-6e" x="3883.460938" />
    <use ns4:href="#DejaVuSans-Oblique-74" x="3946.839844" />
    <use ns4:href="#DejaVuSans-Oblique-65" x="3986.048828" />
    <use ns4:href="#DejaVuSans-Oblique-73" x="4047.572266" />
    <use ns4:href="#DejaVuSans-Oblique-74" x="4099.671875" />
    <use ns4:href="#DejaVuSans-Oblique-65" x="4138.880859" />
    <use ns4:href="#DejaVuSans-Oblique-64" x="4200.404297" />
    <use ns4:href="#DejaVuSans-Oblique-29" x="4263.880859" />
    <use ns4:href="#DejaVuSans-Oblique-20" x="4302.894531" />
    <use ns4:href="#DejaVuSans-Oblique-2014" x="4334.681641" />
    <use ns4:href="#DejaVuSans-Oblique-20" x="4434.681641" />
    <use ns4:href="#DejaVuSans-Oblique-52" x="4466.46875" />
    <use ns4:href="#DejaVuSans-Oblique-65" x="4535.951172" />
    <use ns4:href="#DejaVuSans-Oblique-74" x="4597.474609" />
    <use ns4:href="#DejaVuSans-Oblique-65" x="4636.683594" />
    <use ns4:href="#DejaVuSans-Oblique-6e" x="4698.207031" />
    <use ns4:href="#DejaVuSans-Oblique-74" x="4761.585938" />
    <use ns4:href="#DejaVuSans-Oblique-69" x="4800.794922" />
    <use ns4:href="#DejaVuSans-Oblique-6f" x="4828.578125" />
    <use ns4:href="#DejaVuSans-Oblique-6e" x="4889.759766" />
    <use ns4:href="#DejaVuSans-Oblique-20" x="4953.138672" />
    <use ns4:href="#DejaVuSans-Oblique-66" x="4984.925781" />
    <use ns4:href="#DejaVuSans-Oblique-69" x="5020.130859" />
    <use ns4:href="#DejaVuSans-Oblique-67" x="5047.914062" />
    <use ns4:href="#DejaVuSans-Oblique-75" x="5111.390625" />
    <use ns4:href="#DejaVuSans-Oblique-72" x="5174.769531" />
    <use ns4:href="#DejaVuSans-Oblique-65" x="5215.882812" />
    <use ns4:href="#DejaVuSans-Oblique-73" x="5277.40625" />
    <use ns4:href="#DejaVuSans-Oblique-20" x="5329.505859" />
    <use ns4:href="#DejaVuSans-Oblique-61" x="5361.292969" />
    <use ns4:href="#DejaVuSans-Oblique-72" x="5422.572266" />
    <use ns4:href="#DejaVuSans-Oblique-65" x="5463.685547" />
    <use ns4:href="#DejaVuSans-Oblique-20" x="5525.208984" />
    <use ns4:href="#DejaVuSans-Oblique-70" x="5556.996094" />
    <use ns4:href="#DejaVuSans-Oblique-65" x="5620.472656" />
    <use ns4:href="#DejaVuSans-Oblique-64" x="5681.996094" />
    <use ns4:href="#DejaVuSans-Oblique-61" x="5745.472656" />
    <use ns4:href="#DejaVuSans-Oblique-67" x="5806.751953" />
    <use ns4:href="#DejaVuSans-Oblique-6f" x="5870.228516" />
    <use ns4:href="#DejaVuSans-Oblique-67" x="5931.410156" />
    <use ns4:href="#DejaVuSans-Oblique-69" x="5994.886719" />
    <use ns4:href="#DejaVuSans-Oblique-63" x="6022.669922" />
    <use ns4:href="#DejaVuSans-Oblique-61" x="6077.650391" />
    <use ns4:href="#DejaVuSans-Oblique-6c" x="6138.929688" />
    <use ns4:href="#DejaVuSans-Oblique-20" x="6166.712891" />
    <use ns4:href="#DejaVuSans-Oblique-65" x="6198.5" />
    <use ns4:href="#DejaVuSans-Oblique-73" x="6260.023438" />
    <use ns4:href="#DejaVuSans-Oblique-74" x="6312.123047" />
    <use ns4:href="#DejaVuSans-Oblique-69" x="6351.332031" />
    <use ns4:href="#DejaVuSans-Oblique-6d" x="6379.115234" />
    <use ns4:href="#DejaVuSans-Oblique-61" x="6476.527344" />
    <use ns4:href="#DejaVuSans-Oblique-74" x="6537.806641" />
    <use ns4:href="#DejaVuSans-Oblique-65" x="6577.015625" />
    <use ns4:href="#DejaVuSans-Oblique-73" x="6638.539062" />
    <use ns4:href="#DejaVuSans-Oblique-2c" x="6690.638672" />
    <use ns4:href="#DejaVuSans-Oblique-20" x="6722.425781" />
    <use ns4:href="#DejaVuSans-Oblique-6e" x="6754.212891" />
    <use ns4:href="#DejaVuSans-Oblique-6f" x="6817.591797" />
    <use ns4:href="#DejaVuSans-Oblique-74" x="6878.773438" />
    <use ns4:href="#DejaVuSans-Oblique-20" x="6917.982422" />
    <use ns4:href="#DejaVuSans-Oblique-65" x="6949.769531" />
    <use ns4:href="#DejaVuSans-Oblique-78" x="7011.292969" />
    <use ns4:href="#DejaVuSans-Oblique-70" x="7070.472656" />
    <use ns4:href="#DejaVuSans-Oblique-65" x="7133.949219" />
    <use ns4:href="#DejaVuSans-Oblique-72" x="7195.472656" />
    <use ns4:href="#DejaVuSans-Oblique-69" x="7236.585938" />
    <use ns4:href="#DejaVuSans-Oblique-6d" x="7264.369141" />
    <use ns4:href="#DejaVuSans-Oblique-65" x="7361.78125" />
    <use ns4:href="#DejaVuSans-Oblique-6e" x="7423.304688" />
    <use ns4:href="#DejaVuSans-Oblique-74" x="7486.683594" />
    <use ns4:href="#DejaVuSans-Oblique-61" x="7525.892578" />
    <use ns4:href="#DejaVuSans-Oblique-6c" x="7587.171875" />
    <use ns4:href="#DejaVuSans-Oblique-20" x="7614.955078" />
    <use ns4:href="#DejaVuSans-Oblique-6d" x="7646.742188" />
    <use ns4:href="#DejaVuSans-Oblique-65" x="7744.154297" />
    <use ns4:href="#DejaVuSans-Oblique-61" x="7805.677734" />
    <use ns4:href="#DejaVuSans-Oblique-73" x="7866.957031" />
    <use ns4:href="#DejaVuSans-Oblique-75" x="7919.056641" />
    <use ns4:href="#DejaVuSans-Oblique-72" x="7982.435547" />
    <use ns4:href="#DejaVuSans-Oblique-65" x="8023.548828" />
    <use ns4:href="#DejaVuSans-Oblique-6d" x="8085.072266" />
    <use ns4:href="#DejaVuSans-Oblique-65" x="8182.484375" />
    <use ns4:href="#DejaVuSans-Oblique-6e" x="8244.007812" />
    <use ns4:href="#DejaVuSans-Oblique-74" x="8307.386719" />
    <use ns4:href="#DejaVuSans-Oblique-73" x="8346.595703" />
    <use ns4:href="#DejaVuSans-Oblique-3b" x="8398.695312" />
    <use ns4:href="#DejaVuSans-Oblique-20" x="8432.386719" />
    <use ns4:href="#DejaVuSans-Oblique-75" x="8464.173828" />
    <use ns4:href="#DejaVuSans-Oblique-73" x="8527.552734" />
    <use ns4:href="#DejaVuSans-Oblique-65" x="8579.652344" />
    <use ns4:href="#DejaVuSans-Oblique-64" x="8641.175781" />
    <use ns4:href="#DejaVuSans-Oblique-20" x="8704.652344" />
    <use ns4:href="#DejaVuSans-Oblique-68" x="8736.439453" />
    <use ns4:href="#DejaVuSans-Oblique-65" x="8799.818359" />
    <use ns4:href="#DejaVuSans-Oblique-72" x="8861.341797" />
    <use ns4:href="#DejaVuSans-Oblique-65" x="8902.455078" />
    <use ns4:href="#DejaVuSans-Oblique-20" x="8963.978516" />
    <use ns4:href="#DejaVuSans-Oblique-61" x="8995.765625" />
    <use ns4:href="#DejaVuSans-Oblique-73" x="9057.044922" />
    <use ns4:href="#DejaVuSans-Oblique-20" x="9109.144531" />
    <use ns4:href="#DejaVuSans-Oblique-61" x="9140.931641" />
    <use ns4:href="#DejaVuSans-Oblique-20" x="9202.210938" />
    <use ns4:href="#DejaVuSans-Oblique-68" x="9233.998047" />
    <use ns4:href="#DejaVuSans-Oblique-65" x="9297.376953" />
    <use ns4:href="#DejaVuSans-Oblique-75" x="9358.900391" />
    <use ns4:href="#DejaVuSans-Oblique-72" x="9422.279297" />
    <use ns4:href="#DejaVuSans-Oblique-69" x="9463.392578" />
    <use ns4:href="#DejaVuSans-Oblique-73" x="9491.175781" />
    <use ns4:href="#DejaVuSans-Oblique-74" x="9543.275391" />
    <use ns4:href="#DejaVuSans-Oblique-69" x="9582.484375" />
    <use ns4:href="#DejaVuSans-Oblique-63" x="9610.267578" />
    <use ns4:href="#DejaVuSans-Oblique-2e" x="9665.248047" />
   </g>
  </g>
 </g>
 <defs>
  <clipPath id="p923b2d3920">
   <rect x="227.564297" y="33.837812" width="446.4" height="277.2" />
  </clipPath>
 </defs>
</svg>