<svg xmlns="http://www.w3.org/2000/svg" xmlns:dc="http://purl.org/dc/elements/1.1/" xmlns:ns2="http://creativecommons.org/ns#" xmlns:ns4="http://www.w3.org/1999/xlink" xmlns:rdf="http://www.w3.org/1999/02/22-rdf-syntax-ns#" width="779.6925pt" height="381.309531pt" viewBox="0 0 779.6925 381.309531" version="1.1">
 <title>What 15 minutes a day becomes over time</title><desc>What 15 minutes a day becomes over time. Source: 15 min/day × 7 days/week calculation. Simple linear projection. 91 hours over a year — enough to learn a new skill, build a prototype, or write a dozen essays.</desc><metadata>
  <rdf:RDF>
   <ns2:Work>
    <dc:type rdf:resource="http://purl.org/dc/dcmitype/StillImage" />
    <dc:date>2026-07-05T18:03:01.357180</dc:date>
    <dc:format>image/svg+xml</dc:format>
    <dc:creator>
     <ns2:Agent>
      <dc:title>Matplotlib v3.9.4, https://matplotlib.org/</dc:title>
     </ns2:Agent>
    </dc:creator>
   </ns2:Work>
  </rdf:RDF>
 </metadata>
 <defs>
  <style type="text/css">*{stroke-linejoin: round; stroke-linecap: butt}</style>
 </defs>
 <g id="figure_1">
  <g id="patch_1">
   <path d="M 0 381.309531  L 779.6925 381.309531  L 779.6925 0  L 0 0  z " style="fill: #ffffff" />
  </g>
  <g id="axes_1">
   <g id="patch_2">
    <path d="M 146.84625 311.037813  L 649.04625 311.037813  L 649.04625 33.837813  L 146.84625 33.837813  z " style="fill: #ffffff" />
   </g>
   <g id="PolyCollection_1">
    <defs>
     <path id="m7d5040d810" d="M 169.673523 -82.871719  L 169.673523 -87.717873  L 283.809886 -102.256334  L 397.94625 -141.025565  L 512.082614 -208.871719  L 626.218977 -334.871719  L 626.218977 -82.871719  L 626.218977 -82.871719  L 512.082614 -82.871719  L 397.94625 -82.871719  L 283.809886 -82.871719  L 169.673523 -82.871719  z " style="stroke: #2563eb; stroke-opacity: 0.12" />
    </defs>
    <g clip-path="url(#pcd05f01c6d)">
     <use ns4:href="#m7d5040d810" x="0" y="381.309531" style="fill: #2563eb; fill-opacity: 0.12; stroke: #2563eb; stroke-opacity: 0.12" />
    </g>
   </g>
   <g id="matplotlib.axis_1">
    <g id="xtick_1">
     <g id="line2d_1">
      <defs>
       <path id="mb1461a6239" d="M 0 0  L 0 3.5  " style="stroke: #000000; stroke-width: 0.8" />
      </defs>
      <g>
       <use ns4:href="#mb1461a6239" x="169.673523" y="311.037813" style="stroke: #000000; stroke-width: 0.8" />
      </g>
     </g>
     <g id="text_1">
      
      <g transform="translate(163.123592 327.799502) rotate(-30) scale(0.1 -0.1)">
       <defs>
        <path id="DejaVuSans-31" d="M 794 531  L 1825 531  L 1825 4091  L 703 3866  L 703 4441  L 1819 4666  L 2450 4666  L 2450 531  L 3481 531  L 3481 0  L 794 0  L 794 531  z " transform="scale(0.015625)" />
       </defs>
       <use ns4:href="#DejaVuSans-31" />
      </g>
     </g>
    </g>
    <g id="xtick_2">
     <g id="line2d_2">
      <g>
       <use ns4:href="#mb1461a6239" x="283.809886" y="311.037813" style="stroke: #000000; stroke-width: 0.8" />
      </g>
     </g>
     <g id="text_2">
      
      <g transform="translate(277.259956 327.799502) rotate(-30) scale(0.1 -0.1)">
       <defs>
        <path id="DejaVuSans-34" d="M 2419 4116  L 825 1625  L 2419 1625  L 2419 4116  z M 2253 4666  L 3047 4666  L 3047 1625  L 3713 1625  L 3713 1100  L 3047 1100  L 3047 0  L 2419 0  L 2419 1100  L 313 1100  L 313 1709  L 2253 4666  z " transform="scale(0.015625)" />
       </defs>
       <use ns4:href="#DejaVuSans-34" />
      </g>
     </g>
    </g>
    <g id="xtick_3">
     <g id="line2d_3">
      <g>
       <use ns4:href="#mb1461a6239" x="397.94625" y="311.037813" style="stroke: #000000; stroke-width: 0.8" />
      </g>
     </g>
     <g id="text_3">
      
      <g transform="translate(385.886233 330.980752) rotate(-30) scale(0.1 -0.1)">
       <defs>
        <path id="DejaVuSans-32" d="M 1228 531  L 3431 531  L 3431 0  L 469 0  L 469 531  Q 828 903 1448 1529  Q 2069 2156 2228 2338  Q 2531 2678 2651 2914  Q 2772 3150 2772 3378  Q 2772 3750 2511 3984  Q 2250 4219 1831 4219  Q 1534 4219 1204 4116  Q 875 4013 500 3803  L 500 4441  Q 881 4594 1212 4672  Q 1544 4750 1819 4750  Q 2544 4750 2975 4387  Q 3406 4025 3406 3419  Q 3406 3131 3298 2873  Q 3191 2616 2906 2266  Q 2828 2175 2409 1742  Q 1991 1309 1228 531  z " transform="scale(0.015625)" />
       </defs>
       <use ns4:href="#DejaVuSans-31" />
       <use ns4:href="#DejaVuSans-32" x="63.623047" />
      </g>
     </g>
    </g>
    <g id="xtick_4">
     <g id="line2d_4">
      <g>
       <use ns4:href="#mb1461a6239" x="512.082614" y="311.037813" style="stroke: #000000; stroke-width: 0.8" />
      </g>
     </g>
     <g id="text_4">
      
      <g transform="translate(500.022597 330.980752) rotate(-30) scale(0.1 -0.1)">
       <defs>
        <path id="DejaVuSans-36" d="M 2113 2584  Q 1688 2584 1439 2293  Q 1191 2003 1191 1497  Q 1191 994 1439 701  Q 1688 409 2113 409  Q 2538 409 2786 701  Q 3034 994 3034 1497  Q 3034 2003 2786 2293  Q 2538 2584 2113 2584  z M 3366 4563  L 3366 3988  Q 3128 4100 2886 4159  Q 2644 4219 2406 4219  Q 1781 4219 1451 3797  Q 1122 3375 1075 2522  Q 1259 2794 1537 2939  Q 1816 3084 2150 3084  Q 2853 3084 3261 2657  Q 3669 2231 3669 1497  Q 3669 778 3244 343  Q 2819 -91 2113 -91  Q 1303 -91 875 529  Q 447 1150 447 2328  Q 447 3434 972 4092  Q 1497 4750 2381 4750  Q 2619 4750 2861 4703  Q 3103 4656 3366 4563  z " transform="scale(0.015625)" />
       </defs>
       <use ns4:href="#DejaVuSans-32" />
       <use ns4:href="#DejaVuSans-36" x="63.623047" />
      </g>
     </g>
    </g>
    <g id="xtick_5">
     <g id="line2d_5">
      <g>
       <use ns4:href="#mb1461a6239" x="626.218977" y="311.037813" style="stroke: #000000; stroke-width: 0.8" />
      </g>
     </g>
     <g id="text_5">
      
      <g transform="translate(614.15896 330.980752) rotate(-30) scale(0.1 -0.1)">
       <defs>
        <path id="DejaVuSans-35" d="M 691 4666  L 3169 4666  L 3169 4134  L 1269 4134  L 1269 2991  Q 1406 3038 1543 3061  Q 1681 3084 1819 3084  Q 2600 3084 3056 2656  Q 3513 2228 3513 1497  Q 3513 744 3044 326  Q 2575 -91 1722 -91  Q 1428 -91 1123 -41  Q 819 9 494 109  L 494 744  Q 775 591 1075 516  Q 1375 441 1709 441  Q 2250 441 2565 725  Q 2881 1009 2881 1497  Q 2881 1984 2565 2268  Q 2250 2553 1709 2553  Q 1456 2553 1204 2497  Q 953 2441 691 2322  L 691 4666  z " transform="scale(0.015625)" />
       </defs>
       <use ns4:href="#DejaVuSans-35" />
       <use ns4:href="#DejaVuSans-32" x="63.623047" />
      </g>
     </g>
    </g>
   </g>
   <g id="matplotlib.axis_2">
    <g id="ytick_1">
     <g id="line2d_6">
      <defs>
       <path id="mbca9f66ece" d="M 0 0  L -3.5 0  " style="stroke: #000000; stroke-width: 0.8" />
      </defs>
      <g>
       <use ns4:href="#mbca9f66ece" x="146.84625" y="298.437813" style="stroke: #000000; stroke-width: 0.8" />
      </g>
     </g>
     <g id="text_6">
      
      <g transform="translate(133.48375 302.237031) scale(0.1 -0.1)">
       <defs>
        <path id="DejaVuSans-30" d="M 2034 4250  Q 1547 4250 1301 3770  Q 1056 3291 1056 2328  Q 1056 1369 1301 889  Q 1547 409 2034 409  Q 2525 409 2770 889  Q 3016 1369 3016 2328  Q 3016 3291 2770 3770  Q 2525 4250 2034 4250  z M 2034 4750  Q 2819 4750 3233 4129  Q 3647 3509 3647 2328  Q 3647 1150 3233 529  Q 2819 -91 2034 -91  Q 1250 -91 836 529  Q 422 1150 422 2328  Q 422 3509 836 4129  Q 1250 4750 2034 4750  z " transform="scale(0.015625)" />
       </defs>
       <use ns4:href="#DejaVuSans-30" />
      </g>
     </g>
    </g>
    <g id="ytick_2">
     <g id="line2d_7">
      <g>
       <use ns4:href="#mbca9f66ece" x="146.84625" y="243.053197" style="stroke: #000000; stroke-width: 0.8" />
      </g>
     </g>
     <g id="text_7">
      
      <g transform="translate(127.12125 246.852416) scale(0.1 -0.1)">
       <use ns4:href="#DejaVuSans-32" />
       <use ns4:href="#DejaVuSans-30" x="63.623047" />
      </g>
     </g>
    </g>
    <g id="ytick_3">
     <g id="line2d_8">
      <g>
       <use ns4:href="#mbca9f66ece" x="146.84625" y="187.668582" style="stroke: #000000; stroke-width: 0.8" />
      </g>
     </g>
     <g id="text_8">
      
      <g transform="translate(127.12125 191.4678) scale(0.1 -0.1)">
       <use ns4:href="#DejaVuSans-34" />
       <use ns4:href="#DejaVuSans-30" x="63.623047" />
      </g>
     </g>
    </g>
    <g id="ytick_4">
     <g id="line2d_9">
      <g>
       <use ns4:href="#mbca9f66ece" x="146.84625" y="132.283966" style="stroke: #000000; stroke-width: 0.8" />
      </g>
     </g>
     <g id="text_9">
      
      <g transform="translate(127.12125 136.083185) scale(0.1 -0.1)">
       <use ns4:href="#DejaVuSans-36" />
       <use ns4:href="#DejaVuSans-30" x="63.623047" />
      </g>
     </g>
    </g>
    <g id="ytick_5">
     <g id="line2d_10">
      <g>
       <use ns4:href="#mbca9f66ece" x="146.84625" y="76.899351" style="stroke: #000000; stroke-width: 0.8" />
      </g>
     </g>
     <g id="text_10">
      
      <g transform="translate(127.12125 80.69857) scale(0.1 -0.1)">
       <defs>
        <path id="DejaVuSans-38" d="M 2034 2216  Q 1584 2216 1326 1975  Q 1069 1734 1069 1313  Q 1069 891 1326 650  Q 1584 409 2034 409  Q 2484 409 2743 651  Q 3003 894 3003 1313  Q 3003 1734 2745 1975  Q 2488 2216 2034 2216  z M 1403 2484  Q 997 2584 770 2862  Q 544 3141 544 3541  Q 544 4100 942 4425  Q 1341 4750 2034 4750  Q 2731 4750 3128 4425  Q 3525 4100 3525 3541  Q 3525 3141 3298 2862  Q 3072 2584 2669 2484  Q 3125 2378 3379 2068  Q 3634 1759 3634 1313  Q 3634 634 3220 271  Q 2806 -91 2034 -91  Q 1263 -91 848 271  Q 434 634 434 1313  Q 434 1759 690 2068  Q 947 2378 1403 2484  z M 1172 3481  Q 1172 3119 1398 2916  Q 1625 2713 2034 2713  Q 2441 2713 2670 2916  Q 2900 3119 2900 3481  Q 2900 3844 2670 4047  Q 2441 4250 2034 4250  Q 1625 4250 1398 4047  Q 1172 3844 1172 3481  z " transform="scale(0.015625)" />
       </defs>
       <use ns4:href="#DejaVuSans-38" />
       <use ns4:href="#DejaVuSans-30" x="63.623047" />
      </g>
     </g>
    </g>
    <g id="text_11">
     
     <g transform="translate(121.041562 216.621406) rotate(-90) scale(0.1 -0.1)">
      <defs>
       <path id="DejaVuSans-43" d="M 4122 4306  L 4122 3641  Q 3803 3938 3442 4084  Q 3081 4231 2675 4231  Q 1875 4231 1450 3742  Q 1025 3253 1025 2328  Q 1025 1406 1450 917  Q 1875 428 2675 428  Q 3081 428 3442 575  Q 3803 722 4122 1019  L 4122 359  Q 3791 134 3420 21  Q 3050 -91 2638 -91  Q 1578 -91 968 557  Q 359 1206 359 2328  Q 359 3453 968 4101  Q 1578 4750 2638 4750  Q 3056 4750 3426 4639  Q 3797 4528 4122 4306  z " transform="scale(0.015625)" />
       <path id="DejaVuSans-75" d="M 544 1381  L 544 3500  L 1119 3500  L 1119 1403  Q 1119 906 1312 657  Q 1506 409 1894 409  Q 2359 409 2629 706  Q 2900 1003 2900 1516  L 2900 3500  L 3475 3500  L 3475 0  L 2900 0  L 2900 538  Q 2691 219 2414 64  Q 2138 -91 1772 -91  Q 1169 -91 856 284  Q 544 659 544 1381  z M 1991 3584  L 1991 3584  z " transform="scale(0.015625)" />
       <path id="DejaVuSans-6d" d="M 3328 2828  Q 3544 3216 3844 3400  Q 4144 3584 4550 3584  Q 5097 3584 5394 3201  Q 5691 2819 5691 2113  L 5691 0  L 5113 0  L 5113 2094  Q 5113 2597 4934 2840  Q 4756 3084 4391 3084  Q 3944 3084 3684 2787  Q 3425 2491 3425 1978  L 3425 0  L 2847 0  L 2847 2094  Q 2847 2600 2669 2842  Q 2491 3084 2119 3084  Q 1678 3084 1418 2786  Q 1159 2488 1159 1978  L 1159 0  L 581 0  L 581 3500  L 1159 3500  L 1159 2956  Q 1356 3278 1631 3431  Q 1906 3584 2284 3584  Q 2666 3584 2933 3390  Q 3200 3197 3328 2828  z " transform="scale(0.015625)" />
       <path id="DejaVuSans-6c" d="M 603 4863  L 1178 4863  L 1178 0  L 603 0  L 603 4863  z " transform="scale(0.015625)" />
       <path id="DejaVuSans-61" d="M 2194 1759  Q 1497 1759 1228 1600  Q 959 1441 959 1056  Q 959 750 1161 570  Q 1363 391 1709 391  Q 2188 391 2477 730  Q 2766 1069 2766 1631  L 2766 1759  L 2194 1759  z M 3341 1997  L 3341 0  L 2766 0  L 2766 531  Q 2569 213 2275 61  Q 1981 -91 1556 -91  Q 1019 -91 701 211  Q 384 513 384 1019  Q 384 1609 779 1909  Q 1175 2209 1959 2209  L 2766 2209  L 2766 2266  Q 2766 2663 2505 2880  Q 2244 3097 1772 3097  Q 1472 3097 1187 3025  Q 903 2953 641 2809  L 641 3341  Q 956 3463 1253 3523  Q 1550 3584 1831 3584  Q 2591 3584 2966 3190  Q 3341 2797 3341 1997  z " transform="scale(0.015625)" />
       <path id="DejaVuSans-74" d="M 1172 4494  L 1172 3500  L 2356 3500  L 2356 3053  L 1172 3053  L 1172 1153  Q 1172 725 1289 603  Q 1406 481 1766 481  L 2356 481  L 2356 0  L 1766 0  Q 1100 0 847 248  Q 594 497 594 1153  L 594 3053  L 172 3053  L 172 3500  L 594 3500  L 594 4494  L 1172 4494  z " transform="scale(0.015625)" />
       <path id="DejaVuSans-69" d="M 603 3500  L 1178 3500  L 1178 0  L 603 0  L 603 3500  z M 603 4863  L 1178 4863  L 1178 4134  L 603 4134  L 603 4863  z " transform="scale(0.015625)" />
       <path id="DejaVuSans-76" d="M 191 3500  L 800 3500  L 1894 563  L 2988 3500  L 3597 3500  L 2284 0  L 1503 0  L 191 3500  z " transform="scale(0.015625)" />
       <path id="DejaVuSans-65" d="M 3597 1894  L 3597 1613  L 953 1613  Q 991 1019 1311 708  Q 1631 397 2203 397  Q 2534 397 2845 478  Q 3156 559 3463 722  L 3463 178  Q 3153 47 2828 -22  Q 2503 -91 2169 -91  Q 1331 -91 842 396  Q 353 884 353 1716  Q 353 2575 817 3079  Q 1281 3584 2069 3584  Q 2775 3584 3186 3129  Q 3597 2675 3597 1894  z M 3022 2063  Q 3016 2534 2758 2815  Q 2500 3097 2075 3097  Q 1594 3097 1305 2825  Q 1016 2553 972 2059  L 3022 2063  z " transform="scale(0.015625)" />
       <path id="DejaVuSans-20" transform="scale(0.015625)" />
       <path id="DejaVuSans-68" d="M 3513 2113  L 3513 0  L 2938 0  L 2938 2094  Q 2938 2591 2744 2837  Q 2550 3084 2163 3084  Q 1697 3084 1428 2787  Q 1159 2491 1159 1978  L 1159 0  L 581 0  L 581 4863  L 1159 4863  L 1159 2956  Q 1366 3272 1645 3428  Q 1925 3584 2291 3584  Q 2894 3584 3203 3211  Q 3513 2838 3513 2113  z " transform="scale(0.015625)" />
       <path id="DejaVuSans-6f" d="M 1959 3097  Q 1497 3097 1228 2736  Q 959 2375 959 1747  Q 959 1119 1226 758  Q 1494 397 1959 397  Q 2419 397 2687 759  Q 2956 1122 2956 1747  Q 2956 2369 2687 2733  Q 2419 3097 1959 3097  z M 1959 3584  Q 2709 3584 3137 3096  Q 3566 2609 3566 1747  Q 3566 888 3137 398  Q 2709 -91 1959 -91  Q 1206 -91 779 398  Q 353 888 353 1747  Q 353 2609 779 3096  Q 1206 3584 1959 3584  z " transform="scale(0.015625)" />
       <path id="DejaVuSans-72" d="M 2631 2963  Q 2534 3019 2420 3045  Q 2306 3072 2169 3072  Q 1681 3072 1420 2755  Q 1159 2438 1159 1844  L 1159 0  L 581 0  L 581 3500  L 1159 3500  L 1159 2956  Q 1341 3275 1631 3429  Q 1922 3584 2338 3584  Q 2397 3584 2469 3576  Q 2541 3569 2628 3553  L 2631 2963  z " transform="scale(0.015625)" />
       <path id="DejaVuSans-73" d="M 2834 3397  L 2834 2853  Q 2591 2978 2328 3040  Q 2066 3103 1784 3103  Q 1356 3103 1142 2972  Q 928 2841 928 2578  Q 928 2378 1081 2264  Q 1234 2150 1697 2047  L 1894 2003  Q 2506 1872 2764 1633  Q 3022 1394 3022 966  Q 3022 478 2636 193  Q 2250 -91 1575 -91  Q 1294 -91 989 -36  Q 684 19 347 128  L 347 722  Q 666 556 975 473  Q 1284 391 1588 391  Q 1994 391 2212 530  Q 2431 669 2431 922  Q 2431 1156 2273 1281  Q 2116 1406 1581 1522  L 1381 1569  Q 847 1681 609 1914  Q 372 2147 372 2553  Q 372 3047 722 3315  Q 1072 3584 1716 3584  Q 2034 3584 2315 3537  Q 2597 3491 2834 3397  z " transform="scale(0.015625)" />
      </defs>
      <use ns4:href="#DejaVuSans-43" />
      <use ns4:href="#DejaVuSans-75" x="69.824219" />
      <use ns4:href="#DejaVuSans-6d" x="133.203125" />
      <use ns4:href="#DejaVuSans-75" x="230.615234" />
      <use ns4:href="#DejaVuSans-6c" x="293.994141" />
      <use ns4:href="#DejaVuSans-61" x="321.777344" />
      <use ns4:href="#DejaVuSans-74" x="383.056641" />
      <use ns4:href="#DejaVuSans-69" x="422.265625" />
      <use ns4:href="#DejaVuSans-76" x="450.048828" />
      <use ns4:href="#DejaVuSans-65" x="509.228516" />
      <use ns4:href="#DejaVuSans-20" x="570.751953" />
      <use ns4:href="#DejaVuSans-68" x="602.539062" />
      <use ns4:href="#DejaVuSans-6f" x="665.917969" />
      <use ns4:href="#DejaVuSans-75" x="727.099609" />
      <use ns4:href="#DejaVuSans-72" x="790.478516" />
      <use ns4:href="#DejaVuSans-73" x="831.591797" />
     </g>
    </g>
   </g>
   <g id="line2d_11">
    <path d="M 169.673523 293.591659  L 283.809886 279.053197  L 397.94625 240.283966  L 512.082614 172.437813  L 626.218977 46.437813  " clip-path="url(#pcd05f01c6d)" style="fill: none; stroke: #2563eb; stroke-width: 2.5; stroke-linecap: square" />
    <defs>
     <path id="m723045b25f" d="M 0 3  C 0.795609 3 1.55874 2.683901 2.12132 2.12132  C 2.683901 1.55874 3 0.795609 3 0  C 3 -0.795609 2.683901 -1.55874 2.12132 -2.12132  C 1.55874 -2.683901 0.795609 -3 0 -3  C -0.795609 -3 -1.55874 -2.683901 -2.12132 -2.12132  C -2.683901 -1.55874 -3 -0.795609 -3 0  C -3 0.795609 -2.683901 1.55874 -2.12132 2.12132  C -1.55874 2.683901 -0.795609 3 0 3  z " style="stroke: #2563eb" />
    </defs>
    <g clip-path="url(#pcd05f01c6d)">
     <use ns4:href="#m723045b25f" x="169.673523" y="293.591659" style="fill: #2563eb; stroke: #2563eb" />
     <use ns4:href="#m723045b25f" x="283.809886" y="279.053197" style="fill: #2563eb; stroke: #2563eb" />
     <use ns4:href="#m723045b25f" x="397.94625" y="240.283966" style="fill: #2563eb; stroke: #2563eb" />
     <use ns4:href="#m723045b25f" x="512.082614" y="172.437813" style="fill: #2563eb; stroke: #2563eb" />
     <use ns4:href="#m723045b25f" x="626.218977" y="46.437813" style="fill: #2563eb; stroke: #2563eb" />
    </g>
   </g>
   <g id="patch_3">
    <path d="M 146.84625 311.037813  L 146.84625 33.837813  " style="fill: none; stroke: #000000; stroke-width: 0.8; stroke-linejoin: miter; stroke-linecap: square" />
   </g>
   <g id="patch_4">
    <path d="M 146.84625 311.037813  L 649.04625 311.037813  " style="fill: none; stroke: #000000; stroke-width: 0.8; stroke-linejoin: miter; stroke-linecap: square" />
   </g>
   <g id="text_12">
    
    <g transform="translate(164.303054 285.591659) scale(0.09 -0.09)">
     <defs>
      <path id="DejaVuSans-4c" d="M 628 4666  L 1259 4666  L 1259 531  L 3531 531  L 3531 0  L 628 0  L 628 4666  z " transform="scale(0.015625)" />
     </defs>
     <use ns4:href="#DejaVuSans-32" />
     <use ns4:href="#DejaVuSans-4c" x="63.623047" />
    </g>
   </g>
   <g id="text_13">
    
    <g transform="translate(278.439418 271.053197) scale(0.09 -0.09)">
     <defs>
      <path id="DejaVuSans-37" d="M 525 4666  L 3525 4666  L 3525 4397  L 1831 0  L 1172 0  L 2766 4134  L 525 4134  L 525 4666  z " transform="scale(0.015625)" />
     </defs>
     <use ns4:href="#DejaVuSans-37" />
     <use ns4:href="#DejaVuSans-4c" x="63.623047" />
    </g>
   </g>
   <g id="text_14">
    
    <g transform="translate(389.712656 232.283966) scale(0.09 -0.09)">
     <use ns4:href="#DejaVuSans-32" />
     <use ns4:href="#DejaVuSans-31" x="63.623047" />
     <use ns4:href="#DejaVuSans-4c" x="127.246094" />
    </g>
   </g>
   <g id="text_15">
    
    <g transform="translate(503.84902 164.437813) scale(0.09 -0.09)">
     <use ns4:href="#DejaVuSans-34" />
     <use ns4:href="#DejaVuSans-36" x="63.623047" />
     <use ns4:href="#DejaVuSans-4c" x="127.246094" />
    </g>
   </g>
   <g id="text_16">
    
    <g transform="translate(617.985384 38.437813) scale(0.09 -0.09)">
     <defs>
      <path id="DejaVuSans-39" d="M 703 97  L 703 672  Q 941 559 1184 500  Q 1428 441 1663 441  Q 2288 441 2617 861  Q 2947 1281 2994 2138  Q 2813 1869 2534 1725  Q 2256 1581 1919 1581  Q 1219 1581 811 2004  Q 403 2428 403 3163  Q 403 3881 828 4315  Q 1253 4750 1959 4750  Q 2769 4750 3195 4129  Q 3622 3509 3622 2328  Q 3622 1225 3098 567  Q 2575 -91 1691 -91  Q 1453 -91 1209 -44  Q 966 3 703 97  z M 1959 2075  Q 2384 2075 2632 2365  Q 2881 2656 2881 3163  Q 2881 3666 2632 3958  Q 2384 4250 1959 4250  Q 1534 4250 1286 3958  Q 1038 3666 1038 3163  Q 1038 2656 1286 2365  Q 1534 2075 1959 2075  z " transform="scale(0.015625)" />
     </defs>
     <use ns4:href="#DejaVuSans-39" />
     <use ns4:href="#DejaVuSans-31" x="63.623047" />
     <use ns4:href="#DejaVuSans-4c" x="127.246094" />
    </g>
   </g>
   <g id="text_17">
    
    <g transform="translate(229.365469 17.837813) scale(0.14 -0.14)">
     <defs>
      <path id="DejaVuSans-Bold-57" d="M 191 4666  L 1344 4666  L 2150 1275  L 2950 4666  L 4109 4666  L 4909 1275  L 5716 4666  L 6859 4666  L 5759 0  L 4372 0  L 3525 3547  L 2688 0  L 1300 0  L 191 4666  z " transform="scale(0.015625)" />
      <path id="DejaVuSans-Bold-68" d="M 4056 2131  L 4056 0  L 2931 0  L 2931 347  L 2931 1625  Q 2931 2084 2911 2256  Q 2891 2428 2841 2509  Q 2775 2619 2662 2680  Q 2550 2741 2406 2741  Q 2056 2741 1856 2470  Q 1656 2200 1656 1722  L 1656 0  L 538 0  L 538 4863  L 1656 4863  L 1656 2988  Q 1909 3294 2193 3439  Q 2478 3584 2822 3584  Q 3428 3584 3742 3212  Q 4056 2841 4056 2131  z " transform="scale(0.015625)" />
      <path id="DejaVuSans-Bold-61" d="M 2106 1575  Q 1756 1575 1579 1456  Q 1403 1338 1403 1106  Q 1403 894 1545 773  Q 1688 653 1941 653  Q 2256 653 2472 879  Q 2688 1106 2688 1447  L 2688 1575  L 2106 1575  z M 3816 1997  L 3816 0  L 2688 0  L 2688 519  Q 2463 200 2181 54  Q 1900 -91 1497 -91  Q 953 -91 614 226  Q 275 544 275 1050  Q 275 1666 698 1953  Q 1122 2241 2028 2241  L 2688 2241  L 2688 2328  Q 2688 2594 2478 2717  Q 2269 2841 1825 2841  Q 1466 2841 1156 2769  Q 847 2697 581 2553  L 581 3406  Q 941 3494 1303 3539  Q 1666 3584 2028 3584  Q 2975 3584 3395 3211  Q 3816 2838 3816 1997  z " transform="scale(0.015625)" />
      <path id="DejaVuSans-Bold-74" d="M 1759 4494  L 1759 3500  L 2913 3500  L 2913 2700  L 1759 2700  L 1759 1216  Q 1759 972 1856 886  Q 1953 800 2241 800  L 2816 800  L 2816 0  L 1856 0  Q 1194 0 917 276  Q 641 553 641 1216  L 641 2700  L 84 2700  L 84 3500  L 641 3500  L 641 4494  L 1759 4494  z " transform="scale(0.015625)" />
      <path id="DejaVuSans-Bold-20" transform="scale(0.015625)" />
      <path id="DejaVuSans-Bold-31" d="M 750 831  L 1813 831  L 1813 3847  L 722 3622  L 722 4441  L 1806 4666  L 2950 4666  L 2950 831  L 4013 831  L 4013 0  L 750 0  L 750 831  z " transform="scale(0.015625)" />
      <path id="DejaVuSans-Bold-35" d="M 678 4666  L 3669 4666  L 3669 3781  L 1638 3781  L 1638 3059  Q 1775 3097 1914 3117  Q 2053 3138 2203 3138  Q 3056 3138 3531 2711  Q 4006 2284 4006 1522  Q 4006 766 3489 337  Q 2972 -91 2053 -91  Q 1656 -91 1267 -14  Q 878 63 494 219  L 494 1166  Q 875 947 1217 837  Q 1559 728 1863 728  Q 2300 728 2551 942  Q 2803 1156 2803 1522  Q 2803 1891 2551 2103  Q 2300 2316 1863 2316  Q 1603 2316 1309 2248  Q 1016 2181 678 2041  L 678 4666  z " transform="scale(0.015625)" />
      <path id="DejaVuSans-Bold-6d" d="M 3781 2919  Q 3994 3244 4286 3414  Q 4578 3584 4928 3584  Q 5531 3584 5847 3212  Q 6163 2841 6163 2131  L 6163 0  L 5038 0  L 5038 1825  Q 5041 1866 5042 1909  Q 5044 1953 5044 2034  Q 5044 2406 4934 2573  Q 4825 2741 4581 2741  Q 4263 2741 4089 2478  Q 3916 2216 3909 1719  L 3909 0  L 2784 0  L 2784 1825  Q 2784 2406 2684 2573  Q 2584 2741 2328 2741  Q 2006 2741 1831 2477  Q 1656 2213 1656 1722  L 1656 0  L 531 0  L 531 3500  L 1656 3500  L 1656 2988  Q 1863 3284 2130 3434  Q 2397 3584 2719 3584  Q 3081 3584 3359 3409  Q 3638 3234 3781 2919  z " transform="scale(0.015625)" />
      <path id="DejaVuSans-Bold-69" d="M 538 3500  L 1656 3500  L 1656 0  L 538 0  L 538 3500  z M 538 4863  L 1656 4863  L 1656 3950  L 538 3950  L 538 4863  z " transform="scale(0.015625)" />
      <path id="DejaVuSans-Bold-6e" d="M 4056 2131  L 4056 0  L 2931 0  L 2931 347  L 2931 1631  Q 2931 2084 2911 2256  Q 2891 2428 2841 2509  Q 2775 2619 2662 2680  Q 2550 2741 2406 2741  Q 2056 2741 1856 2470  Q 1656 2200 1656 1722  L 1656 0  L 538 0  L 538 3500  L 1656 3500  L 1656 2988  Q 1909 3294 2193 3439  Q 2478 3584 2822 3584  Q 3428 3584 3742 3212  Q 4056 2841 4056 2131  z " transform="scale(0.015625)" />
      <path id="DejaVuSans-Bold-75" d="M 500 1363  L 500 3500  L 1625 3500  L 1625 3150  Q 1625 2866 1622 2436  Q 1619 2006 1619 1863  Q 1619 1441 1641 1255  Q 1663 1069 1716 984  Q 1784 875 1895 815  Q 2006 756 2150 756  Q 2500 756 2700 1025  Q 2900 1294 2900 1772  L 2900 3500  L 4019 3500  L 4019 0  L 2900 0  L 2900 506  Q 2647 200 2364 54  Q 2081 -91 1741 -91  Q 1134 -91 817 281  Q 500 653 500 1363  z " transform="scale(0.015625)" />
      <path id="DejaVuSans-Bold-65" d="M 4031 1759  L 4031 1441  L 1416 1441  Q 1456 1047 1700 850  Q 1944 653 2381 653  Q 2734 653 3104 758  Q 3475 863 3866 1075  L 3866 213  Q 3469 63 3072 -14  Q 2675 -91 2278 -91  Q 1328 -91 801 392  Q 275 875 275 1747  Q 275 2603 792 3093  Q 1309 3584 2216 3584  Q 3041 3584 3536 3087  Q 4031 2591 4031 1759  z M 2881 2131  Q 2881 2450 2695 2645  Q 2509 2841 2209 2841  Q 1884 2841 1681 2658  Q 1478 2475 1428 2131  L 2881 2131  z " transform="scale(0.015625)" />
      <path id="DejaVuSans-Bold-73" d="M 3272 3391  L 3272 2541  Q 2913 2691 2578 2766  Q 2244 2841 1947 2841  Q 1628 2841 1473 2761  Q 1319 2681 1319 2516  Q 1319 2381 1436 2309  Q 1553 2238 1856 2203  L 2053 2175  Q 2913 2066 3209 1816  Q 3506 1566 3506 1031  Q 3506 472 3093 190  Q 2681 -91 1863 -91  Q 1516 -91 1145 -36  Q 775 19 384 128  L 384 978  Q 719 816 1070 734  Q 1422 653 1784 653  Q 2113 653 2278 743  Q 2444 834 2444 1013  Q 2444 1163 2330 1236  Q 2216 1309 1875 1350  L 1678 1375  Q 931 1469 631 1722  Q 331 1975 331 2491  Q 331 3047 712 3315  Q 1094 3584 1881 3584  Q 2191 3584 2531 3537  Q 2872 3491 3272 3391  z " transform="scale(0.015625)" />
      <path id="DejaVuSans-Bold-64" d="M 2919 2988  L 2919 4863  L 4044 4863  L 4044 0  L 2919 0  L 2919 506  Q 2688 197 2409 53  Q 2131 -91 1766 -91  Q 1119 -91 703 423  Q 288 938 288 1747  Q 288 2556 703 3070  Q 1119 3584 1766 3584  Q 2128 3584 2408 3439  Q 2688 3294 2919 2988  z M 2181 722  Q 2541 722 2730 984  Q 2919 1247 2919 1747  Q 2919 2247 2730 2509  Q 2541 2772 2181 2772  Q 1825 2772 1636 2509  Q 1447 2247 1447 1747  Q 1447 1247 1636 984  Q 1825 722 2181 722  z " transform="scale(0.015625)" />
      <path id="DejaVuSans-Bold-79" d="M 78 3500  L 1197 3500  L 2138 1125  L 2938 3500  L 4056 3500  L 2584 -331  Q 2363 -916 2067 -1148  Q 1772 -1381 1288 -1381  L 641 -1381  L 641 -647  L 991 -647  Q 1275 -647 1404 -556  Q 1534 -466 1606 -231  L 1638 -134  L 78 3500  z " transform="scale(0.015625)" />
      <path id="DejaVuSans-Bold-62" d="M 2400 722  Q 2759 722 2948 984  Q 3138 1247 3138 1747  Q 3138 2247 2948 2509  Q 2759 2772 2400 2772  Q 2041 2772 1848 2508  Q 1656 2244 1656 1747  Q 1656 1250 1848 986  Q 2041 722 2400 722  z M 1656 2988  Q 1888 3294 2169 3439  Q 2450 3584 2816 3584  Q 3463 3584 3878 3070  Q 4294 2556 4294 1747  Q 4294 938 3878 423  Q 3463 -91 2816 -91  Q 2450 -91 2169 54  Q 1888 200 1656 506  L 1656 0  L 538 0  L 538 4863  L 1656 4863  L 1656 2988  z " transform="scale(0.015625)" />
      <path id="DejaVuSans-Bold-63" d="M 3366 3391  L 3366 2478  Q 3138 2634 2908 2709  Q 2678 2784 2431 2784  Q 1963 2784 1702 2511  Q 1441 2238 1441 1747  Q 1441 1256 1702 982  Q 1963 709 2431 709  Q 2694 709 2930 787  Q 3166 866 3366 1019  L 3366 103  Q 3103 6 2833 -42  Q 2563 -91 2291 -91  Q 1344 -91 809 395  Q 275 881 275 1747  Q 275 2613 809 3098  Q 1344 3584 2291 3584  Q 2566 3584 2833 3536  Q 3100 3488 3366 3391  z " transform="scale(0.015625)" />
      <path id="DejaVuSans-Bold-6f" d="M 2203 2784  Q 1831 2784 1636 2517  Q 1441 2250 1441 1747  Q 1441 1244 1636 976  Q 1831 709 2203 709  Q 2569 709 2762 976  Q 2956 1244 2956 1747  Q 2956 2250 2762 2517  Q 2569 2784 2203 2784  z M 2203 3584  Q 3106 3584 3614 3096  Q 4122 2609 4122 1747  Q 4122 884 3614 396  Q 3106 -91 2203 -91  Q 1297 -91 786 396  Q 275 884 275 1747  Q 275 2609 786 3096  Q 1297 3584 2203 3584  z " transform="scale(0.015625)" />
      <path id="DejaVuSans-Bold-76" d="M 97 3500  L 1216 3500  L 2088 1081  L 2956 3500  L 4078 3500  L 2700 0  L 1472 0  L 97 3500  z " transform="scale(0.015625)" />
      <path id="DejaVuSans-Bold-72" d="M 3138 2547  Q 2991 2616 2845 2648  Q 2700 2681 2553 2681  Q 2122 2681 1889 2404  Q 1656 2128 1656 1613  L 1656 0  L 538 0  L 538 3500  L 1656 3500  L 1656 2925  Q 1872 3269 2151 3426  Q 2431 3584 2822 3584  Q 2878 3584 2943 3579  Q 3009 3575 3134 3559  L 3138 2547  z " transform="scale(0.015625)" />
     </defs>
     <use ns4:href="#DejaVuSans-Bold-57" />
     <use ns4:href="#DejaVuSans-Bold-68" x="110.302734" />
     <use ns4:href="#DejaVuSans-Bold-61" x="181.494141" />
     <use ns4:href="#DejaVuSans-Bold-74" x="248.974609" />
     <use ns4:href="#DejaVuSans-Bold-20" x="296.777344" />
     <use ns4:href="#DejaVuSans-Bold-31" x="331.591797" />
     <use ns4:href="#DejaVuSans-Bold-35" x="401.171875" />
     <use ns4:href="#DejaVuSans-Bold-20" x="470.751953" />
     <use ns4:href="#DejaVuSans-Bold-6d" x="505.566406" />
     <use ns4:href="#DejaVuSans-Bold-69" x="609.765625" />
     <use ns4:href="#DejaVuSans-Bold-6e" x="644.042969" />
     <use ns4:href="#DejaVuSans-Bold-75" x="715.234375" />
     <use ns4:href="#DejaVuSans-Bold-74" x="786.425781" />
     <use ns4:href="#DejaVuSans-Bold-65" x="834.228516" />
     <use ns4:href="#DejaVuSans-Bold-73" x="902.050781" />
     <use ns4:href="#DejaVuSans-Bold-20" x="961.572266" />
     <use ns4:href="#DejaVuSans-Bold-61" x="996.386719" />
     <use ns4:href="#DejaVuSans-Bold-20" x="1063.867188" />
     <use ns4:href="#DejaVuSans-Bold-64" x="1098.681641" />
     <use ns4:href="#DejaVuSans-Bold-61" x="1170.263672" />
     <use ns4:href="#DejaVuSans-Bold-79" x="1234.619141" />
     <use ns4:href="#DejaVuSans-Bold-20" x="1299.804688" />
     <use ns4:href="#DejaVuSans-Bold-62" x="1334.619141" />
     <use ns4:href="#DejaVuSans-Bold-65" x="1406.201172" />
     <use ns4:href="#DejaVuSans-Bold-63" x="1474.023438" />
     <use ns4:href="#DejaVuSans-Bold-6f" x="1533.300781" />
     <use ns4:href="#DejaVuSans-Bold-6d" x="1602.001953" />
     <use ns4:href="#DejaVuSans-Bold-65" x="1706.201172" />
     <use ns4:href="#DejaVuSans-Bold-73" x="1774.023438" />
     <use ns4:href="#DejaVuSans-Bold-20" x="1833.544922" />
     <use ns4:href="#DejaVuSans-Bold-6f" x="1868.359375" />
     <use ns4:href="#DejaVuSans-Bold-76" x="1937.060547" />
     <use ns4:href="#DejaVuSans-Bold-65" x="2002.246094" />
     <use ns4:href="#DejaVuSans-Bold-72" x="2070.068359" />
     <use ns4:href="#DejaVuSans-Bold-20" x="2119.384766" />
     <use ns4:href="#DejaVuSans-Bold-74" x="2154.199219" />
     <use ns4:href="#DejaVuSans-Bold-69" x="2202.001953" />
     <use ns4:href="#DejaVuSans-Bold-6d" x="2236.279297" />
     <use ns4:href="#DejaVuSans-Bold-65" x="2340.478516" />
    </g>
   </g>
  </g>
  <g id="text_18">
   
   <g transform="translate(7.2 372.237813) scale(0.09 -0.09)">
    <defs>
     <path id="DejaVuSans-Oblique-53" d="M 3859 4513  L 3738 3897  Q 3422 4066 3111 4152  Q 2800 4238 2509 4238  Q 1944 4238 1609 3991  Q 1275 3744 1275 3334  Q 1275 3109 1398 2989  Q 1522 2869 2034 2731  L 2413 2638  Q 3053 2472 3303 2217  Q 3553 1963 3553 1503  Q 3553 797 2998 353  Q 2444 -91 1538 -91  Q 1166 -91 791 -17  Q 416 56 38 206  L 166 856  Q 513 641 861 531  Q 1209 422 1556 422  Q 2147 422 2503 684  Q 2859 947 2859 1369  Q 2859 1650 2717 1795  Q 2575 1941 2106 2059  L 1728 2156  Q 1081 2325 845 2545  Q 609 2766 609 3163  Q 609 3859 1145 4304  Q 1681 4750 2541 4750  Q 2875 4750 3203 4690  Q 3531 4631 3859 4513  z " transform="scale(0.015625)" />
     <path id="DejaVuSans-Oblique-6f" d="M 1625 -91  Q 1009 -91 651 289  Q 294 669 294 1325  Q 294 1706 417 2101  Q 541 2497 738 2766  Q 1047 3184 1428 3384  Q 1809 3584 2291 3584  Q 2888 3584 3255 3212  Q 3622 2841 3622 2241  Q 3622 1825 3500 1412  Q 3378 1000 3181 728  Q 2875 309 2494 109  Q 2113 -91 1625 -91  z M 891 1344  Q 891 869 1089 633  Q 1288 397 1691 397  Q 2269 397 2648 901  Q 3028 1406 3028 2181  Q 3028 2634 2825 2865  Q 2622 3097 2228 3097  Q 1903 3097 1650 2945  Q 1397 2794 1197 2484  Q 1050 2253 970 1956  Q 891 1659 891 1344  z " transform="scale(0.015625)" />
     <path id="DejaVuSans-Oblique-75" d="M 428 1388  L 838 3500  L 1416 3500  L 1006 1409  Q 975 1256 961 1147  Q 947 1038 947 966  Q 947 700 1109 554  Q 1272 409 1569 409  Q 2031 409 2368 721  Q 2706 1034 2809 1563  L 3194 3500  L 3769 3500  L 3091 0  L 2516 0  L 2631 550  Q 2388 244 2052 76  Q 1716 -91 1338 -91  Q 878 -91 622 161  Q 366 413 366 863  Q 366 956 381 1097  Q 397 1238 428 1388  z " transform="scale(0.015625)" />
     <path id="DejaVuSans-Oblique-72" d="M 2853 2969  Q 2766 3016 2653 3041  Q 2541 3066 2413 3066  Q 1953 3066 1609 2717  Q 1266 2369 1153 1784  L 800 0  L 225 0  L 909 3500  L 1484 3500  L 1375 2956  Q 1603 3259 1920 3421  Q 2238 3584 2597 3584  Q 2691 3584 2781 3573  Q 2872 3563 2963 3538  L 2853 2969  z " transform="scale(0.015625)" />
     <path id="DejaVuSans-Oblique-63" d="M 3431 3366  L 3316 2797  Q 3109 2947 2876 3022  Q 2644 3097 2394 3097  Q 2119 3097 1870 3000  Q 1622 2903 1453 2725  Q 1184 2453 1037 2087  Q 891 1722 891 1331  Q 891 859 1127 628  Q 1363 397 1844 397  Q 2081 397 2348 469  Q 2616 541 2906 684  L 2797 116  Q 2547 13 2283 -39  Q 2019 -91 1741 -91  Q 1044 -91 669 257  Q 294 606 294 1253  Q 294 1797 489 2255  Q 684 2713 1069 3078  Q 1331 3328 1684 3456  Q 2038 3584 2456 3584  Q 2700 3584 2940 3529  Q 3181 3475 3431 3366  z " transform="scale(0.015625)" />
     <path id="DejaVuSans-Oblique-65" d="M 3078 2063  Q 3088 2113 3092 2166  Q 3097 2219 3097 2272  Q 3097 2653 2873 2875  Q 2650 3097 2266 3097  Q 1838 3097 1509 2826  Q 1181 2556 1013 2059  L 3078 2063  z M 3578 1613  L 903 1613  Q 884 1494 878 1425  Q 872 1356 872 1306  Q 872 872 1139 634  Q 1406 397 1894 397  Q 2269 397 2603 481  Q 2938 566 3225 728  L 3116 159  Q 2806 34 2476 -28  Q 2147 -91 1806 -91  Q 1078 -91 686 257  Q 294 606 294 1247  Q 294 1794 489 2264  Q 684 2734 1063 3103  Q 1306 3334 1642 3459  Q 1978 3584 2356 3584  Q 2950 3584 3301 3228  Q 3653 2872 3653 2272  Q 3653 2128 3634 1964  Q 3616 1800 3578 1613  z " transform="scale(0.015625)" />
     <path id="DejaVuSans-Oblique-3a" d="M 978 3309  L 1638 3309  L 1484 2516  L 825 2516  L 978 3309  z M 488 794  L 1147 794  L 991 0  L 331 0  L 488 794  z " transform="scale(0.015625)" />
     <path id="DejaVuSans-Oblique-20" transform="scale(0.015625)" />
     <path id="DejaVuSans-Oblique-31" d="M 416 531  L 1447 531  L 2144 4122  L 978 3897  L 1088 4441  L 2247 4666  L 2881 4666  L 2075 531  L 3103 531  L 3003 0  L 313 0  L 416 531  z " transform="scale(0.015625)" />
     <path id="DejaVuSans-Oblique-35" d="M 3719 4666  L 3622 4141  L 1691 4141  L 1466 2988  Q 1609 3034 1757 3056  Q 1906 3078 2059 3078  Q 2706 3078 3081 2731  Q 3456 2384 3456 1791  Q 3456 1375 3264 994  Q 3072 613 2719 325  Q 2469 125 2108 17  Q 1747 -91 1319 -91  Q 1038 -91 744 -41  Q 450 9 128 109  L 244 697  Q 531 556 820 486  Q 1109 416 1403 416  Q 2013 416 2411 781  Q 2809 1147 2809 1697  Q 2809 2103 2548 2328  Q 2288 2553 1819 2553  Q 1572 2553 1305 2495  Q 1038 2438 756 2322  L 1209 4666  L 3719 4666  z " transform="scale(0.015625)" />
     <path id="DejaVuSans-Oblique-6d" d="M 5747 2113  L 5338 0  L 4763 0  L 5166 2094  Q 5191 2228 5203 2325  Q 5216 2422 5216 2491  Q 5216 2772 5059 2928  Q 4903 3084 4622 3084  Q 4203 3084 3875 2770  Q 3547 2456 3450 1953  L 3066 0  L 2491 0  L 2900 2094  Q 2925 2209 2937 2307  Q 2950 2406 2950 2484  Q 2950 2769 2794 2926  Q 2638 3084 2363 3084  Q 1938 3084 1609 2770  Q 1281 2456 1184 1953  L 800 0  L 225 0  L 909 3500  L 1484 3500  L 1375 2956  Q 1609 3263 1923 3423  Q 2238 3584 2597 3584  Q 2978 3584 3223 3384  Q 3469 3184 3519 2828  Q 3781 3197 4126 3390  Q 4472 3584 4856 3584  Q 5306 3584 5551 3325  Q 5797 3066 5797 2591  Q 5797 2488 5784 2364  Q 5772 2241 5747 2113  z " transform="scale(0.015625)" />
     <path id="DejaVuSans-Oblique-69" d="M 1172 4863  L 1747 4863  L 1606 4134  L 1031 4134  L 1172 4863  z M 909 3500  L 1484 3500  L 800 0  L 225 0  L 909 3500  z " transform="scale(0.015625)" />
     <path id="DejaVuSans-Oblique-6e" d="M 3566 2113  L 3156 0  L 2578 0  L 2988 2091  Q 3016 2238 3031 2350  Q 3047 2463 3047 2528  Q 3047 2791 2881 2937  Q 2716 3084 2419 3084  Q 1956 3084 1622 2776  Q 1288 2469 1184 1941  L 800 0  L 225 0  L 903 3500  L 1478 3500  L 1363 2950  Q 1603 3253 1940 3418  Q 2278 3584 2650 3584  Q 3113 3584 3367 3334  Q 3622 3084 3622 2631  Q 3622 2519 3608 2391  Q 3594 2263 3566 2113  z " transform="scale(0.015625)" />
     <path id="DejaVuSans-Oblique-2f" d="M 2175 4666  L 2731 4666  L 84 -594  L -469 -594  L 2175 4666  z " transform="scale(0.015625)" />
     <path id="DejaVuSans-Oblique-64" d="M 2675 525  Q 2444 222 2128 65  Q 1813 -91 1428 -91  Q 903 -91 598 267  Q 294 625 294 1247  Q 294 1766 478 2236  Q 663 2706 1013 3078  Q 1244 3325 1534 3454  Q 1825 3584 2144 3584  Q 2481 3584 2739 3421  Q 2997 3259 3138 2956  L 3513 4863  L 4091 4863  L 3144 0  L 2566 0  L 2675 525  z M 891 1350  Q 891 897 1095 644  Q 1300 391 1663 391  Q 1931 391 2161 520  Q 2391 650 2566 903  Q 2750 1166 2856 1509  Q 2963 1853 2963 2188  Q 2963 2622 2758 2865  Q 2553 3109 2194 3109  Q 1922 3109 1687 2981  Q 1453 2853 1288 2613  Q 1106 2353 998 2009  Q 891 1666 891 1350  z " transform="scale(0.015625)" />
     <path id="DejaVuSans-Oblique-61" d="M 3438 1997  L 3047 0  L 2472 0  L 2578 531  Q 2325 219 2001 64  Q 1678 -91 1281 -91  Q 834 -91 548 182  Q 263 456 263 884  Q 263 1497 752 1853  Q 1241 2209 2100 2209  L 2900 2209  L 2931 2363  Q 2938 2388 2941 2417  Q 2944 2447 2944 2509  Q 2944 2788 2717 2942  Q 2491 3097 2081 3097  Q 1800 3097 1504 3025  Q 1209 2953 897 2809  L 997 3341  Q 1322 3463 1633 3523  Q 1944 3584 2234 3584  Q 2853 3584 3176 3315  Q 3500 3047 3500 2534  Q 3500 2431 3484 2292  Q 3469 2153 3438 1997  z M 2816 1759  L 2241 1759  Q 1534 1759 1195 1570  Q 856 1381 856 984  Q 856 709 1029 553  Q 1203 397 1509 397  Q 1978 397 2328 733  Q 2678 1069 2791 1631  L 2816 1759  z " transform="scale(0.015625)" />
     <path id="DejaVuSans-Oblique-79" d="M 1588 -325  Q 1188 -997 936 -1164  Q 684 -1331 294 -1331  L -159 -1331  L -63 -850  L 269 -850  Q 509 -850 678 -719  Q 847 -588 1056 -206  L 1234 128  L 459 3500  L 1069 3500  L 1650 819  L 3256 3500  L 3859 3500  L 1588 -325  z " transform="scale(0.015625)" />
     <path id="DejaVuSans-Oblique-d7" d="M 4488 3438  L 3059 2003  L 4488 575  L 4116 197  L 2681 1631  L 1247 197  L 878 575  L 2303 2003  L 878 3438  L 1247 3816  L 2681 2381  L 4116 3816  L 4488 3438  z " transform="scale(0.015625)" />
     <path id="DejaVuSans-Oblique-37" d="M 819 4666  L 4013 4666  L 3956 4397  L 1288 0  L 594 0  L 3116 4134  L 716 4134  L 819 4666  z " transform="scale(0.015625)" />
     <path id="DejaVuSans-Oblique-73" d="M 3200 3397  L 3091 2853  Q 2863 2978 2609 3040  Q 2356 3103 2088 3103  Q 1634 3103 1373 2948  Q 1113 2794 1113 2528  Q 1113 2219 1719 2053  Q 1766 2041 1788 2034  L 1972 1978  Q 2547 1819 2739 1644  Q 2931 1469 2931 1166  Q 2931 609 2489 259  Q 2047 -91 1331 -91  Q 1053 -91 747 -37  Q 441 16 72 128  L 184 722  Q 500 559 806 475  Q 1113 391 1394 391  Q 1816 391 2080 572  Q 2344 753 2344 1031  Q 2344 1331 1650 1516  L 1591 1531  L 1394 1581  Q 956 1697 753 1886  Q 550 2075 550 2369  Q 550 2928 970 3256  Q 1391 3584 2113 3584  Q 2397 3584 2667 3537  Q 2938 3491 3200 3397  z " transform="scale(0.015625)" />
     <path id="DejaVuSans-Oblique-77" d="M 544 3500  L 1113 3500  L 1259 684  L 2566 3500  L 3231 3500  L 3425 684  L 4666 3500  L 5241 3500  L 3641 0  L 2969 0  L 2797 2900  L 1459 0  L 781 0  L 544 3500  z " transform="scale(0.015625)" />
     <path id="DejaVuSans-Oblique-6b" d="M 1172 4863  L 1747 4863  L 1197 2028  L 3169 3500  L 3916 3500  L 1716 1825  L 3322 0  L 2625 0  L 1131 1709  L 800 0  L 225 0  L 1172 4863  z " transform="scale(0.015625)" />
     <path id="DejaVuSans-Oblique-6c" d="M 1172 4863  L 1747 4863  L 800 0  L 225 0  L 1172 4863  z " transform="scale(0.015625)" />
     <path id="DejaVuSans-Oblique-74" d="M 2706 3500  L 2619 3053  L 1472 3053  L 1100 1153  Q 1081 1047 1072 975  Q 1063 903 1063 863  Q 1063 663 1183 572  Q 1303 481 1569 481  L 2150 481  L 2053 0  L 1503 0  Q 991 0 739 200  Q 488 400 488 806  Q 488 878 497 964  Q 506 1050 525 1153  L 897 3053  L 409 3053  L 500 3500  L 978 3500  L 1172 4494  L 1747 4494  L 1556 3500  L 2706 3500  z " transform="scale(0.015625)" />
     <path id="DejaVuSans-Oblique-2014" d="M 356 1978  L 6131 1978  L 6044 1528  L 269 1528  L 356 1978  z " transform="scale(0.015625)" />
     <path id="DejaVuSans-Oblique-70" d="M 3175 2156  Q 3175 2616 2975 2859  Q 2775 3103 2400 3103  Q 2144 3103 1911 2972  Q 1678 2841 1497 2591  Q 1319 2344 1212 1994  Q 1106 1644 1106 1300  Q 1106 863 1306 627  Q 1506 391 1875 391  Q 2147 391 2380 519  Q 2613 647 2778 891  Q 2956 1147 3065 1494  Q 3175 1841 3175 2156  z M 1394 2969  Q 1625 3272 1939 3428  Q 2253 3584 2638 3584  Q 3175 3584 3472 3232  Q 3769 2881 3769 2247  Q 3769 1728 3584 1258  Q 3400 788 3053 416  Q 2822 169 2531 39  Q 2241 -91 1919 -91  Q 1547 -91 1294 64  Q 1041 219 916 525  L 556 -1331  L -19 -1331  L 922 3500  L 1497 3500  L 1394 2969  z " transform="scale(0.015625)" />
     <path id="DejaVuSans-Oblique-6a" d="M 928 3500  L 1503 3500  L 813 -63  L 809 -78  Q 694 -675 544 -897  Q 403 -1106 132 -1218  Q -138 -1331 -506 -1331  L -722 -1331  L -628 -844  L -481 -844  Q -144 -844 -1 -703  Q 141 -563 238 -63  L 928 3500  z M 1197 4863  L 1772 4863  L 1631 4134  L 1056 4134  L 1197 4863  z " transform="scale(0.015625)" />
     <path id="DejaVuSans-Oblique-2e" d="M 525 794  L 1184 794  L 1031 0  L 372 0  L 525 794  z " transform="scale(0.015625)" />
     <path id="DejaVuSans-Oblique-39" d="M 281 103  L 397 678  Q 578 559 809 496  Q 1041 434 1306 434  Q 1953 434 2348 843  Q 2744 1253 2938 2119  Q 2706 1853 2401 1714  Q 2097 1575 1747 1575  Q 1178 1575 842 1904  Q 506 2234 506 2791  Q 506 3247 672 3639  Q 838 4031 1159 4325  Q 1378 4531 1665 4640  Q 1953 4750 2278 4750  Q 2925 4750 3300 4339  Q 3675 3928 3675 3219  Q 3675 2559 3501 1943  Q 3328 1328 3022 878  Q 2697 403 2240 156  Q 1784 -91 1228 -91  Q 988 -91 748 -42  Q 509 6 281 103  z M 1131 2938  Q 1131 2541 1337 2308  Q 1544 2075 1894 2075  Q 2378 2075 2706 2447  Q 3034 2819 3034 3372  Q 3034 3784 2831 4017  Q 2628 4250 2272 4250  Q 1788 4250 1459 3870  Q 1131 3491 1131 2938  z " transform="scale(0.015625)" />
     <path id="DejaVuSans-Oblique-68" d="M 3566 2113  L 3156 0  L 2578 0  L 2988 2091  Q 3016 2238 3031 2350  Q 3047 2463 3047 2528  Q 3047 2791 2881 2937  Q 2716 3084 2419 3084  Q 1956 3084 1617 2771  Q 1278 2459 1178 1941  L 800 0  L 225 0  L 1172 4863  L 1747 4863  L 1375 2950  Q 1594 3244 1934 3414  Q 2275 3584 2650 3584  Q 3113 3584 3367 3334  Q 3622 3084 3622 2631  Q 3622 2519 3608 2391  Q 3594 2263 3566 2113  z " transform="scale(0.015625)" />
     <path id="DejaVuSans-Oblique-76" d="M 459 3500  L 1069 3500  L 1581 525  L 3256 3500  L 3866 3500  L 1875 0  L 1100 0  L 459 3500  z " transform="scale(0.015625)" />
     <path id="DejaVuSans-Oblique-67" d="M 3816 3500  L 3219 434  Q 3047 -456 2561 -893  Q 2075 -1331 1253 -1331  Q 950 -1331 690 -1286  Q 431 -1241 206 -1147  L 313 -588  Q 525 -725 762 -790  Q 1000 -856 1269 -856  Q 1816 -856 2167 -557  Q 2519 -259 2631 300  L 2681 563  Q 2441 288 2122 144  Q 1803 0 1434 0  Q 903 0 598 351  Q 294 703 294 1319  Q 294 1803 478 2267  Q 663 2731 997 3091  Q 1219 3328 1514 3456  Q 1809 3584 2131 3584  Q 2484 3584 2746 3420  Q 3009 3256 3138 2956  L 3238 3500  L 3816 3500  z M 2950 2216  Q 2950 2641 2750 2872  Q 2550 3103 2181 3103  Q 1953 3103 1747 3012  Q 1541 2922 1394 2759  Q 1156 2491 1023 2127  Q 891 1763 891 1375  Q 891 944 1092 712  Q 1294 481 1672 481  Q 2219 481 2584 976  Q 2950 1472 2950 2216  z " transform="scale(0.015625)" />
     <path id="DejaVuSans-Oblique-2c" d="M 575 794  L 1234 794  L 1131 256  L 422 -744  L 19 -744  L 469 256  L 575 794  z " transform="scale(0.015625)" />
     <path id="DejaVuSans-Oblique-62" d="M 3169 2138  Q 3169 2591 2961 2847  Q 2753 3103 2388 3103  Q 2122 3103 1889 2973  Q 1656 2844 1484 2597  Q 1303 2338 1198 1995  Q 1094 1653 1094 1313  Q 1094 881 1298 636  Q 1503 391 1863 391  Q 2134 391 2365 517  Q 2597 644 2772 891  Q 2950 1147 3059 1487  Q 3169 1828 3169 2138  z M 1381 2969  Q 1594 3256 1914 3420  Q 2234 3584 2584 3584  Q 3122 3584 3439 3221  Q 3756 2859 3756 2241  Q 3756 1734 3570 1259  Q 3384 784 3041 416  Q 2816 172 2522 40  Q 2228 -91 1906 -91  Q 1566 -91 1316 65  Q 1066 222 909 531  L 806 0  L 231 0  L 1178 4863  L 1753 4863  L 1381 2969  z " transform="scale(0.015625)" />
     <path id="DejaVuSans-Oblique-7a" d="M 744 3500  L 3475 3500  L 3372 2975  L 738 459  L 2913 459  L 2822 0  L -19 0  L 84 525  L 2719 3041  L 653 3041  L 744 3500  z " transform="scale(0.015625)" />
    </defs>
    <use ns4:href="#DejaVuSans-Oblique-53" />
    <use ns4:href="#DejaVuSans-Oblique-6f" x="63.476562" />
    <use ns4:href="#DejaVuSans-Oblique-75" x="124.658203" />
    <use ns4:href="#DejaVuSans-Oblique-72" x="188.037109" />
    <use ns4:href="#DejaVuSans-Oblique-63" x="229.150391" />
    <use ns4:href="#DejaVuSans-Oblique-65" x="284.130859" />
    <use ns4:href="#DejaVuSans-Oblique-3a" x="345.654297" />
    <use ns4:href="#DejaVuSans-Oblique-20" x="379.345703" />
    <use ns4:href="#DejaVuSans-Oblique-31" x="411.132812" />
    <use ns4:href="#DejaVuSans-Oblique-35" x="474.755859" />
    <use ns4:href="#DejaVuSans-Oblique-20" x="538.378906" />
    <use ns4:href="#DejaVuSans-Oblique-6d" x="570.166016" />
    <use ns4:href="#DejaVuSans-Oblique-69" x="667.578125" />
    <use ns4:href="#DejaVuSans-Oblique-6e" x="695.361328" />
    <use ns4:href="#DejaVuSans-Oblique-2f" x="758.740234" />
    <use ns4:href="#DejaVuSans-Oblique-64" x="792.431641" />
    <use ns4:href="#DejaVuSans-Oblique-61" x="855.908203" />
    <use ns4:href="#DejaVuSans-Oblique-79" x="917.1875" />
    <use ns4:href="#DejaVuSans-Oblique-20" x="976.367188" />
    <use ns4:href="#DejaVuSans-Oblique-d7" x="1008.154297" />
    <use ns4:href="#DejaVuSans-Oblique-20" x="1091.943359" />
    <use ns4:href="#DejaVuSans-Oblique-37" x="1123.730469" />
    <use ns4:href="#DejaVuSans-Oblique-20" x="1187.353516" />
    <use ns4:href="#DejaVuSans-Oblique-64" x="1219.140625" />
    <use ns4:href="#DejaVuSans-Oblique-61" x="1282.617188" />
    <use ns4:href="#DejaVuSans-Oblique-79" x="1343.896484" />
    <use ns4:href="#DejaVuSans-Oblique-73" x="1403.076172" />
    <use ns4:href="#DejaVuSans-Oblique-2f" x="1455.175781" />
    <use ns4:href="#DejaVuSans-Oblique-77" x="1488.867188" />
    <use ns4:href="#DejaVuSans-Oblique-65" x="1570.654297" />
    <use ns4:href="#DejaVuSans-Oblique-65" x="1632.177734" />
    <use ns4:href="#DejaVuSans-Oblique-6b" x="1693.701172" />
    <use ns4:href="#DejaVuSans-Oblique-20" x="1751.611328" />
    <use ns4:href="#DejaVuSans-Oblique-63" x="1783.398438" />
    <use ns4:href="#DejaVuSans-Oblique-61" x="1838.378906" />
    <use ns4:href="#DejaVuSans-Oblique-6c" x="1899.658203" />
    <use ns4:href="#DejaVuSans-Oblique-63" x="1927.441406" />
    <use ns4:href="#DejaVuSans-Oblique-75" x="1982.421875" />
    <use ns4:href="#DejaVuSans-Oblique-6c" x="2045.800781" />
    <use ns4:href="#DejaVuSans-Oblique-61" x="2073.583984" />
    <use ns4:href="#DejaVuSans-Oblique-74" x="2134.863281" />
    <use ns4:href="#DejaVuSans-Oblique-69" x="2174.072266" />
    <use ns4:href="#DejaVuSans-Oblique-6f" x="2201.855469" />
    <use ns4:href="#DejaVuSans-Oblique-6e" x="2263.037109" />
    <use ns4:href="#DejaVuSans-Oblique-20" x="2326.416016" />
    <use ns4:href="#DejaVuSans-Oblique-2014" x="2358.203125" />
    <use ns4:href="#DejaVuSans-Oblique-20" x="2458.203125" />
    <use ns4:href="#DejaVuSans-Oblique-53" x="2489.990234" />
    <use ns4:href="#DejaVuSans-Oblique-69" x="2553.466797" />
    <use ns4:href="#DejaVuSans-Oblique-6d" x="2581.25" />
    <use ns4:href="#DejaVuSans-Oblique-70" x="2678.662109" />
    <use ns4:href="#DejaVuSans-Oblique-6c" x="2742.138672" />
    <use ns4:href="#DejaVuSans-Oblique-65" x="2769.921875" />
    <use ns4:href="#DejaVuSans-Oblique-20" x="2831.445312" />
    <use ns4:href="#DejaVuSans-Oblique-6c" x="2863.232422" />
    <use ns4:href="#DejaVuSans-Oblique-69" x="2891.015625" />
    <use ns4:href="#DejaVuSans-Oblique-6e" x="2918.798828" />
    <use ns4:href="#DejaVuSans-Oblique-65" x="2982.177734" />
    <use ns4:href="#DejaVuSans-Oblique-61" x="3043.701172" />
    <use ns4:href="#DejaVuSans-Oblique-72" x="3104.980469" />
    <use ns4:href="#DejaVuSans-Oblique-20" x="3146.09375" />
    <use ns4:href="#DejaVuSans-Oblique-70" x="3177.880859" />
    <use ns4:href="#DejaVuSans-Oblique-72" x="3241.357422" />
    <use ns4:href="#DejaVuSans-Oblique-6f" x="3282.470703" />
    <use ns4:href="#DejaVuSans-Oblique-6a" x="3343.652344" />
    <use ns4:href="#DejaVuSans-Oblique-65" x="3371.435547" />
    <use ns4:href="#DejaVuSans-Oblique-63" x="3432.958984" />
    <use ns4:href="#DejaVuSans-Oblique-74" x="3487.939453" />
    <use ns4:href="#DejaVuSans-Oblique-69" x="3527.148438" />
    <use ns4:href="#DejaVuSans-Oblique-6f" x="3554.931641" />
    <use ns4:href="#DejaVuSans-Oblique-6e" x="3616.113281" />
    <use ns4:href="#DejaVuSans-Oblique-2e" x="3679.492188" />
    <use ns4:href="#DejaVuSans-Oblique-20" x="3711.279297" />
    <use ns4:href="#DejaVuSans-Oblique-39" x="3743.066406" />
    <use ns4:href="#DejaVuSans-Oblique-31" x="3806.689453" />
    <use ns4:href="#DejaVuSans-Oblique-20" x="3870.3125" />
    <use ns4:href="#DejaVuSans-Oblique-68" x="3902.099609" />
    <use ns4:href="#DejaVuSans-Oblique-6f" x="3965.478516" />
    <use ns4:href="#DejaVuSans-Oblique-75" x="4026.660156" />
    <use ns4:href="#DejaVuSans-Oblique-72" x="4090.039062" />
    <use ns4:href="#DejaVuSans-Oblique-73" x="4131.152344" />
    <use ns4:href="#DejaVuSans-Oblique-20" x="4183.251953" />
    <use ns4:href="#DejaVuSans-Oblique-6f" x="4215.039062" />
    <use ns4:href="#DejaVuSans-Oblique-76" x="4276.220703" />
    <use ns4:href="#DejaVuSans-Oblique-65" x="4335.400391" />
    <use ns4:href="#DejaVuSans-Oblique-72" x="4396.923828" />
    <use ns4:href="#DejaVuSans-Oblique-20" x="4438.037109" />
    <use ns4:href="#DejaVuSans-Oblique-61" x="4469.824219" />
    <use ns4:href="#DejaVuSans-Oblique-20" x="4531.103516" />
    <use ns4:href="#DejaVuSans-Oblique-79" x="4562.890625" />
    <use ns4:href="#DejaVuSans-Oblique-65" x="4622.070312" />
    <use ns4:href="#DejaVuSans-Oblique-61" x="4683.59375" />
    <use ns4:href="#DejaVuSans-Oblique-72" x="4744.873047" />
    <use ns4:href="#DejaVuSans-Oblique-20" x="4785.986328" />
    <use ns4:href="#DejaVuSans-Oblique-2014" x="4817.773438" />
    <use ns4:href="#DejaVuSans-Oblique-20" x="4917.773438" />
    <use ns4:href="#DejaVuSans-Oblique-65" x="4949.560547" />
    <use ns4:href="#DejaVuSans-Oblique-6e" x="5011.083984" />
    <use ns4:href="#DejaVuSans-Oblique-6f" x="5074.462891" />
    <use ns4:href="#DejaVuSans-Oblique-75" x="5135.644531" />
    <use ns4:href="#DejaVuSans-Oblique-67" x="5199.023438" />
    <use ns4:href="#DejaVuSans-Oblique-68" x="5262.5" />
    <use ns4:href="#DejaVuSans-Oblique-20" x="5325.878906" />
    <use ns4:href="#DejaVuSans-Oblique-74" x="5357.666016" />
    <use ns4:href="#DejaVuSans-Oblique-6f" x="5396.875" />
    <use ns4:href="#DejaVuSans-Oblique-20" x="5458.056641" />
    <use ns4:href="#DejaVuSans-Oblique-6c" x="5489.84375" />
    <use ns4:href="#DejaVuSans-Oblique-65" x="5517.626953" />
    <use ns4:href="#DejaVuSans-Oblique-61" x="5579.150391" />
    <use ns4:href="#DejaVuSans-Oblique-72" x="5640.429688" />
    <use ns4:href="#DejaVuSans-Oblique-6e" x="5681.542969" />
    <use ns4:href="#DejaVuSans-Oblique-20" x="5744.921875" />
    <use ns4:href="#DejaVuSans-Oblique-61" x="5776.708984" />
    <use ns4:href="#DejaVuSans-Oblique-20" x="5837.988281" />
    <use ns4:href="#DejaVuSans-Oblique-6e" x="5869.775391" />
    <use ns4:href="#DejaVuSans-Oblique-65" x="5933.154297" />
    <use ns4:href="#DejaVuSans-Oblique-77" x="5994.677734" />
    <use ns4:href="#DejaVuSans-Oblique-20" x="6076.464844" />
    <use ns4:href="#DejaVuSans-Oblique-73" x="6108.251953" />
    <use ns4:href="#DejaVuSans-Oblique-6b" x="6160.351562" />
    <use ns4:href="#DejaVuSans-Oblique-69" x="6218.261719" />
    <use ns4:href="#DejaVuSans-Oblique-6c" x="6246.044922" />
    <use ns4:href="#DejaVuSans-Oblique-6c" x="6273.828125" />
    <use ns4:href="#DejaVuSans-Oblique-2c" x="6301.611328" />
    <use ns4:href="#DejaVuSans-Oblique-20" x="6333.398438" />
    <use ns4:href="#DejaVuSans-Oblique-62" x="6365.185547" />
    <use ns4:href="#DejaVuSans-Oblique-75" x="6428.662109" />
    <use ns4:href="#DejaVuSans-Oblique-69" x="6492.041016" />
    <use ns4:href="#DejaVuSans-Oblique-6c" x="6519.824219" />
    <use ns4:href="#DejaVuSans-Oblique-64" x="6547.607422" />
    <use ns4:href="#DejaVuSans-Oblique-20" x="6611.083984" />
    <use ns4:href="#DejaVuSans-Oblique-61" x="6642.871094" />
    <use ns4:href="#DejaVuSans-Oblique-20" x="6704.150391" />
    <use ns4:href="#DejaVuSans-Oblique-70" x="6735.9375" />
    <use ns4:href="#DejaVuSans-Oblique-72" x="6799.414062" />
    <use ns4:href="#DejaVuSans-Oblique-6f" x="6840.527344" />
    <use ns4:href="#DejaVuSans-Oblique-74" x="6901.708984" />
    <use ns4:href="#DejaVuSans-Oblique-6f" x="6940.917969" />
    <use ns4:href="#DejaVuSans-Oblique-74" x="7002.099609" />
    <use ns4:href="#DejaVuSans-Oblique-79" x="7041.308594" />
    <use ns4:href="#DejaVuSans-Oblique-70" x="7100.488281" />
    <use ns4:href="#DejaVuSans-Oblique-65" x="7163.964844" />
    <use ns4:href="#DejaVuSans-Oblique-2c" x="7225.488281" />
    <use ns4:href="#DejaVuSans-Oblique-20" x="7257.275391" />
    <use ns4:href="#DejaVuSans-Oblique-6f" x="7289.0625" />
    <use ns4:href="#DejaVuSans-Oblique-72" x="7350.244141" />
    <use ns4:href="#DejaVuSans-Oblique-20" x="7391.357422" />
    <use ns4:href="#DejaVuSans-Oblique-77" x="7423.144531" />
    <use ns4:href="#DejaVuSans-Oblique-72" x="7504.931641" />
    <use ns4:href="#DejaVuSans-Oblique-69" x="7546.044922" />
    <use ns4:href="#DejaVuSans-Oblique-74" x="7573.828125" />
    <use ns4:href="#DejaVuSans-Oblique-65" x="7613.037109" />
    <use ns4:href="#DejaVuSans-Oblique-20" x="7674.560547" />
    <use ns4:href="#DejaVuSans-Oblique-61" x="7706.347656" />
    <use ns4:href="#DejaVuSans-Oblique-20" x="7767.626953" />
    <use ns4:href="#DejaVuSans-Oblique-64" x="7799.414062" />
    <use ns4:href="#DejaVuSans-Oblique-6f" x="7862.890625" />
    <use ns4:href="#DejaVuSans-Oblique-7a" x="7924.072266" />
    <use ns4:href="#DejaVuSans-Oblique-65" x="7976.5625" />
    <use ns4:href="#DejaVuSans-Oblique-6e" x="8038.085938" />
    <use ns4:href="#DejaVuSans-Oblique-20" x="8101.464844" />
    <use ns4:href="#DejaVuSans-Oblique-65" x="8133.251953" />
    <use ns4:href="#DejaVuSans-Oblique-73" x="8194.775391" />
    <use ns4:href="#DejaVuSans-Oblique-73" x="8246.875" />
    <use ns4:href="#DejaVuSans-Oblique-61" x="8298.974609" />
    <use ns4:href="#DejaVuSans-Oblique-79" x="8360.253906" />
    <use ns4:href="#DejaVuSans-Oblique-73" x="8419.433594" />
    <use ns4:href="#DejaVuSans-Oblique-2e" x="8471.533203" />
   </g>
  </g>
 </g>
 <defs>
  <clipPath id="pcd05f01c6d">
   <rect x="146.84625" y="33.837813" width="502.2" height="277.2" />
  </clipPath>
 </defs>
</svg>