<svg xmlns="http://www.w3.org/2000/svg" xmlns:dc="http://purl.org/dc/elements/1.1/" xmlns:ns2="http://creativecommons.org/ns#" xmlns:ns4="http://www.w3.org/1999/xlink" xmlns:rdf="http://www.w3.org/1999/02/22-rdf-syntax-ns#" width="551.584687pt" height="414.429531pt" viewBox="0 0 551.584687 414.429531" version="1.1">
 <title>How India's internet time is split</title><desc>How India's internet time is split. Source: NCAER IHDS Wave 3 (2024-25). Self-reported usage shares; actual minutes may differ. Illustrative allocation.</desc><metadata>
  <rdf:RDF>
   <ns2:Work>
    <dc:type rdf:resource="http://purl.org/dc/dcmitype/StillImage" />
    <dc:date>2026-07-05T18:03:01.318187</dc:date>
    <dc:format>image/svg+xml</dc:format>
    <dc:creator>
     <ns2:Agent>
      <dc:title>Matplotlib v3.9.4, https://matplotlib.org/</dc:title>
     </ns2:Agent>
    </dc:creator>
   </ns2:Work>
  </rdf:RDF>
 </metadata>
 <defs>
  <style type="text/css">*{stroke-linejoin: round; stroke-linecap: butt}</style>
 </defs>
 <g id="figure_1">
  <g id="patch_1">
   <path d="M 0 414.429531  L 551.584687 414.429531  L 551.584687 0  L 0 0  z " style="fill: #ffffff" />
  </g>
  <g id="axes_1">
   <g id="patch_2">
    <path d="M 282.992344 67.101812  C 259.874001 67.101812 237.149915 73.126995 217.068594 84.581179  C 196.987273 96.035362 180.233644 112.527871 168.465451 132.426801  C 156.697257 152.325731 150.315885 174.952374 149.952758 198.067865  C 149.589632 221.183356 155.257138 243.999278 166.394486 264.258036  C 177.531833 284.516793 193.759154 301.527407 213.470782 313.606707  C 233.182411 325.686007 255.706029 332.421995 278.812964 333.148158  C 301.9199 333.874321 324.822028 328.56589 345.253224 317.748126  C 365.68442 306.930363 382.947822 290.972234 395.335248 271.452771  L 282.992344 200.157813  z " style="fill: #2563eb" />
   </g>
   <g id="patch_3">
    <path d="M 395.335232 271.452791  C 407.343348 252.531032 414.378626 230.878665 415.785788 208.512448  C 417.192942 186.146232 412.926894 163.782847 403.384989 143.505281  L 282.992344 200.157813  z " style="fill: #7c3aed" />
   </g>
   <g id="patch_4">
    <path d="M 403.384989 143.505281  C 398.632642 133.40603 392.628339 123.944782 385.513713 115.344678  C 378.399088 106.744575 370.230505 99.073773 361.200634 92.513199  L 282.992344 200.157813  z " style="fill: #059669" />
   </g>
   <g id="patch_5">
    <path d="M 361.200634 92.513199  C 355.561478 88.416115 349.609081 84.768491 343.398431 81.604008  C 337.187777 78.439526 330.738046 75.767971 324.108823 73.61401  L 282.992344 200.157813  z " style="fill: #d97706" />
   </g>
   <g id="patch_6">
    <path d="M 324.108823 73.61401  C 317.479619 71.460056 310.691392 69.830349 303.806852 68.73995  C 296.922312 67.64955 289.962719 67.101812 282.992362 67.101812  L 282.992344 200.157813  z " style="fill: #dc2626" />
   </g>
   <g id="matplotlib.axis_1" />
   <g id="matplotlib.axis_2" />
   <g id="text_1">
    
    <g transform="translate(7.891673 272.145458) scale(0.1 -0.1)">
     <defs>
      <path id="DejaVuSans-45" d="M 628 4666  L 3578 4666  L 3578 4134  L 1259 4134  L 1259 2753  L 3481 2753  L 3481 2222  L 1259 2222  L 1259 531  L 3634 531  L 3634 0  L 628 0  L 628 4666  z " transform="scale(0.015625)" />
      <path id="DejaVuSans-6e" d="M 3513 2113  L 3513 0  L 2938 0  L 2938 2094  Q 2938 2591 2744 2837  Q 2550 3084 2163 3084  Q 1697 3084 1428 2787  Q 1159 2491 1159 1978  L 1159 0  L 581 0  L 581 3500  L 1159 3500  L 1159 2956  Q 1366 3272 1645 3428  Q 1925 3584 2291 3584  Q 2894 3584 3203 3211  Q 3513 2838 3513 2113  z " transform="scale(0.015625)" />
      <path id="DejaVuSans-74" d="M 1172 4494  L 1172 3500  L 2356 3500  L 2356 3053  L 1172 3053  L 1172 1153  Q 1172 725 1289 603  Q 1406 481 1766 481  L 2356 481  L 2356 0  L 1766 0  Q 1100 0 847 248  Q 594 497 594 1153  L 594 3053  L 172 3053  L 172 3500  L 594 3500  L 594 4494  L 1172 4494  z " transform="scale(0.015625)" />
      <path id="DejaVuSans-65" d="M 3597 1894  L 3597 1613  L 953 1613  Q 991 1019 1311 708  Q 1631 397 2203 397  Q 2534 397 2845 478  Q 3156 559 3463 722  L 3463 178  Q 3153 47 2828 -22  Q 2503 -91 2169 -91  Q 1331 -91 842 396  Q 353 884 353 1716  Q 353 2575 817 3079  Q 1281 3584 2069 3584  Q 2775 3584 3186 3129  Q 3597 2675 3597 1894  z M 3022 2063  Q 3016 2534 2758 2815  Q 2500 3097 2075 3097  Q 1594 3097 1305 2825  Q 1016 2553 972 2059  L 3022 2063  z " transform="scale(0.015625)" />
      <path id="DejaVuSans-72" d="M 2631 2963  Q 2534 3019 2420 3045  Q 2306 3072 2169 3072  Q 1681 3072 1420 2755  Q 1159 2438 1159 1844  L 1159 0  L 581 0  L 581 3500  L 1159 3500  L 1159 2956  Q 1341 3275 1631 3429  Q 1922 3584 2338 3584  Q 2397 3584 2469 3576  Q 2541 3569 2628 3553  L 2631 2963  z " transform="scale(0.015625)" />
      <path id="DejaVuSans-61" d="M 2194 1759  Q 1497 1759 1228 1600  Q 959 1441 959 1056  Q 959 750 1161 570  Q 1363 391 1709 391  Q 2188 391 2477 730  Q 2766 1069 2766 1631  L 2766 1759  L 2194 1759  z M 3341 1997  L 3341 0  L 2766 0  L 2766 531  Q 2569 213 2275 61  Q 1981 -91 1556 -91  Q 1019 -91 701 211  Q 384 513 384 1019  Q 384 1609 779 1909  Q 1175 2209 1959 2209  L 2766 2209  L 2766 2266  Q 2766 2663 2505 2880  Q 2244 3097 1772 3097  Q 1472 3097 1187 3025  Q 903 2953 641 2809  L 641 3341  Q 956 3463 1253 3523  Q 1550 3584 1831 3584  Q 2591 3584 2966 3190  Q 3341 2797 3341 1997  z " transform="scale(0.015625)" />
      <path id="DejaVuSans-69" d="M 603 3500  L 1178 3500  L 1178 0  L 603 0  L 603 3500  z M 603 4863  L 1178 4863  L 1178 4134  L 603 4134  L 603 4863  z " transform="scale(0.015625)" />
      <path id="DejaVuSans-6d" d="M 3328 2828  Q 3544 3216 3844 3400  Q 4144 3584 4550 3584  Q 5097 3584 5394 3201  Q 5691 2819 5691 2113  L 5691 0  L 5113 0  L 5113 2094  Q 5113 2597 4934 2840  Q 4756 3084 4391 3084  Q 3944 3084 3684 2787  Q 3425 2491 3425 1978  L 3425 0  L 2847 0  L 2847 2094  Q 2847 2600 2669 2842  Q 2491 3084 2119 3084  Q 1678 3084 1418 2786  Q 1159 2488 1159 1978  L 1159 0  L 581 0  L 581 3500  L 1159 3500  L 1159 2956  Q 1356 3278 1631 3431  Q 1906 3584 2284 3584  Q 2666 3584 2933 3390  Q 3200 3197 3328 2828  z " transform="scale(0.015625)" />
      <path id="DejaVuSans-20" transform="scale(0.015625)" />
      <path id="DejaVuSans-26" d="M 1556 2509  Q 1272 2256 1139 2004  Q 1006 1753 1006 1478  Q 1006 1022 1337 719  Q 1669 416 2169 416  Q 2466 416 2725 514  Q 2984 613 3213 813  L 1556 2509  z M 1997 2859  L 3584 1234  Q 3769 1513 3872 1830  Q 3975 2147 3994 2503  L 4575 2503  Q 4538 2091 4375 1687  Q 4213 1284 3922 891  L 4794 0  L 4006 0  L 3559 459  Q 3234 181 2878 45  Q 2522 -91 2113 -91  Q 1359 -91 881 339  Q 403 769 403 1441  Q 403 1841 612 2192  Q 822 2544 1241 2853  Q 1091 3050 1012 3245  Q 934 3441 934 3628  Q 934 4134 1281 4442  Q 1628 4750 2203 4750  Q 2463 4750 2720 4694  Q 2978 4638 3244 4525  L 3244 3956  Q 2972 4103 2725 4179  Q 2478 4256 2266 4256  Q 1938 4256 1733 4082  Q 1528 3909 1528 3634  Q 1528 3475 1620 3314  Q 1713 3153 1997 2859  z " transform="scale(0.015625)" />
      <path id="DejaVuSans-53" d="M 3425 4513  L 3425 3897  Q 3066 4069 2747 4153  Q 2428 4238 2131 4238  Q 1616 4238 1336 4038  Q 1056 3838 1056 3469  Q 1056 3159 1242 3001  Q 1428 2844 1947 2747  L 2328 2669  Q 3034 2534 3370 2195  Q 3706 1856 3706 1288  Q 3706 609 3251 259  Q 2797 -91 1919 -91  Q 1588 -91 1214 -16  Q 841 59 441 206  L 441 856  Q 825 641 1194 531  Q 1563 422 1919 422  Q 2459 422 2753 634  Q 3047 847 3047 1241  Q 3047 1584 2836 1778  Q 2625 1972 2144 2069  L 1759 2144  Q 1053 2284 737 2584  Q 422 2884 422 3419  Q 422 4038 858 4394  Q 1294 4750 2059 4750  Q 2388 4750 2728 4690  Q 3069 4631 3425 4513  z " transform="scale(0.015625)" />
      <path id="DejaVuSans-6f" d="M 1959 3097  Q 1497 3097 1228 2736  Q 959 2375 959 1747  Q 959 1119 1226 758  Q 1494 397 1959 397  Q 2419 397 2687 759  Q 2956 1122 2956 1747  Q 2956 2369 2687 2733  Q 2419 3097 1959 3097  z M 1959 3584  Q 2709 3584 3137 3096  Q 3566 2609 3566 1747  Q 3566 888 3137 398  Q 2709 -91 1959 -91  Q 1206 -91 779 398  Q 353 888 353 1747  Q 353 2609 779 3096  Q 1206 3584 1959 3584  z " transform="scale(0.015625)" />
      <path id="DejaVuSans-63" d="M 3122 3366  L 3122 2828  Q 2878 2963 2633 3030  Q 2388 3097 2138 3097  Q 1578 3097 1268 2742  Q 959 2388 959 1747  Q 959 1106 1268 751  Q 1578 397 2138 397  Q 2388 397 2633 464  Q 2878 531 3122 666  L 3122 134  Q 2881 22 2623 -34  Q 2366 -91 2075 -91  Q 1284 -91 818 406  Q 353 903 353 1747  Q 353 2603 823 3093  Q 1294 3584 2113 3584  Q 2378 3584 2631 3529  Q 2884 3475 3122 3366  z " transform="scale(0.015625)" />
      <path id="DejaVuSans-6c" d="M 603 4863  L 1178 4863  L 1178 0  L 603 0  L 603 4863  z " transform="scale(0.015625)" />
      <path id="DejaVuSans-4d" d="M 628 4666  L 1569 4666  L 2759 1491  L 3956 4666  L 4897 4666  L 4897 0  L 4281 0  L 4281 4097  L 3078 897  L 2444 897  L 1241 4097  L 1241 0  L 628 0  L 628 4666  z " transform="scale(0.015625)" />
      <path id="DejaVuSans-64" d="M 2906 2969  L 2906 4863  L 3481 4863  L 3481 0  L 2906 0  L 2906 525  Q 2725 213 2448 61  Q 2172 -91 1784 -91  Q 1150 -91 751 415  Q 353 922 353 1747  Q 353 2572 751 3078  Q 1150 3584 1784 3584  Q 2172 3584 2448 3432  Q 2725 3281 2906 2969  z M 947 1747  Q 947 1113 1208 752  Q 1469 391 1925 391  Q 2381 391 2643 752  Q 2906 1113 2906 1747  Q 2906 2381 2643 2742  Q 2381 3103 1925 3103  Q 1469 3103 1208 2742  Q 947 2381 947 1747  z " transform="scale(0.015625)" />
     </defs>
     <use ns4:href="#DejaVuSans-45" />
     <use ns4:href="#DejaVuSans-6e" x="63.183594" />
     <use ns4:href="#DejaVuSans-74" x="126.5625" />
     <use ns4:href="#DejaVuSans-65" x="165.771484" />
     <use ns4:href="#DejaVuSans-72" x="227.294922" />
     <use ns4:href="#DejaVuSans-74" x="268.408203" />
     <use ns4:href="#DejaVuSans-61" x="307.617188" />
     <use ns4:href="#DejaVuSans-69" x="368.896484" />
     <use ns4:href="#DejaVuSans-6e" x="396.679688" />
     <use ns4:href="#DejaVuSans-6d" x="460.058594" />
     <use ns4:href="#DejaVuSans-65" x="557.470703" />
     <use ns4:href="#DejaVuSans-6e" x="618.994141" />
     <use ns4:href="#DejaVuSans-74" x="682.373047" />
     <use ns4:href="#DejaVuSans-20" x="721.582031" />
     <use ns4:href="#DejaVuSans-26" x="753.369141" />
     <use ns4:href="#DejaVuSans-20" x="831.347656" />
     <use ns4:href="#DejaVuSans-53" x="863.134766" />
     <use ns4:href="#DejaVuSans-6f" x="926.611328" />
     <use ns4:href="#DejaVuSans-63" x="987.792969" />
     <use ns4:href="#DejaVuSans-69" x="1042.773438" />
     <use ns4:href="#DejaVuSans-61" x="1070.556641" />
     <use ns4:href="#DejaVuSans-6c" x="1131.835938" />
     <use ns4:href="#DejaVuSans-20" x="1159.619141" />
     <use ns4:href="#DejaVuSans-4d" x="1191.40625" />
     <use ns4:href="#DejaVuSans-65" x="1277.685547" />
     <use ns4:href="#DejaVuSans-64" x="1339.208984" />
     <use ns4:href="#DejaVuSans-69" x="1402.685547" />
     <use ns4:href="#DejaVuSans-61" x="1430.46875" />
    </g>
   </g>
   <g id="text_2">
    
    <g transform="translate(183.575993 250.992376) scale(0.1 -0.1)">
     <defs>
      <path id="DejaVuSans-Bold-36" d="M 2316 2303  Q 2000 2303 1842 2098  Q 1684 1894 1684 1484  Q 1684 1075 1842 870  Q 2000 666 2316 666  Q 2634 666 2792 870  Q 2950 1075 2950 1484  Q 2950 1894 2792 2098  Q 2634 2303 2316 2303  z M 3803 4544  L 3803 3681  Q 3506 3822 3243 3889  Q 2981 3956 2731 3956  Q 2194 3956 1894 3657  Q 1594 3359 1544 2772  Q 1750 2925 1990 3001  Q 2231 3078 2516 3078  Q 3231 3078 3670 2659  Q 4109 2241 4109 1563  Q 4109 813 3618 361  Q 3128 -91 2303 -91  Q 1394 -91 895 523  Q 397 1138 397 2266  Q 397 3422 980 4083  Q 1563 4744 2578 4744  Q 2900 4744 3203 4694  Q 3506 4644 3803 4544  z " transform="scale(0.015625)" />
      <path id="DejaVuSans-Bold-25" d="M 4959 1925  Q 4738 1925 4616 1733  Q 4494 1541 4494 1184  Q 4494 825 4614 633  Q 4734 441 4959 441  Q 5184 441 5303 633  Q 5422 825 5422 1184  Q 5422 1541 5301 1733  Q 5181 1925 4959 1925  z M 4959 2450  Q 5541 2450 5875 2112  Q 6209 1775 6209 1184  Q 6209 594 5875 251  Q 5541 -91 4959 -91  Q 4378 -91 4042 251  Q 3706 594 3706 1184  Q 3706 1772 4042 2111  Q 4378 2450 4959 2450  z M 2094 -91  L 1403 -91  L 4319 4750  L 5013 4750  L 2094 -91  z M 1453 4750  Q 2034 4750 2367 4411  Q 2700 4072 2700 3481  Q 2700 2891 2367 2550  Q 2034 2209 1453 2209  Q 872 2209 539 2550  Q 206 2891 206 3481  Q 206 4072 539 4411  Q 872 4750 1453 4750  z M 1453 4225  Q 1228 4225 1106 4031  Q 984 3838 984 3481  Q 984 3122 1106 2926  Q 1228 2731 1453 2731  Q 1678 2731 1798 2926  Q 1919 3122 1919 3481  Q 1919 3838 1797 4031  Q 1675 4225 1453 4225  z " transform="scale(0.015625)" />
     </defs>
     <use ns4:href="#DejaVuSans-Bold-36" />
     <use ns4:href="#DejaVuSans-Bold-36" x="69.580078" />
     <use ns4:href="#DejaVuSans-Bold-25" x="139.160156" />
    </g>
   </g>
   <g id="text_3">
    
    <g transform="translate(426.409265 211.940194) scale(0.1 -0.1)">
     <defs>
      <path id="DejaVuSans-75" d="M 544 1381  L 544 3500  L 1119 3500  L 1119 1403  Q 1119 906 1312 657  Q 1506 409 1894 409  Q 2359 409 2629 706  Q 2900 1003 2900 1516  L 2900 3500  L 3475 3500  L 3475 0  L 2900 0  L 2900 538  Q 2691 219 2414 64  Q 2138 -91 1772 -91  Q 1169 -91 856 284  Q 544 659 544 1381  z M 1991 3584  L 1991 3584  z " transform="scale(0.015625)" />
     </defs>
     <use ns4:href="#DejaVuSans-45" />
     <use ns4:href="#DejaVuSans-64" x="63.183594" />
     <use ns4:href="#DejaVuSans-75" x="126.660156" />
     <use ns4:href="#DejaVuSans-63" x="190.039062" />
     <use ns4:href="#DejaVuSans-61" x="245.019531" />
     <use ns4:href="#DejaVuSans-74" x="306.298828" />
     <use ns4:href="#DejaVuSans-69" x="345.507812" />
     <use ns4:href="#DejaVuSans-6f" x="373.291016" />
     <use ns4:href="#DejaVuSans-6e" x="434.472656" />
    </g>
   </g>
   <g id="text_4">
    
    <g transform="translate(370.619459 209.183164) scale(0.1 -0.1)">
     <defs>
      <path id="DejaVuSans-Bold-31" d="M 750 831  L 1813 831  L 1813 3847  L 722 3622  L 722 4441  L 1806 4666  L 2950 4666  L 2950 831  L 4013 831  L 4013 0  L 750 0  L 750 831  z " transform="scale(0.015625)" />
     </defs>
     <use ns4:href="#DejaVuSans-Bold-31" />
     <use ns4:href="#DejaVuSans-Bold-36" x="69.580078" />
     <use ns4:href="#DejaVuSans-Bold-25" x="139.160156" />
    </g>
   </g>
   <g id="text_5">
    
    <g transform="translate(393.715381 111.318951) scale(0.1 -0.1)">
     <defs>
      <path id="DejaVuSans-43" d="M 4122 4306  L 4122 3641  Q 3803 3938 3442 4084  Q 3081 4231 2675 4231  Q 1875 4231 1450 3742  Q 1025 3253 1025 2328  Q 1025 1406 1450 917  Q 1875 428 2675 428  Q 3081 428 3442 575  Q 3803 722 4122 1019  L 4122 359  Q 3791 134 3420 21  Q 3050 -91 2638 -91  Q 1578 -91 968 557  Q 359 1206 359 2328  Q 359 3453 968 4101  Q 1578 4750 2638 4750  Q 3056 4750 3426 4639  Q 3797 4528 4122 4306  z " transform="scale(0.015625)" />
     </defs>
     <use ns4:href="#DejaVuSans-43" />
     <use ns4:href="#DejaVuSans-6f" x="69.824219" />
     <use ns4:href="#DejaVuSans-6d" x="131.005859" />
     <use ns4:href="#DejaVuSans-6d" x="228.417969" />
     <use ns4:href="#DejaVuSans-75" x="325.830078" />
     <use ns4:href="#DejaVuSans-6e" x="389.208984" />
     <use ns4:href="#DejaVuSans-69" x="452.587891" />
     <use ns4:href="#DejaVuSans-63" x="480.371094" />
     <use ns4:href="#DejaVuSans-61" x="535.351562" />
     <use ns4:href="#DejaVuSans-74" x="596.630859" />
     <use ns4:href="#DejaVuSans-69" x="635.839844" />
     <use ns4:href="#DejaVuSans-6f" x="663.623047" />
     <use ns4:href="#DejaVuSans-6e" x="724.804688" />
    </g>
   </g>
   <g id="text_6">
    
    <g transform="translate(351.394279 139.307301) scale(0.1 -0.1)">
     <defs>
      <path id="DejaVuSans-Bold-38" d="M 2228 2088  Q 1891 2088 1709 1903  Q 1528 1719 1528 1375  Q 1528 1031 1709 848  Q 1891 666 2228 666  Q 2563 666 2741 848  Q 2919 1031 2919 1375  Q 2919 1722 2741 1905  Q 2563 2088 2228 2088  z M 1350 2484  Q 925 2613 709 2878  Q 494 3144 494 3541  Q 494 4131 934 4440  Q 1375 4750 2228 4750  Q 3075 4750 3515 4442  Q 3956 4134 3956 3541  Q 3956 3144 3739 2878  Q 3522 2613 3097 2484  Q 3572 2353 3814 2058  Q 4056 1763 4056 1313  Q 4056 619 3595 264  Q 3134 -91 2228 -91  Q 1319 -91 855 264  Q 391 619 391 1313  Q 391 1763 633 2058  Q 875 2353 1350 2484  z M 1631 3419  Q 1631 3141 1786 2991  Q 1941 2841 2228 2841  Q 2509 2841 2662 2991  Q 2816 3141 2816 3419  Q 2816 3697 2662 3845  Q 2509 3994 2228 3994  Q 1941 3994 1786 3844  Q 1631 3694 1631 3419  z " transform="scale(0.015625)" />
     </defs>
     <use ns4:href="#DejaVuSans-Bold-38" />
     <use ns4:href="#DejaVuSans-Bold-25" x="69.580078" />
    </g>
   </g>
   <g id="text_7">
    
    <g transform="translate(348.230917 74.879082) scale(0.1 -0.1)">
     <defs>
      <path id="DejaVuSans-57" d="M 213 4666  L 850 4666  L 1831 722  L 2809 4666  L 3519 4666  L 4500 722  L 5478 4666  L 6119 4666  L 4947 0  L 4153 0  L 3169 4050  L 2175 0  L 1381 0  L 213 4666  z " transform="scale(0.015625)" />
      <path id="DejaVuSans-6b" d="M 581 4863  L 1159 4863  L 1159 1991  L 2875 3500  L 3609 3500  L 1753 1863  L 3688 0  L 2938 0  L 1159 1709  L 1159 0  L 581 0  L 581 4863  z " transform="scale(0.015625)" />
      <path id="DejaVuSans-2f" d="M 1625 4666  L 2156 4666  L 531 -594  L 0 -594  L 1625 4666  z " transform="scale(0.015625)" />
      <path id="DejaVuSans-50" d="M 1259 4147  L 1259 2394  L 2053 2394  Q 2494 2394 2734 2622  Q 2975 2850 2975 3272  Q 2975 3691 2734 3919  Q 2494 4147 2053 4147  L 1259 4147  z M 628 4666  L 2053 4666  Q 2838 4666 3239 4311  Q 3641 3956 3641 3272  Q 3641 2581 3239 2228  Q 2838 1875 2053 1875  L 1259 1875  L 1259 0  L 628 0  L 628 4666  z " transform="scale(0.015625)" />
      <path id="DejaVuSans-76" d="M 191 3500  L 800 3500  L 1894 563  L 2988 3500  L 3597 3500  L 2284 0  L 1503 0  L 191 3500  z " transform="scale(0.015625)" />
     </defs>
     <use ns4:href="#DejaVuSans-57" />
     <use ns4:href="#DejaVuSans-6f" x="93.001953" />
     <use ns4:href="#DejaVuSans-72" x="154.183594" />
     <use ns4:href="#DejaVuSans-6b" x="195.296875" />
     <use ns4:href="#DejaVuSans-2f" x="253.207031" />
     <use ns4:href="#DejaVuSans-50" x="286.898438" />
     <use ns4:href="#DejaVuSans-72" x="345.451172" />
     <use ns4:href="#DejaVuSans-6f" x="384.314453" />
     <use ns4:href="#DejaVuSans-64" x="445.496094" />
     <use ns4:href="#DejaVuSans-75" x="508.972656" />
     <use ns4:href="#DejaVuSans-63" x="572.351562" />
     <use ns4:href="#DejaVuSans-74" x="627.332031" />
     <use ns4:href="#DejaVuSans-69" x="666.541016" />
     <use ns4:href="#DejaVuSans-76" x="694.324219" />
     <use ns4:href="#DejaVuSans-65" x="753.503906" />
    </g>
   </g>
   <g id="text_8">
    
    <g transform="translate(319.807846 114.001836) scale(0.1 -0.1)">
     <defs>
      <path id="DejaVuSans-Bold-35" d="M 678 4666  L 3669 4666  L 3669 3781  L 1638 3781  L 1638 3059  Q 1775 3097 1914 3117  Q 2053 3138 2203 3138  Q 3056 3138 3531 2711  Q 4006 2284 4006 1522  Q 4006 766 3489 337  Q 2972 -91 2053 -91  Q 1656 -91 1267 -14  Q 878 63 494 219  L 494 1166  Q 875 947 1217 837  Q 1559 728 1863 728  Q 2300 728 2551 942  Q 2803 1156 2803 1522  Q 2803 1891 2551 2103  Q 2300 2316 1863 2316  Q 1603 2316 1309 2248  Q 1016 2181 678 2041  L 678 4666  z " transform="scale(0.015625)" />
     </defs>
     <use ns4:href="#DejaVuSans-Bold-35" />
     <use ns4:href="#DejaVuSans-Bold-25" x="69.580078" />
    </g>
   </g>
   <g id="text_9">
    
    <g transform="translate(305.472013 60.985893) scale(0.1 -0.1)">
     <defs>
      <path id="DejaVuSans-4f" d="M 2522 4238  Q 1834 4238 1429 3725  Q 1025 3213 1025 2328  Q 1025 1447 1429 934  Q 1834 422 2522 422  Q 3209 422 3611 934  Q 4013 1447 4013 2328  Q 4013 3213 3611 3725  Q 3209 4238 2522 4238  z M 2522 4750  Q 3503 4750 4090 4092  Q 4678 3434 4678 2328  Q 4678 1225 4090 567  Q 3503 -91 2522 -91  Q 1538 -91 948 565  Q 359 1222 359 2328  Q 359 3434 948 4092  Q 1538 4750 2522 4750  z " transform="scale(0.015625)" />
      <path id="DejaVuSans-68" d="M 3513 2113  L 3513 0  L 2938 0  L 2938 2094  Q 2938 2591 2744 2837  Q 2550 3084 2163 3084  Q 1697 3084 1428 2787  Q 1159 2491 1159 1978  L 1159 0  L 581 0  L 581 4863  L 1159 4863  L 1159 2956  Q 1366 3272 1645 3428  Q 1925 3584 2291 3584  Q 2894 3584 3203 3211  Q 3513 2838 3513 2113  z " transform="scale(0.015625)" />
     </defs>
     <use ns4:href="#DejaVuSans-4f" />
     <use ns4:href="#DejaVuSans-74" x="78.710938" />
     <use ns4:href="#DejaVuSans-68" x="117.919922" />
     <use ns4:href="#DejaVuSans-65" x="181.298828" />
     <use ns4:href="#DejaVuSans-72" x="242.822266" />
    </g>
   </g>
   <g id="text_10">
    
    <g transform="translate(290.114162 104.353788) scale(0.1 -0.1)">
     <use ns4:href="#DejaVuSans-Bold-35" />
     <use ns4:href="#DejaVuSans-Bold-25" x="69.580078" />
    </g>
   </g>
   <g id="text_11">
    
    <g transform="translate(153.962656 17.837812) scale(0.14 -0.14)">
     <defs>
      <path id="DejaVuSans-Bold-48" d="M 588 4666  L 1791 4666  L 1791 2888  L 3566 2888  L 3566 4666  L 4769 4666  L 4769 0  L 3566 0  L 3566 1978  L 1791 1978  L 1791 0  L 588 0  L 588 4666  z " transform="scale(0.015625)" />
      <path id="DejaVuSans-Bold-6f" d="M 2203 2784  Q 1831 2784 1636 2517  Q 1441 2250 1441 1747  Q 1441 1244 1636 976  Q 1831 709 2203 709  Q 2569 709 2762 976  Q 2956 1244 2956 1747  Q 2956 2250 2762 2517  Q 2569 2784 2203 2784  z M 2203 3584  Q 3106 3584 3614 3096  Q 4122 2609 4122 1747  Q 4122 884 3614 396  Q 3106 -91 2203 -91  Q 1297 -91 786 396  Q 275 884 275 1747  Q 275 2609 786 3096  Q 1297 3584 2203 3584  z " transform="scale(0.015625)" />
      <path id="DejaVuSans-Bold-77" d="M 225 3500  L 1313 3500  L 1900 1088  L 2491 3500  L 3425 3500  L 4013 1113  L 4603 3500  L 5691 3500  L 4769 0  L 3547 0  L 2956 2406  L 2369 0  L 1147 0  L 225 3500  z " transform="scale(0.015625)" />
      <path id="DejaVuSans-Bold-20" transform="scale(0.015625)" />
      <path id="DejaVuSans-Bold-49" d="M 588 4666  L 1791 4666  L 1791 0  L 588 0  L 588 4666  z " transform="scale(0.015625)" />
      <path id="DejaVuSans-Bold-6e" d="M 4056 2131  L 4056 0  L 2931 0  L 2931 347  L 2931 1631  Q 2931 2084 2911 2256  Q 2891 2428 2841 2509  Q 2775 2619 2662 2680  Q 2550 2741 2406 2741  Q 2056 2741 1856 2470  Q 1656 2200 1656 1722  L 1656 0  L 538 0  L 538 3500  L 1656 3500  L 1656 2988  Q 1909 3294 2193 3439  Q 2478 3584 2822 3584  Q 3428 3584 3742 3212  Q 4056 2841 4056 2131  z " transform="scale(0.015625)" />
      <path id="DejaVuSans-Bold-64" d="M 2919 2988  L 2919 4863  L 4044 4863  L 4044 0  L 2919 0  L 2919 506  Q 2688 197 2409 53  Q 2131 -91 1766 -91  Q 1119 -91 703 423  Q 288 938 288 1747  Q 288 2556 703 3070  Q 1119 3584 1766 3584  Q 2128 3584 2408 3439  Q 2688 3294 2919 2988  z M 2181 722  Q 2541 722 2730 984  Q 2919 1247 2919 1747  Q 2919 2247 2730 2509  Q 2541 2772 2181 2772  Q 1825 2772 1636 2509  Q 1447 2247 1447 1747  Q 1447 1247 1636 984  Q 1825 722 2181 722  z " transform="scale(0.015625)" />
      <path id="DejaVuSans-Bold-69" d="M 538 3500  L 1656 3500  L 1656 0  L 538 0  L 538 3500  z M 538 4863  L 1656 4863  L 1656 3950  L 538 3950  L 538 4863  z " transform="scale(0.015625)" />
      <path id="DejaVuSans-Bold-61" d="M 2106 1575  Q 1756 1575 1579 1456  Q 1403 1338 1403 1106  Q 1403 894 1545 773  Q 1688 653 1941 653  Q 2256 653 2472 879  Q 2688 1106 2688 1447  L 2688 1575  L 2106 1575  z M 3816 1997  L 3816 0  L 2688 0  L 2688 519  Q 2463 200 2181 54  Q 1900 -91 1497 -91  Q 953 -91 614 226  Q 275 544 275 1050  Q 275 1666 698 1953  Q 1122 2241 2028 2241  L 2688 2241  L 2688 2328  Q 2688 2594 2478 2717  Q 2269 2841 1825 2841  Q 1466 2841 1156 2769  Q 847 2697 581 2553  L 581 3406  Q 941 3494 1303 3539  Q 1666 3584 2028 3584  Q 2975 3584 3395 3211  Q 3816 2838 3816 1997  z " transform="scale(0.015625)" />
      <path id="DejaVuSans-Bold-27" d="M 1350 4666  L 1350 2931  L 609 2931  L 609 4666  L 1350 4666  z " transform="scale(0.015625)" />
      <path id="DejaVuSans-Bold-73" d="M 3272 3391  L 3272 2541  Q 2913 2691 2578 2766  Q 2244 2841 1947 2841  Q 1628 2841 1473 2761  Q 1319 2681 1319 2516  Q 1319 2381 1436 2309  Q 1553 2238 1856 2203  L 2053 2175  Q 2913 2066 3209 1816  Q 3506 1566 3506 1031  Q 3506 472 3093 190  Q 2681 -91 1863 -91  Q 1516 -91 1145 -36  Q 775 19 384 128  L 384 978  Q 719 816 1070 734  Q 1422 653 1784 653  Q 2113 653 2278 743  Q 2444 834 2444 1013  Q 2444 1163 2330 1236  Q 2216 1309 1875 1350  L 1678 1375  Q 931 1469 631 1722  Q 331 1975 331 2491  Q 331 3047 712 3315  Q 1094 3584 1881 3584  Q 2191 3584 2531 3537  Q 2872 3491 3272 3391  z " transform="scale(0.015625)" />
      <path id="DejaVuSans-Bold-74" d="M 1759 4494  L 1759 3500  L 2913 3500  L 2913 2700  L 1759 2700  L 1759 1216  Q 1759 972 1856 886  Q 1953 800 2241 800  L 2816 800  L 2816 0  L 1856 0  Q 1194 0 917 276  Q 641 553 641 1216  L 641 2700  L 84 2700  L 84 3500  L 641 3500  L 641 4494  L 1759 4494  z " transform="scale(0.015625)" />
      <path id="DejaVuSans-Bold-65" d="M 4031 1759  L 4031 1441  L 1416 1441  Q 1456 1047 1700 850  Q 1944 653 2381 653  Q 2734 653 3104 758  Q 3475 863 3866 1075  L 3866 213  Q 3469 63 3072 -14  Q 2675 -91 2278 -91  Q 1328 -91 801 392  Q 275 875 275 1747  Q 275 2603 792 3093  Q 1309 3584 2216 3584  Q 3041 3584 3536 3087  Q 4031 2591 4031 1759  z M 2881 2131  Q 2881 2450 2695 2645  Q 2509 2841 2209 2841  Q 1884 2841 1681 2658  Q 1478 2475 1428 2131  L 2881 2131  z " transform="scale(0.015625)" />
      <path id="DejaVuSans-Bold-72" d="M 3138 2547  Q 2991 2616 2845 2648  Q 2700 2681 2553 2681  Q 2122 2681 1889 2404  Q 1656 2128 1656 1613  L 1656 0  L 538 0  L 538 3500  L 1656 3500  L 1656 2925  Q 1872 3269 2151 3426  Q 2431 3584 2822 3584  Q 2878 3584 2943 3579  Q 3009 3575 3134 3559  L 3138 2547  z " transform="scale(0.015625)" />
      <path id="DejaVuSans-Bold-6d" d="M 3781 2919  Q 3994 3244 4286 3414  Q 4578 3584 4928 3584  Q 5531 3584 5847 3212  Q 6163 2841 6163 2131  L 6163 0  L 5038 0  L 5038 1825  Q 5041 1866 5042 1909  Q 5044 1953 5044 2034  Q 5044 2406 4934 2573  Q 4825 2741 4581 2741  Q 4263 2741 4089 2478  Q 3916 2216 3909 1719  L 3909 0  L 2784 0  L 2784 1825  Q 2784 2406 2684 2573  Q 2584 2741 2328 2741  Q 2006 2741 1831 2477  Q 1656 2213 1656 1722  L 1656 0  L 531 0  L 531 3500  L 1656 3500  L 1656 2988  Q 1863 3284 2130 3434  Q 2397 3584 2719 3584  Q 3081 3584 3359 3409  Q 3638 3234 3781 2919  z " transform="scale(0.015625)" />
      <path id="DejaVuSans-Bold-70" d="M 1656 506  L 1656 -1331  L 538 -1331  L 538 3500  L 1656 3500  L 1656 2988  Q 1888 3294 2169 3439  Q 2450 3584 2816 3584  Q 3463 3584 3878 3070  Q 4294 2556 4294 1747  Q 4294 938 3878 423  Q 3463 -91 2816 -91  Q 2450 -91 2169 54  Q 1888 200 1656 506  z M 2400 2772  Q 2041 2772 1848 2508  Q 1656 2244 1656 1747  Q 1656 1250 1848 986  Q 2041 722 2400 722  Q 2759 722 2948 984  Q 3138 1247 3138 1747  Q 3138 2247 2948 2509  Q 2759 2772 2400 2772  z " transform="scale(0.015625)" />
      <path id="DejaVuSans-Bold-6c" d="M 538 4863  L 1656 4863  L 1656 0  L 538 0  L 538 4863  z " transform="scale(0.015625)" />
     </defs>
     <use ns4:href="#DejaVuSans-Bold-48" />
     <use ns4:href="#DejaVuSans-Bold-6f" x="83.691406" />
     <use ns4:href="#DejaVuSans-Bold-77" x="152.392578" />
     <use ns4:href="#DejaVuSans-Bold-20" x="244.775391" />
     <use ns4:href="#DejaVuSans-Bold-49" x="279.589844" />
     <use ns4:href="#DejaVuSans-Bold-6e" x="316.796875" />
     <use ns4:href="#DejaVuSans-Bold-64" x="387.988281" />
     <use ns4:href="#DejaVuSans-Bold-69" x="459.570312" />
     <use ns4:href="#DejaVuSans-Bold-61" x="493.847656" />
     <use ns4:href="#DejaVuSans-Bold-27" x="561.328125" />
     <use ns4:href="#DejaVuSans-Bold-73" x="591.943359" />
     <use ns4:href="#DejaVuSans-Bold-20" x="651.464844" />
     <use ns4:href="#DejaVuSans-Bold-69" x="686.279297" />
     <use ns4:href="#DejaVuSans-Bold-6e" x="720.556641" />
     <use ns4:href="#DejaVuSans-Bold-74" x="791.748047" />
     <use ns4:href="#DejaVuSans-Bold-65" x="839.550781" />
     <use ns4:href="#DejaVuSans-Bold-72" x="907.373047" />
     <use ns4:href="#DejaVuSans-Bold-6e" x="956.689453" />
     <use ns4:href="#DejaVuSans-Bold-65" x="1027.880859" />
     <use ns4:href="#DejaVuSans-Bold-74" x="1095.703125" />
     <use ns4:href="#DejaVuSans-Bold-20" x="1143.505859" />
     <use ns4:href="#DejaVuSans-Bold-74" x="1178.320312" />
     <use ns4:href="#DejaVuSans-Bold-69" x="1226.123047" />
     <use ns4:href="#DejaVuSans-Bold-6d" x="1260.400391" />
     <use ns4:href="#DejaVuSans-Bold-65" x="1364.599609" />
     <use ns4:href="#DejaVuSans-Bold-20" x="1432.421875" />
     <use ns4:href="#DejaVuSans-Bold-69" x="1467.236328" />
     <use ns4:href="#DejaVuSans-Bold-73" x="1501.513672" />
     <use ns4:href="#DejaVuSans-Bold-20" x="1561.035156" />
     <use ns4:href="#DejaVuSans-Bold-73" x="1595.849609" />
     <use ns4:href="#DejaVuSans-Bold-70" x="1655.371094" />
     <use ns4:href="#DejaVuSans-Bold-6c" x="1726.953125" />
     <use ns4:href="#DejaVuSans-Bold-69" x="1761.230469" />
     <use ns4:href="#DejaVuSans-Bold-74" x="1795.507812" />
    </g>
   </g>
  </g>
  <g id="text_12">
   
   <g transform="translate(7.2 405.357813) scale(0.09 -0.09)">
    <defs>
     <path id="DejaVuSans-Oblique-53" d="M 3859 4513  L 3738 3897  Q 3422 4066 3111 4152  Q 2800 4238 2509 4238  Q 1944 4238 1609 3991  Q 1275 3744 1275 3334  Q 1275 3109 1398 2989  Q 1522 2869 2034 2731  L 2413 2638  Q 3053 2472 3303 2217  Q 3553 1963 3553 1503  Q 3553 797 2998 353  Q 2444 -91 1538 -91  Q 1166 -91 791 -17  Q 416 56 38 206  L 166 856  Q 513 641 861 531  Q 1209 422 1556 422  Q 2147 422 2503 684  Q 2859 947 2859 1369  Q 2859 1650 2717 1795  Q 2575 1941 2106 2059  L 1728 2156  Q 1081 2325 845 2545  Q 609 2766 609 3163  Q 609 3859 1145 4304  Q 1681 4750 2541 4750  Q 2875 4750 3203 4690  Q 3531 4631 3859 4513  z " transform="scale(0.015625)" />
     <path id="DejaVuSans-Oblique-6f" d="M 1625 -91  Q 1009 -91 651 289  Q 294 669 294 1325  Q 294 1706 417 2101  Q 541 2497 738 2766  Q 1047 3184 1428 3384  Q 1809 3584 2291 3584  Q 2888 3584 3255 3212  Q 3622 2841 3622 2241  Q 3622 1825 3500 1412  Q 3378 1000 3181 728  Q 2875 309 2494 109  Q 2113 -91 1625 -91  z M 891 1344  Q 891 869 1089 633  Q 1288 397 1691 397  Q 2269 397 2648 901  Q 3028 1406 3028 2181  Q 3028 2634 2825 2865  Q 2622 3097 2228 3097  Q 1903 3097 1650 2945  Q 1397 2794 1197 2484  Q 1050 2253 970 1956  Q 891 1659 891 1344  z " transform="scale(0.015625)" />
     <path id="DejaVuSans-Oblique-75" d="M 428 1388  L 838 3500  L 1416 3500  L 1006 1409  Q 975 1256 961 1147  Q 947 1038 947 966  Q 947 700 1109 554  Q 1272 409 1569 409  Q 2031 409 2368 721  Q 2706 1034 2809 1563  L 3194 3500  L 3769 3500  L 3091 0  L 2516 0  L 2631 550  Q 2388 244 2052 76  Q 1716 -91 1338 -91  Q 878 -91 622 161  Q 366 413 366 863  Q 366 956 381 1097  Q 397 1238 428 1388  z " transform="scale(0.015625)" />
     <path id="DejaVuSans-Oblique-72" d="M 2853 2969  Q 2766 3016 2653 3041  Q 2541 3066 2413 3066  Q 1953 3066 1609 2717  Q 1266 2369 1153 1784  L 800 0  L 225 0  L 909 3500  L 1484 3500  L 1375 2956  Q 1603 3259 1920 3421  Q 2238 3584 2597 3584  Q 2691 3584 2781 3573  Q 2872 3563 2963 3538  L 2853 2969  z " transform="scale(0.015625)" />
     <path id="DejaVuSans-Oblique-63" d="M 3431 3366  L 3316 2797  Q 3109 2947 2876 3022  Q 2644 3097 2394 3097  Q 2119 3097 1870 3000  Q 1622 2903 1453 2725  Q 1184 2453 1037 2087  Q 891 1722 891 1331  Q 891 859 1127 628  Q 1363 397 1844 397  Q 2081 397 2348 469  Q 2616 541 2906 684  L 2797 116  Q 2547 13 2283 -39  Q 2019 -91 1741 -91  Q 1044 -91 669 257  Q 294 606 294 1253  Q 294 1797 489 2255  Q 684 2713 1069 3078  Q 1331 3328 1684 3456  Q 2038 3584 2456 3584  Q 2700 3584 2940 3529  Q 3181 3475 3431 3366  z " transform="scale(0.015625)" />
     <path id="DejaVuSans-Oblique-65" d="M 3078 2063  Q 3088 2113 3092 2166  Q 3097 2219 3097 2272  Q 3097 2653 2873 2875  Q 2650 3097 2266 3097  Q 1838 3097 1509 2826  Q 1181 2556 1013 2059  L 3078 2063  z M 3578 1613  L 903 1613  Q 884 1494 878 1425  Q 872 1356 872 1306  Q 872 872 1139 634  Q 1406 397 1894 397  Q 2269 397 2603 481  Q 2938 566 3225 728  L 3116 159  Q 2806 34 2476 -28  Q 2147 -91 1806 -91  Q 1078 -91 686 257  Q 294 606 294 1247  Q 294 1794 489 2264  Q 684 2734 1063 3103  Q 1306 3334 1642 3459  Q 1978 3584 2356 3584  Q 2950 3584 3301 3228  Q 3653 2872 3653 2272  Q 3653 2128 3634 1964  Q 3616 1800 3578 1613  z " transform="scale(0.015625)" />
     <path id="DejaVuSans-Oblique-3a" d="M 978 3309  L 1638 3309  L 1484 2516  L 825 2516  L 978 3309  z M 488 794  L 1147 794  L 991 0  L 331 0  L 488 794  z " transform="scale(0.015625)" />
     <path id="DejaVuSans-Oblique-20" transform="scale(0.015625)" />
     <path id="DejaVuSans-Oblique-4e" d="M 1081 4666  L 1931 4666  L 3219 666  L 4000 4666  L 4616 4666  L 3706 0  L 2853 0  L 1569 4025  L 788 0  L 172 0  L 1081 4666  z " transform="scale(0.015625)" />
     <path id="DejaVuSans-Oblique-43" d="M 4447 4306  L 4319 3641  Q 4019 3944 3683 4091  Q 3347 4238 2956 4238  Q 2422 4238 2017 3981  Q 1613 3725 1319 3200  Q 1131 2863 1032 2486  Q 934 2109 934 1728  Q 934 1091 1264 756  Q 1594 422 2222 422  Q 2656 422 3056 561  Q 3456 700 3834 978  L 3688 231  Q 3316 72 2936 -9  Q 2556 -91 2175 -91  Q 1278 -91 773 396  Q 269 884 269 1753  Q 269 2309 461 2846  Q 653 3384 1013 3828  Q 1394 4300 1883 4525  Q 2372 4750 3022 4750  Q 3422 4750 3780 4639  Q 4138 4528 4447 4306  z " transform="scale(0.015625)" />
     <path id="DejaVuSans-Oblique-41" d="M 2356 4666  L 3072 4666  L 3938 0  L 3278 0  L 3084 1197  L 984 1197  L 325 0  L -341 0  L 2356 4666  z M 2584 4044  L 1275 1722  L 2988 1722  L 2584 4044  z " transform="scale(0.015625)" />
     <path id="DejaVuSans-Oblique-45" d="M 1081 4666  L 4031 4666  L 3928 4134  L 1606 4134  L 1338 2753  L 3566 2753  L 3463 2222  L 1234 2222  L 909 531  L 3284 531  L 3181 0  L 172 0  L 1081 4666  z " transform="scale(0.015625)" />
     <path id="DejaVuSans-Oblique-52" d="M 1613 4147  L 1294 2491  L 2106 2491  Q 2584 2491 2879 2755  Q 3175 3019 3175 3444  Q 3175 3784 2976 3965  Q 2778 4147 2406 4147  L 1613 4147  z M 2772 2241  Q 2972 2194 3105 2009  Q 3238 1825 3413 1275  L 3809 0  L 3144 0  L 2778 1197  Q 2638 1659 2453 1815  Q 2269 1972 1888 1972  L 1191 1972  L 806 0  L 172 0  L 1081 4666  L 2503 4666  Q 3150 4666 3495 4373  Q 3841 4081 3841 3531  Q 3841 3044 3547 2687  Q 3253 2331 2772 2241  z " transform="scale(0.015625)" />
     <path id="DejaVuSans-Oblique-49" d="M 1081 4666  L 1716 4666  L 806 0  L 172 0  L 1081 4666  z " transform="scale(0.015625)" />
     <path id="DejaVuSans-Oblique-48" d="M 1081 4666  L 1716 4666  L 1344 2753  L 3634 2753  L 4006 4666  L 4641 4666  L 3731 0  L 3097 0  L 3531 2222  L 1241 2222  L 806 0  L 172 0  L 1081 4666  z " transform="scale(0.015625)" />
     <path id="DejaVuSans-Oblique-44" d="M 1081 4666  L 2438 4666  Q 3519 4666 4070 4208  Q 4622 3750 4622 2847  Q 4622 2250 4412 1698  Q 4203 1147 3834 769  Q 3463 381 2891 190  Q 2319 0 1538 0  L 172 0  L 1081 4666  z M 1613 4147  L 909 519  L 1734 519  Q 2794 519 3375 1128  Q 3956 1738 3956 2847  Q 3956 3519 3581 3833  Q 3206 4147 2406 4147  L 1613 4147  z " transform="scale(0.015625)" />
     <path id="DejaVuSans-Oblique-57" d="M 616 4666  L 1228 4666  L 1453 697  L 3213 4666  L 3916 4666  L 4147 697  L 5888 4666  L 6528 4666  L 4453 0  L 3659 0  L 3444 3891  L 1697 0  L 903 0  L 616 4666  z " transform="scale(0.015625)" />
     <path id="DejaVuSans-Oblique-61" d="M 3438 1997  L 3047 0  L 2472 0  L 2578 531  Q 2325 219 2001 64  Q 1678 -91 1281 -91  Q 834 -91 548 182  Q 263 456 263 884  Q 263 1497 752 1853  Q 1241 2209 2100 2209  L 2900 2209  L 2931 2363  Q 2938 2388 2941 2417  Q 2944 2447 2944 2509  Q 2944 2788 2717 2942  Q 2491 3097 2081 3097  Q 1800 3097 1504 3025  Q 1209 2953 897 2809  L 997 3341  Q 1322 3463 1633 3523  Q 1944 3584 2234 3584  Q 2853 3584 3176 3315  Q 3500 3047 3500 2534  Q 3500 2431 3484 2292  Q 3469 2153 3438 1997  z M 2816 1759  L 2241 1759  Q 1534 1759 1195 1570  Q 856 1381 856 984  Q 856 709 1029 553  Q 1203 397 1509 397  Q 1978 397 2328 733  Q 2678 1069 2791 1631  L 2816 1759  z " transform="scale(0.015625)" />
     <path id="DejaVuSans-Oblique-76" d="M 459 3500  L 1069 3500  L 1581 525  L 3256 3500  L 3866 3500  L 1875 0  L 1100 0  L 459 3500  z " transform="scale(0.015625)" />
     <path id="DejaVuSans-Oblique-33" d="M 1013 4550  Q 1356 4650 1679 4700  Q 2003 4750 2316 4750  Q 2934 4750 3296 4475  Q 3659 4200 3659 3738  Q 3659 3284 3373 2959  Q 3088 2634 2584 2516  Q 2978 2403 3162 2165  Q 3347 1928 3347 1538  Q 3347 1163 3167 834  Q 2988 506 2650 269  Q 2394 88 2037 -1  Q 1681 -91 1216 -91  Q 922 -91 622 -33  Q 322 25 13 141  L 128 738  Q 422 575 720 495  Q 1019 416 1331 416  Q 1947 416 2330 733  Q 2713 1050 2713 1556  Q 2713 1881 2469 2057  Q 2225 2234 1772 2234  L 1228 2234  L 1325 2747  L 1900 2747  Q 2419 2747 2717 2984  Q 3016 3222 3016 3628  Q 3016 3922 2797 4083  Q 2578 4244 2181 4244  Q 1881 4244 1567 4180  Q 1253 4116 916 3988  L 1013 4550  z " transform="scale(0.015625)" />
     <path id="DejaVuSans-Oblique-28" d="M 2731 4856  Q 1903 3822 1495 2892  Q 1088 1963 1088 1100  Q 1088 606 1206 120  Q 1325 -366 1563 -844  L 1063 -844  Q 775 -306 634 201  Q 494 709 494 1197  Q 494 2125 923 3036  Q 1353 3947 2222 4856  L 2731 4856  z " transform="scale(0.015625)" />
     <path id="DejaVuSans-Oblique-32" d="M 2950 2253  L 934 525  L 3163 525  L 3053 0  L 25 0  L 128 531  L 2234 2338  Q 2656 2703 2832 2979  Q 3009 3256 3009 3547  Q 3009 3850 2796 4040  Q 2584 4231 2241 4231  Q 1944 4231 1581 4125  Q 1219 4019 806 3816  L 922 4441  Q 1309 4594 1662 4672  Q 2016 4750 2316 4750  Q 2928 4750 3301 4425  Q 3675 4100 3675 3572  Q 3675 3216 3497 2892  Q 3319 2569 2950 2253  z " transform="scale(0.015625)" />
     <path id="DejaVuSans-Oblique-30" d="M 2444 4750  Q 3078 4750 3414 4328  Q 3750 3906 3750 3116  Q 3750 2516 3592 1923  Q 3434 1331 3150 863  Q 2859 394 2467 151  Q 2075 -91 1600 -91  Q 988 -91 653 334  Q 319 759 319 1544  Q 319 2138 480 2733  Q 641 3328 928 3794  Q 1216 4263 1602 4506  Q 1988 4750 2444 4750  z M 2406 4250  Q 2169 4250 1955 4123  Q 1741 3997 1569 3750  Q 1281 3338 1111 2720  Q 941 2103 941 1453  Q 941 938 1123 673  Q 1306 409 1663 409  Q 1913 409 2125 536  Q 2338 663 2509 909  Q 2794 1319 2961 1936  Q 3128 2553 3128 3206  Q 3128 3722 2945 3986  Q 2763 4250 2406 4250  z " transform="scale(0.015625)" />
     <path id="DejaVuSans-Oblique-34" d="M 2753 4666  L 3547 4666  L 2950 1625  L 3616 1625  L 3513 1100  L 2847 1100  L 2638 0  L 2009 0  L 2222 1100  L 116 1100  L 238 1709  L 2753 4666  z M 2809 4116  L 728 1625  L 2322 1625  L 2809 4116  z " transform="scale(0.015625)" />
     <path id="DejaVuSans-Oblique-2d" d="M 391 2009  L 2075 2009  L 1978 1497  L 288 1497  L 391 2009  z " transform="scale(0.015625)" />
     <path id="DejaVuSans-Oblique-35" d="M 3719 4666  L 3622 4141  L 1691 4141  L 1466 2988  Q 1609 3034 1757 3056  Q 1906 3078 2059 3078  Q 2706 3078 3081 2731  Q 3456 2384 3456 1791  Q 3456 1375 3264 994  Q 3072 613 2719 325  Q 2469 125 2108 17  Q 1747 -91 1319 -91  Q 1038 -91 744 -41  Q 450 9 128 109  L 244 697  Q 531 556 820 486  Q 1109 416 1403 416  Q 2013 416 2411 781  Q 2809 1147 2809 1697  Q 2809 2103 2548 2328  Q 2288 2553 1819 2553  Q 1572 2553 1305 2495  Q 1038 2438 756 2322  L 1209 4666  L 3719 4666  z " transform="scale(0.015625)" />
     <path id="DejaVuSans-Oblique-29" d="M -397 -844  Q 434 191 840 1120  Q 1247 2050 1247 2913  Q 1247 3406 1130 3892  Q 1013 4378 775 4856  L 1275 4856  Q 1563 4316 1703 3812  Q 1844 3309 1844 2822  Q 1844 1891 1411 973  Q 978 56 116 -844  L -397 -844  z " transform="scale(0.015625)" />
     <path id="DejaVuSans-Oblique-2014" d="M 356 1978  L 6131 1978  L 6044 1528  L 269 1528  L 356 1978  z " transform="scale(0.015625)" />
     <path id="DejaVuSans-Oblique-6c" d="M 1172 4863  L 1747 4863  L 800 0  L 225 0  L 1172 4863  z " transform="scale(0.015625)" />
     <path id="DejaVuSans-Oblique-66" d="M 3059 4863  L 2969 4384  L 2419 4384  Q 2106 4384 1964 4261  Q 1822 4138 1753 3809  L 1691 3500  L 2638 3500  L 2553 3053  L 1606 3053  L 1013 0  L 434 0  L 1031 3053  L 481 3053  L 563 3500  L 1113 3500  L 1159 3744  Q 1278 4363 1576 4613  Q 1875 4863 2516 4863  L 3059 4863  z " transform="scale(0.015625)" />
     <path id="DejaVuSans-Oblique-70" d="M 3175 2156  Q 3175 2616 2975 2859  Q 2775 3103 2400 3103  Q 2144 3103 1911 2972  Q 1678 2841 1497 2591  Q 1319 2344 1212 1994  Q 1106 1644 1106 1300  Q 1106 863 1306 627  Q 1506 391 1875 391  Q 2147 391 2380 519  Q 2613 647 2778 891  Q 2956 1147 3065 1494  Q 3175 1841 3175 2156  z M 1394 2969  Q 1625 3272 1939 3428  Q 2253 3584 2638 3584  Q 3175 3584 3472 3232  Q 3769 2881 3769 2247  Q 3769 1728 3584 1258  Q 3400 788 3053 416  Q 2822 169 2531 39  Q 2241 -91 1919 -91  Q 1547 -91 1294 64  Q 1041 219 916 525  L 556 -1331  L -19 -1331  L 922 3500  L 1497 3500  L 1394 2969  z " transform="scale(0.015625)" />
     <path id="DejaVuSans-Oblique-74" d="M 2706 3500  L 2619 3053  L 1472 3053  L 1100 1153  Q 1081 1047 1072 975  Q 1063 903 1063 863  Q 1063 663 1183 572  Q 1303 481 1569 481  L 2150 481  L 2053 0  L 1503 0  Q 991 0 739 200  Q 488 400 488 806  Q 488 878 497 964  Q 506 1050 525 1153  L 897 3053  L 409 3053  L 500 3500  L 978 3500  L 1172 4494  L 1747 4494  L 1556 3500  L 2706 3500  z " transform="scale(0.015625)" />
     <path id="DejaVuSans-Oblique-64" d="M 2675 525  Q 2444 222 2128 65  Q 1813 -91 1428 -91  Q 903 -91 598 267  Q 294 625 294 1247  Q 294 1766 478 2236  Q 663 2706 1013 3078  Q 1244 3325 1534 3454  Q 1825 3584 2144 3584  Q 2481 3584 2739 3421  Q 2997 3259 3138 2956  L 3513 4863  L 4091 4863  L 3144 0  L 2566 0  L 2675 525  z M 891 1350  Q 891 897 1095 644  Q 1300 391 1663 391  Q 1931 391 2161 520  Q 2391 650 2566 903  Q 2750 1166 2856 1509  Q 2963 1853 2963 2188  Q 2963 2622 2758 2865  Q 2553 3109 2194 3109  Q 1922 3109 1687 2981  Q 1453 2853 1288 2613  Q 1106 2353 998 2009  Q 891 1666 891 1350  z " transform="scale(0.015625)" />
     <path id="DejaVuSans-Oblique-73" d="M 3200 3397  L 3091 2853  Q 2863 2978 2609 3040  Q 2356 3103 2088 3103  Q 1634 3103 1373 2948  Q 1113 2794 1113 2528  Q 1113 2219 1719 2053  Q 1766 2041 1788 2034  L 1972 1978  Q 2547 1819 2739 1644  Q 2931 1469 2931 1166  Q 2931 609 2489 259  Q 2047 -91 1331 -91  Q 1053 -91 747 -37  Q 441 16 72 128  L 184 722  Q 500 559 806 475  Q 1113 391 1394 391  Q 1816 391 2080 572  Q 2344 753 2344 1031  Q 2344 1331 1650 1516  L 1591 1531  L 1394 1581  Q 956 1697 753 1886  Q 550 2075 550 2369  Q 550 2928 970 3256  Q 1391 3584 2113 3584  Q 2397 3584 2667 3537  Q 2938 3491 3200 3397  z " transform="scale(0.015625)" />
     <path id="DejaVuSans-Oblique-67" d="M 3816 3500  L 3219 434  Q 3047 -456 2561 -893  Q 2075 -1331 1253 -1331  Q 950 -1331 690 -1286  Q 431 -1241 206 -1147  L 313 -588  Q 525 -725 762 -790  Q 1000 -856 1269 -856  Q 1816 -856 2167 -557  Q 2519 -259 2631 300  L 2681 563  Q 2441 288 2122 144  Q 1803 0 1434 0  Q 903 0 598 351  Q 294 703 294 1319  Q 294 1803 478 2267  Q 663 2731 997 3091  Q 1219 3328 1514 3456  Q 1809 3584 2131 3584  Q 2484 3584 2746 3420  Q 3009 3256 3138 2956  L 3238 3500  L 3816 3500  z M 2950 2216  Q 2950 2641 2750 2872  Q 2550 3103 2181 3103  Q 1953 3103 1747 3012  Q 1541 2922 1394 2759  Q 1156 2491 1023 2127  Q 891 1763 891 1375  Q 891 944 1092 712  Q 1294 481 1672 481  Q 2219 481 2584 976  Q 2950 1472 2950 2216  z " transform="scale(0.015625)" />
     <path id="DejaVuSans-Oblique-68" d="M 3566 2113  L 3156 0  L 2578 0  L 2988 2091  Q 3016 2238 3031 2350  Q 3047 2463 3047 2528  Q 3047 2791 2881 2937  Q 2716 3084 2419 3084  Q 1956 3084 1617 2771  Q 1278 2459 1178 1941  L 800 0  L 225 0  L 1172 4863  L 1747 4863  L 1375 2950  Q 1594 3244 1934 3414  Q 2275 3584 2650 3584  Q 3113 3584 3367 3334  Q 3622 3084 3622 2631  Q 3622 2519 3608 2391  Q 3594 2263 3566 2113  z " transform="scale(0.015625)" />
     <path id="DejaVuSans-Oblique-3b" d="M 563 794  L 1222 794  L 1113 256  L 409 -744  L 6 -744  L 453 256  L 563 794  z M 1050 3309  L 1709 3309  L 1556 2516  L 897 2516  L 1050 3309  z " transform="scale(0.015625)" />
     <path id="DejaVuSans-Oblique-6d" d="M 5747 2113  L 5338 0  L 4763 0  L 5166 2094  Q 5191 2228 5203 2325  Q 5216 2422 5216 2491  Q 5216 2772 5059 2928  Q 4903 3084 4622 3084  Q 4203 3084 3875 2770  Q 3547 2456 3450 1953  L 3066 0  L 2491 0  L 2900 2094  Q 2925 2209 2937 2307  Q 2950 2406 2950 2484  Q 2950 2769 2794 2926  Q 2638 3084 2363 3084  Q 1938 3084 1609 2770  Q 1281 2456 1184 1953  L 800 0  L 225 0  L 909 3500  L 1484 3500  L 1375 2956  Q 1609 3263 1923 3423  Q 2238 3584 2597 3584  Q 2978 3584 3223 3384  Q 3469 3184 3519 2828  Q 3781 3197 4126 3390  Q 4472 3584 4856 3584  Q 5306 3584 5551 3325  Q 5797 3066 5797 2591  Q 5797 2488 5784 2364  Q 5772 2241 5747 2113  z " transform="scale(0.015625)" />
     <path id="DejaVuSans-Oblique-69" d="M 1172 4863  L 1747 4863  L 1606 4134  L 1031 4134  L 1172 4863  z M 909 3500  L 1484 3500  L 800 0  L 225 0  L 909 3500  z " transform="scale(0.015625)" />
     <path id="DejaVuSans-Oblique-6e" d="M 3566 2113  L 3156 0  L 2578 0  L 2988 2091  Q 3016 2238 3031 2350  Q 3047 2463 3047 2528  Q 3047 2791 2881 2937  Q 2716 3084 2419 3084  Q 1956 3084 1622 2776  Q 1288 2469 1184 1941  L 800 0  L 225 0  L 903 3500  L 1478 3500  L 1363 2950  Q 1603 3253 1940 3418  Q 2278 3584 2650 3584  Q 3113 3584 3367 3334  Q 3622 3084 3622 2631  Q 3622 2519 3608 2391  Q 3594 2263 3566 2113  z " transform="scale(0.015625)" />
     <path id="DejaVuSans-Oblique-79" d="M 1588 -325  Q 1188 -997 936 -1164  Q 684 -1331 294 -1331  L -159 -1331  L -63 -850  L 269 -850  Q 509 -850 678 -719  Q 847 -588 1056 -206  L 1234 128  L 459 3500  L 1069 3500  L 1650 819  L 3256 3500  L 3859 3500  L 1588 -325  z " transform="scale(0.015625)" />
     <path id="DejaVuSans-Oblique-2e" d="M 525 794  L 1184 794  L 1031 0  L 372 0  L 525 794  z " transform="scale(0.015625)" />
    </defs>
    <use ns4:href="#DejaVuSans-Oblique-53" />
    <use ns4:href="#DejaVuSans-Oblique-6f" x="63.476562" />
    <use ns4:href="#DejaVuSans-Oblique-75" x="124.658203" />
    <use ns4:href="#DejaVuSans-Oblique-72" x="188.037109" />
    <use ns4:href="#DejaVuSans-Oblique-63" x="229.150391" />
    <use ns4:href="#DejaVuSans-Oblique-65" x="284.130859" />
    <use ns4:href="#DejaVuSans-Oblique-3a" x="345.654297" />
    <use ns4:href="#DejaVuSans-Oblique-20" x="379.345703" />
    <use ns4:href="#DejaVuSans-Oblique-4e" x="411.132812" />
    <use ns4:href="#DejaVuSans-Oblique-43" x="485.9375" />
    <use ns4:href="#DejaVuSans-Oblique-41" x="555.761719" />
    <use ns4:href="#DejaVuSans-Oblique-45" x="624.169922" />
    <use ns4:href="#DejaVuSans-Oblique-52" x="687.353516" />
    <use ns4:href="#DejaVuSans-Oblique-20" x="756.835938" />
    <use ns4:href="#DejaVuSans-Oblique-49" x="788.623047" />
    <use ns4:href="#DejaVuSans-Oblique-48" x="818.115234" />
    <use ns4:href="#DejaVuSans-Oblique-44" x="893.310547" />
    <use ns4:href="#DejaVuSans-Oblique-53" x="970.3125" />
    <use ns4:href="#DejaVuSans-Oblique-20" x="1033.789062" />
    <use ns4:href="#DejaVuSans-Oblique-57" x="1065.576172" />
    <use ns4:href="#DejaVuSans-Oblique-61" x="1158.953125" />
    <use ns4:href="#DejaVuSans-Oblique-76" x="1220.232422" />
    <use ns4:href="#DejaVuSans-Oblique-65" x="1279.412109" />
    <use ns4:href="#DejaVuSans-Oblique-20" x="1340.935547" />
    <use ns4:href="#DejaVuSans-Oblique-33" x="1372.722656" />
    <use ns4:href="#DejaVuSans-Oblique-20" x="1436.345703" />
    <use ns4:href="#DejaVuSans-Oblique-28" x="1468.132812" />
    <use ns4:href="#DejaVuSans-Oblique-32" x="1507.146484" />
    <use ns4:href="#DejaVuSans-Oblique-30" x="1570.769531" />
    <use ns4:href="#DejaVuSans-Oblique-32" x="1634.392578" />
    <use ns4:href="#DejaVuSans-Oblique-34" x="1698.015625" />
    <use ns4:href="#DejaVuSans-Oblique-2d" x="1761.638672" />
    <use ns4:href="#DejaVuSans-Oblique-32" x="1797.722656" />
    <use ns4:href="#DejaVuSans-Oblique-35" x="1861.345703" />
    <use ns4:href="#DejaVuSans-Oblique-29" x="1924.96875" />
    <use ns4:href="#DejaVuSans-Oblique-20" x="1963.982422" />
    <use ns4:href="#DejaVuSans-Oblique-2014" x="1995.769531" />
    <use ns4:href="#DejaVuSans-Oblique-20" x="2095.769531" />
    <use ns4:href="#DejaVuSans-Oblique-53" x="2127.556641" />
    <use ns4:href="#DejaVuSans-Oblique-65" x="2191.033203" />
    <use ns4:href="#DejaVuSans-Oblique-6c" x="2252.556641" />
    <use ns4:href="#DejaVuSans-Oblique-66" x="2280.339844" />
    <use ns4:href="#DejaVuSans-Oblique-2d" x="2313.794922" />
    <use ns4:href="#DejaVuSans-Oblique-72" x="2349.878906" />
    <use ns4:href="#DejaVuSans-Oblique-65" x="2390.992188" />
    <use ns4:href="#DejaVuSans-Oblique-70" x="2452.515625" />
    <use ns4:href="#DejaVuSans-Oblique-6f" x="2515.992188" />
    <use ns4:href="#DejaVuSans-Oblique-72" x="2577.173828" />
    <use ns4:href="#DejaVuSans-Oblique-74" x="2618.287109" />
    <use ns4:href="#DejaVuSans-Oblique-65" x="2657.496094" />
    <use ns4:href="#DejaVuSans-Oblique-64" x="2719.019531" />
    <use ns4:href="#DejaVuSans-Oblique-20" x="2782.496094" />
    <use ns4:href="#DejaVuSans-Oblique-75" x="2814.283203" />
    <use ns4:href="#DejaVuSans-Oblique-73" x="2877.662109" />
    <use ns4:href="#DejaVuSans-Oblique-61" x="2929.761719" />
    <use ns4:href="#DejaVuSans-Oblique-67" x="2991.041016" />
    <use ns4:href="#DejaVuSans-Oblique-65" x="3054.517578" />
    <use ns4:href="#DejaVuSans-Oblique-20" x="3116.041016" />
    <use ns4:href="#DejaVuSans-Oblique-73" x="3147.828125" />
    <use ns4:href="#DejaVuSans-Oblique-68" x="3199.927734" />
    <use ns4:href="#DejaVuSans-Oblique-61" x="3263.306641" />
    <use ns4:href="#DejaVuSans-Oblique-72" x="3324.585938" />
    <use ns4:href="#DejaVuSans-Oblique-65" x="3365.699219" />
    <use ns4:href="#DejaVuSans-Oblique-73" x="3427.222656" />
    <use ns4:href="#DejaVuSans-Oblique-3b" x="3479.322266" />
    <use ns4:href="#DejaVuSans-Oblique-20" x="3513.013672" />
    <use ns4:href="#DejaVuSans-Oblique-61" x="3544.800781" />
    <use ns4:href="#DejaVuSans-Oblique-63" x="3606.080078" />
    <use ns4:href="#DejaVuSans-Oblique-74" x="3661.060547" />
    <use ns4:href="#DejaVuSans-Oblique-75" x="3700.269531" />
    <use ns4:href="#DejaVuSans-Oblique-61" x="3763.648438" />
    <use ns4:href="#DejaVuSans-Oblique-6c" x="3824.927734" />
    <use ns4:href="#DejaVuSans-Oblique-20" x="3852.710938" />
    <use ns4:href="#DejaVuSans-Oblique-6d" x="3884.498047" />
    <use ns4:href="#DejaVuSans-Oblique-69" x="3981.910156" />
    <use ns4:href="#DejaVuSans-Oblique-6e" x="4009.693359" />
    <use ns4:href="#DejaVuSans-Oblique-75" x="4073.072266" />
    <use ns4:href="#DejaVuSans-Oblique-74" x="4136.451172" />
    <use ns4:href="#DejaVuSans-Oblique-65" x="4175.660156" />
    <use ns4:href="#DejaVuSans-Oblique-73" x="4237.183594" />
    <use ns4:href="#DejaVuSans-Oblique-20" x="4289.283203" />
    <use ns4:href="#DejaVuSans-Oblique-6d" x="4321.070312" />
    <use ns4:href="#DejaVuSans-Oblique-61" x="4418.482422" />
    <use ns4:href="#DejaVuSans-Oblique-79" x="4479.761719" />
    <use ns4:href="#DejaVuSans-Oblique-20" x="4538.941406" />
    <use ns4:href="#DejaVuSans-Oblique-64" x="4570.728516" />
    <use ns4:href="#DejaVuSans-Oblique-69" x="4634.205078" />
    <use ns4:href="#DejaVuSans-Oblique-66" x="4661.988281" />
    <use ns4:href="#DejaVuSans-Oblique-66" x="4697.193359" />
    <use ns4:href="#DejaVuSans-Oblique-65" x="4732.398438" />
    <use ns4:href="#DejaVuSans-Oblique-72" x="4793.921875" />
    <use ns4:href="#DejaVuSans-Oblique-2e" x="4825.910156" />
    <use ns4:href="#DejaVuSans-Oblique-20" x="4857.697266" />
    <use ns4:href="#DejaVuSans-Oblique-49" x="4889.484375" />
    <use ns4:href="#DejaVuSans-Oblique-6c" x="4918.976562" />
    <use ns4:href="#DejaVuSans-Oblique-6c" x="4946.759766" />
    <use ns4:href="#DejaVuSans-Oblique-75" x="4974.542969" />
    <use ns4:href="#DejaVuSans-Oblique-73" x="5037.921875" />
    <use ns4:href="#DejaVuSans-Oblique-74" x="5090.021484" />
    <use ns4:href="#DejaVuSans-Oblique-72" x="5129.230469" />
    <use ns4:href="#DejaVuSans-Oblique-61" x="5170.34375" />
    <use ns4:href="#DejaVuSans-Oblique-74" x="5231.623047" />
    <use ns4:href="#DejaVuSans-Oblique-69" x="5270.832031" />
    <use ns4:href="#DejaVuSans-Oblique-76" x="5298.615234" />
    <use ns4:href="#DejaVuSans-Oblique-65" x="5357.794922" />
    <use ns4:href="#DejaVuSans-Oblique-20" x="5419.318359" />
    <use ns4:href="#DejaVuSans-Oblique-61" x="5451.105469" />
    <use ns4:href="#DejaVuSans-Oblique-6c" x="5512.384766" />
    <use ns4:href="#DejaVuSans-Oblique-6c" x="5540.167969" />
    <use ns4:href="#DejaVuSans-Oblique-6f" x="5567.951172" />
    <use ns4:href="#DejaVuSans-Oblique-63" x="5629.132812" />
    <use ns4:href="#DejaVuSans-Oblique-61" x="5684.113281" />
    <use ns4:href="#DejaVuSans-Oblique-74" x="5745.392578" />
    <use ns4:href="#DejaVuSans-Oblique-69" x="5784.601562" />
    <use ns4:href="#DejaVuSans-Oblique-6f" x="5812.384766" />
    <use ns4:href="#DejaVuSans-Oblique-6e" x="5873.566406" />
    <use ns4:href="#DejaVuSans-Oblique-2e" x="5936.945312" />
   </g>
  </g>
 </g>
</svg>